<?xml version="1.0" standalone="no"?>
<!DOCTYPE svg PUBLIC "-//W3C//DTD SVG 1.1//EN" "http://www.w3.org/Graphics/SVG/1.1/DTD/svg11.dtd" >
<svg xmlns="http://www.w3.org/2000/svg" xmlns:xlink="http://www.w3.org/1999/xlink" version="1.1">
<metadata>
Created by FontForge 20161003 at Sat Oct 14 00:12:12 2017
 By www-data
Generated in 2013 by FontLab Studio. Copyright info pending.
</metadata>
<defs>
<font id="CabritoNorBol" horiz-adv-x="334" >
  <font-face 
    font-family="CabritoNorBol"
    font-weight="800"
    font-stretch="normal"
    units-per-em="1000"
    panose-1="0 0 0 0 0 0 0 0 0 0"
    ascent="765"
    descent="-235"
    x-height="525"
    cap-height="722"
    bbox="-111 -316.882 1431 987.24"
    underline-thickness="50"
    underline-position="-150"
    unicode-range="U+0020-FB04"
  />
<missing-glyph horiz-adv-x="278" 
 />
    <glyph glyph-name="ff" unicode="ff" horiz-adv-x="788" 
d="M450 430h-202v-283q0 -32 10 -41t39 -9h14q13 0 17 -3.5t4 -13.5v-59q0 -13 -4 -17t-17 -4h-262q-12 0 -16.5 4t-4.5 17v59q0 10 4 13.5t17 3.5h14q27 0 37.5 7.5t11.5 32.5v293h-59q-18 0 -23.5 4t-5.5 19v44q0 28 21 28h67v12q0 97 52 146.5t167 49.5q97 0 145 -45
q53 95 174 95q77 0 121 -36t44 -105q0 -35 -23.5 -57.5t-55.5 -22.5q-31 0 -51.5 20.5t-20.5 54.5q0 32 19 54q-5 1 -17 1q-41 0 -60.5 -25t-19.5 -81v-61h154q17 0 22 -3.5t5 -15.5v-54q0 -22 -26 -22h-155v-293q1 -25 11.5 -32.5t36.5 -7.5h14q14 0 18 -3.5t4 -13.5v-59
q0 -13 -4.5 -17t-17.5 -4h-262q-12 0 -16 4t-4 17v59q0 10 3.5 13.5t16.5 3.5h15q29 0 39 9t10 41v283zM450 525v45q-14 72 -103 72q-51 0 -75 -23t-24 -75v-19h202z" />
    <glyph glyph-name="fi" unicode="fi" horiz-adv-x="644" 
d="M415 637q0 18 6 33q-26 6 -65 6q-56 0 -81.5 -26.5t-25.5 -87.5v-45h111q2 0 5 0.5t4 0.5l167 9q14 0 19 -6.5t5 -21.5v-358q0 -46 30 -46q11 0 19.5 2t12.5 2q5 1 7.5 -1t2.5 -9v-60q0 -19 -14 -24q-24 -11 -81 -11q-48 0 -80.5 26t-32.5 89v278q-2 19 -12.5 26t-44.5 7
q-6 0 -10 2h-108v-275q0 -32 10 -41t39 -9h14q13 0 17 -3.5t4 -13.5v-59q0 -13 -4 -17t-17 -4h-262q-12 0 -16.5 4t-4.5 17v59q0 10 4 13.5t17 3.5h14q29 0 39 9t10 41v275h-59q-18 0 -23.5 4t-5.5 20v43q0 28 21 28h67v62q0 83 61.5 143.5t183.5 60.5q98 0 153 -35.5
t55 -105.5q0 -35 -23.5 -57.5t-55.5 -22.5q-31 0 -51.5 20.5t-20.5 54.5z" />
    <glyph glyph-name="fl" unicode="fl" horiz-adv-x="656" 
d="M435 582q0 57 -24 79.5t-68 22.5q-48 0 -71 -23t-23 -76v-68h103q17 0 22 -3t5 -16v-54q0 -22 -26 -22h-104v-275q0 -32 10 -41t39 -9h14q13 0 17 -3.5t4 -13.5v-59q0 -13 -4 -17t-17 -4h-262q-12 0 -16.5 4t-4.5 17v59q0 10 4 13.5t17 3.5h14q27 0 37.5 7.5t11.5 32.5
v285h-59q-18 0 -23.5 4t-5.5 20v43q0 28 21 28h67v63q0 101 53 152t169 51q121 0 178.5 -48t57.5 -153v-441q0 -46 29 -46q10 0 19 2t14 2q5 1 7.5 -1t2.5 -9v-60q0 -19 -14 -24q-25 -11 -81 -11q-48 0 -80.5 26t-32.5 89v473z" />
    <glyph glyph-name="ffi" unicode="ffi" horiz-adv-x="984" 
d="M450 427h-202v-280q0 -32 10 -41t39 -9h14q13 0 17 -3.5t4 -13.5v-59q0 -13 -4 -17t-17 -4h-262q-12 0 -16.5 4t-4.5 17v59q0 10 4 13.5t17 3.5h14q29 0 39 9t10 41v280h-59q-18 0 -23.5 4t-5.5 20v46q0 28 21 28h67v12q0 97 52 146.5t167 49.5q98 0 149 -48
q61 98 214 98q98 0 153.5 -35.5t55.5 -105.5q0 -35 -23.5 -57.5t-56.5 -22.5q-31 0 -51.5 20.5t-20.5 54.5q0 28 16 50q-25 5 -59 5q-64 0 -93 -26.5t-29 -87.5v-53h124l167 9q13 0 18 -6.5t5 -21.5v-365q0 -46 30 -46q10 0 19 2t14 2q5 1 7.5 -1t2.5 -9v-60q0 -19 -15 -24
q-24 -11 -80 -11q-48 0 -81 26t-33 89v277q0 23 -8 31.5t-38 9.5h-132v-290q1 -25 11.5 -32.5t36.5 -7.5h14q14 0 18 -3.5t4 -13.5v-59q0 -13 -4.5 -17t-17.5 -4h-262q-12 0 -16 4t-4 17v59q0 10 3.5 13.5t16.5 3.5h15q29 0 39 9t10 41v280zM450 525v45q-14 72 -103 72
q-51 0 -75 -23t-24 -75v-19h202z" />
    <glyph glyph-name="ffl" unicode="ffl" horiz-adv-x="1023" 
d="M450 427h-202v-280q0 -32 10 -41t39 -9h14q13 0 17 -3.5t4 -13.5v-59q0 -13 -4 -17t-17 -4h-262q-12 0 -16.5 4t-4.5 17v59q0 10 4 13.5t17 3.5h14q29 0 39 9t10 41v280h-59q-18 0 -23.5 4t-5.5 20v46q0 28 21 28h67v12q0 97 52 146.5t167 49.5q99 0 145 -37
q51 85 201 85q131 0 190.5 -47.5t59.5 -151.5v-404h-1v-31q0 -32 10.5 -41t39.5 -9h14q13 0 16.5 -3.5t3.5 -13.5v-59q0 -13 -4 -17t-16 -4h-262q-13 0 -17.5 4t-4.5 17v59q0 9 4.5 13t17.5 4h14q29 0 39 9t10 41v419q0 65 -26.5 90.5t-80.5 25.5q-50 0 -74 -26.5t-24 -86.5
v-44h103q16 0 21 -3.5t5 -15.5v-57q0 -22 -25 -22h-104v-280q0 -32 10 -41t38 -9h14q14 0 18 -3.5t4 -13.5v-59q0 -13 -4.5 -17t-17.5 -4h-262q-12 0 -16 4t-4 17v59q0 10 3.5 13.5t16.5 3.5h15q27 0 37.5 7.5t11.5 32.5v290zM450 525v45q-14 72 -103 72q-51 0 -75 -23
t-24 -75v-19h202z" />
    <glyph glyph-name="f_f_j" unicode="ffj" horiz-adv-x="959" 
d="M558 -131q0 35 22 58t56 23q32 0 53 -21t21 -55q0 -26 -14 -46q68 8 68 95v471q-1 17 -10 24.5t-36 8.5h-132v-290q1 -25 11.5 -32.5t36.5 -7.5h14q14 0 18 -3.5t4 -13.5v-59q0 -13 -4.5 -17t-17.5 -4h-262q-12 0 -16 4t-4 17v59q0 10 3.5 13.5t16.5 3.5h15
q27 0 37.5 7.5t11.5 32.5v290h-202v-280q0 -32 10 -41t39 -9h14q13 0 17 -3.5t4 -13.5v-59q0 -13 -4 -17t-17 -4h-262q-12 0 -16.5 4t-4.5 17v59q0 10 4 13.5t17 3.5h14q27 0 37.5 7.5t11.5 32.5v290h-59q-18 0 -23.5 4t-5.5 20v46q0 28 21 28h67v12q0 97 52 146.5t167 49.5
q104 0 152 -43q63 93 211 93q98 0 153.5 -35.5t55.5 -105.5q0 -35 -23.5 -57.5t-56.5 -22.5q-31 0 -51.5 20.5t-20.5 54.5q0 20 7 34q-27 5 -58 5q-60 0 -87 -22.5t-27 -75.5v-53h124l167 9q13 0 18 -6.5t5 -21.5v-553q0 -99 -48 -154.5t-146 -55.5q-73 0 -110.5 36
t-37.5 90zM450 525v45q-14 72 -103 72q-51 0 -75 -23t-24 -75v-19h202z" />
    <glyph glyph-name="f_j" unicode="fj" horiz-adv-x="628" 
d="M46 517h67v62q0 83 61.5 143.5t183.5 60.5q98 0 153 -35.5t55 -105.5q0 -35 -23.5 -57.5t-55.5 -22.5q-31 0 -51.5 20.5t-20.5 54.5q0 17 6 32q-30 7 -65 7q-49 0 -78 -27.5t-29 -86.5v-45h111q2 0 5 0.5t4 0.5l167 9q14 0 19 -6.5t5 -21.5v-81h1v-465q0 -99 -48 -154.5
t-147 -55.5q-72 0 -109.5 36t-37.5 90h1q0 35 21.5 58t55.5 23q32 0 53 -20.5t21 -55.5q0 -25 -13 -46q67 8 67 95v428h-1v28q0 25 -10 33t-47 8q-6 0 -10 2h-108v-275q0 -32 10 -41t39 -9h14q13 0 17 -3.5t4 -13.5v-59q0 -13 -4 -17t-17 -4h-262q-12 0 -16.5 4t-4.5 17v59
q0 10 4 13.5t17 3.5h14q27 0 37.5 7.5t11.5 32.5v285h-59q-18 0 -23.5 4t-5.5 20v43q0 28 21 28z" />
    <glyph glyph-name=".notdef" horiz-adv-x="278" 
 />
    <glyph glyph-name=".null" horiz-adv-x="0" 
 />
    <glyph glyph-name="nonmarkingreturn" horiz-adv-x="333" 
 />
    <glyph glyph-name="space" unicode=" " horiz-adv-x="219" 
 />
    <glyph glyph-name="exclam" unicode="!" horiz-adv-x="295" 
d="M239 650q0 -36 -17 -97t-34 -145.5t-17 -177.5q0 -10 -4 -14t-20 -4t-20.5 4t-4.5 14q0 93 -16.5 177.5t-33.5 145.5t-17 97q0 52 21.5 75.5t70.5 23.5t70.5 -23.5t21.5 -75.5zM63 74q0 40 26.5 66.5t62.5 26.5q34 0 58 -23.5t24 -62.5q0 -40 -26.5 -65.5t-63.5 -25.5
q-34 0 -57.5 23t-23.5 61z" />
    <glyph glyph-name="quotedbl" unicode="&#x22;" horiz-adv-x="430" 
d="M253 496l-15 210q-1 15 14.5 21t59.5 6t60 -6t14 -21l-14 -210q-2 -13 -14 -17.5t-46 -4.5q-35 0 -46.5 4.5t-12.5 17.5zM58 496l-15 210q-1 15 14.5 21t59.5 6t60 -6t14 -21l-15 -210q-1 -13 -12.5 -17.5t-46.5 -4.5t-46.5 4.5t-12.5 17.5z" />
    <glyph glyph-name="numbersign" unicode="#" horiz-adv-x="893" 
d="M395 51l58 140h-152l-71 -171q-9 -20 -21.5 -25.5t-51.5 -5.5q-68 0 -68 36q0 11 6 26l58 140h-84q-39 0 -39 54q0 27 15.5 34t54.5 7h93l64 153h-98q-39 0 -39 54q0 27 15.5 34t54.5 7h107l68 161q9 22 24 28.5t62 6.5q33 0 45 -9t11 -30q-1 -10 -7 -27l-55 -130h152
l68 161q9 22 24 28.5t62 6.5q33 0 45 -9t11 -30q-1 -10 -7 -27l-55 -130h83q35 0 35 -55q0 -20 -8.5 -30t-31.5 -10h-118l-64 -153h97q35 0 35 -55q0 -20 -8.5 -30t-31.5 -10h-132l-71 -171q-9 -20 -21.5 -25.5t-51.5 -5.5q-68 0 -68 36q0 11 6 26zM405 439l-64 -153h152
l64 153h-152z" />
    <glyph glyph-name="dollar" unicode="$" horiz-adv-x="637" 
d="M34 159q0 40 26.5 67t62.5 27q34 0 59 -24.5t25 -63.5q0 -33 -20 -60q44 -18 121 -18q146 0 146 99q0 39 -22 66t-57 42t-77.5 26.5t-85.5 26t-78 35.5t-57 59.5t-22 92.5q0 84 51 132t146 61v67q0 24 26 26h86q24 0 24 -25v-66q96 -10 146.5 -52.5t52.5 -110.5v-4
q0 -41 -27 -66.5t-64 -25.5q-35 0 -59 24t-24 63q0 30 18 55q-44 20 -106 20q-126 0 -126 -76q0 -28 17 -48t45 -31.5t64 -23.5t73.5 -22t73.5 -29t64 -43.5t45 -65.5t17 -94q0 -94 -58.5 -145t-157.5 -63v-78q0 -25 -26 -26h-85q-24 0 -24 25v78q-200 18 -212 154
q-1 5 -1 15z" />
    <glyph glyph-name="percent" unicode="%" horiz-adv-x="999" 
d="M28 529q0 92 50.5 150t155.5 58t156 -58.5t51 -149.5q0 -92 -51 -150.5t-156 -58.5t-155.5 58.5t-50.5 150.5zM234 658q-38 0 -58 -34.5t-20 -95.5q0 -129 78 -129q79 0 79 129q0 61 -20 95.5t-59 34.5zM558 200q0 92 50.5 150t155.5 58t156 -58.5t51 -149.5
q0 -92 -51 -150.5t-156 -58.5t-155.5 58.5t-50.5 150.5zM764 329q-38 0 -58 -34.5t-20 -95.5t20 -95t58 -34q79 0 79 129q0 61 -20 95.5t-59 34.5zM243 83l447 645q14 20 33 19q19 0 37.5 -12t18.5 -34q3 -15 -12 -35l-446 -644q-16 -22 -36 -21q-19 1 -36 14.5t-17 37.5
q-1 13 11 30z" />
    <glyph glyph-name="ampersand" unicode="&#x26;" horiz-adv-x="748" 
d="M366 561q0 30 16 52q-31 15 -71 15q-98 0 -98 -93q0 -51 27.5 -76.5t75.5 -25.5h367q23 0 30.5 -6t8.5 -34l6 -136q1 -13 -1 -16.5t-14 -3.5h-65q-11 0 -15.5 4t-6.5 15l-3 27q-5 28 -18 34t-63 6h-5v-189q1 -24 10.5 -31t36.5 -7h7q13 0 16.5 -3.5t3.5 -12.5v-60
q0 -13 -4 -16.5t-16 -3.5h-287q-127 0 -199 49t-72 155q0 83 43 127t112 51q-43 4 -80.5 43.5t-37.5 115.5q0 90 61 140.5t173 50.5q105 0 169 -45t66 -120v-4q0 -40 -26.5 -64t-63.5 -24q-35 0 -59 23.5t-24 62.5zM328 113h65v210h-78q-51 0 -86.5 -27t-35.5 -86
q0 -53 33.5 -75t101.5 -22z" />
    <glyph glyph-name="quotesingle" unicode="'" horiz-adv-x="234" 
d="M58 496l-15 210q-1 15 14.5 21t59.5 6t60 -6t14 -21l-15 -210q-1 -13 -12.5 -17.5t-46.5 -4.5t-46.5 4.5t-12.5 17.5z" />
    <glyph glyph-name="parenleft" unicode="(" horiz-adv-x="348" 
d="M306 -105q11 -5 14.5 -4t9.5 11q11 15 1 27q-166 163 -169 379h-135q1 -128 71.5 -235t207.5 -178zM306 721q11 5 14.5 4t9.5 -11q11 -15 1 -27q-166 -163 -169 -379h-135q1 128 71.5 235t207.5 178z" />
    <glyph glyph-name="parenright" unicode=")" horiz-adv-x="348" 
d="M42 -105q-11 -5 -15 -4t-10 11q-10 16 -1 27q168 163 169 379h136q-1 -128 -71.5 -235t-207.5 -178zM42 721q137 -71 207.5 -178t71.5 -235h-136q-1 216 -169 379q-9 11 1 27q6 10 10 11t15 -4z" />
    <glyph glyph-name="asterisk" unicode="*" horiz-adv-x="423" 
d="M231 546l-2 -1q21 -12 63 -18t61 -19q17 -11 22.5 -29.5t-5.5 -37.5q-15 -22 -38 -22q-16 0 -29 9q-20 13 -42 49.5t-42 49.5q3 -22 20 -59.5t17 -61.5q0 -20 -13 -35t-35 -15q-21 0 -34 14t-13 35q0 24 17.5 62t19.5 59q-15 -13 -38 -46.5t-44 -45.5q-14 -8 -28 -8
q-26 0 -39 22q-11 19 -6 37t23 29q20 12 62 16.5t62 15.5q-20 12 -62.5 17t-61.5 18q-18 11 -23 29.5t7 37.5q14 21 38 21q16 0 29 -9q19 -13 41.5 -47t40.5 -48q-2 22 -20 60.5t-18 62.5q0 21 13 35t34 14q22 0 34.5 -14.5t12.5 -35.5q0 -24 -17 -62t-19 -62l1 1
q20 13 43.5 48.5t44.5 48.5q14 8 28 8q25 0 39 -23q11 -19 5 -37t-24 -29q-20 -12 -62 -17.5t-63 -16.5z" />
    <glyph glyph-name="plus" unicode="+" horiz-adv-x="483" 
d="M288 499v-115h125q38 0 38 -54q0 -21 -9 -31t-33 -10h-121v-127q0 -39 -54 -39q-27 0 -34.5 16t-7.5 54v96h-120q-39 0 -39 54q0 27 15.5 34t54.5 7h89v119q0 38 55 38q21 0 31 -9t10 -33z" />
    <glyph glyph-name="comma" unicode="," horiz-adv-x="261" 
d="M44 74q0 41 24 67t65 26q38 0 60.5 -26t22.5 -73q0 -104 -125 -215q-8 -8 -12.5 -8.5t-14.5 7.5l-13 13q-7 7 -6.5 11.5t8.5 13.5q46 48 60 100q-29 2 -49 25t-20 59z" />
    <glyph glyph-name="hyphen" unicode="-" horiz-adv-x="423" 
d="M72 364h281q9 0 13 -3t5 -6.5t1 -11.5v-55q0 -13 -4 -17t-16 -4h-280q-12 0 -16.5 4t-4.5 17v55q0 12 4 16.5t17 4.5z" />
    <glyph glyph-name="period" unicode="." horiz-adv-x="249" 
d="M38 74q0 40 27 66.5t62 26.5q34 0 58.5 -23.5t24.5 -62.5q0 -40 -26.5 -65.5t-63.5 -25.5q-35 0 -58.5 23.5t-23.5 60.5z" />
    <glyph glyph-name="slash" unicode="/" horiz-adv-x="502" 
d="M28 12l310 739q7 19 21 16l107 -21q10 -2 11.5 -7t-3.5 -15l-310 -740q-5 -10 -9.5 -13t-13.5 -1l-104 21q-11 2 -12.5 5t3.5 16z" />
    <glyph glyph-name="zero" unicode="0" horiz-adv-x="688" 
d="M344 -13q-148 0 -229 106t-81 272q0 165 81 268.5t230 103.5q150 0 229 -103t79 -268q0 -168 -80.5 -273.5t-228.5 -105.5zM501 377q0 131 -40 198t-116 67t-117.5 -68t-41.5 -198q0 -146 41 -220t118 -74q156 0 156 295z" />
    <glyph glyph-name="one" unicode="1" horiz-adv-x="430" 
d="M298 147q0 -34 13 -42t73 -8h12q13 0 17 -4t4 -14v-57q0 -14 -4.5 -18t-16.5 -4h-340q-12 0 -16 4t-4 18v57q0 10 4 14t16 4h12q60 0 73.5 8.5t13.5 41.5v418q0 15 -4 19.5t-20 0.5l-73 -19q-20 -5 -20 14v69q0 10 4 14t17 8l169 49q27 7 47 7q13 0 18 -6.5t5 -21.5v-552
z" />
    <glyph glyph-name="two" unicode="2" horiz-adv-x="597" 
d="M36 558q0 76 66.5 124.5t183.5 48.5q129 0 191.5 -54t62.5 -143q0 -60 -33.5 -117t-101.5 -125l-180 -181h114q65 0 83.5 8.5t29.5 45.5l6 37q5 20 25 20h60q12 0 15 -4.5t1 -17.5l-16 -159q-3 -28 -10.5 -34.5t-30.5 -6.5h-446q-12 0 -16.5 5t-4.5 20v38q0 30 36 66
l243 240q74 74 74 156q0 102 -115 102q-42 0 -81 -13q17 -26 17 -54q0 -40 -26.5 -64t-63.5 -24q-35 0 -59 23.5t-24 62.5z" />
    <glyph glyph-name="three" unicode="3" horiz-adv-x="584" 
d="M37 563q0 77 68.5 123t182.5 46q116 0 179 -50.5t63 -137.5q0 -79 -44 -118t-98 -44q73 -7 118 -51.5t45 -128.5q0 -108 -76 -161.5t-211 -53.5q-62 0 -124.5 9.5t-84.5 19.5q-13 5 -13 23v73q0 17 12 17q4 0 7.5 -1t9.5 -3t11 -3q83 -23 158 -23q151 0 151 111
q0 113 -130 113h-35q-12 0 -15.5 3t-3.5 16v76q0 10 4 12.5t15 2.5h34q136 0 136 103q0 92 -114 92q-44 0 -84 -16q12 -20 12 -47q0 -40 -26 -64t-64 -24q-35 0 -59 23.5t-24 62.5z" />
    <glyph glyph-name="four" unicode="4" horiz-adv-x="586" 
d="M249 0q-11 0 -15.5 4t-4.5 17v59q0 10 4 13.5t16 3.5h28q26 0 36.5 9t11.5 34v13h-285q-18 0 -23.5 4t-5.5 20v43q0 17 5 23l334 459q16 20 33 20h112q34 0 7 -36l-321 -438h144v110q0 15 15 15h116q14 0 14 -14v-111h84q17 0 21.5 -3t4.5 -16v-54q0 -22 -25 -22h-85v-4
q0 -33 10 -42.5t38 -9.5h13q13 0 16.5 -3.5t3.5 -13.5v-59q0 -13 -4 -17t-16 -4h-282z" />
    <glyph glyph-name="five" unicode="5" horiz-adv-x="572" 
d="M332 611h-124l-21 -170q48 6 99 6q54 0 96 -9.5t79 -32t57 -66t20 -106.5q0 -246 -303 -246q-54 0 -111.5 6.5t-78.5 14.5q-12 4 -14.5 8.5t-2.5 14.5v80q0 18 12 18q2 0 23 -5.5t56.5 -10.5t78.5 -5q95 0 142 27.5t47 91.5q0 65 -42 93.5t-124 28.5q-68 0 -116 -6
q-3 0 -12.5 -0.5t-13.5 -0.5q-12 0 -16.5 7.5t-0.5 29.5l44 326q3 17 22 17h327q28 0 36 -7t9 -39l6 -133q1 -23 -16 -23h-53q-19 0 -23 22l-4 22q-5 33 -18.5 40t-59.5 7z" />
    <glyph glyph-name="six" unicode="6" horiz-adv-x="602" 
d="M309 -11q-151 0 -211.5 85t-60.5 255q0 207 85 305.5t255 98.5q53 0 130 -14q12 -3 14 -6t2 -15v-81q0 -10 -5.5 -12.5t-19.5 -0.5q-57 9 -99 9q-113 0 -161 -58.5t-58 -199.5q37 116 167 116q106 0 168 -60t62 -177q0 -245 -268 -245zM311 93q52 0 84 34t32 100
q0 62 -30.5 96.5t-84.5 34.5t-85 -35.5t-31 -97.5t31 -97t84 -35z" />
    <glyph glyph-name="seven" unicode="7" horiz-adv-x="537" 
d="M73 722h442q12 0 16 -4t4 -16v-29q0 -43 -33 -112l-255 -540q-9 -21 -31 -21h-114q-30 0 -19 21l290 590h-137q-63 0 -82 -7t-23 -36l-5 -38q-4 -20 -22 -20h-65q-12 0 -14 4t-1 18l6 147q1 30 8.5 36.5t34.5 6.5z" />
    <glyph glyph-name="eight" unicode="8" horiz-adv-x="636" 
d="M318 732q111 0 174 -49t63 -141q0 -99 -74 -144q123 -54 123 -190q0 -76 -39.5 -126.5t-102 -72.5t-144.5 -22t-144.5 22t-102 72.5t-39.5 126.5q0 136 122 190q-73 46 -73 144q0 92 63 141t174 49zM184 209q0 -58 38 -88t96 -30t96 30t38 88q0 51 -31.5 87.5t-95.5 38.5
h-7q-68 0 -101 -36.5t-33 -89.5zM318 636q-42 0 -68.5 -24.5t-26.5 -70.5t26.5 -71t68.5 -25q41 0 68 24.5t27 70.5t-26.5 71t-68.5 25z" />
    <glyph glyph-name="nine" unicode="9" horiz-adv-x="608" 
d="M296 733q136 0 205 -78.5t69 -260.5q0 -208 -84 -306.5t-253 -98.5q-86 0 -147 17q-10 2 -10 15v87q0 16 23 12q7 -1 26 -4t38.5 -5t42.5 -2q115 0 163.5 56t57.5 192q-40 -106 -173 -106q-103 0 -163 60.5t-60 176.5q0 123 69 184t196 61zM297 621q-54 0 -85 -33
t-31 -93q0 -61 31.5 -96t84.5 -35t84 35t31 94q0 62 -31 95t-84 33z" />
    <glyph glyph-name="colon" unicode=":" horiz-adv-x="266" 
d="M47 74q0 40 26.5 66.5t62.5 26.5q34 0 58.5 -23.5t24.5 -62.5q0 -40 -26.5 -65.5t-63.5 -25.5q-35 0 -58.5 23.5t-23.5 60.5zM47 431q0 40 27 67t62 27q34 0 58.5 -24t24.5 -63q0 -40 -26.5 -65.5t-63.5 -25.5q-34 0 -58 23.5t-24 60.5z" />
    <glyph glyph-name="semicolon" unicode=";" horiz-adv-x="273" 
d="M51 74q0 40 26.5 66.5t62.5 26.5q34 0 58.5 -23.5t24.5 -62.5q0 -122 -152 -248q-6 -6 -10 -2l-30 26q-5 6 3 14q72 61 93 119q-32 2 -54 25t-22 59zM51 431q0 40 27 67t62 27q34 0 58.5 -24t24.5 -63q0 -40 -26.5 -65.5t-63.5 -25.5q-34 0 -58 23.5t-24 60.5z" />
    <glyph glyph-name="less" unicode="&#x3c;" horiz-adv-x="583" 
d="M203 279l282 -113q36 -14 44 -27.5t7 -55.5q-1 -24 -6.5 -35.5t-21.5 -11.5q-14 0 -33 8l-399 162q-29 11 -37.5 25t-8.5 48h173zM485 392l-282 -113h-173q0 34 8.5 48t37.5 25l399 162q19 8 33 8q16 0 21.5 -11.5t6.5 -35.5q1 -42 -7 -55.5t-44 -27.5z" />
    <glyph glyph-name="equal" unicode="=" horiz-adv-x="522" 
d="M429 360h-341q-37 0 -37 54q0 27 15.5 34t52.5 7h314q36 0 36 -54q0 -21 -8.5 -31t-31.5 -10zM429 175h-341q-37 0 -37 54q0 27 15.5 34t52.5 7h314q36 0 36 -54q0 -21 -8.5 -31t-31.5 -10z" />
    <glyph glyph-name="greater" unicode="&#x3e;" horiz-adv-x="583" 
d="M380 279l-283 -113q-35 -14 -43 -27.5t-7 -55.5q1 -24 6.5 -35.5t21.5 -11.5q14 0 33 8l399 162q29 11 37.5 25t8.5 48h-173zM380 279l-283 113q-35 14 -43 27.5t-7 55.5q1 24 6.5 35.5t21.5 11.5q14 0 33 -8l399 -162q29 -11 37.5 -25t8.5 -48h-173z" />
    <glyph glyph-name="question" unicode="?" horiz-adv-x="550" 
d="M369 529q0 42 -27 70t-79 28q-43 0 -74 -18q15 -23 15 -51q0 -40 -26.5 -64t-64.5 -24q-35 0 -59 23.5t-24 62.5q0 67 60.5 121t179.5 54q117 0 183.5 -56.5t66.5 -142.5q0 -48 -21 -88.5t-50.5 -67t-59.5 -49.5t-51 -48t-21 -51v-10q0 -22 -31 -22h-76q-29 0 -29 33
q0 34 19.5 64.5t47 55t55 49.5t47 59t19.5 72zM161 74q0 39 26.5 64.5t62.5 25.5q35 0 60 -24.5t25 -63.5q0 -40 -26.5 -64t-64.5 -24q-35 0 -59 23.5t-24 62.5z" />
    <glyph glyph-name="at" unicode="@" horiz-adv-x="881" 
d="M843 403q0 -114 -64 -192t-152 -78t-100 89q-52 -89 -138 -89q-61 0 -106 43t-45 123q0 102 71.5 179.5t189.5 77.5q91 0 132 -38t41 -99q0 -21 -2 -31q-3 -20 -30 -135q-9 -43 19 -43q35 0 62 59t27 128q0 117 -78.5 183t-189.5 66q-144 0 -229.5 -90t-85.5 -221
q0 -133 84 -211.5t218 -78.5q125 0 222 44q23 11 27 6q3 -3 3 -11v-36q0 -15 -10 -23q-31 -21 -104 -36.5t-149 -15.5q-183 0 -300 101t-117 266t120 275t314 110q159 0 264.5 -87.5t105.5 -234.5zM412 206q56 0 101 60.5t45 138.5q0 76 -60 76q-62 0 -106 -61t-44 -132
q0 -82 64 -82z" />
    <glyph glyph-name="A" unicode="A" horiz-adv-x="744" 
d="M512 150l-27 75h-260l-28 -83q-8 -25 0.5 -34.5t32.5 -12.5l10 -1q22 -2 22 -22v-51q0 -13 -4.5 -17t-17.5 -4h-224q-12 0 -16.5 4t-4.5 17v52q0 22 21 24l27 1q15 1 23.5 10t19.5 41l196 560q4 10 8.5 12.5t18.5 2.5h124q18 0 24 -14l201 -554q15 -39 24 -48t34 -11h16
q14 -1 18 -5.5t4 -14.5v-56q0 -13 -4.5 -17t-17.5 -4h-259q-14 0 -18 4t-4 17v51q0 10 4 14.5t18 6.5h9q20 3 28.5 8.5t8.5 17.5q0 13 -7 31zM354 600l-96 -280h194z" />
    <glyph glyph-name="B" unicode="B" horiz-adv-x="689" 
d="M122 575q0 25 -7.5 36t-26.5 13q-9 1 -30 1q-19 0 -19 20v56q0 13 4.5 17t17.5 4h275q143 0 214 -40.5t71 -137.5q0 -72 -39 -111.5t-98 -46.5v-1q81 -8 128 -54.5t47 -123.5q0 -53 -16 -91t-42.5 -60t-70 -35t-88 -17t-106.5 -4h-276q-12 0 -16.5 4.5t-4.5 16.5v52
q0 24 18 24q40 0 52.5 10t12.5 42v426zM266 330v-233h91q66 0 105.5 22.5t39.5 86.5q0 72 -37.5 98t-117.5 26h-81zM266 625v-190h85q63 0 90 23t27 78q0 51 -29.5 70t-84.5 19h-88z" />
    <glyph glyph-name="C" unicode="C" horiz-adv-x="696" 
d="M183 357q0 -118 59.5 -186.5t183.5 -68.5q53 0 99 10t64 18t47 23q12 7 19 9.5t13 -1t6 -16.5v-74q0 -14 -15 -24q-88 -58 -257 -58t-270 94t-101 278q0 165 99 267.5t276 102.5q74 0 127.5 -16t80.5 -43t39 -55.5t12 -60.5q0 -40 -26.5 -64t-64.5 -24q-35 0 -59 23.5
t-24 62.5q0 34 21 58q-43 15 -96 15q-118 0 -175.5 -76t-57.5 -194z" />
    <glyph glyph-name="D" unicode="D" horiz-adv-x="771" 
d="M738 360q0 -181 -105.5 -270.5t-305.5 -89.5h-267q-12 0 -16.5 4.5t-4.5 16.5v52q0 24 18 24q37 0 50.5 8t14.5 34v443q-1 22 -9 31t-25 11q-9 1 -30 1q-19 0 -19 20v56q0 13 4.5 17t17.5 4h269q207 0 307.5 -90t100.5 -272zM266 622v-517h60q136 0 198.5 59.5
t62.5 195.5q0 143 -65.5 202.5t-202.5 59.5h-53z" />
    <glyph glyph-name="E" unicode="E" horiz-adv-x="646" 
d="M60 0q-12 0 -16.5 4.5t-4.5 16.5v52q0 24 18 24q40 0 52.5 10t12.5 42v426q0 25 -7.5 36t-26.5 13q-9 1 -30 1q-19 0 -19 20v56q0 13 4.5 17t17.5 4h480q29 0 37 -7t9 -40l7 -129q1 -14 -2.5 -19t-17.5 -5h-60q-21 0 -23 22l-4 36q-4 33 -27 40t-102 7h-92v-224h62
q31 0 36 28l4 28q2 14 6 17.5t16 3.5h54q8 0 11.5 -2.5t4 -6t0.5 -13.5v-204q0 -13 -2.5 -17.5t-13.5 -4.5h-54q-11 0 -15.5 4t-6.5 16l-5 29q-5 27 -35 27h-62v-213h128q64 0 82 11t31 59l6 37q5 20 25 20h60q12 0 15 -4.5t1 -17.5l-16 -159q-3 -28 -10.5 -34.5t-29.5 -6.5
h-498z" />
    <glyph glyph-name="F" unicode="F" horiz-adv-x="627" 
d="M345 300h-80v-161q1 -26 11.5 -34t37.5 -8h13q13 0 17 -3.5t4 -13.5v-59q0 -13 -4 -17t-17 -4h-267q-12 0 -17 4.5t-5 16.5v59q0 9 4.5 13t17.5 4h12q28 0 38.5 10.5t10.5 41.5v426q0 26 -7.5 36.5t-26.5 12.5q-9 1 -30 1q-19 0 -19 20v56q0 13 4.5 17t17.5 4h499
q28 0 36 -7t9 -40l7 -129q1 -14 -2.5 -19t-17.5 -5h-60q-11 0 -16 4.5t-7 17.5l-5 36q-4 33 -26.5 40t-101.5 7h-110v-232h80q31 0 36 28l4 28q2 14 6 17.5t16 3.5h54q11 0 14 -4.5t3 -17.5v-204q0 -13 -2.5 -17.5t-13.5 -4.5h-55q-11 0 -16 4t-6 16l-4 29q-5 27 -36 27z
" />
    <glyph glyph-name="G" unicode="G" horiz-adv-x="732" 
d="M429 274v56q0 24 19 24h222q17 0 17 -16v-311q0 -27 -22 -27h-49q-25 0 -33 20l-5 11q-80 -42 -178 -42q-167 0 -268.5 94.5t-101.5 278.5q0 165 99 267t276 102q147 0 211 -54t64 -129q0 -40 -26 -64t-64 -24q-35 0 -59 23.5t-24 62.5q0 36 24 62q-49 19 -116 19
q-116 0 -174.5 -75.5t-58.5 -193.5t57.5 -187.5t168.5 -69.5q77 0 143 34v88q0 28 -29 28h-73q-20 0 -20 23z" />
    <glyph glyph-name="H" unicode="H" horiz-adv-x="831" 
d="M265 411h301v162q0 31 -10.5 41.5t-38.5 10.5h-13q-12 0 -16.5 4t-4.5 14v58q0 13 4.5 17t16.5 4h268q12 0 16 -4t4 -17v-58q0 -11 -4 -14.5t-16 -3.5h-14q-29 0 -38.5 -9.5t-9.5 -42.5v-424q0 -33 10 -42.5t38 -9.5h14q13 0 17 -3.5t4 -13.5v-59q0 -13 -4.5 -17
t-16.5 -4h-268q-12 0 -16.5 4t-4.5 17v59q0 9 4.5 13t16.5 4h13q27 0 38 10.5t11 41.5v167h-301v-167q0 -33 10 -42.5t39 -9.5h13q13 0 17 -3.5t4 -13.5v-59q0 -13 -4.5 -17t-16.5 -4h-267q-13 0 -17.5 4t-4.5 17v59q0 9 4.5 13t17.5 4h12q27 0 38 10.5t11 41.5v424
q0 31 -10.5 41.5t-38.5 10.5h-13q-12 0 -16.5 4t-4.5 14v58q0 13 4.5 17t16.5 4h268q12 0 16.5 -4t4.5 -17v-58q0 -11 -4 -14.5t-17 -3.5h-14q-28 0 -38 -9.5t-10 -42.5v-162z" />
    <glyph glyph-name="I" unicode="I" horiz-adv-x="386" 
d="M265 149q0 -33 10 -42.5t39 -9.5h13q13 0 17 -3.5t4 -13.5v-59q0 -13 -4.5 -17t-16.5 -4h-267q-13 0 -17.5 4t-4.5 17v59q0 9 4.5 13t17.5 4h12q27 0 38 10.5t11 41.5v424q0 31 -10.5 41.5t-38.5 10.5h-13q-12 0 -16.5 4t-4.5 14v58q0 13 4.5 17t16.5 4h268q12 0 16.5 -4
t4.5 -17v-58q0 -11 -4 -14.5t-17 -3.5h-14q-28 0 -38 -9.5t-10 -42.5v-424z" />
    <glyph glyph-name="J" unicode="J" horiz-adv-x="578" 
d="M16 175q0 41 24.5 66t64.5 25q38 0 61 -24t23 -65q0 -49 -38 -74q27 -12 63 -12q62 0 90.5 45t28.5 139v307q-1 25 -12 34t-37 9h-13q-13 0 -17 4t-4 14v58q0 13 4.5 17t16.5 4h267q12 0 16.5 -4t4.5 -17v-58q0 -11 -3.5 -14.5t-17.5 -3.5h-14q-26 0 -36.5 -8t-11.5 -35
v-319q0 -129 -58.5 -200.5t-181.5 -71.5q-220 0 -220 184z" />
    <glyph glyph-name="K" unicode="K" horiz-adv-x="760" 
d="M596 587l-163 -157q38 -3 67 -15t50.5 -32t41 -57.5t35.5 -81t37 -112.5q11 -30 43 -30q14 0 33 9q8 4 11.5 0.5t3.5 -16.5v-61q0 -20 -18 -28q-32 -17 -75 -17q-21 0 -36 2t-34 9.5t-34.5 25t-26.5 44.5q-8 20 -22 64t-26.5 76.5t-30 68t-41.5 56t-53 22.5l-93 -89v-119
q0 -33 10 -42.5t39 -9.5h13q13 0 17 -3.5t4 -13.5v-59q0 -13 -4.5 -17t-16.5 -4h-267q-13 0 -17.5 4t-4.5 17v59q0 9 4.5 13t17.5 4h12q27 0 38 10.5t11 41.5v424q0 31 -10.5 41.5t-38.5 10.5h-13q-12 0 -16.5 4t-4.5 14v58q0 13 4.5 17t16.5 4h268q12 0 16.5 -4t4.5 -17
v-58q0 -11 -4 -14.5t-17 -3.5h-14q-28 0 -38 -9.5t-10 -42.5v-193l216 216q11 12 14 18.5t-1 8.5t-14 2h-22q-21 0 -21 27v49q0 13 4 17t17 4h254q12 0 16 -4t4 -17v-53q0 -23 -20 -23h-45q-33 0 -71 -38z" />
    <glyph glyph-name="L" unicode="L" horiz-adv-x="625" 
d="M57 97q37 0 50.5 8t14.5 34v443q-1 25 -12 34t-37 9h-13q-12 0 -16.5 4t-4.5 14v58q0 13 4.5 17t16.5 4h267q13 0 17.5 -4t4.5 -17v-58q0 -11 -4.5 -14.5t-17.5 -3.5h-14q-26 0 -36 -8t-11 -35v-487h123q64 0 82 11t31 59l6 37q5 20 25 20h60q12 0 15 -4.5t2 -17.5
l-16 -159q-4 -28 -11.5 -34.5t-29.5 -6.5h-493q-12 0 -16.5 4.5t-4.5 16.5v52q0 24 18 24z" />
    <glyph glyph-name="M" unicode="M" horiz-adv-x="987" 
d="M299 698l209 -587l205 591q4 12 9.5 16t20.5 4h182q12 0 16 -4t4 -16v-50q0 -22 -20 -23l-20 -1q-10 -1 -17 -3t-14.5 -11.5t-8.5 -27.5v-439q0 -33 6.5 -41.5t31.5 -8.5h25q24 0 24 -18v-59q0 -20 -24 -20h-256q-12 0 -16.5 4t-4.5 16v59q0 10 4 14t17 4h17
q26 0 36.5 10t10.5 40v321l-161 -459q-3 -9 -8 -12t-19 -3h-122q-18 0 -24 14l-176 484v-353q0 -28 9.5 -35t39.5 -7h15q13 0 17 -3.5t4 -13.5v-60q0 -12 -4.5 -16t-16.5 -4h-237q-11 0 -15.5 4t-4.5 16v60q0 10 4 13.5t16 3.5h15q30 0 40 7.5t10 34.5v441q-1 32 -8 39.5
t-28 9.5h-12q-21 1 -21 19v54q0 12 4.5 16t16.5 4h203q17 0 26 -24z" />
    <glyph glyph-name="N" unicode="N" horiz-adv-x="828" 
d="M717 8q0 -9 -4.5 -12.5t-18.5 -3.5h-38q-19 0 -30 13l-393 485v-345q0 -30 10 -39t39 -9h12q14 0 17.5 -3.5t3.5 -13.5v-59q0 -13 -4 -17t-17 -4h-235q-12 0 -16.5 4t-4.5 17v58q0 10 4 14t17 4h12q28 0 39 9.5t11 38.5v431q-1 30 -13 39.5t-41 9.5h-5q-14 0 -18.5 4
t-4.5 14v58q0 13 4.5 17t18.5 4h147q22 0 34 -15l362 -465v335q0 30 -10 39t-39 9h-13q-13 0 -17 3.5t-4 13.5v59q0 13 4 17t17 4h235q12 0 16.5 -4t4.5 -17v-58q0 -10 -4 -14t-17 -4h-11q-29 0 -39.5 -9.5t-10.5 -38.5v-569z" />
    <glyph glyph-name="O" unicode="O" horiz-adv-x="805" 
d="M30 359q0 54 10.5 104.5t37.5 100.5t68 86.5t106.5 59.5t148.5 23q100 0 174.5 -31t116.5 -84.5t62 -117.5t20 -139q0 -69 -18.5 -131t-58.5 -118.5t-115.5 -90.5t-178.5 -34q-100 0 -174.5 31t-116.5 85t-62 118t-20 138zM401 630q-61 0 -105.5 -24t-68 -65t-34.5 -86
t-11 -95q0 -37 5.5 -71t20.5 -71.5t38.5 -65t64 -45t92.5 -17.5q62 0 107 24.5t68 65.5t33.5 85t10.5 94q0 47 -9.5 89.5t-32 86t-68.5 69.5t-111 26z" />
    <glyph glyph-name="P" unicode="P" horiz-adv-x="678" 
d="M387 272h-122v-123q0 -33 10 -42.5t39 -9.5h13q13 0 17 -3.5t4 -13.5v-59q0 -13 -4 -17t-17 -4h-267q-12 0 -17 4.5t-5 16.5v59q0 9 4.5 13t17.5 4h12q28 0 38.5 10.5t10.5 41.5v426q0 26 -7.5 36.5t-26.5 12.5q-9 1 -30 1q-19 0 -19 20v56q0 13 4.5 17t17.5 4h253
q178 0 260.5 -49t82.5 -173q0 -112 -72.5 -170t-196.5 -58zM265 367h70q169 0 169 133q0 68 -43 97.5t-133 29.5h-63v-260z" />
    <glyph glyph-name="Q" unicode="Q" horiz-adv-x="805" 
d="M30 359q0 54 10.5 104.5t37.5 100.5t68 86.5t106.5 59.5t148.5 23q100 0 174.5 -31t116.5 -84.5t62 -117.5t20 -139q0 -69 -17 -131t-62.5 -120.5t-115.5 -89.5q29 -15 65 -54q18 -20 30.5 -28.5t30.5 -8.5q21 0 42 9q8 4 12 0.5t4 -16.5v-62q0 -19 -18 -27
q-34 -17 -77 -17q-98 0 -164 84q-21 24 -31 34.5t-32 27t-46 25.5q-79 1 -142 22.5t-104 56.5t-68.5 83t-39 100t-11.5 110zM401 630q-61 0 -105.5 -24t-68 -65t-34.5 -86t-11 -95q0 -37 5.5 -71t20.5 -71.5t38.5 -65t64 -45t92.5 -17.5q62 0 107 24.5t68 65.5t33.5 85
t10.5 94q0 47 -9.5 89.5t-32 86t-68.5 69.5t-111 26z" />
    <glyph glyph-name="R" unicode="R" horiz-adv-x="690" 
d="M288 292h-23v-143q0 -33 10 -42.5t39 -9.5h13q13 0 17 -3.5t4 -13.5v-59q0 -13 -4.5 -17t-16.5 -4h-267q-13 0 -17.5 4t-4.5 17v59q0 9 4.5 13t17.5 4h12q27 0 38 10.5t11 41.5v426q0 25 -7.5 36t-26.5 13q-9 1 -30 1q-19 0 -19 20v56q0 13 4.5 17t17.5 4h253
q160 0 232 -47t72 -165q0 -154 -144 -201q32 -19 56.5 -60t57.5 -125q12 -30 39 -30q18 0 37 8q16 6 16 -10v-58q0 -19 -19 -28q-32 -17 -88 -17q-26 0 -43 4t-38.5 22.5t-36.5 53.5q-6 14 -20.5 52t-26 61.5t-29 52t-40.5 43t-50 14.5zM265 387h62q138 0 138 123
q0 62 -36 89.5t-109 27.5h-55v-240z" />
    <glyph glyph-name="S" unicode="S" horiz-adv-x="618" 
d="M403 559q0 32 17 54q-44 19 -103 19q-120 0 -120 -76q0 -28 16.5 -48t43.5 -31.5t61.5 -23.5t70.5 -22t70.5 -29t61.5 -43.5t43.5 -65.5t16.5 -94q0 -212 -285 -212q-270 0 -272 172q0 41 24.5 66.5t64.5 25.5q37 0 60.5 -24t23.5 -64q0 -33 -20 -58q45 -18 122 -18
q137 0 137 99q0 39 -21 66t-55 42t-74.5 26.5t-81.5 26t-75 35.5t-55 59.5t-21 92.5q0 99 70 148.5t196 49.5t192 -45t66 -125q0 -40 -26.5 -64.5t-64.5 -24.5q-35 0 -59 23.5t-24 62.5z" />
    <glyph glyph-name="T" unicode="T" horiz-adv-x="658" 
d="M195 0q-12 0 -16.5 4t-4.5 17v59q0 9 4.5 13t16.5 4h13q27 0 38 10.5t11 41.5v470h-28q-63 0 -81 -6t-22 -35l-5 -42q-1 -12 -6 -16t-16 -4h-64q-12 0 -14.5 4.5t-1.5 17.5l7 143q1 28 8 34.5t31 6.5h527q24 0 31 -6.5t9 -34.5l7 -143q1 -13 -1.5 -17.5t-15.5 -4.5h-63
q-21 0 -23 20l-5 42q-4 28 -22 34.5t-82 6.5h-26v-470q0 -33 10 -42.5t39 -9.5h13q13 0 16.5 -3.5t3.5 -13.5v-59q0 -13 -4 -17t-16 -4h-268z" />
    <glyph glyph-name="U" unicode="U" horiz-adv-x="811" 
d="M709 278q0 -143 -76.5 -214t-223.5 -71q-146 0 -226.5 69t-80.5 201v310q0 31 -10.5 41.5t-38.5 10.5h-13q-13 0 -17 4t-4 14v58q0 13 4.5 17t16.5 4h267q12 0 16.5 -4t4.5 -17v-58q0 -11 -4 -14.5t-17 -3.5h-14q-28 0 -37.5 -9.5t-9.5 -42.5v-292q0 -175 167 -175
q85 0 131 45t46 132v298q0 27 -10.5 35.5t-38.5 8.5h-13q-13 0 -17.5 4t-4.5 14v58q0 12 5 16.5t17 4.5h243q12 0 16.5 -4t4.5 -17v-58q0 -11 -4 -14.5t-17 -3.5h-14q-28 0 -38 -8t-10 -36v-303z" />
    <glyph glyph-name="V" unicode="V" horiz-adv-x="714" 
d="M227 572l149 -454l147 462q8 25 0 34.5t-31 12.5l-9 1q-21 2 -21 22v51q0 13 4.5 17t16.5 4h219q12 0 15.5 -4t3.5 -17v-52q0 -22 -21 -24l-24 -1q-14 -1 -23 -10t-19 -41l-187 -566q-3 -10 -7 -12.5t-18 -2.5h-126q-17 0 -23 14l-192 560q-15 39 -23.5 48t-32.5 11h-15
q-13 1 -17.5 5.5t-4.5 14.5v56q0 13 4.5 17t17.5 4h254q13 0 17.5 -4t4.5 -17v-51q0 -17 -22 -21h-8q-19 -3 -27.5 -8.5t-8.5 -17.5q0 -13 7 -31z" />
    <glyph glyph-name="W" unicode="W" horiz-adv-x="1044" 
d="M236 572l107 -436l128 563q3 15 6.5 19t15.5 4h113q12 0 15.5 -4t7.5 -20l133 -521l95 401q5 22 5 29q0 13 -10 16t-40 3q-20 0 -20 20v56q0 14 4 17t22 3h210q12 0 15.5 -4t3.5 -17v-52q0 -23 -19 -23q-35 0 -45 -8t-20 -48l-142 -549q-5 -20 -10 -24.5t-23 -4.5h-105
q-10 0 -16 4.5t-7.5 9.5l-4.5 15l-124 495l-109 -495q-4 -19 -9 -24t-17 -5h-139q-11 0 -17 6t-11 23l-148 545q-11 41 -20.5 50.5t-35.5 9.5q-20 0 -25.5 6t-5.5 25v45q0 12 4 16t15 4h268q12 0 16 -4t4 -16v-56q0 -20 -18 -20q-23 0 -32.5 -1t-15 -5.5t-5.5 -13.5
q0 -12 6 -34z" />
    <glyph glyph-name="X" unicode="X" horiz-adv-x="717" 
d="M281 599l90 -124l94 122q12 19 8.5 23.5t-19.5 4.5h-14q-21 0 -21 25v51q0 13 4.5 17t16.5 4h226q12 0 16 -4t4 -17v-53q0 -23 -20 -23h-10q-20 0 -34 -6.5t-34 -29.5l-154 -200l172 -234q43 -57 83 -57h13q22 0 22 -23v-54q0 -13 -4.5 -17t-17.5 -4h-246q-13 0 -17.5 4
t-4.5 17v51q0 23 22 23h10q8 0 8 4q-1 3 -18 27l-109 149l-114 -149q-13 -20 -9.5 -24.5t20.5 -4.5h22q22 0 22 -25v-51q0 -12 -5 -16.5t-17 -4.5h-242q-12 0 -16.5 4t-4.5 17v54q0 22 21 22h19q19 0 33 8t37 37l170 220l-150 206q-44 57 -85 57h-12q-21 0 -21 22v55
q0 12 4.5 16t16.5 4h248q12 0 16.5 -4t4.5 -16v-51q0 -23 -21 -23h-11q-11 0 -6 -9q3 -5 14 -20z" />
    <glyph glyph-name="Y" unicode="Y" horiz-adv-x="666" 
d="M211 97q26 0 37.5 9t12.5 34v151l-167 277q-21 34 -35 45.5t-30 11.5h-14q-21 0 -21 23v53q0 13 4 17t16 4h250q13 0 17.5 -4t4.5 -17v-50q0 -23 -22 -23h-10q-36 0 -15 -32l108 -201l121 202q18 28 -12 28h-14q-21 0 -21 27v49q0 13 4.5 17t16.5 4h209q13 0 17 -4t4 -17
v-53q0 -23 -21 -23h-18q-12 0 -20 -6.5t-23 -30.5l-185 -280v-169q1 -26 11 -34t37 -8h13q14 0 18 -3.5t4 -13.5v-59q0 -13 -4.5 -17t-17.5 -4h-267q-12 0 -16.5 4t-4.5 17v59q0 9 4.5 13t16.5 4h12z" />
    <glyph glyph-name="Z" unicode="Z" horiz-adv-x="623" 
d="M70 722h491q18 0 18 -22v-37q0 -19 -14 -39l-358 -529h202q35 0 49 17.5t37 87.5q7 19 24 19h63q18 0 15 -20l-19 -183q-3 -16 -22 -16h-511q-13 1 -13 22v55q0 13 5 19l361 531h-181q-35 0 -48.5 -19.5t-28.5 -79.5q-6 -19 -23 -19h-64q-17 0 -15 21l10 176q1 16 22 16z
" />
    <glyph glyph-name="bracketleft" unicode="[" horiz-adv-x="326" 
d="M105 747h166q28 0 28 -22v-46q0 -17 -5.5 -22t-20.5 -5h-61v-716h61q15 0 20.5 -5t5.5 -21v-46q0 -23 -28 -23h-166q-16 0 -22.5 7t-6.5 26v840q0 19 6.5 26t22.5 7z" />
    <glyph glyph-name="backslash" unicode="\" horiz-adv-x="467" 
d="M167 695l270 -644q6 -18 6 -25q0 -37 -67 -37q-41 0 -53.5 6t-22.5 29l-270 647q-6 13 -6 24q0 18 12.5 26.5t44.5 8.5q47 0 61.5 -6t24.5 -29z" />
    <glyph glyph-name="bracketright" unicode="]" horiz-adv-x="326" 
d="M55 747h165q17 0 23.5 -7t6.5 -26v-840q0 -19 -6.5 -26t-23.5 -7h-165q-28 0 -28 23v46q0 16 5.5 21t20.5 5h61v716h-61q-15 0 -20.5 5t-5.5 22v46q0 22 28 22z" />
    <glyph glyph-name="asciicircum" unicode="^" horiz-adv-x="554" 
d="M277 629l-110 -181q-14 -25 -27 -31t-56 -6q-34 0 -43.5 7t3.5 35l162 268q12 20 25 25t46 5v-122zM277 629l110 -181q14 -25 27 -31t56 -6q34 0 43.5 7t-3.5 35l-162 268q-12 20 -25 25t-46 5v-122z" />
    <glyph glyph-name="underscore" unicode="_" horiz-adv-x="818" 
d="M744 -108h-673q-21 0 -21 54q0 28 12 35t42 7h644q20 0 20 -55q0 -41 -24 -41z" />
    <glyph glyph-name="grave" unicode="`" horiz-adv-x="273" 
d="M242 668l-13 -26q-6 -16 -28 -11l-182 47q-17 5 -8 22l38 70q8 13 27 3l160 -77q10 -5 11 -11t-5 -17z" />
    <glyph glyph-name="a" unicode="a" horiz-adv-x="582" 
d="M55 410q0 70 54.5 102t163.5 32q117 0 171.5 -42t54.5 -157v-208q1 -42 29 -42q11 0 19.5 2t12.5 2q11 2 11 -10v-60q0 -19 -14 -24q-25 -11 -81 -11q-80 0 -104 60q-58 -60 -170 -60q-173 0 -173 150q0 43 14.5 74.5t39.5 51t64 31.5t81.5 16.5t98.5 4.5h36v27
q0 49 -21 70.5t-71 21.5q-34 0 -67 -9q2 -10 2 -17q0 -35 -23.5 -57.5t-56.5 -22.5q-30 0 -50.5 20.5t-20.5 54.5zM164 148q0 -58 73 -58q58 0 92 35t34 97v11h-36q-163 0 -163 -85z" />
    <glyph glyph-name="b" unicode="b" horiz-adv-x="596" 
d="M198 460q44 81 158 81q100 0 154 -66.5t54 -201.5q0 -286 -269 -286q-74 0 -137 16t-88 32q-9 5 -9 20l1 522v46q-1 18 -8.5 25t-23.5 8l-23 1q-21 1 -21 24v51q0 13 4 17t17 5l167 9q14 0 19 -6.5t5 -21.5v-275zM318 435q-52 0 -86 -45.5t-37 -128.5v-152q43 -16 94 -16
q129 0 129 175q0 76 -21 121.5t-79 45.5z" />
    <glyph glyph-name="c" unicode="c" horiz-adv-x="555" 
d="M175 271q0 -86 40 -126.5t129 -40.5q66 0 153 29q20 7 26 4.5t6 -18.5v-64q0 -21 -16 -28q-70 -35 -191 -35q-148 0 -220.5 69t-72.5 198q0 138 77 211.5t207 73.5q107 0 158 -44.5t51 -100.5q0 -38 -22 -62t-61 -24q-38 0 -61.5 23t-23.5 60q0 24 9 42q-20 4 -49 4
q-74 0 -106.5 -47.5t-32.5 -123.5z" />
    <glyph glyph-name="d" unicode="d" horiz-adv-x="624" 
d="M535 735v-594q0 -46 30 -46q10 0 19 2t13 2q5 1 7.5 -1t2.5 -9v-60q0 -19 -14 -24q-25 -11 -81 -11q-86 0 -107 67q-61 -74 -169 -74q-204 0 -204 252q0 147 63.5 224.5t174.5 77.5q76 0 129 -40v114q0 22 -7 31t-25 10l-23 1q-21 1 -21 24v51q0 13 4 17t17 5l167 9
q14 0 19 -6.5t5 -21.5zM274 92q111 0 125 168v144q-37 31 -100 31t-94.5 -50t-31.5 -137q0 -156 101 -156z" />
    <glyph glyph-name="e" unicode="e" horiz-adv-x="552" 
d="M285 544q108 0 166.5 -46t58.5 -130q0 -78 -54 -123.5t-164 -45.5q-64 0 -116 13q8 -61 42 -88.5t104 -27.5q82 0 137 22q36 14 40 14q11 0 11 -14v-64q0 -17 -21 -28q-68 -33 -179 -33q-143 0 -212 73t-69 199q0 127 66.5 203t189.5 76zM285 449q-100 0 -111 -146
q62 -13 106 -13q105 0 105 82q0 77 -100 77z" />
    <glyph glyph-name="f" unicode="f" horiz-adv-x="395" 
d="M45 524h67v55q0 101 48 152.5t153 51.5q77 0 121 -36t44 -105q-1 -34 -24.5 -56t-55.5 -22q-30 0 -50.5 20.5t-20.5 54.5q0 30 17 52q-5 1 -15 1q-41 0 -61 -25t-20 -81v-62h103q17 0 22 -3t5 -16v-54q0 -22 -26 -22h-104v-292q1 -25 11.5 -32.5t37.5 -7.5h14
q13 0 17 -3.5t4 -13.5v-59q0 -13 -4 -17t-17 -4h-262q-12 0 -16.5 4t-4.5 17v59q0 10 4 13.5t17 3.5h14q27 0 37.5 7.5t11.5 32.5v292h-59q-18 0 -23.5 4t-5.5 20v43q0 28 21 28z" />
    <glyph glyph-name="g" unicode="g" horiz-adv-x="623" 
d="M249 -146q152 0 152 154v45q-61 -66 -163 -66q-205 0 -205 252q0 148 64 225t175 77q76 0 129 -40v6q0 15 5 21.5t18 6.5l160 -11q12 -1 16.5 -5t4.5 -16v-53q0 -16 -21 -22l-15 -1q-18 -5 -24.5 -11.5t-7.5 -24.5v-371q0 -137 -76 -203t-209 -66q-218 0 -218 153
q1 34 23.5 56.5t53.5 22.5q30 0 52 -21t22 -55q0 -23 -11 -42q33 -11 75 -11zM276 92q111 0 125 168v144q-37 31 -100 31q-64 0 -95 -50t-31 -137q0 -73 25 -114.5t76 -41.5z" />
    <glyph glyph-name="h" unicode="h" horiz-adv-x="652" 
d="M356 432q-60 0 -91 -52.5t-33 -149.5v-93q1 -25 11.5 -32.5t37.5 -7.5h14q13 0 17 -3.5t4 -13.5v-59q0 -13 -4.5 -17t-16.5 -4h-262q-12 0 -16.5 4t-4.5 17v59q0 10 4 13.5t17 3.5h14q27 0 37.5 7.5t11.5 32.5v479q0 22 -7 31t-25 10l-23 1q-21 1 -21 24v51q0 13 4 17
t17 5l167 9q14 0 19 -6.5t5 -21.5v-275q44 83 174 83q162 0 162 -175v-228q0 -46 29 -46q11 0 20 2t13 2q5 1 7.5 -1t2.5 -9v-60q0 -19 -14 -24q-25 -11 -81 -11q-48 0 -80.5 26t-32.5 89v242q0 81 -76 81z" />
    <glyph glyph-name="i" unicode="i" horiz-adv-x="341" 
d="M246 506v-369q1 -25 11.5 -32.5t37.5 -7.5h14q13 0 17 -3.5t4 -13.5v-59q0 -13 -4.5 -17t-16.5 -4h-262q-12 0 -16.5 4t-4.5 17v59q0 10 4 13.5t17 3.5h14q27 0 37.5 7.5t11.5 32.5v257q-1 18 -8.5 25t-23.5 8l-23 1q-21 1 -21 24v51q0 13 4 17t17 5l168 9q13 0 18 -6.5
t5 -21.5zM91 683q0 41 25.5 66t62.5 25q32 0 55 -23.5t23 -60.5q0 -40 -26 -64t-63 -24q-33 0 -55 22t-22 59z" />
    <glyph glyph-name="j" unicode="j" horiz-adv-x="299" 
d="M-111 -131q0 35 22 58t56 23q32 0 53 -21t21 -55q0 -26 -14 -46q68 8 68 95v471q-1 18 -8.5 24.5t-23.5 8.5l-23 1q-21 1 -21 23v52q0 13 4 16.5t17 4.5l168 10q13 0 18 -6.5t5 -21.5v-553q0 -99 -48 -154.5t-147 -55.5q-72 0 -109.5 36t-37.5 90zM75 683q0 40 25.5 65.5
t61.5 25.5q33 0 56.5 -23.5t23.5 -60.5q0 -40 -26.5 -64t-63.5 -24q-33 0 -55 22t-22 59z" />
    <glyph glyph-name="k" unicode="k" horiz-adv-x="633" 
d="M491 391l-119 -103l143 -128q12 -10 25 -23t19.5 -18.5t13.5 -11.5t13 -8t12 -2h15q11 0 14 -4t3 -14v-58q0 -13 -4.5 -17t-17.5 -4h-249q-13 0 -17 4t-4 17v52q0 24 21 24h8q19 0 19 5q-2 7 -20 23l-139 120v-98q0 -31 7 -40.5t26 -9.5h12q20 0 20 -17v-59q0 -13 -4 -17
t-16 -4h-239q-12 0 -16.5 4t-4.5 17v59q0 10 4 13.5t17 3.5h12q28 0 37.5 9t9.5 41v468q0 22 -7 31t-24 10l-20 1q-21 1 -21 24v51q0 13 4 17t17 5l165 9q12 0 16.5 -6t4.5 -22v-457l139 120q12 10 15 16.5t-1.5 9.5t-14.5 3h-24q-19 0 -19 22v55q0 13 4 17t16 4h243
q12 0 16 -4t4 -17v-54q0 -23 -20 -23h-17q-24 0 -36 -6t-41 -30z" />
    <glyph glyph-name="l" unicode="l" horiz-adv-x="330" 
d="M97 615q0 22 -7.5 31t-24.5 10l-24 1q-20 1 -20 24v51q0 13 4 17t16 5l168 9q14 0 19 -6.5t5 -21.5v-588q0 -32 10 -41t39 -9h14q13 0 17 -3.5t4 -13.5v-59q0 -13 -4.5 -17t-16.5 -4h-262q-13 0 -17 4t-4 17v59q0 10 4 13.5t17 3.5h14q29 0 39 9t10 41v468z" />
    <glyph glyph-name="m" unicode="m" horiz-adv-x="964" 
d="M358 432q-116 0 -116 -204v-81q0 -32 6.5 -41t25.5 -9h11q12 0 16 -3.5t4 -13.5v-59q0 -13 -4 -17t-16 -4h-237q-12 0 -16.5 4.5t-4.5 16.5v59q0 9 4.5 13t16.5 4h10q28 0 38 9.5t10 40.5v239q0 25 -10 33t-47 8q-19 0 -19 22v55q0 20 21 21l167 9q14 0 19 -6.5t5 -21.5
v-42q43 80 166 80q114 0 143 -98q37 98 176 98q154 0 154 -175v-228q0 -46 30 -46q10 0 19 2t13 2q5 1 7.5 -1t2.5 -9v-60q0 -19 -14 -24q-24 -11 -81 -11q-48 0 -80.5 26t-32.5 89v242q0 81 -68 81q-56 0 -85 -51t-31 -144v-90q0 -32 10 -41t38 -9h11q13 0 17 -3.5t4 -13.5
v-59q0 -13 -4 -17t-17 -4h-237q-12 0 -16 4t-4 17v59q0 10 4 13.5t16 3.5h10q17 0 24 7.5t8 29.5v217q0 81 -67 81z" />
    <glyph glyph-name="n" unicode="n" horiz-adv-x="664" 
d="M109 394q-2 19 -13 26t-45 7q-18 0 -18 22v55q0 11 4 15.5t17 5.5l160 9q13 0 17.5 -6t4.5 -22v-63q19 51 68 76t115 25q162 0 162 -175v-228q0 -46 29 -46q10 0 19 2t14 2q5 1 7.5 -1t2.5 -9v-60q0 -19 -14 -24q-25 -11 -82 -11q-48 0 -80 26t-32 89v242q0 81 -76 81
q-61 0 -92.5 -55t-31.5 -157v-73q0 -32 10 -41t39 -9h14q12 0 16.5 -4t4.5 -13v-59q0 -13 -4.5 -17t-16.5 -4h-262q-13 0 -17 4t-4 17v59q0 10 4 13.5t17 3.5h14q26 0 37 7.5t12 32.5v257z" />
    <glyph glyph-name="o" unicode="o" horiz-adv-x="593" 
d="M29 266q0 122 66 200t201 78t201.5 -78t66.5 -200q0 -121 -66.5 -200t-201.5 -79t-201 78.5t-66 200.5zM296 449q-123 0 -123 -184q0 -183 123 -183q124 0 124 183q0 184 -124 184z" />
    <glyph glyph-name="p" unicode="p" horiz-adv-x="629" 
d="M91 386q0 25 -10 33t-47 8q-19 0 -19 22v55q0 20 21 21l167 9q14 0 19 -6.5t5 -21.5v-49q56 84 166 84q98 0 151 -61.5t53 -203.5q0 -135 -65 -212t-175 -77q-71 0 -129 23h-1v-112q0 -32 10 -41t39 -9h14q13 0 17 -3.5t4 -13.5v-59q0 -13 -4.5 -17t-16.5 -4h-262
q-12 0 -16.5 4t-4.5 17v59q0 10 4 13.5t17 3.5h14q29 0 39 9t10 41v488zM355 435q-113 0 -127 -167v-152q40 -24 102 -24q67 0 96 51.5t29 131.5q0 78 -22 119t-78 41z" />
    <glyph glyph-name="q" unicode="q" horiz-adv-x="622" 
d="M331 -152q39 0 54 10t15 40v155q-61 -66 -163 -66q-205 0 -205 252q0 148 64 225t175 77q76 0 129 -40v6q0 15 5 21.5t17 6.5l160 -11q13 -1 17.5 -5t4.5 -16v-53q0 -16 -21 -22l-15 -1q-18 -5 -24.5 -11.5t-7.5 -24.5v-493q0 -32 8.5 -41t33.5 -9h13q12 0 16.5 -4
t4.5 -14v-58q0 -13 -4.5 -17t-16.5 -4h-272q-12 0 -16.5 4t-4.5 17v58q0 10 4.5 14t16.5 4h12zM275 92q111 0 125 168v144q-37 31 -100 31q-64 0 -95 -50t-31 -137q0 -156 101 -156z" />
    <glyph glyph-name="r" unicode="r" horiz-adv-x="519" 
d="M109 386q0 25 -10.5 33t-47.5 8q-18 0 -18 22v55q0 11 4 15.5t17 5.5l167 9q14 0 19 -6.5t5 -21.5v-100q6 21 17 42t30 44t50.5 37.5t69.5 14.5q104 0 104 -105q0 -35 -23.5 -57.5t-56.5 -22.5q-30 0 -51 20.5t-21 54.5v10q-53 -17 -86 -91t-33 -157v-49q0 -32 10 -41
t39 -9h34q12 0 16.5 -4t4.5 -13v-60q0 -12 -4.5 -16t-17.5 -4h-281q-12 0 -16.5 4t-4.5 17v59q0 10 4 13.5t17 3.5h13q28 0 39 10t11 40v239z" />
    <glyph glyph-name="s" unicode="s" horiz-adv-x="508" 
d="M463 423q0 -31 -19 -53t-51 -22q-33 0 -53.5 19.5t-20.5 53.5q0 16 4 28q-31 7 -60 7q-84 0 -84 -55q0 -24 22 -39.5t55 -22t72 -18.5t72 -28t55 -51t22 -86q0 -86 -53.5 -127.5t-167.5 -41.5q-103 0 -162 33t-59 99q0 35 19.5 56.5t55.5 21.5q34 0 52 -20t18 -53
q0 -22 -9 -37q36 -13 82 -13q48 0 72.5 15t24.5 51q0 26 -22 42.5t-55.5 23.5t-72 18.5t-72 26.5t-55.5 49.5t-22 84.5q0 77 52.5 118t153.5 41t153.5 -31t52.5 -90z" />
    <glyph glyph-name="t" unicode="t" horiz-adv-x="388" 
d="M30 525h55l63 140q7 16 42 16q22 0 26.5 -2.5t4.5 -13.5v-140h113q16 0 21.5 -3.5t5.5 -15.5v-61q0 -22 -26 -22h-114v-228q0 -61 17 -80t60 -19q35 0 60 9q9 3 12.5 0t3.5 -16v-55q0 -20 -17 -27q-32 -13 -99 -13q-79 0 -126 36.5t-47 130.5v262h-47q-18 0 -23.5 4
t-5.5 20v50q0 28 21 28z" />
    <glyph glyph-name="u" unicode="u" horiz-adv-x="655" 
d="M565 134q1 -39 29 -39q11 0 20 2t13 2q11 2 11 -10v-60q0 -19 -15 -24q-24 -11 -81 -11q-80 0 -104 60q-51 -69 -184 -69q-81 0 -125 40.5t-44 136.5v224q0 25 -10 33t-47 8q-19 0 -19 22v55q0 20 21 21l168 9q13 0 18 -6.5t5 -21.5v-330q0 -80 82 -80q62 0 94 47.5
t32 135.5v107q0 25 -10 33t-47 8q-19 0 -19 22v55q0 20 21 21l167 9q14 0 19 -6.5t5 -21.5v-372z" />
    <glyph glyph-name="v" unicode="v" horiz-adv-x="633" 
d="M238 378l90 -250l92 258q16 40 -32 42l-6 1q-20 1 -20 21v54q0 12 4 16.5t16 4.5h226q12 0 16.5 -4t4.5 -17v-53q0 -22 -21 -24h-14q-15 -1 -22 -3t-16.5 -13t-18.5 -32l-145 -372q-4 -10 -7.5 -12.5t-16.5 -2.5h-108q-16 0 -21 14l-147 368q-8 19 -13 28t-14 14.5
t-12.5 6.5t-20.5 4l-7 1q-20 5 -20 23v53q0 12 4.5 16.5t15.5 4.5h249q12 0 16 -4t4 -17v-53q0 -20 -21 -21l-5 -1q-24 -2 -31.5 -12t1.5 -39z" />
    <glyph glyph-name="w" unicode="w" horiz-adv-x="917" 
d="M237 381l68 -274l95 393q4 16 8.5 20.5t16.5 4.5h101q7 0 10.5 -1t6.5 -6.5t3.5 -7t3.5 -12.5l99 -389l59 273q6 28 3 34.5t-26 10.5l-16 2q-13 3 -16.5 7t-3.5 14v55q0 12 4.5 16t15.5 4h225q11 0 15 -4t4 -15v-46q0 -30 -20 -33l-19 -1q-3 0 -10.5 -1t-9.5 -1.5
t-7.5 -2.5t-7 -5t-5.5 -8.5t-7 -13.5t-6 -19l-109 -368q-4 -12 -10 -13.5t-38 -1.5h-98q-18 0 -22 14l-92 332l-91 -331q-2 -10 -6 -12.5t-18 -2.5h-111q-16 0 -20 14l-115 370q-10 34 -18.5 41.5t-34.5 9.5q-20 2 -26 7t-6 17v54q0 12 4.5 16t16.5 4h250q11 0 15 -4t4 -16
v-55q0 -18 -12 -20q-40 -2 -47.5 -10t0.5 -39z" />
    <glyph glyph-name="x" unicode="x" horiz-adv-x="591" 
d="M133 144l100 113l-114 131q-25 27 -36.5 33.5t-27.5 7.5l-15 1q-20 1 -20 20v58q0 17 20 17h231q10 0 13 -3.5t3 -13.5v-59q0 -19 -13 -19h-16q-12 0 -11 -5t16 -23l47 -58l51 58q18 26 4 28h-8q-18 0 -18 19v59q0 17 17 17h196q10 0 13 -3.5t3 -13.5v-62q0 -17 -18 -18
l-14 -1q-24 -2 -39.5 -11t-49.5 -47l-81 -94l102 -124q29 -34 43.5 -43.5t33.5 -10.5l19 -1q14 -1 14 -20v-58q0 -11 -3 -14.5t-13 -3.5h-216q-10 0 -13.5 4t-3.5 15v57q0 10 3.5 14t13.5 4q16 0 18 5t-12 21l-60 69l-55 -64q-24 -25 -14 -28l8 -1l18 -1q17 -1 17 -18v-59
q0 -18 -17 -18h-219q-10 0 -14 4t-4 14v57q0 19 15 20l21 1q22 1 41 10.5t44 37.5z" />
    <glyph glyph-name="y" unicode="y" horiz-adv-x="621" 
d="M21 -125q0 35 20 58t55 23q30 0 51 -21t21 -55q0 -41 -30 -64h4q64 0 98 84l20 57l-169 413q-17 38 -26.5 47.5t-33.5 9.5h-5q-20 0 -20 23v54q0 13 4 17t16 4h248q12 0 16 -4t4 -17v-54q0 -22 -20 -22h-7q-21 0 -29 -3t-8 -12t10 -37l84 -240l89 248q10 27 4 35t-34 8
h-6q-20 0 -20 22v55q0 12 4.5 16.5t15.5 4.5h222q12 0 16 -4t4 -17v-52q0 -24 -20 -24h-15q-20 0 -31.5 -9t-23.5 -42l-180 -484q-29 -78 -73.5 -110t-117.5 -32q-58 0 -97.5 33.5t-39.5 90.5z" />
    <glyph glyph-name="z" unicode="z" horiz-adv-x="554" 
d="M80 531h414q17 0 17 -20v-36q0 -25 -13 -40l-294 -340h129q38 0 52 14.5t36 82.5q6 17 22 17h64q16 0 15 -18l-19 -175q-3 -16 -23 -16h-436q-13 1 -13 20v56q0 14 5 19l294 341h-106q-38 0 -52 -13t-30 -64q-5 -19 -22 -19h-65q-18 0 -15 19l17 156q1 16 23 16z" />
    <glyph glyph-name="braceleft" unicode="{" horiz-adv-x="349" 
d="M21 273v36h143v-1q41 -10 55.5 -39.5t14.5 -77.5v-167q0 -66 72 -66q18 0 18 -11v-51q0 -7 -4 -9.5t-15 -2.5h-17q-109 0 -149 28.5t-40 113.5v138q0 40 -13.5 63t-51.5 33q-12 8 -13 13zM21 309v36q0 10 10 12q1 1 1.5 1h1.5q38 10 51.5 33t13.5 63v138q0 85 40 113.5
t149 28.5h17q11 0 15 -2.5t4 -9.5v-51q0 -11 -18 -11q-72 0 -72 -66v-167q0 -48 -14.5 -77.5t-55.5 -39.5v-1h-143z" />
    <glyph glyph-name="bar" unicode="|" horiz-adv-x="289" 
d="M212 -125q0 -25 -26 -26h-85q-24 0 -24 25v842q0 25 26 26h85q24 0 24 -25v-842z" />
    <glyph glyph-name="braceright" unicode="}" horiz-adv-x="350" 
d="M329 273v36h-143v-1q-71 -17 -71 -117v-167q0 -66 -72 -66q-17 0 -17 -11v-51q0 -7 3.5 -9.5t14.5 -2.5h18q109 0 148.5 28.5t39.5 113.5v138q0 40 13.5 63t52.5 33q1 0 3.5 1t3.5 1.5t3 2t2.5 3.5t0.5 5zM329 345v-36h-143v1q-71 17 -71 117v167q0 66 -72 66
q-17 0 -17 11v51q0 7 3.5 9.5t14.5 2.5h18q109 0 148.5 -28.5t39.5 -113.5v-138q0 -40 13.5 -63t52.5 -33q1 0 3.5 -1t3.5 -1.5t3 -2t2.5 -3.5t0.5 -5z" />
    <glyph glyph-name="asciitilde" unicode="~" horiz-adv-x="529" 
d="M358 340q54 0 62 42q4 16 21 16h71q11 0 15 -6t4 -24q0 -71 -46 -114t-130 -43q-73 0 -106 42q-9 11 -14.5 16t-18.5 10t-31 5q-51 0 -61 -43q-3 -10 -6.5 -13t-15.5 -3h-67q-13 0 -17 5.5t-4 24.5q0 74 41.5 115.5t122.5 41.5q76 0 118 -45q12 -14 24.5 -20.5t37.5 -6.5
z" />
    <glyph glyph-name="exclamdown" unicode="&#xa1;" horiz-adv-x="295" 
d="M55 89q0 36 16.5 97t33.5 145.5t17 177.5q0 10 4.5 14t20.5 4t20 -4t4 -14q0 -93 17 -177.5t34 -145.5t17 -97q0 -52 -21.5 -75.5t-70.5 -23.5t-70.5 23.5t-21.5 75.5zM63 653q0 39 26.5 66t62.5 27q34 0 58 -23.5t24 -62.5q0 -40 -26.5 -65.5t-63.5 -25.5
q-34 0 -57.5 23.5t-23.5 60.5z" />
    <glyph glyph-name="cent" unicode="&#xa2;" horiz-adv-x="562" 
d="M350 407q0 21 7 38q-14 2 -44 4q-68 0 -100 -51.5t-32 -133.5q0 -85 36 -128.5t119 -43.5q62 0 105 12q66 21 67 21q7 1 9.5 -2.5t2.5 -11.5v-58q0 -15 -3.5 -20.5t-17.5 -12.5q-40 -21 -111 -29v-44q0 -25 -26 -26h-85q-25 0 -25 25v46q-112 15 -163.5 84.5t-51.5 190.5
q0 109 55 181.5t160 90.5v57q0 24 27 26h85q24 0 24 -25v-61q61 -15 102 -53q6 -6 12 -14q19 -22 19 -57q0 -39 -26 -64t-63 -25q-35 0 -58.5 23t-23.5 61z" />
    <glyph glyph-name="sterling" unicode="&#xa3;" horiz-adv-x="626" 
d="M379 561q0 23 9 39q-24 28 -81 28q-98 -4 -98 -113q0 -17 5.5 -37.5t11.5 -35t18 -40.5t17 -39h135q12 0 16 -4t4 -15v-57q0 -11 -4 -15t-16 -4h-111q1 -5 1 -15q0 -118 -68 -158h154q69 0 88.5 11.5t32.5 63.5l6 32q4 20 24 20h52q13 0 16 -4.5t1 -17.5l-16 -153
q-4 -32 -12.5 -39.5t-32.5 -7.5h-457q-12 0 -16 4t-4 17v53q0 12 3.5 16.5t13.5 4.5q27 2 44.5 14.5t24.5 34.5t9 38.5t2 39.5q0 20 -7 46h-82q-12 0 -16 4t-4 15v57q0 12 4 15.5t16 3.5h35q-39 71 -39 137q0 113 67.5 172.5t185.5 59.5q112 -1 176.5 -44.5t64.5 -125.5
q-1 -40 -27 -63.5t-63 -23.5q-35 0 -59 23.5t-24 62.5z" />
    <glyph glyph-name="currency" unicode="&#xa4;" horiz-adv-x="659" 
d="M334 153q-83 0 -139 34l-48 -48q-17 -17 -38 0l-59 61q-18 16 0 34l57 57q-18 47 -18 102q0 70 28 123l-55 55q-18 18 1 37l59 61q17 15 35 -1l60 -60q50 22 117 22q56 0 98 -15l62 63q18 18 36 -1l62 -60q15 -17 -1 -35l-50 -50q36 -58 36 -138q0 -67 -26 -121l49 -48
q19 -18 0 -37l-61 -61q-16 -16 -35 1l-49 49q-51 -24 -121 -24zM475 402q0 62 -38.5 100.5t-102.5 38.5q-65 0 -104 -38.5t-39 -100.5q0 -74 38 -117t105 -43q66 0 103.5 43t37.5 117z" />
    <glyph glyph-name="yen" unicode="&#xa5;" horiz-adv-x="753" 
d="M256 97q26 0 37 9t12 34v157l-173 271q-36 57 -67 57h-14q-23 0 -23 23v53q0 12 5 16.5t18 4.5h258q14 0 18.5 -4t4.5 -18v-48q0 -24 -23 -24h-10q-35 0 -16 -32l110 -193l126 193q8 15 3 22t-15 7h-15q-23 0 -23 27v49q0 13 4.5 17t18.5 4h210q14 0 18.5 -4t4.5 -17v-53
q0 -23 -23 -23h-19q-18 0 -43 -37l-190 -274v-165q0 -33 10 -42.5t38 -9.5h13q13 0 17 -3.5t4 -13.5v-59q0 -13 -4 -17t-17 -4h-267q-12 0 -16.5 4t-4.5 17v59q0 10 4 13.5t17 3.5h12z" />
    <glyph glyph-name="brokenbar" unicode="&#xa6;" horiz-adv-x="290" 
d="M77 716q0 25 26 26h85q24 0 24 -25v-320q0 -25 -26 -26h-85q-24 0 -24 25v320zM212 -133q0 -25 -26 -26h-85q-24 0 -24 25v310q0 25 26 26h85q22 0 24 -24v-311z" />
    <glyph glyph-name="section" unicode="&#xa7;" horiz-adv-x="518" 
d="M38 116q0 35 23 58.5t54 23.5t52.5 -21.5t21.5 -55.5q0 -24 -13 -45q33 -9 65 -9q85 0 85 59q0 25 -28.5 43t-68.5 31t-80.5 29.5t-69 48t-28.5 76.5q0 94 83 129q-65 42 -65 107q0 73 52.5 110t144.5 37q115 0 155.5 -29.5t41.5 -76.5q0 -35 -23.5 -57.5t-55.5 -22.5
q-30 0 -51 20.5t-21 54.5q0 15 2 22q-27 8 -53 8q-66 0 -66 -45q0 -23 29 -40t70.5 -30.5t83.5 -30.5t71 -49t29 -77q0 -90 -77 -134q59 -39 59 -102q0 -82 -63 -122t-164 -40q-86 0 -140.5 32t-54.5 92v6zM344 362q0 30 -47 53q-31 7 -54 7q-66 0 -66 -47q0 -13 7.5 -23.5
t25.5 -20t31.5 -15t41.5 -15.5q61 8 61 61z" />
    <glyph glyph-name="dieresis" unicode="&#xa8;" horiz-adv-x="512" 
d="M16 681q0 34 23 57.5t54 23.5q30 0 50.5 -21t20.5 -55t-23 -56t-54 -22t-51 20t-20 53zM211 681q0 34 22.5 57.5t53.5 23.5q30 0 51 -21t21 -55t-23 -56t-55 -22q-30 0 -50 20t-20 53z" />
    <glyph glyph-name="copyright" unicode="&#xa9;" horiz-adv-x="841" 
d="M421 -13q-185 0 -284.5 105.5t-99.5 272.5q0 165 100 268.5t285 103.5t283.5 -103t98.5 -268q0 -168 -99 -273.5t-284 -105.5zM708 370q0 137 -77.5 216.5t-208.5 79.5t-210 -80t-79 -216q0 -139 78 -225.5t210 -86.5t209.5 86.5t77.5 225.5zM440 562q77 0 123 -40
q25 -18 25 -51q0 -29 -18.5 -47t-45.5 -18q-25 0 -41.5 16.5t-16.5 44.5q0 14 4 25q-18 2 -30 2q-49 0 -73 -36t-24 -92q0 -118 116 -118q43 0 93 24q20 9 24 9q11 0 11 -10v-40q0 -15 -15 -22q-55 -29 -133 -29q-97 0 -151 50.5t-54 130.5q0 88 55.5 144.5t150.5 56.5z" />
    <glyph glyph-name="ordfeminine" unicode="&#xaa;" horiz-adv-x="430" 
d="M52 677q0 9 1 14q7 34 40.5 47.5t100.5 13.5q74 0 111 -27.5t37 -99.5v-128q2 -30 27 -30q3 0 20 7q6 2 8.5 0t2.5 -12v-35q0 -13 -13 -19q-19 -9 -46 -9q-53 0 -76 38q-36 -38 -107 -38q-59 0 -91 28.5t-32 81.5q0 59 58 88t160 29v15q0 22 -15.5 34.5t-42.5 12.5
q-15 0 -39 -2v-6q0 -24 -16 -39.5t-39 -15.5q-21 0 -35 14.5t-14 37.5zM126 505q0 -37 45 -37q39 0 60.5 22.5t21.5 62.5v13q-127 0 -127 -61z" />
    <glyph glyph-name="guillemotleft" unicode="&#xab;" horiz-adv-x="797" 
d="M442 82q20 -16 20 -30q0 -25 -26 -25h-84q-21 0 -42 13l-251 163q-20 13 -26 27t-6 47t6 47t26 27l251 163q21 13 42 13h84q26 0 26 -25q0 -14 -20 -30l-301 -195zM742 82q20 -16 20 -30q0 -25 -26 -25h-84q-21 0 -42 13l-251 163q-20 13 -26 27t-6 47t6 47t26 27
l251 163q21 13 42 13h84q26 0 26 -25q0 -14 -20 -30l-301 -195z" />
    <glyph glyph-name="logicalnot" unicode="&#xac;" horiz-adv-x="609" 
d="M77 439h442q15 0 25.5 -10.5t10.5 -25.5v-246q0 -15 -10.5 -25t-24.5 -10h-70q-15 0 -25.5 10t-10.5 25v145h-337q-15 0 -26 10.5t-11 26.5v64q0 16 11 26t26 10z" />
    <glyph glyph-name="registered" unicode="&#xae;" horiz-adv-x="841" 
d="M421 -13q-185 0 -284.5 105.5t-99.5 272.5q0 165 100 268.5t285 103.5t283.5 -103t98.5 -268q0 -168 -99 -273.5t-284 -105.5zM708 370q0 137 -77.5 216.5t-208.5 79.5t-210 -80t-79 -216q0 -139 78 -225.5t210 -86.5t209.5 86.5t77.5 225.5zM291 480q0 19 -6.5 25
t-26.5 6q-11 0 -11 12v31q0 8 2.5 10.5t10.5 2.5h151q97 0 139.5 -25t42.5 -91q0 -85 -87 -111q32 -19 62 -94q5 -14 23 -14q7 0 18 5q4 2 6 0t2 -10v-35q0 -11 -10 -17q-20 -9 -42 -9q-55 0 -73 44q-2 4 -8 20t-9.5 23.5t-10.5 22t-14 22.5t-15.5 17t-19 13t-22.5 4h-19
v-73q0 -20 6 -25.5t23 -5.5h2q8 0 10.5 -2t2.5 -8v-33q0 -8 -2.5 -10.5t-10.5 -2.5h-145q-8 0 -10.5 2.5t-2.5 10.5v33q0 10 13 10h2q16 0 22.5 6.5t6.5 24.5v221zM374 387h43q81 0 81 64q0 61 -83 61h-41v-125z" />
    <glyph glyph-name="macron" unicode="&#xaf;" horiz-adv-x="315" 
d="M309 631h-265q-18 0 -25 17.5t-7 59.5q0 13 5 19.5t10.5 7.5t17.5 1h249q20 0 26.5 -17.5t6.5 -54.5q0 -33 -18 -33z" />
    <glyph glyph-name="degree" unicode="&#xb0;" horiz-adv-x="374" 
d="M187 431q-70 0 -113 45t-43 114q0 68 43.5 112.5t113.5 44.5q71 0 113.5 -44t42.5 -112q0 -70 -43.5 -115t-113.5 -45zM269 590q0 45 -22 71.5t-59 26.5t-59.5 -27t-22.5 -71q0 -45 22.5 -73t59.5 -28q36 0 58.5 28t22.5 73z" />
    <glyph glyph-name="plusminus" unicode="&#xb1;" horiz-adv-x="503" 
d="M297 499v-115h125q38 0 38 -54q0 -21 -9 -31t-33 -10h-121v-127q0 -39 -54 -39q-27 0 -34.5 16t-7.5 54v96h-120q-39 0 -39 54q0 27 15.5 34t54.5 7h89v119q0 38 55 38q21 0 31 -9t10 -33zM440 -27h-378q-12 0 -16 4t-4 16v57q0 11 4 14.5t16 3.5h378q12 0 16 -3.5
t4 -14.5v-57q0 -12 -4 -16t-16 -4z" />
    <glyph glyph-name="twosuperior" unicode="&#xb2;" 
d="M17 720q0 25 17 41.5t39 16.5q29 0 45 -26q-37 -9 -37 -26h-63q0 42 37 69t104 27q72 0 108.5 -31t36.5 -78q0 -34 -19 -65.5t-60 -72.5l-93 -94h48q10 0 18 1t13.5 1.5t10.5 3.5t7.5 4t7 6.5t5.5 7t6 10t6 10.5l2 10q3 12 14 12h35q8 0 9.5 -2.5t0.5 -10.5l-10 -88
q-1 -18 -6 -22t-19 -4h-251q-12 0 -12 14v26q0 17 21 38l128 125q39 39 39 84q0 24 -12 36.5t-43 12.5q-19 0 -32 -4q8 -13 8 -30q0 -25 -16.5 -40.5t-40.5 -15.5q-21 0 -36.5 15t-15.5 39z" />
    <glyph glyph-name="threesuperior" unicode="&#xb3;" horiz-adv-x="323" 
d="M16 726v7q3 41 38.5 65.5t94.5 24.5q63 0 97.5 -28t34.5 -79q0 -41 -20.5 -63t-42.5 -23q89 -11 89 -97q0 -60 -42.5 -90t-115.5 -30q-86 0 -118 16q-8 3 -8 14v48q0 10 7 10q1 0 15 -4q60 -12 87 -12q71 0 71 53q0 28 -17.5 41t-42.5 13h-22q-7 0 -8.5 2t-1.5 9v52
q0 9 10 9h21q46 0 46 48q0 44 -44 44q-15 0 -26 -4q6 -10 6 -25q0 -25 -16.5 -40t-39.5 -15q-22 0 -37 15t-15 39z" />
    <glyph glyph-name="acute" unicode="&#xb4;" horiz-adv-x="276" 
d="M72 642l-12 26q-6 10 -5.5 16t11.5 11l159 78q18 10 27 -3l39 -70q6 -7 3.5 -13.5t-17.5 -10.5l-177 -45q-19 -6 -28 11z" />
    <glyph glyph-name="mu" unicode="&#xb5;" horiz-adv-x="692" 
d="M323 96q62 0 94.5 47.5t32.5 135.5v115q-2 19 -13 26t-45 7q-18 0 -18 22v55q0 11 4 15.5t17 5.5l167 9q14 0 19 -6.5t5 -21.5v-372q2 -39 29 -39q11 0 20 2t13 2q5 1 7.5 -1t2.5 -9v-60q0 -19 -14 -24q-25 -11 -82 -11q-80 0 -103 60q-54 -69 -185 -69q-12 0 -34 2v-200
v-3q0 -4 -0.5 -6t-3 -3.5t-7.5 -1.5h-112q-7 0 -9 2.5t-2 9.5v601q0 25 -10.5 33t-47.5 8q-18 0 -18 22v55q0 11 4 15.5t17 5.5l167 9q14 0 18.5 -6t4.5 -22v-330q0 -80 82 -80z" />
    <glyph glyph-name="paragraph" unicode="&#xb6;" horiz-adv-x="607" 
d="M203 -94v452q-75 0 -125 47.5t-50 127.5q0 83 49 135.5t126 53.5h343q22 0 22 -21v-52q0 -24 -19 -24q-40 0 -52.5 -9.5t-12.5 -42.5v-665q0 -12 -3 -13t-8 -1h-81q-11 0 -11 11v722h-74v-722q0 -5 -0.5 -6.5t-2.5 -3t-6 -1.5h-84q-8 0 -9.5 2t-1.5 10z" />
    <glyph glyph-name="periodcentered" unicode="&#xb7;" horiz-adv-x="258" 
d="M43 291q0 39 26.5 66t62.5 27q34 0 58.5 -23.5t24.5 -62.5q0 -40 -26.5 -65.5t-63.5 -25.5q-35 0 -58.5 23.5t-23.5 60.5z" />
    <glyph glyph-name="cedilla" unicode="&#xb8;" horiz-adv-x="291" 
d="M65 -78l36 87l62 -2l-15 -40q107 3 107 -80q0 -95 -144 -95q-13 0 -41 2t-29 2q-7 0 -7 14v35q0 8 1.5 9.5t7.5 1.5q37 -5 57 -5q60 0 60 34q0 28 -42 28q-9 0 -25 -1.5t-20 -1.5q-14 0 -8 12z" />
    <glyph glyph-name="onesuperior" unicode="&#xb9;" horiz-adv-x="253" 
d="M87 512v209q-2 11 -13 8l-42 -10q-13 -3 -13 10v45q0 9 14 13l104 28q20 5 30 5q13 0 13 -16v-292q0 -21 7 -26t44 -5h3q13 0 13 -9v-39q0 -13 -13 -13h-202q-13 0 -13 13v39q0 9 13 9h2q38 0 45.5 5.5t7.5 25.5z" />
    <glyph glyph-name="ordmasculine" unicode="&#xba;" horiz-adv-x="390" 
d="M34 534q0 79 40 131t122 52q80 0 120.5 -52.5t40.5 -130.5q0 -79 -40 -131t-121 -52q-82 0 -122 51.5t-40 131.5zM196 652q-74 0 -74 -119q0 -55 18.5 -86.5t55.5 -31.5q35 0 53.5 31.5t18.5 86.5q0 56 -18.5 87.5t-53.5 31.5z" />
    <glyph glyph-name="guillemotright" unicode="&#xbb;" horiz-adv-x="797" 
d="M55 82l301 195l-301 195q-20 14 -20 30q0 25 26 25h83q22 0 43 -13l250 -163q21 -13 26.5 -26.5t5.5 -47.5t-5.5 -47.5t-26.5 -26.5l-250 -163q-21 -13 -43 -13h-83q-26 0 -26 25q0 16 20 30zM355 82l301 195l-301 195q-20 14 -20 30q0 25 26 25h83q22 0 43 -13l250 -163
q21 -13 26.5 -26.5t5.5 -47.5t-5.5 -47.5t-26.5 -26.5l-250 -163q-21 -13 -43 -13h-83q-26 0 -26 25q0 16 20 30z" />
    <glyph glyph-name="onequarter" unicode="&#xbc;" horiz-adv-x="635" 
d="M57 83l447 645q14 20 33 19q19 0 37.5 -12t18.5 -34q3 -15 -12 -35l-446 -644q-16 -22 -36 -21q-19 1 -36 14.5t-17 37.5q-1 13 11 30zM415 147h66v52q0 8 9 8h77q8 0 8 -8v-52h28q8 0 10.5 -0.5t4.5 -3t2 -8.5v-35q0 -13 -16 -13h-29q1 -15 7.5 -19.5t21.5 -4.5h3
q13 0 13 -9v-39q0 -8 -2.5 -10.5t-10.5 -2.5h-158q-13 0 -13 13v39q0 9 13 9h3q15 0 21.5 5t7.5 19h-157q-12 0 -15 2.5t-3 12.5v28q0 12 5 15l183 241q9 13 19 13h75q21 0 4 -22zM92 512v209q-2 11 -13 8l-42 -10q-13 -3 -13 10v45q0 9 14 13l104 28q20 5 30 5q13 0 13 -16
v-292q0 -21 7 -26t44 -5h3q13 0 13 -9v-39q0 -13 -13 -13h-202q-13 0 -13 13v39q0 9 13 9h2q38 0 45.5 5.5t7.5 25.5z" />
    <glyph glyph-name="onehalf" unicode="&#xbd;" horiz-adv-x="731" 
d="M95 512v209q-2 11 -13 8l-42 -10q-13 -3 -13 10v45q0 9 14 13l104 28q20 5 30 5q13 0 13 -16v-292q0 -21 7 -26t44 -5h3q13 0 13 -9v-39q0 -13 -13 -13h-202q-13 0 -13 13v39q0 9 13 9h2q38 0 45.5 5.5t7.5 25.5zM393 300q0 25 17 41.5t39 16.5q29 0 45 -26
q-37 -9 -37 -26h-63q0 42 37 69t104 27q72 0 108.5 -31t36.5 -78q0 -34 -19 -65.5t-60 -72.5l-93 -94h48q10 0 18 1t13.5 1.5t10.5 3.5t7.5 4t7 6.5t5.5 7t6 10t6 10.5l2 10q3 12 14 12h35q8 0 9.5 -2.5t0.5 -10.5l-10 -88q-1 -18 -6 -22t-19 -4h-251q-12 0 -12 14v26
q0 17 21 38l128 125q39 39 39 84q0 24 -12 36.5t-43 12.5q-19 0 -32 -4q8 -13 8 -30q0 -25 -16.5 -40.5t-40.5 -15.5q-21 0 -36.5 15t-15.5 39zM59 83l447 645q14 20 33 19q19 0 37.5 -12t18.5 -34q3 -15 -12 -35l-446 -644q-16 -22 -36 -21q-19 1 -36 14.5t-17 37.5
q-1 13 11 30z" />
    <glyph glyph-name="threequarters" unicode="&#xbe;" horiz-adv-x="697" 
d="M111 83l447 645q14 20 33 19q19 0 37.5 -12t18.5 -34q3 -15 -12 -35l-446 -644q-16 -22 -36 -21q-19 1 -36 14.5t-17 37.5q-1 13 11 30zM523 0q-13 0 -13 13v39q0 9 13 9h3q15 0 21.5 5t7.5 19h-157q-12 0 -15 2.5t-3 12.5v28q0 12 5 15l183 241q9 13 19 13h75
q21 0 4 -22l-177 -230h66v52q0 8 9 8h77q8 0 8 -8v-52h28q8 0 10.5 -0.5t4.5 -3t2 -8.5v-35q0 -13 -16 -13h-29q1 -15 7.5 -19.5t21.5 -4.5h3q13 0 13 -9v-39q0 -8 -2.5 -10.5t-10.5 -2.5h-158zM11 726v7q3 41 38.5 65.5t94.5 24.5q63 0 97.5 -28t34.5 -79q0 -41 -20.5 -63
t-42.5 -23q89 -11 89 -97q0 -60 -42.5 -90t-115.5 -30q-86 0 -118 16q-8 3 -8 14v48q0 10 7 10q1 0 15 -4q60 -12 87 -12q71 0 71 53q0 28 -17.5 41t-42.5 13h-22q-7 0 -8.5 2t-1.5 9v52q0 9 10 9h21q46 0 46 48q0 44 -44 44q-15 0 -26 -4q6 -10 6 -25q0 -25 -16.5 -40
t-39.5 -15q-22 0 -37 15t-15 39z" />
    <glyph glyph-name="questiondown" unicode="&#xbf;" horiz-adv-x="557" 
d="M181 197q0 -42 26.5 -70t78.5 -28q48 0 76 19q-16 22 -16 54q0 39 26.5 64.5t62.5 25.5q35 0 59.5 -24.5t24.5 -63.5v-4q0 -67 -60.5 -121t-179.5 -54q-117 0 -183.5 56.5t-66.5 142.5q0 48 21 88.5t50.5 67t59.5 49.5t51 48t21 51v10q0 22 31 22h76q29 0 29 -33
q0 -34 -19.5 -64.5t-47 -55t-54.5 -49.5t-46.5 -59t-19.5 -72zM220 627q0 39 26 64.5t62 25.5t60.5 -24.5t24.5 -63.5q0 -40 -26 -64t-64 -24q-35 0 -59 23.5t-24 62.5z" />
    <glyph glyph-name="Agrave" unicode="&#xc0;" horiz-adv-x="744" 
d="M512 150l-27 75h-260l-28 -83q-8 -25 0.5 -34.5t32.5 -12.5l10 -1q22 -2 22 -22v-51q0 -13 -4.5 -17t-17.5 -4h-224q-12 0 -16.5 4t-4.5 17v52q0 22 21 24l27 1q15 1 23.5 10t19.5 41l196 560q4 10 8.5 12.5t18.5 2.5h124q18 0 24 -14l201 -554q15 -39 24 -48t34 -11h16
q14 -1 18 -5.5t4 -14.5v-56q0 -13 -4.5 -17t-17.5 -4h-259q-14 0 -18 4t-4 17v51q0 10 4 14.5t18 6.5h9q20 3 28.5 8.5t8.5 17.5q0 13 -7 31zM354 600l-96 -280h194zM393 832l-13 -26q-6 -16 -28 -11l-182 47q-17 5 -8 22l38 70q8 13 27 3l160 -77q10 -5 11 -11t-5 -17z" />
    <glyph glyph-name="Aacute" unicode="&#xc1;" horiz-adv-x="744" 
d="M512 150l-27 75h-260l-28 -83q-8 -25 0.5 -34.5t32.5 -12.5l10 -1q22 -2 22 -22v-51q0 -13 -4.5 -17t-17.5 -4h-224q-12 0 -16.5 4t-4.5 17v52q0 22 21 24l27 1q15 1 23.5 10t19.5 41l196 560q4 10 8.5 12.5t18.5 2.5h124q18 0 24 -14l201 -554q15 -39 24 -48t34 -11h16
q14 -1 18 -5.5t4 -14.5v-56q0 -13 -4.5 -17t-17.5 -4h-259q-14 0 -18 4t-4 17v51q0 10 4 14.5t18 6.5h9q20 3 28.5 8.5t8.5 17.5q0 13 -7 31zM354 600l-96 -280h194zM328 806l-12 26q-6 10 -5.5 16t11.5 11l159 78q18 10 27 -3l39 -70q6 -7 3.5 -13.5t-17.5 -10.5l-177 -45
q-19 -6 -28 11z" />
    <glyph glyph-name="Acircumflex" unicode="&#xc2;" horiz-adv-x="744" 
d="M512 150l-27 75h-260l-28 -83q-8 -25 0.5 -34.5t32.5 -12.5l10 -1q22 -2 22 -22v-51q0 -13 -4.5 -17t-17.5 -4h-224q-12 0 -16.5 4t-4.5 17v52q0 22 21 24l27 1q15 1 23.5 10t19.5 41l196 560q4 10 8.5 12.5t18.5 2.5h124q18 0 24 -14l201 -554q15 -39 24 -48t34 -11h16
q14 -1 18 -5.5t4 -14.5v-56q0 -13 -4.5 -17t-17.5 -4h-259q-14 0 -18 4t-4 17v51q0 10 4 14.5t18 6.5h9q20 3 28.5 8.5t8.5 17.5q0 13 -7 31zM354 600l-96 -280h194zM419 805l-51 43l-51 -43q-1 -1 -4 -3.5t-4 -3.5t-3.5 -2.5t-4 -1.5t-5 -1t-7 -1h-8.5h-47q-26 0 -25 10
q1 4 6 9l109 100q10 10 17.5 12t26.5 2q20 0 27 -2t17 -12l109 -100q5 -5 5 -9.5t-6.5 -7t-16.5 -2.5h-48h-7t-6 0.5t-4.5 0.5t-3.5 1l-3 1.5t-2.5 1.5t-2.5 2t-3.5 3t-3.5 3z" />
    <glyph glyph-name="Atilde" unicode="&#xc3;" horiz-adv-x="744" 
d="M512 150l-27 75h-260l-28 -83q-8 -25 0.5 -34.5t32.5 -12.5l10 -1q22 -2 22 -22v-51q0 -13 -4.5 -17t-17.5 -4h-224q-12 0 -16.5 4t-4.5 17v52q0 22 21 24l27 1q15 1 23.5 10t19.5 41l196 560q4 10 8.5 12.5t18.5 2.5h124q18 0 24 -14l201 -554q15 -39 24 -48t34 -11h16
q14 -1 18 -5.5t4 -14.5v-56q0 -13 -4.5 -17t-17.5 -4h-259q-14 0 -18 4t-4 17v51q0 10 4 14.5t18 6.5h9q20 3 28.5 8.5t8.5 17.5q0 13 -7 31zM354 600l-96 -280h194zM416 878q28 0 31 20q3 11 14 11h47q13 0 13 -14q0 -49 -24.5 -76t-69.5 -27q-43 0 -63 20q-14 14 -32 14
q-26 0 -31 -20q-2 -7 -4.5 -9t-10.5 -2h-46q-13 0 -13 15q0 49 24 75.5t70 26.5q39 0 63 -22q12 -12 32 -12z" />
    <glyph glyph-name="Adieresis" unicode="&#xc4;" horiz-adv-x="744" 
d="M512 150l-27 75h-260l-28 -83q-8 -25 0.5 -34.5t32.5 -12.5l10 -1q22 -2 22 -22v-51q0 -13 -4.5 -17t-17.5 -4h-224q-12 0 -16.5 4t-4.5 17v52q0 22 21 24l27 1q15 1 23.5 10t19.5 41l196 560q4 10 8.5 12.5t18.5 2.5h124q18 0 24 -14l201 -554q15 -39 24 -48t34 -11h16
q14 -1 18 -5.5t4 -14.5v-56q0 -13 -4.5 -17t-17.5 -4h-259q-14 0 -18 4t-4 17v51q0 10 4 14.5t18 6.5h9q20 3 28.5 8.5t8.5 17.5q0 13 -7 31zM354 600l-96 -280h194zM198 864q0 34 23 57.5t54 23.5q30 0 50.5 -21t20.5 -55t-23 -56t-54 -22t-51 20t-20 53zM393 864
q0 34 22.5 57.5t53.5 23.5q30 0 51 -21t21 -55t-23 -56t-55 -22q-30 0 -50 20t-20 53z" />
    <glyph glyph-name="Aring" unicode="&#xc5;" horiz-adv-x="744" 
d="M512 150l-27 75h-260l-28 -83q-8 -25 0.5 -34.5t32.5 -12.5l10 -1q22 -2 22 -22v-51q0 -13 -4.5 -17t-17.5 -4h-224q-12 0 -16.5 4t-4.5 17v52q0 22 21 24l27 1q15 1 23.5 10t19.5 41l196 560q4 10 8.5 12.5t18.5 2.5h124q18 0 24 -14l201 -554q15 -39 24 -48t34 -11h16
q14 -1 18 -5.5t4 -14.5v-56q0 -13 -4.5 -17t-17.5 -4h-259q-14 0 -18 4t-4 17v51q0 10 4 14.5t18 6.5h9q20 3 28.5 8.5t8.5 17.5q0 13 -7 31zM354 600l-96 -280h194zM368 780q-59 0 -95 23.5t-36 60.5q0 38 35.5 61t95.5 23t96 -23t36 -61q0 -37 -36.5 -60.5t-95.5 -23.5z
M368 834q36 0 36 30q0 15 -10 23.5t-26 8.5t-26.5 -8.5t-10.5 -23.5q0 -14 10.5 -22t26.5 -8z" />
    <glyph glyph-name="AE" unicode="&#xc6;" horiz-adv-x="961" 
d="M436 227h-215l-30 -83q-8 -29 -1 -36.5t31 -10.5l12 -1q21 -2 21 -23v-52q0 -12 -4.5 -16.5t-16.5 -4.5h-222q-12 0 -16.5 4t-4.5 17v53q0 23 21 23l27 1q15 1 24 10t22 44l204 548q5 15 11 18.5t25 3.5h533q29 0 36.5 -7t9.5 -40l7 -129q1 -9 0.5 -14.5t-4.5 -7.5
t-13 -2h-63q-21 0 -23 22l-5 36q-4 33 -27 40t-101 7h-95v-224h77q31 0 36 28l4 29q2 13 6 16.5t15 3.5h43q11 0 14 -4.5t3 -17.5v-205q0 -12 -3 -17t-14 -5h-43q-10 0 -14.5 4.5t-6.5 15.5l-4 30q-5 27 -36 27h-77v-213h131q69 0 88.5 11.5t32.5 63.5l6 32q4 20 25 20h51
q13 0 16 -4.5t1 -17.5l-16 -153q-3 -32 -11.5 -39.5t-32.5 -7.5h-496q-12 0 -16.5 4.5t-4.5 16.5v52q0 24 18 24q40 0 52.5 10t12.5 42v78zM360 605l-104 -283h180v302h-50q-18 0 -26 -19z" />
    <glyph glyph-name="Ccedilla" unicode="&#xc7;" horiz-adv-x="693" 
d="M341 -76l27 66q-156 9 -248 102.5t-92 268.5q0 165 99 267.5t276 102.5q128 0 193.5 -54t65.5 -121v-6q0 -40 -26.5 -64t-64.5 -24q-35 0 -58.5 23.5t-23.5 62.5q0 37 24 63q-43 16 -100 16q-118 0 -175.5 -76t-57.5 -194q0 -117 59.5 -186t183.5 -69q112 0 211 51
q11 7 18 9.5t13 -1t6 -16.5v-74q0 -14 -15 -24q-76 -51 -225 -57l-7 -21q107 3 107 -80q0 -95 -144 -95q-13 0 -41 2t-29 2q-7 0 -7 14v35q0 8 1.5 9.5t7.5 1.5q37 -5 57 -5q60 0 60 34q0 28 -42 28q-9 0 -25 -1.5t-20 -1.5q-14 0 -8 12z" />
    <glyph glyph-name="Egrave" unicode="&#xc8;" horiz-adv-x="646" 
d="M60 0q-12 0 -16.5 4.5t-4.5 16.5v52q0 24 18 24q40 0 52.5 10t12.5 42v426q0 25 -7.5 36t-26.5 13q-9 1 -30 1q-19 0 -19 20v56q0 13 4.5 17t17.5 4h480q29 0 37 -7t9 -40l7 -129q1 -14 -2.5 -19t-17.5 -5h-60q-21 0 -23 22l-4 36q-4 33 -27 40t-102 7h-92v-224h62
q31 0 36 28l4 28q2 14 6 17.5t16 3.5h54q8 0 11.5 -2.5t4 -6t0.5 -13.5v-204q0 -13 -2.5 -17.5t-13.5 -4.5h-54q-11 0 -15.5 4t-6.5 16l-5 29q-5 27 -35 27h-62v-213h128q64 0 82 11t31 59l6 37q5 20 25 20h60q12 0 15 -4.5t1 -17.5l-16 -159q-3 -28 -10.5 -34.5t-29.5 -6.5
h-498zM353 832l-13 -26q-6 -16 -28 -11l-182 47q-17 5 -8 22l38 70q8 13 27 3l160 -77q10 -5 11 -11t-5 -17z" />
    <glyph glyph-name="Eacute" unicode="&#xc9;" horiz-adv-x="646" 
d="M60 0q-12 0 -16.5 4.5t-4.5 16.5v52q0 24 18 24q40 0 52.5 10t12.5 42v426q0 25 -7.5 36t-26.5 13q-9 1 -30 1q-19 0 -19 20v56q0 13 4.5 17t17.5 4h480q29 0 37 -7t9 -40l7 -129q1 -14 -2.5 -19t-17.5 -5h-60q-21 0 -23 22l-4 36q-4 33 -27 40t-102 7h-92v-224h62
q31 0 36 28l4 28q2 14 6 17.5t16 3.5h54q8 0 11.5 -2.5t4 -6t0.5 -13.5v-204q0 -13 -2.5 -17.5t-13.5 -4.5h-54q-11 0 -15.5 4t-6.5 16l-5 29q-5 27 -35 27h-62v-213h128q64 0 82 11t31 59l6 37q5 20 25 20h60q12 0 15 -4.5t1 -17.5l-16 -159q-3 -28 -10.5 -34.5t-29.5 -6.5
h-498zM288 806l-12 26q-6 10 -5.5 16t11.5 11l159 78q18 10 27 -3l39 -70q6 -7 3.5 -13.5t-17.5 -10.5l-177 -45q-19 -6 -28 11z" />
    <glyph glyph-name="Ecircumflex" unicode="&#xca;" horiz-adv-x="646" 
d="M60 0q-12 0 -16.5 4.5t-4.5 16.5v52q0 24 18 24q40 0 52.5 10t12.5 42v426q0 25 -7.5 36t-26.5 13q-9 1 -30 1q-19 0 -19 20v56q0 13 4.5 17t17.5 4h480q29 0 37 -7t9 -40l7 -129q1 -14 -2.5 -19t-17.5 -5h-60q-21 0 -23 22l-4 36q-4 33 -27 40t-102 7h-92v-224h62
q31 0 36 28l4 28q2 14 6 17.5t16 3.5h54q8 0 11.5 -2.5t4 -6t0.5 -13.5v-204q0 -13 -2.5 -17.5t-13.5 -4.5h-54q-11 0 -15.5 4t-6.5 16l-5 29q-5 27 -35 27h-62v-213h128q64 0 82 11t31 59l6 37q5 20 25 20h60q12 0 15 -4.5t1 -17.5l-16 -159q-3 -28 -10.5 -34.5t-29.5 -6.5
h-498zM379 805l-51 43l-51 -43q-1 -1 -4 -3.5t-4 -3.5t-3.5 -2.5t-4 -1.5t-5 -1t-7 -1h-8.5h-47q-26 0 -25 10q1 4 6 9l109 100q10 10 17.5 12t26.5 2q20 0 27 -2t17 -12l109 -100q5 -5 5 -9.5t-6.5 -7t-16.5 -2.5h-48h-7t-6 0.5t-4.5 0.5t-3.5 1l-3 1.5t-2.5 1.5t-2.5 2
t-3.5 3t-3.5 3z" />
    <glyph glyph-name="Edieresis" unicode="&#xcb;" horiz-adv-x="646" 
d="M60 0q-12 0 -16.5 4.5t-4.5 16.5v52q0 24 18 24q40 0 52.5 10t12.5 42v426q0 25 -7.5 36t-26.5 13q-9 1 -30 1q-19 0 -19 20v56q0 13 4.5 17t17.5 4h480q29 0 37 -7t9 -40l7 -129q1 -14 -2.5 -19t-17.5 -5h-60q-21 0 -23 22l-4 36q-4 33 -27 40t-102 7h-92v-224h62
q31 0 36 28l4 28q2 14 6 17.5t16 3.5h54q8 0 11.5 -2.5t4 -6t0.5 -13.5v-204q0 -13 -2.5 -17.5t-13.5 -4.5h-54q-11 0 -15.5 4t-6.5 16l-5 29q-5 27 -35 27h-62v-213h128q64 0 82 11t31 59l6 37q5 20 25 20h60q12 0 15 -4.5t1 -17.5l-16 -159q-3 -28 -10.5 -34.5t-29.5 -6.5
h-498zM158 864q0 34 23 57.5t54 23.5q30 0 50.5 -21t20.5 -55t-23 -56t-54 -22t-51 20t-20 53zM353 864q0 34 22.5 57.5t53.5 23.5q30 0 51 -21t21 -55t-23 -56t-55 -22q-30 0 -50 20t-20 53z" />
    <glyph glyph-name="Igrave" unicode="&#xcc;" horiz-adv-x="386" 
d="M265 149q0 -33 10 -42.5t38 -9.5h13q14 0 18 -3.5t4 -13.5v-59q0 -13 -4.5 -17t-17.5 -4h-267q-12 0 -16.5 4t-4.5 17v59q0 9 4.5 13t16.5 4h12q28 0 39 10.5t11 41.5v424q0 31 -10.5 41.5t-38.5 10.5h-13q-13 0 -17 4t-4 14v58q0 13 4.5 17t16.5 4h267q12 0 16.5 -4
t4.5 -17v-58q0 -11 -4 -14.5t-17 -3.5h-14q-28 0 -37.5 -9.5t-9.5 -42.5v-424zM215 832l-13 -26q-6 -16 -28 -11l-182 47q-17 5 -8 22l38 70q8 13 27 3l160 -77q10 -5 11 -11t-5 -17z" />
    <glyph glyph-name="Iacute" unicode="&#xcd;" horiz-adv-x="386" 
d="M265 149q0 -33 10 -42.5t39 -9.5h13q13 0 17 -3.5t4 -13.5v-59q0 -13 -4.5 -17t-16.5 -4h-267q-13 0 -17.5 4t-4.5 17v59q0 9 4.5 13t17.5 4h12q27 0 38 10.5t11 41.5v424q0 31 -10.5 41.5t-38.5 10.5h-13q-12 0 -16.5 4t-4.5 14v58q0 13 4.5 17t16.5 4h268q12 0 16.5 -4
t4.5 -17v-58q0 -11 -4 -14.5t-17 -3.5h-14q-28 0 -38 -9.5t-10 -42.5v-424zM150 806l-12 26q-6 10 -5.5 16t11.5 11l159 78q18 10 27 -3l39 -70q6 -7 3.5 -13.5t-17.5 -10.5l-177 -45q-19 -6 -28 11z" />
    <glyph glyph-name="Icircumflex" unicode="&#xce;" horiz-adv-x="386" 
d="M265 149q0 -33 10 -42.5t39 -9.5h13q13 0 17 -3.5t4 -13.5v-59q0 -13 -4.5 -17t-16.5 -4h-267q-13 0 -17.5 4t-4.5 17v59q0 9 4.5 13t17.5 4h12q27 0 38 10.5t11 41.5v424q0 31 -10.5 41.5t-38.5 10.5h-13q-12 0 -16.5 4t-4.5 14v58q0 13 4.5 17t16.5 4h268q12 0 16.5 -4
t4.5 -17v-58q0 -11 -4 -14.5t-17 -3.5h-14q-28 0 -38 -9.5t-10 -42.5v-424zM241 805l-51 43l-51 -43q-1 -1 -4 -3.5t-4 -3.5t-3.5 -2.5t-4 -1.5t-5 -1t-7 -1h-8.5h-47q-26 0 -25 10q1 4 6 9l109 100q10 10 17.5 12t26.5 2q20 0 27 -2t17 -12l109 -100q5 -5 5 -9.5t-6.5 -7
t-16.5 -2.5h-48h-7t-6 0.5t-4.5 0.5t-3.5 1l-3 1.5t-2.5 1.5t-2.5 2t-3.5 3t-3.5 3z" />
    <glyph glyph-name="Idieresis" unicode="&#xcf;" horiz-adv-x="386" 
d="M265 149q0 -33 10 -42.5t39 -9.5h13q13 0 17 -3.5t4 -13.5v-59q0 -13 -4.5 -17t-16.5 -4h-267q-13 0 -17.5 4t-4.5 17v59q0 9 4.5 13t17.5 4h12q27 0 38 10.5t11 41.5v424q0 31 -10.5 41.5t-38.5 10.5h-13q-12 0 -16.5 4t-4.5 14v58q0 13 4.5 17t16.5 4h268q12 0 16.5 -4
t4.5 -17v-58q0 -11 -4 -14.5t-17 -3.5h-14q-28 0 -38 -9.5t-10 -42.5v-424zM20 864q0 34 23 57.5t54 23.5q30 0 50.5 -21t20.5 -55t-23 -56t-54 -22t-51 20t-20 53zM215 864q0 34 22.5 57.5t53.5 23.5q30 0 51 -21t21 -55t-23 -56t-55 -22q-30 0 -50 20t-20 53z" />
    <glyph glyph-name="Eth" unicode="&#xd0;" horiz-adv-x="771" 
d="M739 360q0 -181 -106 -270.5t-305 -89.5h-267q-12 0 -16.5 4.5t-4.5 16.5v52q0 24 18 24q37 0 50.5 8t14.5 34v149h-61q-12 0 -16 4t-4 16v57q0 11 4 14.5t16 3.5h61v199q-1 22 -9 31t-26 11q-8 1 -30 1q-18 0 -18 20v56q0 13 4.5 17t16.5 4h270q207 0 307.5 -90
t100.5 -272zM440 288h-173v-183h60q136 0 198.5 59.5t62.5 195.5q0 143 -65.5 202.5t-202.5 59.5h-53v-239h173q12 0 16 -3.5t4 -14.5v-57q0 -12 -4 -16t-16 -4z" />
    <glyph glyph-name="Ntilde" unicode="&#xd1;" horiz-adv-x="828" 
d="M71 97q28 0 39 9.5t11 38.5v431q-1 30 -13 39.5t-41 9.5h-5q-14 0 -18.5 4t-4.5 14v58q0 12 5 16.5t18 4.5h147q22 0 34 -15l362 -465v335q0 30 -10 39t-39 9h-13q-13 0 -17 3.5t-4 13.5v59q0 13 4.5 17t16.5 4h236q12 0 16.5 -4t4.5 -17v-58q0 -10 -4.5 -14t-16.5 -4
h-12q-28 0 -39 -9.5t-11 -38.5v-569q0 -9 -4.5 -12.5t-18.5 -3.5h-37q-20 0 -31 13l-393 485v-345q0 -30 10 -39t39 -9h13q13 0 17 -3.5t4 -13.5v-59q0 -13 -4.5 -17t-16.5 -4h-236q-12 0 -16.5 4t-4.5 17v58q0 10 4.5 14t16.5 4h12zM444 878q28 0 31 20q3 11 14 11h47
q13 0 13 -14q0 -49 -24.5 -76t-69.5 -27q-43 0 -63 20q-14 14 -32 14q-26 0 -31 -20q-2 -7 -4.5 -9t-10.5 -2h-46q-13 0 -13 15q0 49 24 75.5t70 26.5q39 0 63 -22q12 -12 32 -12z" />
    <glyph glyph-name="Ograve" unicode="&#xd2;" horiz-adv-x="805" 
d="M30 359q0 54 10.5 104.5t37.5 100.5t68 86.5t106.5 59.5t148.5 23q100 0 174.5 -31t116.5 -84.5t62 -117.5t20 -139q0 -69 -18.5 -131t-58.5 -118.5t-115.5 -90.5t-178.5 -34q-100 0 -174.5 31t-116.5 85t-62 118t-20 138zM401 630q-61 0 -105.5 -24t-68 -65t-34.5 -86
t-11 -95q0 -37 5.5 -71t20.5 -71.5t38.5 -65t64 -45t92.5 -17.5q62 0 107 24.5t68 65.5t33.5 85t10.5 94q0 47 -9.5 89.5t-32 86t-68.5 69.5t-111 26zM427 832l-13 -26q-6 -16 -28 -11l-182 47q-17 5 -8 22l38 70q8 13 27 3l160 -77q10 -5 11 -11t-5 -17z" />
    <glyph glyph-name="Oacute" unicode="&#xd3;" horiz-adv-x="805" 
d="M30 359q0 54 10.5 104.5t37.5 100.5t68 86.5t106.5 59.5t148.5 23q100 0 174.5 -31t116.5 -84.5t62 -117.5t20 -139q0 -69 -18.5 -131t-58.5 -118.5t-115.5 -90.5t-178.5 -34q-100 0 -174.5 31t-116.5 85t-62 118t-20 138zM401 630q-61 0 -105.5 -24t-68 -65t-34.5 -86
t-11 -95q0 -37 5.5 -71t20.5 -71.5t38.5 -65t64 -45t92.5 -17.5q62 0 107 24.5t68 65.5t33.5 85t10.5 94q0 47 -9.5 89.5t-32 86t-68.5 69.5t-111 26zM361 806l-12 26q-6 10 -5.5 16t11.5 11l159 78q18 10 27 -3l39 -70q6 -7 3.5 -13.5t-17.5 -10.5l-177 -45q-19 -6 -28 11z
" />
    <glyph glyph-name="Ocircumflex" unicode="&#xd4;" horiz-adv-x="805" 
d="M30 359q0 54 10.5 104.5t37.5 100.5t68 86.5t106.5 59.5t148.5 23q100 0 174.5 -31t116.5 -84.5t62 -117.5t20 -139q0 -69 -18.5 -131t-58.5 -118.5t-115.5 -90.5t-178.5 -34q-100 0 -174.5 31t-116.5 85t-62 118t-20 138zM401 630q-61 0 -105.5 -24t-68 -65t-34.5 -86
t-11 -95q0 -37 5.5 -71t20.5 -71.5t38.5 -65t64 -45t92.5 -17.5q62 0 107 24.5t68 65.5t33.5 85t10.5 94q0 47 -9.5 89.5t-32 86t-68.5 69.5t-111 26zM452 805l-51 43l-51 -43q-1 -1 -4 -3.5t-4 -3.5t-3.5 -2.5t-4 -1.5t-5 -1t-7 -1h-8.5h-47q-26 0 -25 10q1 4 6 9l109 100
q10 10 17.5 12t26.5 2q20 0 27 -2t17 -12l109 -100q5 -5 5 -9.5t-6.5 -7t-16.5 -2.5h-48h-7t-6 0.5t-4.5 0.5t-3.5 1l-3 1.5t-2.5 1.5t-2.5 2t-3.5 3t-3.5 3z" />
    <glyph glyph-name="Otilde" unicode="&#xd5;" horiz-adv-x="805" 
d="M30 359q0 54 10.5 104.5t37.5 100.5t68 86.5t106.5 59.5t148.5 23q100 0 174.5 -31t116.5 -84.5t62 -117.5t20 -139q0 -69 -18.5 -131t-58.5 -118.5t-115.5 -90.5t-178.5 -34q-100 0 -174.5 31t-116.5 85t-62 118t-20 138zM401 630q-61 0 -105.5 -24t-68 -65t-34.5 -86
t-11 -95q0 -37 5.5 -71t20.5 -71.5t38.5 -65t64 -45t92.5 -17.5q62 0 107 24.5t68 65.5t33.5 85t10.5 94q0 47 -9.5 89.5t-32 86t-68.5 69.5t-111 26zM449 878q28 0 31 20q3 11 14 11h47q13 0 13 -14q0 -49 -24.5 -76t-69.5 -27q-43 0 -63 20q-14 14 -32 14q-26 0 -31 -20
q-2 -7 -4.5 -9t-10.5 -2h-46q-13 0 -13 15q0 49 24 75.5t70 26.5q39 0 63 -22q12 -12 32 -12z" />
    <glyph glyph-name="Odieresis" unicode="&#xd6;" horiz-adv-x="805" 
d="M30 359q0 54 10.5 104.5t37.5 100.5t68 86.5t106.5 59.5t148.5 23q100 0 174.5 -31t116.5 -84.5t62 -117.5t20 -139q0 -69 -18.5 -131t-58.5 -118.5t-115.5 -90.5t-178.5 -34q-100 0 -174.5 31t-116.5 85t-62 118t-20 138zM401 630q-61 0 -105.5 -24t-68 -65t-34.5 -86
t-11 -95q0 -37 5.5 -71t20.5 -71.5t38.5 -65t64 -45t92.5 -17.5q62 0 107 24.5t68 65.5t33.5 85t10.5 94q0 47 -9.5 89.5t-32 86t-68.5 69.5t-111 26zM231 864q0 34 23 57.5t54 23.5q30 0 50.5 -21t20.5 -55t-23 -56t-54 -22t-51 20t-20 53zM426 864q0 34 22.5 57.5
t53.5 23.5q30 0 51 -21t21 -55t-23 -56t-55 -22q-30 0 -50 20t-20 53z" />
    <glyph glyph-name="multiply" unicode="&#xd7;" horiz-adv-x="559" 
d="M280 193l-147 -140q-23 -22 -40 -22t-35 20q-18 18 -18 38q0 18 15 34l148 148l-148 148q-15 16 -15 34q0 20 18 38q18 20 35 20t40 -22l147 -140l146 140q23 22 40 22t35 -20q18 -18 18 -38q0 -18 -15 -34l-147 -148l147 -148q15 -16 15 -34q0 -20 -18 -38
q-18 -20 -35 -20t-40 22z" />
    <glyph glyph-name="Oslash" unicode="&#xd8;" horiz-adv-x="805" 
d="M183 4l12 30q-85 48 -125 134t-40 191q0 54 10.5 104.5t37.5 100.5t68 86.5t106.5 59.5t148.5 23q39 0 85 -7l7 17q7 19 21 16l107 -21q10 -2 11.5 -7t-3.5 -15l-14 -34q81 -49 120 -133.5t39 -187.5q0 -69 -18.5 -131t-58.5 -118.5t-115.5 -90.5t-178.5 -34q-41 0 -77 6
l-7 -17q-5 -10 -9.5 -13t-13.5 -1l-104 21q-11 2 -12.5 5t3.5 16zM401 630q-61 0 -105.5 -24t-68 -65t-34.5 -86t-11 -95q0 -133 64 -206l198 473q-21 3 -43 3zM622 359q0 128 -59 200l-196 -467q11 -2 36 -2q62 0 107 24.5t68 65.5t33.5 85t10.5 94z" />
    <glyph glyph-name="Ugrave" unicode="&#xd9;" horiz-adv-x="811" 
d="M709 278q0 -143 -76.5 -214t-223.5 -71q-146 0 -226.5 69t-80.5 201v310q0 31 -10.5 41.5t-38.5 10.5h-13q-13 0 -17 4t-4 14v58q0 13 4.5 17t16.5 4h267q12 0 16.5 -4t4.5 -17v-58q0 -11 -4 -14.5t-17 -3.5h-14q-28 0 -37.5 -9.5t-9.5 -42.5v-292q0 -175 167 -175
q85 0 131 45t46 132v298q0 27 -10.5 35.5t-38.5 8.5h-13q-13 0 -17.5 4t-4.5 14v58q0 12 5 16.5t17 4.5h243q12 0 16.5 -4t4.5 -17v-58q0 -11 -4 -14.5t-17 -3.5h-14q-28 0 -38 -8t-10 -36v-303zM432 832l-13 -26q-6 -16 -28 -11l-182 47q-17 5 -8 22l38 70q8 13 27 3
l160 -77q10 -5 11 -11t-5 -17z" />
    <glyph glyph-name="Uacute" unicode="&#xda;" horiz-adv-x="811" 
d="M709 278q0 -143 -76.5 -214t-223.5 -71q-146 0 -226.5 69t-80.5 201v310q0 31 -10.5 41.5t-38.5 10.5h-13q-13 0 -17 4t-4 14v58q0 13 4.5 17t16.5 4h267q12 0 16.5 -4t4.5 -17v-58q0 -11 -4 -14.5t-17 -3.5h-14q-28 0 -37.5 -9.5t-9.5 -42.5v-292q0 -175 167 -175
q85 0 131 45t46 132v298q0 27 -10.5 35.5t-38.5 8.5h-13q-13 0 -17.5 4t-4.5 14v58q0 12 5 16.5t17 4.5h243q12 0 16.5 -4t4.5 -17v-58q0 -11 -4 -14.5t-17 -3.5h-14q-28 0 -38 -8t-10 -36v-303zM367 806l-12 26q-6 10 -5.5 16t11.5 11l159 78q18 10 27 -3l39 -70
q6 -7 3.5 -13.5t-17.5 -10.5l-177 -45q-19 -6 -28 11z" />
    <glyph glyph-name="Ucircumflex" unicode="&#xdb;" horiz-adv-x="811" 
d="M709 278q0 -143 -76.5 -214t-223.5 -71q-146 0 -226.5 69t-80.5 201v310q0 31 -10.5 41.5t-38.5 10.5h-13q-13 0 -17 4t-4 14v58q0 13 4.5 17t16.5 4h267q12 0 16.5 -4t4.5 -17v-58q0 -11 -4 -14.5t-17 -3.5h-14q-28 0 -37.5 -9.5t-9.5 -42.5v-292q0 -175 167 -175
q85 0 131 45t46 132v298q0 27 -10.5 35.5t-38.5 8.5h-13q-13 0 -17.5 4t-4.5 14v58q0 12 5 16.5t17 4.5h243q12 0 16.5 -4t4.5 -17v-58q0 -11 -4 -14.5t-17 -3.5h-14q-28 0 -38 -8t-10 -36v-303zM458 805l-51 43l-51 -43q-1 -1 -4 -3.5t-4 -3.5t-3.5 -2.5t-4 -1.5t-5 -1
t-7 -1h-8.5h-47q-26 0 -25 10q1 4 6 9l109 100q10 10 17.5 12t26.5 2q20 0 27 -2t17 -12l109 -100q5 -5 5 -9.5t-6.5 -7t-16.5 -2.5h-48h-7t-6 0.5t-4.5 0.5t-3.5 1l-3 1.5t-2.5 1.5t-2.5 2t-3.5 3t-3.5 3z" />
    <glyph glyph-name="Udieresis" unicode="&#xdc;" horiz-adv-x="811" 
d="M709 278q0 -143 -76.5 -214t-223.5 -71q-146 0 -226.5 69t-80.5 201v310q0 31 -10.5 41.5t-38.5 10.5h-13q-13 0 -17 4t-4 14v58q0 13 4.5 17t16.5 4h267q12 0 16.5 -4t4.5 -17v-58q0 -11 -4 -14.5t-17 -3.5h-14q-28 0 -37.5 -9.5t-9.5 -42.5v-292q0 -175 167 -175
q85 0 131 45t46 132v298q0 27 -10.5 35.5t-38.5 8.5h-13q-13 0 -17.5 4t-4.5 14v58q0 12 5 16.5t17 4.5h243q12 0 16.5 -4t4.5 -17v-58q0 -11 -4 -14.5t-17 -3.5h-14q-28 0 -38 -8t-10 -36v-303zM237 864q0 34 23 57.5t54 23.5q30 0 50.5 -21t20.5 -55t-23 -56t-54 -22
t-51 20t-20 53zM432 864q0 34 22.5 57.5t53.5 23.5q30 0 51 -21t21 -55t-23 -56t-55 -22q-30 0 -50 20t-20 53z" />
    <glyph glyph-name="Yacute" unicode="&#xdd;" horiz-adv-x="666" 
d="M211 97q26 0 37.5 9t12.5 34v151l-167 277q-21 34 -35 45.5t-30 11.5h-14q-21 0 -21 23v53q0 13 4 17t16 4h250q13 0 17.5 -4t4.5 -17v-50q0 -23 -22 -23h-10q-36 0 -15 -32l108 -201l121 202q18 28 -12 28h-14q-21 0 -21 27v49q0 13 4.5 17t16.5 4h209q13 0 17 -4t4 -17
v-53q0 -23 -21 -23h-18q-12 0 -20 -6.5t-23 -30.5l-185 -280v-169q1 -26 11 -34t37 -8h13q14 0 18 -3.5t4 -13.5v-59q0 -13 -4.5 -17t-17.5 -4h-267q-12 0 -16.5 4t-4.5 17v59q0 9 4.5 13t16.5 4h12zM313 806l-12 26q-6 10 -5.5 16t11.5 11l159 78q18 10 27 -3l39 -70
q6 -7 3.5 -13.5t-17.5 -10.5l-177 -45q-19 -6 -28 11z" />
    <glyph glyph-name="Thorn" unicode="&#xde;" horiz-adv-x="643" 
d="M219 544q32 3 62 3q341 0 341 -247q0 -82 -49.5 -139t-120.5 -81t-155 -24q-41 0 -78 6v-195q0 -25 -26 -26h-86q-24 0 -24 25v850q0 25 26 26h86q24 0 24 -25v-173zM219 427v-253q32 -16 82 -16q80 0 124.5 38t44.5 104t-48.5 100.5t-121.5 34.5q-50 0 -81 -8z" />
    <glyph glyph-name="germandbls" unicode="&#xdf;" horiz-adv-x="667" 
d="M373 92q118 0 118 107q0 118 -142 118h-39q-8 0 -10.5 3t-2.5 11v81q0 7 0.5 9t3 4t9.5 2h35q54 0 81 27t27 71q0 50 -33 76t-92 26q-125 0 -125 -120v-708q0 -26 -27 -26h-83q-25 0 -25 25v709q0 106 60 165.5t200 59.5q136 0 201.5 -55t65.5 -150q0 -62 -26 -105.5
t-63 -53.5q57 -16 93.5 -60.5t36.5 -117.5q0 -97 -68 -146.5t-188 -49.5q-90 0 -132 22q-10 6 -10 16v67q0 18 12 18q3 0 42.5 -12.5t80.5 -12.5z" />
    <glyph glyph-name="agrave" unicode="&#xe0;" horiz-adv-x="582" 
d="M499 137q1 -42 29 -42q11 0 19.5 2t12.5 2q11 2 11 -10v-60q0 -19 -14 -24q-25 -11 -81 -11q-80 0 -104 60q-58 -60 -167 -60q-176 0 -176 153q0 52 20.5 87.5t61.5 54t92 26t124 7.5h36v43q0 44 -24 64t-78 20q-25 0 -57 -5q2 -10 2 -16q0 -35 -23.5 -57.5t-55.5 -22.5
q-31 0 -51.5 20.5t-20.5 54.5v9q4 62 53.5 87t149.5 25q124 0 182.5 -42.5t58.5 -156.5v-208zM164 148q0 -58 74 -58q57 0 91 35t34 97v11h-36q-163 0 -163 -85zM303 648l-13 -26q-6 -16 -28 -11l-182 47q-17 5 -8 22l38 70q8 13 27 3l160 -77q10 -5 11 -11t-5 -17z" />
    <glyph glyph-name="aacute" unicode="&#xe1;" horiz-adv-x="582" 
d="M499 137q1 -42 29 -42q11 0 19.5 2t12.5 2q11 2 11 -10v-60q0 -19 -14 -24q-25 -11 -81 -11q-80 0 -104 60q-58 -60 -167 -60q-176 0 -176 153q0 52 20.5 87.5t61.5 54t92 26t124 7.5h36v43q0 44 -24 64t-78 20q-25 0 -57 -5q2 -10 2 -16q0 -35 -23.5 -57.5t-55.5 -22.5
q-31 0 -51.5 20.5t-20.5 54.5v9q4 62 53.5 87t149.5 25q124 0 182.5 -42.5t58.5 -156.5v-208zM164 148q0 -58 74 -58q57 0 91 35t34 97v11h-36q-163 0 -163 -85zM238 622l-12 26q-6 10 -5.5 16t11.5 11l159 78q18 10 27 -3l39 -70q6 -7 3.5 -13.5t-17.5 -10.5l-177 -45
q-19 -6 -28 11z" />
    <glyph glyph-name="acircumflex" unicode="&#xe2;" horiz-adv-x="582" 
d="M499 137q1 -42 29 -42q11 0 19.5 2t12.5 2q11 2 11 -10v-60q0 -19 -14 -24q-25 -11 -81 -11q-80 0 -104 60q-58 -60 -167 -60q-176 0 -176 153q0 52 20.5 87.5t61.5 54t92 26t124 7.5h36v43q0 44 -24 64t-78 20q-25 0 -57 -5q2 -10 2 -16q0 -35 -23.5 -57.5t-55.5 -22.5
q-31 0 -51.5 20.5t-20.5 54.5v9q4 62 53.5 87t149.5 25q124 0 182.5 -42.5t58.5 -156.5v-208zM329 621l-51 43l-51 -43q-1 -1 -4 -3.5t-4 -3.5t-3.5 -2.5t-4 -1.5t-5 -1t-7 -1h-8.5h-47q-26 0 -25 10q1 4 6 9l109 100q10 10 17.5 12t26.5 2q20 0 27 -2t17 -12l109 -100
q5 -5 5 -9.5t-6.5 -7t-16.5 -2.5h-48h-7t-6 0.5t-4.5 0.5t-3.5 1l-3 1.5t-2.5 1.5t-2.5 2t-3.5 3t-3.5 3zM164 148q0 -58 74 -58q57 0 91 35t34 97v11h-36q-163 0 -163 -85z" />
    <glyph glyph-name="atilde" unicode="&#xe3;" horiz-adv-x="582" 
d="M499 137q1 -42 29 -42q11 0 19.5 2t12.5 2q11 2 11 -10v-60q0 -19 -14 -24q-25 -11 -81 -11q-80 0 -104 60q-58 -60 -167 -60q-176 0 -176 153q0 52 20.5 87.5t61.5 54t92 26t124 7.5h36v43q0 44 -24 64t-78 20q-25 0 -57 -5q2 -10 2 -16q0 -35 -23.5 -57.5t-55.5 -22.5
q-31 0 -51.5 20.5t-20.5 54.5v9q4 62 53.5 87t149.5 25q124 0 182.5 -42.5t58.5 -156.5v-208zM326 693q28 0 31 20q3 11 14 11h47q13 0 13 -14q0 -49 -24.5 -76t-69.5 -27q-43 0 -63 20q-14 14 -32 14q-26 0 -31 -20q-2 -7 -4.5 -9t-10.5 -2h-46q-13 0 -13 15q0 49 24 75.5
t70 26.5q39 0 63 -22q12 -12 32 -12zM164 148q0 -58 74 -58q57 0 91 35t34 97v11h-36q-163 0 -163 -85z" />
    <glyph glyph-name="adieresis" unicode="&#xe4;" horiz-adv-x="582" 
d="M499 137q1 -42 29 -42q11 0 19.5 2t12.5 2q11 2 11 -10v-60q0 -19 -14 -24q-25 -11 -81 -11q-80 0 -104 60q-58 -60 -167 -60q-176 0 -176 153q0 52 20.5 87.5t61.5 54t92 26t124 7.5h36v43q0 44 -24 64t-78 20q-25 0 -57 -5q2 -10 2 -16q0 -35 -23.5 -57.5t-55.5 -22.5
q-31 0 -51.5 20.5t-20.5 54.5v9q4 62 53.5 87t149.5 25q124 0 182.5 -42.5t58.5 -156.5v-208zM164 148q0 -58 74 -58q57 0 91 35t34 97v11h-36q-163 0 -163 -85zM303 680q0 34 22.5 57.5t53.5 23.5q30 0 51 -21t21 -55t-23 -56t-55 -22q-30 0 -50 20t-20 53zM108 680
q0 34 23 57.5t54 23.5q30 0 50.5 -21t20.5 -55t-23 -56t-54 -22t-51 20t-20 53z" />
    <glyph glyph-name="aring" unicode="&#xe5;" horiz-adv-x="582" 
d="M499 137q1 -42 29 -42q11 0 19.5 2t12.5 2q11 2 11 -10v-60q0 -19 -14 -24q-25 -11 -81 -11q-80 0 -104 60q-58 -60 -167 -60q-176 0 -176 153q0 52 20.5 87.5t61.5 54t92 26t124 7.5h36v43q0 44 -24 64t-78 20q-25 0 -57 -5q2 -10 2 -16q0 -35 -23.5 -57.5t-55.5 -22.5
q-31 0 -51.5 20.5t-20.5 54.5v9q4 62 53.5 87t149.5 25q124 0 182.5 -42.5t58.5 -156.5v-208zM278 596q-59 0 -95 23.5t-36 60.5q0 38 35.5 61t95.5 23t96 -23t36 -61q0 -37 -36.5 -60.5t-95.5 -23.5zM164 148q0 -58 74 -58q57 0 91 35t34 97v11h-36q-163 0 -163 -85z
M278 650q36 0 36 30q0 15 -10 23.5t-26 8.5t-26.5 -8.5t-10.5 -23.5q0 -14 10.5 -22t26.5 -8z" />
    <glyph glyph-name="ae" unicode="&#xe6;" horiz-adv-x="899" 
d="M640 544q110 0 170.5 -49.5t60.5 -137.5q0 -79 -59 -123t-179 -44q-67 0 -120 13q22 -111 149 -111q62 0 105 12q8 3 23.5 8t27 9t16.5 4q7 1 10 -3t3 -11v-58q0 -15 -3.5 -20.5t-18.5 -12.5q-66 -33 -176 -33q-184 0 -247 109q-23 -47 -73.5 -74.5t-123.5 -27.5
q-176 0 -176 153q0 52 20.5 87.5t61.5 54t92 26t124 7.5h36v43q0 44 -24 64t-78 20q-26 0 -59 -5q4 -16 4 -24q0 -35 -23.5 -57.5t-55.5 -22.5q-31 0 -51.5 20.5t-20.5 54.5v3q0 71 49.5 98.5t153.5 27.5q145 0 198 -57q71 57 184 57zM640 449q-62 0 -93.5 -42.5
t-37.5 -112.5q62 -13 114 -13q115 0 115 81q0 40 -26.5 63.5t-71.5 23.5zM165 148q0 -58 73 -58q57 0 91 35t34 97v11h-36q-162 0 -162 -85z" />
    <glyph glyph-name="ccedilla" unicode="&#xe7;" horiz-adv-x="556" 
d="M182 -65l28 69q-181 47 -181 255q0 138 77 211.5t207 73.5q107 0 158 -44.5t51 -100.5q0 -38 -22 -62t-61 -24q-38 0 -61.5 23t-23.5 60q0 24 9 42q-20 4 -49 4q-74 0 -106.5 -47.5t-32.5 -123.5q0 -86 40 -126.5t129 -40.5q66 0 153 29q20 7 26 4.5t6 -18.5v-64
q0 -21 -16 -28q-70 -35 -191 -35q-26 0 -52 3l-5 -15q107 3 107 -80q0 -95 -144 -95q-13 0 -41 2t-29 2q-7 0 -7 14v35q0 8 1.5 9.5t7.5 1.5q37 -5 57 -5q60 0 60 34q0 28 -42 28q-9 0 -25 -1.5t-20 -1.5q-14 0 -8 12z" />
    <glyph glyph-name="egrave" unicode="&#xe8;" horiz-adv-x="552" 
d="M285 544q108 0 166.5 -46t58.5 -130q0 -78 -54 -123.5t-164 -45.5q-64 0 -116 13q8 -61 42 -88.5t104 -27.5q82 0 137 22q36 14 40 14q11 0 11 -14v-64q0 -17 -21 -28q-68 -33 -179 -33q-143 0 -212 73t-69 199q0 127 66.5 203t189.5 76zM285 449q-100 0 -111 -146
q62 -13 106 -13q105 0 105 82q0 77 -100 77zM328 648l-13 -26q-6 -16 -28 -11l-182 47q-17 5 -8 22l38 70q8 13 27 3l160 -77q10 -5 11 -11t-5 -17z" />
    <glyph glyph-name="eacute" unicode="&#xe9;" horiz-adv-x="552" 
d="M285 544q108 0 166.5 -46t58.5 -130q0 -78 -54 -123.5t-164 -45.5q-64 0 -116 13q8 -61 42 -88.5t104 -27.5q82 0 137 22q36 14 40 14q11 0 11 -14v-64q0 -17 -21 -28q-68 -33 -179 -33q-143 0 -212 73t-69 199q0 127 66.5 203t189.5 76zM285 449q-100 0 -111 -146
q62 -13 106 -13q105 0 105 82q0 77 -100 77zM215 622l-12 26q-6 10 -5.5 16t11.5 11l159 78q18 10 27 -3l39 -70q6 -7 3.5 -13.5t-17.5 -10.5l-177 -45q-19 -6 -28 11z" />
    <glyph glyph-name="ecircumflex" unicode="&#xea;" horiz-adv-x="552" 
d="M285 544q108 0 166.5 -46t58.5 -130q0 -78 -54 -123.5t-164 -45.5q-64 0 -116 13q8 -61 42 -88.5t104 -27.5q82 0 137 22q36 14 40 14q11 0 11 -14v-64q0 -17 -21 -28q-68 -33 -179 -33q-143 0 -212 73t-69 199q0 127 66.5 203t189.5 76zM285 449q-100 0 -111 -146
q62 -13 106 -13q105 0 105 82q0 77 -100 77zM353 621l-51 43l-51 -43q-1 -1 -4 -3.5t-4 -3.5t-3.5 -2.5t-4 -1.5t-5 -1t-7 -1h-8.5h-47q-26 0 -25 10q1 4 6 9l109 100q10 10 17.5 12t26.5 2q20 0 27 -2t17 -12l109 -100q5 -5 5 -9.5t-6.5 -7t-16.5 -2.5h-48h-7t-6 0.5
t-4.5 0.5t-3.5 1l-3 1.5t-2.5 1.5t-2.5 2t-3.5 3t-3.5 3z" />
    <glyph glyph-name="edieresis" unicode="&#xeb;" horiz-adv-x="552" 
d="M285 544q108 0 166.5 -46t58.5 -130q0 -78 -54 -123.5t-164 -45.5q-64 0 -116 13q8 -61 42 -88.5t104 -27.5q82 0 137 22q36 14 40 14q11 0 11 -14v-64q0 -17 -21 -28q-68 -33 -179 -33q-143 0 -212 73t-69 199q0 127 66.5 203t189.5 76zM285 449q-100 0 -111 -146
q62 -13 106 -13q105 0 105 82q0 77 -100 77zM132 680q0 34 23 57.5t54 23.5q30 0 50.5 -21t20.5 -55t-23 -56t-54 -22t-51 20t-20 53zM327 680q0 34 22.5 57.5t53.5 23.5q30 0 51 -21t21 -55t-23 -56t-55 -22q-30 0 -50 20t-20 53z" />
    <glyph glyph-name="igrave" unicode="&#xec;" horiz-adv-x="341" 
d="M246 147q0 -32 10 -41t39 -9h14q13 0 17 -3.5t4 -13.5v-59q0 -13 -4.5 -17t-16.5 -4h-262q-12 0 -16.5 4t-4.5 17v59q0 10 4 13.5t17 3.5h14q27 0 37.5 7.5t11.5 32.5v257q-2 19 -13 26t-45 7q-18 0 -18 22v55q0 11 4 15.5t17 5.5l167 9q14 0 19 -6.5t5 -21.5v-359z
M202 648l-13 -26q-6 -16 -28 -11l-182 47q-17 5 -8 22l38 70q8 13 27 3l160 -77q10 -5 11 -11t-5 -17z" />
    <glyph glyph-name="iacute" unicode="&#xed;" horiz-adv-x="341" 
d="M110 386q0 25 -10 33t-47 8q-19 0 -19 22v55q0 20 21 21l168 9q13 0 18 -6.5t5 -21.5v-359q0 -32 10 -41t39 -9h14q13 0 17 -3.5t4 -13.5v-59q0 -13 -4.5 -17t-16.5 -4h-262q-12 0 -16.5 4t-4.5 17v59q0 10 4 13.5t17 3.5h15q26 0 36.5 7.5t11.5 32.5v249zM137 622
l-12 26q-6 10 -5.5 16t11.5 11l159 78q18 10 27 -3l39 -70q6 -7 3.5 -13.5t-17.5 -10.5l-177 -45q-19 -6 -28 11z" />
    <glyph glyph-name="icircumflex" unicode="&#xee;" horiz-adv-x="341" 
d="M110 386q0 25 -10 33t-47 8q-19 0 -19 22v55q0 20 21 21l168 9q13 0 18 -6.5t5 -21.5v-359q0 -32 10 -41t39 -9h14q13 0 17 -3.5t4 -13.5v-59q0 -13 -4.5 -17t-16.5 -4h-262q-12 0 -16.5 4t-4.5 17v59q0 10 4 13.5t17 3.5h15q26 0 36.5 7.5t11.5 32.5v249zM228 621
l-51 43l-51 -43q-1 -1 -4 -3.5t-4 -3.5t-3.5 -2.5t-4 -1.5t-5 -1t-7 -1h-8.5h-47q-26 0 -25 10q1 4 6 9l109 100q10 10 17.5 12t26.5 2q20 0 27 -2t17 -12l109 -100q5 -5 5 -9.5t-6.5 -7t-16.5 -2.5h-48h-7t-6 0.5t-4.5 0.5t-3.5 1l-3 1.5t-2.5 1.5t-2.5 2t-3.5 3t-3.5 3z
" />
    <glyph glyph-name="idieresis" unicode="&#xef;" horiz-adv-x="341" 
d="M110 386q0 25 -10 33t-47 8q-19 0 -19 22v55q0 20 21 21l168 9q13 0 18 -6.5t5 -21.5v-359q0 -32 10 -41t39 -9h14q13 0 17 -3.5t4 -13.5v-59q0 -13 -4.5 -17t-16.5 -4h-262q-12 0 -16.5 4t-4.5 17v59q0 10 4 13.5t17 3.5h15q26 0 36.5 7.5t11.5 32.5v249zM7 680
q0 34 23 57.5t54 23.5q30 0 50.5 -21t20.5 -55t-23 -56t-54 -22t-51 20t-20 53zM202 680q0 34 22.5 57.5t53.5 23.5q30 0 51 -21t21 -55t-23 -56t-55 -22q-30 0 -50 20t-20 53z" />
    <glyph glyph-name="eth" unicode="&#xf0;" horiz-adv-x="598" 
d="M558 596l-79 -29q83 -119 83 -278q0 -58 -13.5 -107.5t-43.5 -95t-87 -71.5t-137 -26q-125 0 -190.5 68.5t-65.5 163.5q0 93 62.5 161.5t170.5 68.5q50 0 99.5 -21.5t75.5 -60.5q-13 82 -77 152l-103 -38q-37 -14 -56 38q-9 26 3 37.5t49 25.5l31 11q-65 57 -77 68
q-9 13 -9 14q0 5 6 13l56 52q10 9 18 9q7 0 15 -6q75 -53 123 -100l117 43q35 14 55 -38q15 -39 -26 -54zM282 94q54 0 84.5 33.5t30.5 91.5q0 53 -34 86t-80 33q-52 0 -81.5 -36t-29.5 -86t29 -86t81 -36z" />
    <glyph glyph-name="ntilde" unicode="&#xf1;" horiz-adv-x="664" 
d="M369 432q-61 0 -92.5 -55t-31.5 -157v-73q0 -32 10 -41t39 -9h14q12 0 16.5 -4t4.5 -13v-59q0 -13 -4.5 -17t-16.5 -4h-262q-13 0 -17 4t-4 17v59q0 10 4 13.5t17 3.5h14q26 0 37 7.5t12 32.5v249q0 25 -10.5 33t-47.5 8q-18 0 -18 22v55q0 11 4 15.5t17 5.5l167 9
q14 0 19 -6.5t5 -21.5v-43q45 81 174 81q162 0 162 -175v-228q0 -46 29 -46q10 0 19 2t14 2q5 1 7.5 -1t2.5 -9v-60q0 -19 -14 -24q-25 -11 -82 -11q-48 0 -80 26t-32 89v242q0 81 -76 81zM392 693q28 0 31 20q3 11 14 11h47q13 0 13 -14q0 -49 -24.5 -76t-69.5 -27
q-43 0 -63 20q-14 14 -32 14q-26 0 -31 -20q-2 -7 -4.5 -9t-10.5 -2h-46q-13 0 -13 15q0 49 24 75.5t70 26.5q39 0 63 -22q12 -12 32 -12z" />
    <glyph glyph-name="ograve" unicode="&#xf2;" horiz-adv-x="593" 
d="M29 266q0 122 66 200t201 78t201.5 -78t66.5 -200q0 -121 -66.5 -200t-201.5 -79t-201 78.5t-66 200.5zM296 449q-123 0 -123 -184q0 -183 123 -183q124 0 124 183q0 184 -124 184zM323 649l-13 -26q-6 -17 -28 -11l-182 47q-17 5 -8 22l38 70q8 13 27 3l160 -77
q10 -5 11 -11t-5 -17z" />
    <glyph glyph-name="oacute" unicode="&#xf3;" horiz-adv-x="593" 
d="M29 266q0 122 66 200t201 78t201.5 -78t66.5 -200q0 -121 -66.5 -200t-201.5 -79t-201 78.5t-66 200.5zM296 449q-123 0 -123 -184q0 -183 123 -183q124 0 124 183q0 184 -124 184zM257 622l-12 26q-6 10 -5.5 16t11.5 11l159 78q18 10 27 -3l39 -70q6 -7 3.5 -13.5
t-17.5 -10.5l-177 -45q-19 -6 -28 11z" />
    <glyph glyph-name="ocircumflex" unicode="&#xf4;" horiz-adv-x="593" 
d="M29 266q0 122 66 200t201 78t201.5 -78t66.5 -200q0 -121 -66.5 -200t-201.5 -79t-201 78.5t-66 200.5zM296 449q-123 0 -123 -184q0 -183 123 -183q124 0 124 183q0 184 -124 184zM348 621l-51 43l-51 -43q-1 -1 -4 -3.5t-4 -3.5t-3.5 -2.5t-4 -1.5t-5 -1t-7 -1h-8.5
h-47q-26 0 -25 10q1 4 6 9l109 100q10 10 17.5 12t26.5 2q20 0 27 -2t17 -12l109 -100q5 -5 5 -9.5t-6.5 -7t-16.5 -2.5h-48h-7t-6 0.5t-4.5 0.5t-3.5 1l-3 1.5t-2.5 1.5t-2.5 2t-3.5 3t-3.5 3z" />
    <glyph glyph-name="otilde" unicode="&#xf5;" horiz-adv-x="593" 
d="M29 266q0 122 66 200t201 78t201.5 -78t66.5 -200q0 -121 -66.5 -200t-201.5 -79t-201 78.5t-66 200.5zM296 449q-123 0 -123 -184q0 -183 123 -183q124 0 124 183q0 184 -124 184zM345 694q28 0 31 20q3 11 14 11h47q13 0 13 -14q0 -49 -24.5 -76t-69.5 -27
q-43 0 -63 20q-14 14 -32 14q-26 0 -31 -20q-2 -7 -4.5 -9t-10.5 -2h-46q-13 0 -13 15q0 49 24 75.5t70 26.5q39 0 63 -22q12 -12 32 -12z" />
    <glyph glyph-name="odieresis" unicode="&#xf6;" horiz-adv-x="593" 
d="M29 266q0 122 66 200t201 78t201.5 -78t66.5 -200q0 -121 -66.5 -200t-201.5 -79t-201 78.5t-66 200.5zM296 449q-123 0 -123 -184q0 -183 123 -183q124 0 124 183q0 184 -124 184zM127 681q0 34 23 57.5t54 23.5q30 0 50.5 -21t20.5 -55t-23 -56t-54 -22t-51 20t-20 53z
M322 681q0 34 22.5 57.5t53.5 23.5q30 0 51 -21t21 -55t-23 -56t-55 -22q-30 0 -50 20t-20 53z" />
    <glyph glyph-name="divide" unicode="&#xf7;" horiz-adv-x="571" 
d="M511 288h-450q-12 0 -16 4t-4 16v57q0 11 4 14.5t16 3.5h450q12 0 16 -3.5t4 -14.5v-57q0 -12 -4 -16t-16 -4zM199 535q0 39 26.5 66t62.5 27q34 0 58.5 -23.5t24.5 -62.5q0 -40 -26.5 -65.5t-63.5 -25.5q-35 0 -58.5 23.5t-23.5 60.5zM199 125q0 39 26.5 66t62.5 27
q34 0 58.5 -23.5t24.5 -62.5q0 -40 -26.5 -65.5t-63.5 -25.5q-35 0 -58.5 23.5t-23.5 60.5z" />
    <glyph glyph-name="oslash" unicode="&#xf8;" horiz-adv-x="595" 
d="M113 -13l19 45q-103 73 -103 234q0 122 66 200t201 78q26 0 50 -3l15 35q6 16 17 13l85 -16q13 -3 6 -18l-21 -49q116 -69 116 -240q0 -121 -66.5 -200t-201.5 -79q-34 0 -62 6l-12 -29q-7 -13 -18 -11l-83 17q-9 2 -10.5 4t2.5 13zM420 265q0 76 -22 120l-126 -301
q7 -2 24 -2q124 0 124 183zM296 449q-123 0 -123 -184q0 -58 14 -102l120 285q-3 1 -11 1z" />
    <glyph glyph-name="ugrave" unicode="&#xf9;" horiz-adv-x="655" 
d="M565 134q1 -39 29 -39q11 0 20 2t13 2q11 2 11 -10v-60q0 -19 -15 -24q-24 -11 -81 -11q-80 0 -104 60q-51 -69 -184 -69q-81 0 -125 40.5t-44 136.5v224q0 25 -10 33t-47 8q-19 0 -19 22v55q0 20 21 21l168 9q13 0 18 -6.5t5 -21.5v-330q0 -80 82 -80q62 0 94 47.5
t32 135.5v107q0 25 -10 33t-47 8q-19 0 -19 22v55q0 20 21 21l167 9q14 0 19 -6.5t5 -21.5v-372zM326 648l-13 -26q-6 -16 -28 -11l-182 47q-17 5 -8 22l38 70q8 13 27 3l160 -77q10 -5 11 -11t-5 -17z" />
    <glyph glyph-name="uacute" unicode="&#xfa;" horiz-adv-x="655" 
d="M565 134q1 -39 29 -39q11 0 20 2t13 2q11 2 11 -10v-60q0 -19 -15 -24q-24 -11 -81 -11q-80 0 -104 60q-51 -69 -184 -69q-81 0 -125 40.5t-44 136.5v224q0 25 -10 33t-47 8q-19 0 -19 22v55q0 20 21 21l168 9q13 0 18 -6.5t5 -21.5v-330q0 -80 82 -80q62 0 94 47.5
t32 135.5v107q0 25 -10 33t-47 8q-19 0 -19 22v55q0 20 21 21l167 9q14 0 19 -6.5t5 -21.5v-372zM261 622l-12 26q-6 10 -5.5 16t11.5 11l159 78q18 10 27 -3l39 -70q6 -7 3.5 -13.5t-17.5 -10.5l-177 -45q-19 -6 -28 11z" />
    <glyph glyph-name="ucircumflex" unicode="&#xfb;" horiz-adv-x="655" 
d="M565 134q1 -39 29 -39q11 0 20 2t13 2q11 2 11 -10v-60q0 -19 -15 -24q-24 -11 -81 -11q-80 0 -104 60q-51 -69 -184 -69q-81 0 -125 40.5t-44 136.5v224q0 25 -10 33t-47 8q-19 0 -19 22v55q0 20 21 21l168 9q13 0 18 -6.5t5 -21.5v-330q0 -80 82 -80q62 0 94 47.5
t32 135.5v107q0 25 -10 33t-47 8q-19 0 -19 22v55q0 20 21 21l167 9q14 0 19 -6.5t5 -21.5v-372zM351 621l-51 43l-51 -43q-1 -1 -4 -3.5t-4 -3.5t-3.5 -2.5t-4 -1.5t-5 -1t-7 -1h-8.5h-47q-26 0 -25 10q1 4 6 9l109 100q10 10 17.5 12t26.5 2q20 0 27 -2t17 -12l109 -100
q5 -5 5 -9.5t-6.5 -7t-16.5 -2.5h-48h-7t-6 0.5t-4.5 0.5t-3.5 1l-3 1.5t-2.5 1.5t-2.5 2t-3.5 3t-3.5 3z" />
    <glyph glyph-name="udieresis" unicode="&#xfc;" horiz-adv-x="655" 
d="M565 134q1 -39 29 -39q11 0 20 2t13 2q11 2 11 -10v-60q0 -19 -15 -24q-24 -11 -81 -11q-80 0 -104 60q-51 -69 -184 -69q-81 0 -125 40.5t-44 136.5v224q0 25 -10 33t-47 8q-19 0 -19 22v55q0 20 21 21l168 9q13 0 18 -6.5t5 -21.5v-330q0 -80 82 -80q62 0 94 47.5
t32 135.5v107q0 25 -10 33t-47 8q-19 0 -19 22v55q0 20 21 21l167 9q14 0 19 -6.5t5 -21.5v-372zM130 680q0 34 23 57.5t54 23.5q30 0 50.5 -21t20.5 -55t-23 -56t-54 -22t-51 20t-20 53zM325 680q0 34 22.5 57.5t53.5 23.5q30 0 51 -21t21 -55t-23 -56t-55 -22
q-30 0 -50 20t-20 53z" />
    <glyph glyph-name="yacute" unicode="&#xfd;" horiz-adv-x="673" 
d="M249 377l99 -260l106 268q11 27 5 34.5t-37 7.5h-9q-21 0 -21 22v55q0 13 4.5 17t16.5 4h237q12 0 16.5 -4t4.5 -17v-52q0 -24 -21 -24h-19q-22 0 -34 -9t-26 -42l-199 -484q-59 -142 -189 -142q-55 0 -94 30t-44 81v13q1 34 23.5 57t53.5 23q30 0 52 -21.5t22 -55.5
q0 -39 -28 -62h7q54 0 88 84l22 57l-185 413q-18 39 -27.5 48t-35.5 9h-10q-21 0 -21 23v54q0 13 4 17t17 4h263q12 0 16.5 -4t4.5 -17v-54q0 -22 -21 -22h-13q-22 0 -30.5 -3t-8.5 -12t11 -36zM310 622l-12 26q-6 10 -5.5 16t11.5 11l159 78q18 10 27 -3l39 -70
q6 -7 3.5 -13.5t-17.5 -10.5l-177 -45q-19 -6 -28 11z" />
    <glyph glyph-name="thorn" unicode="&#xfe;" horiz-adv-x="606" 
d="M203 717v-260q56 84 166 84q98 0 151 -61.5t53 -203.5q0 -135 -65 -212t-175 -77q-71 0 -129 23h-1v-143q0 -25 -26 -26h-85q-24 0 -24 25v850q0 25 26 26h85q24 0 24 -25zM332 435q-114 0 -128 -167v-152q40 -24 102 -24q67 0 96 51.5t29 131.5q0 78 -21.5 119t-77.5 41
z" />
    <glyph glyph-name="ydieresis" unicode="&#xff;" horiz-adv-x="673" 
d="M249 377l99 -260l106 268q11 27 5 34.5t-37 7.5h-9q-21 0 -21 22v55q0 13 4.5 17t16.5 4h237q12 0 16.5 -4t4.5 -17v-52q0 -24 -21 -24h-19q-22 0 -34 -9t-26 -42l-199 -484q-59 -142 -189 -142q-55 0 -94 30t-44 81v13q1 34 23.5 57t53.5 23q30 0 52 -21.5t22 -55.5
q0 -39 -28 -62h7q54 0 88 84l22 57l-185 413q-18 39 -27.5 48t-35.5 9h-10q-21 0 -21 23v54q0 13 4 17t17 4h263q12 0 16.5 -4t4.5 -17v-54q0 -22 -21 -22h-13q-22 0 -30.5 -3t-8.5 -12t11 -36zM374 680q0 34 22.5 57.5t53.5 23.5q30 0 51 -21t21 -55t-23 -56t-55 -22
q-30 0 -50 20t-20 53zM179 680q0 34 23 57.5t54 23.5q30 0 50.5 -21t20.5 -55t-23 -56t-54 -22t-51 20t-20 53z" />
    <glyph glyph-name="Amacron" unicode="&#x100;" horiz-adv-x="744" 
d="M512 150l-27 75h-260l-28 -83q-8 -25 0.5 -34.5t32.5 -12.5l10 -1q22 -2 22 -22v-51q0 -13 -4.5 -17t-17.5 -4h-224q-12 0 -16.5 4t-4.5 17v52q0 22 21 24l27 1q15 1 23.5 10t19.5 41l196 560q4 10 8.5 12.5t18.5 2.5h124q18 0 24 -14l201 -554q15 -39 24 -48t34 -11h16
q14 -1 18 -5.5t4 -14.5v-56q0 -13 -4.5 -17t-17.5 -4h-259q-14 0 -18 4t-4 17v51q0 10 4 14.5t18 6.5h9q20 3 28.5 8.5t8.5 17.5q0 13 -7 31zM354 600l-96 -280h194zM508 795h-265q-18 0 -25 17.5t-7 59.5q0 13 5 19.5t10.5 7.5t17.5 1h249q20 0 26.5 -17.5t6.5 -54.5
q0 -33 -18 -33z" />
    <glyph glyph-name="amacron" unicode="&#x101;" horiz-adv-x="582" 
d="M499 137q1 -42 29 -42q11 0 19.5 2t12.5 2q11 2 11 -10v-60q0 -19 -14 -24q-25 -11 -81 -11q-80 0 -104 60q-58 -60 -167 -60q-176 0 -176 153q0 52 20.5 87.5t61.5 54t92 26t124 7.5h36v43q0 44 -24 64t-78 20q-25 0 -57 -5q2 -10 2 -16q0 -35 -23.5 -57.5t-55.5 -22.5
q-31 0 -51.5 20.5t-20.5 54.5v9q4 62 53.5 87t149.5 25q124 0 182.5 -42.5t58.5 -156.5v-208zM418 610h-265q-18 0 -25 17.5t-7 59.5q0 13 5 19.5t10.5 7.5t17.5 1h249q20 0 26.5 -17.5t6.5 -54.5q0 -33 -18 -33zM164 148q0 -58 74 -58q57 0 91 35t34 97v11h-36
q-163 0 -163 -85z" />
    <glyph glyph-name="Abreve" unicode="&#x102;" horiz-adv-x="744" 
d="M512 150l-27 75h-260l-28 -83q-8 -25 0.5 -34.5t32.5 -12.5l10 -1q22 -2 22 -22v-51q0 -13 -4.5 -17t-17.5 -4h-224q-12 0 -16.5 4t-4.5 17v52q0 22 21 24l27 1q15 1 23.5 10t19.5 41l196 560q4 10 8.5 12.5t18.5 2.5h124q18 0 24 -14l201 -554q15 -39 24 -48t34 -11h16
q14 -1 18 -5.5t4 -14.5v-56q0 -13 -4.5 -17t-17.5 -4h-259q-14 0 -18 4t-4 17v51q0 10 4 14.5t18 6.5h9q20 3 28.5 8.5t8.5 17.5q0 13 -7 31zM354 600l-96 -280h194zM367 871q46 0 46 30q0 13 17 13h55q16 0 16 -17q0 -52 -34.5 -81.5t-99.5 -29.5q-64 0 -98 29t-34 82
q0 17 15 17h55q17 0 17 -12q2 -31 45 -31z" />
    <glyph glyph-name="abreve" unicode="&#x103;" horiz-adv-x="582" 
d="M499 137q1 -42 29 -42q11 0 19.5 2t12.5 2q11 2 11 -10v-60q0 -19 -14 -24q-25 -11 -81 -11q-80 0 -104 60q-58 -60 -167 -60q-176 0 -176 153q0 52 20.5 87.5t61.5 54t92 26t124 7.5h36v43q0 44 -24 64t-78 20q-25 0 -57 -5q2 -10 2 -16q0 -35 -23.5 -57.5t-55.5 -22.5
q-31 0 -51.5 20.5t-20.5 54.5v9q4 62 53.5 87t149.5 25q124 0 182.5 -42.5t58.5 -156.5v-208zM277 687q46 0 46 30q0 13 17 13h55q16 0 16 -17q0 -52 -34.5 -81.5t-99.5 -29.5q-64 0 -98 29t-34 82q0 17 15 17h55q17 0 17 -12q2 -31 45 -31zM164 148q0 -58 74 -58
q57 0 91 35t34 97v11h-36q-163 0 -163 -85z" />
    <glyph glyph-name="Aogonek" unicode="&#x104;" horiz-adv-x="744" 
d="M512 150l-27 75h-260l-28 -83q-8 -25 0.5 -34.5t32.5 -12.5l10 -1q22 -2 22 -22v-51q0 -13 -4.5 -17t-17.5 -4h-224q-12 0 -16.5 4t-4.5 17v52q0 22 21 24l27 1q15 1 23.5 10t19.5 41l196 560q4 10 8.5 12.5t18.5 2.5h124q18 0 24 -14l201 -554q15 -39 24 -48t34 -11h16
q14 -1 18 -5.5t4 -14.5v-56q0 -13 -4.5 -17t-17.5 -4h-105q-43 -35 -43 -77q0 -36 38 -36q19 0 38 10t26 -6l12 -31q5 -13 -8 -23q-42 -31 -97 -31q-51 0 -83 21t-32 61q0 65 86 112h-91q-14 0 -18 4t-4 17v51q0 10 4 14.5t18 6.5h9q20 3 28.5 8.5t8.5 17.5q0 13 -7 31z
M354 600l-96 -280h194z" />
    <glyph glyph-name="aogonek" unicode="&#x105;" horiz-adv-x="582" 
d="M499 137q1 -42 29 -42q11 0 19.5 2t12.5 2q11 2 11 -10v-60q0 -19 -14 -24q-25 -10 -69 -11q-41 -34 -41 -76q0 -36 38 -36q19 0 38 10t26 -6l12 -31q5 -13 -8 -23q-42 -31 -97 -31q-51 0 -83 21t-32 61q0 68 94 116q-47 12 -63 55q-58 -60 -167 -60q-176 0 -176 153
q0 52 20.5 87.5t61.5 54t92 26t124 7.5h36v43q0 44 -24 64t-78 20q-25 0 -57 -5q2 -10 2 -16q0 -35 -23.5 -57.5t-55.5 -22.5q-31 0 -51.5 20.5t-20.5 54.5v9q4 62 53.5 87t149.5 25q124 0 182.5 -42.5t58.5 -156.5v-208zM164 148q0 -58 74 -58q57 0 91 35t34 97v11h-36
q-163 0 -163 -85z" />
    <glyph glyph-name="Cacute" unicode="&#x106;" horiz-adv-x="696" 
d="M183 357q0 -118 59.5 -186.5t183.5 -68.5q53 0 99 10t64 18t47 23q12 7 19 9.5t13 -1t6 -16.5v-74q0 -14 -15 -24q-88 -58 -257 -58t-270 94t-101 278q0 165 99 267.5t276 102.5q127 0 193 -54t66 -121v-6q0 -40 -26.5 -64t-64.5 -24q-35 0 -59 23.5t-24 62.5q0 37 24 63
q-42 16 -99 16q-118 0 -175.5 -76t-57.5 -194zM371 778l-12 26q-6 10 -5.5 16t11.5 11l159 78q18 10 27 -3l39 -70q6 -7 3.5 -13.5t-17.5 -10.5l-177 -45q-19 -6 -28 11z" />
    <glyph glyph-name="cacute" unicode="&#x107;" horiz-adv-x="555" 
d="M175 271q0 -86 40 -126.5t129 -40.5q66 0 153 29q20 7 26 4.5t6 -18.5v-64q0 -21 -16 -28q-70 -35 -191 -35q-148 0 -220.5 69t-72.5 198q0 138 77 211.5t207 73.5q107 0 158 -44.5t51 -100.5q0 -38 -22 -62t-61 -24q-38 0 -61.5 23t-23.5 60q0 24 9 42q-20 4 -49 4
q-74 0 -106.5 -47.5t-32.5 -123.5zM276 622l-12 26q-6 10 -5.5 16t11.5 11l159 78q18 10 27 -3l39 -70q6 -7 3.5 -13.5t-17.5 -10.5l-177 -45q-19 -6 -28 11z" />
    <glyph glyph-name="Ccircumflex" unicode="&#x108;" horiz-adv-x="696" 
d="M183 357q0 -118 59.5 -186.5t183.5 -68.5q53 0 99 10t64 18t47 23q12 7 19 9.5t13 -1t6 -16.5v-74q0 -14 -15 -24q-88 -58 -257 -58t-270 94t-101 278q0 165 99 267.5t276 102.5q127 0 193 -54t66 -121v-6q0 -40 -26.5 -64t-64.5 -24q-35 0 -59 23.5t-24 62.5q0 37 24 63
q-42 16 -99 16q-118 0 -175.5 -76t-57.5 -194zM461 777l-51 43l-51 -43q-1 -1 -4 -3.5t-4 -3.5t-3.5 -2.5t-4 -1.5t-5 -1t-7 -1h-8.5h-47q-26 0 -25 10q1 4 6 9l109 100q10 10 17.5 12t26.5 2q20 0 27 -2t17 -12l109 -100q5 -5 5 -9.5t-6.5 -7t-16.5 -2.5h-48h-7t-6 0.5
t-4.5 0.5t-3.5 1l-3 1.5t-2.5 1.5t-2.5 2t-3.5 3t-3.5 3z" />
    <glyph glyph-name="ccircumflex" unicode="&#x109;" horiz-adv-x="555" 
d="M175 271q0 -86 40 -126.5t129 -40.5q66 0 153 29q20 7 26 4.5t6 -18.5v-64q0 -21 -16 -28q-70 -35 -191 -35q-148 0 -220.5 69t-72.5 198q0 138 77 211.5t207 73.5q107 0 158 -44.5t51 -100.5q0 -38 -22 -62t-61 -24q-38 0 -61.5 23t-23.5 60q0 24 9 42q-20 4 -49 4
q-74 0 -106.5 -47.5t-32.5 -123.5zM367 621l-51 43l-51 -43q-1 -1 -4 -3.5t-4 -3.5t-3.5 -2.5t-4 -1.5t-5 -1t-7 -1h-8.5h-47q-26 0 -25 10q1 4 6 9l109 100q10 10 17.5 12t26.5 2q20 0 27 -2t17 -12l109 -100q5 -5 5 -9.5t-6.5 -7t-16.5 -2.5h-48h-7t-6 0.5t-4.5 0.5
t-3.5 1l-3 1.5t-2.5 1.5t-2.5 2t-3.5 3t-3.5 3z" />
    <glyph glyph-name="Cdotaccent" unicode="&#x10a;" horiz-adv-x="696" 
d="M323 764q0 40 26.5 66.5t62.5 26.5q34 0 58.5 -23.5t24.5 -62.5q0 -27 -12 -47q90 -16 136 -64.5t46 -103.5v-6q0 -40 -26.5 -64t-64.5 -24q-35 0 -59 23.5t-24 62.5q0 37 24 63q-42 16 -99 16q-118 0 -175.5 -76t-57.5 -194t59.5 -186.5t183.5 -68.5q53 0 99 10t64 18
t47 23q12 7 19 9.5t13 -1t6 -16.5v-74q0 -14 -15 -24q-88 -58 -257 -58t-270 94t-101 278q0 146 78.5 244.5t221.5 119.5q-8 15 -8 39z" />
    <glyph glyph-name="cdotaccent" unicode="&#x10b;" horiz-adv-x="555" 
d="M229 690q0 40 27 67t62 27q34 0 58.5 -24t24.5 -63t-26.5 -64.5t-63.5 -25.5q-35 0 -58.5 23t-23.5 60zM175 271q0 -86 40 -126.5t129 -40.5q66 0 153 29q20 7 26 4.5t6 -18.5v-64q0 -21 -16 -28q-70 -35 -191 -35q-148 0 -220.5 69t-72.5 198q0 138 77 211.5t207 73.5
q107 0 158 -44.5t51 -100.5q0 -38 -22 -62t-61 -24q-38 0 -61.5 23t-23.5 60q0 24 9 42q-20 4 -49 4q-74 0 -106.5 -47.5t-32.5 -123.5z" />
    <glyph glyph-name="Ccaron" unicode="&#x10c;" horiz-adv-x="696" 
d="M183 357q0 -118 59.5 -186.5t183.5 -68.5q53 0 99 10t64 18t47 23q12 7 19 9.5t13 -1t6 -16.5v-74q0 -14 -15 -24q-88 -58 -257 -58t-270 94t-101 278q0 165 99 267.5t276 102.5q127 0 193 -54t66 -121v-6q0 -40 -26.5 -64t-64.5 -24q-35 0 -59 23.5t-24 62.5q0 37 24 63
q-42 16 -99 16q-118 0 -175.5 -76t-57.5 -194zM360 881l50 -44l50 44q3 2 8 5t7 4t7.5 2t14.5 1h47q26 0 25 -10q-1 -4 -6 -9l-109 -100q-15 -14 -44 -14q-20 0 -27 2t-17 12l-109 100q-13 12 5 17l14 2h47q9 0 14.5 -1t7.5 -2t7 -4t8 -5z" />
    <glyph glyph-name="ccaron" unicode="&#x10d;" horiz-adv-x="555" 
d="M175 271q0 -86 40 -126.5t129 -40.5q66 0 153 29q20 7 26 4.5t6 -18.5v-64q0 -21 -16 -28q-70 -35 -191 -35q-148 0 -220.5 69t-72.5 198q0 138 77 211.5t207 73.5q107 0 158 -44.5t51 -100.5q0 -38 -22 -62t-61 -24q-38 0 -61.5 23t-23.5 60q0 24 9 42q-20 4 -49 4
q-74 0 -106.5 -47.5t-32.5 -123.5zM266 724l50 -44l50 44q3 2 8 5t7 4t7.5 2t14.5 1h47q26 0 25 -10q-1 -4 -6 -9l-109 -100q-15 -14 -44 -14q-20 0 -27 2t-17 12l-109 100q-13 12 5 17q6 2 14 2h47q9 0 14.5 -1t7.5 -2t7 -4t8 -5z" />
    <glyph glyph-name="Dcaron" unicode="&#x10e;" horiz-adv-x="771" 
d="M738 360q0 -181 -105.5 -270.5t-305.5 -89.5h-267q-12 0 -16.5 4.5t-4.5 16.5v52q0 24 18 24q37 0 50.5 8t14.5 34v443q-1 22 -9 31t-25 11q-9 1 -30 1q-19 0 -19 20v56q0 13 4.5 17t17.5 4h269q207 0 307.5 -90t100.5 -272zM266 622v-517h60q136 0 198.5 59.5
t62.5 195.5q0 143 -65.5 202.5t-202.5 59.5h-53zM341 878l50 -44l50 44q3 2 8 5t7 4t7.5 2t14.5 1h47q26 0 25 -10q-1 -4 -6 -9l-109 -100q-15 -14 -44 -14q-20 0 -27 2t-17 12l-109 100q-13 12 5 17q6 2 14 2h47q9 0 14.5 -1t7.5 -2t7 -4t8 -5z" />
    <glyph glyph-name="dcaron" unicode="&#x10f;" horiz-adv-x="698" 
d="M535 19q0 -11 -2.5 -15t-11.5 -4h-88q-12 0 -16 13l-12 47q-60 -73 -169 -73q-204 0 -204 252q0 147 63.5 224.5t174.5 77.5q76 0 129 -40v114q0 22 -7 31t-25 10l-23 1q-21 1 -21 24v51q0 13 4 17t17 5l167 9q14 0 19 -6.5t5 -21.5v-716zM274 92q111 0 125 168v144
q-37 31 -100 31t-94.5 -50t-31.5 -137q0 -156 101 -156zM608 528l-15 211q-2 15 14 21t60 6t60 -6t14 -21l-15 -211q-2 -13 -13.5 -17t-45.5 -4q-35 0 -46.5 4t-12.5 17z" />
    <glyph glyph-name="Dcroat" unicode="&#x110;" horiz-adv-x="772" 
d="M123 334h-56q-18 0 -25 17.5t-7 59.5q0 19 8 24t25 5h55v142q-1 22 -9 31t-26 11q-8 1 -30 1q-18 0 -18 20v56q0 13 4.5 17t16.5 4h270q207 0 308 -90t101 -272q0 -181 -106.5 -270.5t-305.5 -89.5h-267q-12 0 -16.5 4.5t-4.5 16.5v52q0 24 18 24q40 0 52.5 10t12.5 42
v185zM266 622v-182h95q20 0 26 -17.5t6 -55.5q0 -18 -3.5 -25.5t-14.5 -7.5h-109v-229h61q136 0 198.5 59.5t62.5 195.5q0 143 -65.5 202.5t-202.5 59.5h-54z" />
    <glyph glyph-name="dcroat" unicode="&#x111;" horiz-adv-x="603" 
d="M307 698h92v37q0 16 4.5 22t16.5 6h94q21 0 21 -28v-37h53q9 0 13 -3t5 -6.5t1 -11.5v-55q0 -13 -4 -17t-16 -4h-52v-582q0 -11 -2.5 -15t-11.5 -4h-88q-12 0 -16 13l-12 47q-60 -73 -169 -73q-204 0 -204 252q0 147 63.5 224.5t174.5 77.5q76 0 129 -40v100h-92
q-12 0 -16.5 4t-4.5 17v55q0 12 4 16.5t17 4.5zM274 92q111 0 125 168v144q-37 31 -100 31t-94.5 -50t-31.5 -137q0 -156 101 -156z" />
    <glyph glyph-name="Emacron" unicode="&#x112;" horiz-adv-x="646" 
d="M60 0q-12 0 -16.5 4.5t-4.5 16.5v52q0 24 18 24q40 0 52.5 10t12.5 42v426q0 25 -7.5 36t-26.5 13q-9 1 -30 1q-19 0 -19 20v56q0 13 4.5 17t17.5 4h480q29 0 37 -7t9 -40l7 -129q1 -14 -2.5 -19t-17.5 -5h-60q-21 0 -23 22l-4 36q-4 33 -27 40t-102 7h-92v-224h62
q31 0 36 28l4 28q2 14 6 17.5t16 3.5h54q8 0 11.5 -2.5t4 -6t0.5 -13.5v-204q0 -13 -2.5 -17.5t-13.5 -4.5h-54q-11 0 -15.5 4t-6.5 16l-5 29q-5 27 -35 27h-62v-213h128q64 0 82 11t31 59l6 37q5 20 25 20h60q12 0 15 -4.5t1 -17.5l-16 -159q-3 -28 -10.5 -34.5t-29.5 -6.5
h-498zM469 795h-265q-18 0 -25 17.5t-7 59.5q0 13 5 19.5t10.5 7.5t17.5 1h249q20 0 26.5 -17.5t6.5 -54.5q0 -33 -18 -33z" />
    <glyph glyph-name="emacron" unicode="&#x113;" horiz-adv-x="552" 
d="M285 544q108 0 166.5 -46t58.5 -130q0 -78 -54 -123.5t-164 -45.5q-64 0 -116 13q8 -61 42 -88.5t104 -27.5q82 0 137 22q36 14 40 14q11 0 11 -14v-64q0 -17 -21 -28q-68 -33 -179 -33q-143 0 -212 73t-69 199q0 127 66.5 203t189.5 76zM285 449q-100 0 -111 -146
q62 -13 106 -13q105 0 105 82q0 77 -100 77zM443 610h-265q-18 0 -25 17.5t-7 59.5q0 13 5 19.5t10.5 7.5t17.5 1h249q20 0 26.5 -17.5t6.5 -54.5q0 -33 -18 -33z" />
    <glyph glyph-name="Ebreve" unicode="&#x114;" horiz-adv-x="646" 
d="M60 0q-12 0 -16.5 4.5t-4.5 16.5v52q0 24 18 24q40 0 52.5 10t12.5 42v426q0 25 -7.5 36t-26.5 13q-9 1 -30 1q-19 0 -19 20v56q0 13 4.5 17t17.5 4h480q29 0 37 -7t9 -40l7 -129q1 -14 -2.5 -19t-17.5 -5h-60q-21 0 -23 22l-4 36q-4 33 -27 40t-102 7h-92v-224h62
q31 0 36 28l4 28q2 14 6 17.5t16 3.5h54q8 0 11.5 -2.5t4 -6t0.5 -13.5v-204q0 -13 -2.5 -17.5t-13.5 -4.5h-54q-11 0 -15.5 4t-6.5 16l-5 29q-5 27 -35 27h-62v-213h128q64 0 82 11t31 59l6 37q5 20 25 20h60q12 0 15 -4.5t1 -17.5l-16 -159q-3 -28 -10.5 -34.5t-29.5 -6.5
h-498zM327 871q46 0 46 30q0 13 17 13h55q16 0 16 -17q0 -52 -34.5 -81.5t-99.5 -29.5q-64 0 -98 29t-34 82q0 17 15 17h55q17 0 17 -12q2 -31 45 -31z" />
    <glyph glyph-name="ebreve" unicode="&#x115;" horiz-adv-x="552" 
d="M285 544q108 0 166.5 -46t58.5 -130q0 -78 -54 -123.5t-164 -45.5q-64 0 -116 13q8 -61 42 -88.5t104 -27.5q82 0 137 22q36 14 40 14q11 0 11 -14v-64q0 -17 -21 -28q-68 -33 -179 -33q-143 0 -212 73t-69 199q0 127 66.5 203t189.5 76zM285 449q-100 0 -111 -146
q62 -13 106 -13q105 0 105 82q0 77 -100 77zM302 687q46 0 46 30q0 13 17 13h55q16 0 16 -17q0 -52 -34.5 -81.5t-99.5 -29.5q-64 0 -98 29t-34 82q0 17 15 17h55q17 0 17 -12q2 -31 45 -31z" />
    <glyph glyph-name="Edotaccent" unicode="&#x116;" horiz-adv-x="645" 
d="M59 0q-12 0 -16.5 4.5t-4.5 16.5v52q0 24 18 24q40 0 52.5 10t12.5 42v426q0 26 -7.5 36.5t-26.5 12.5q-9 1 -30 1q-19 0 -19 20v56q0 13 4.5 17t17.5 4h215q-34 23 -34 69q0 40 26.5 67t61.5 27q34 0 58.5 -24t24.5 -63q0 -50 -41 -76h170q28 0 36 -7t9 -40l7 -129
q1 -14 -2.5 -19t-16.5 -5h-60q-12 0 -17 4.5t-7 17.5l-4 36q-4 33 -27 40t-102 7h-92v-224h62q31 0 36 28l4 28q2 14 6 17.5t16 3.5h54q11 0 14 -4.5t3 -17.5v-204q0 -13 -2.5 -17.5t-13.5 -4.5h-55q-11 0 -15.5 4t-6.5 16l-4 29q-5 27 -36 27h-62v-213h128q64 0 82 11
t31 59l6 37q5 20 25 20h60q12 0 15.5 -4.5t1.5 -17.5l-16 -159q-4 -28 -11.5 -34.5t-29.5 -6.5h-498z" />
    <glyph glyph-name="edotaccent" unicode="&#x117;" horiz-adv-x="552" 
d="M215 690q0 40 26.5 66.5t62.5 26.5q34 0 58.5 -23.5t24.5 -62.5q0 -40 -26.5 -65.5t-63.5 -25.5q-35 0 -58.5 23.5t-23.5 60.5zM285 544q108 0 166.5 -46t58.5 -130q0 -78 -54 -123.5t-164 -45.5q-64 0 -116 13q8 -61 42 -88.5t104 -27.5q82 0 137 22q36 14 40 14
q11 0 11 -14v-64q0 -17 -21 -28q-68 -33 -179 -33q-143 0 -212 73t-69 199q0 127 66.5 203t189.5 76zM285 449q-100 0 -111 -146q62 -13 106 -13q105 0 105 82q0 77 -100 77z" />
    <glyph glyph-name="Eogonek" unicode="&#x118;" horiz-adv-x="645" 
d="M59 0q-12 0 -16.5 4.5t-4.5 16.5v52q0 24 18 24q40 0 52.5 10t12.5 42v426q0 26 -7.5 36.5t-26.5 12.5q-9 1 -30 1q-19 0 -19 20v56q0 13 4.5 17t17.5 4h481q28 0 36 -7t9 -40l7 -129q1 -14 -2.5 -19t-16.5 -5h-60q-12 0 -17 4.5t-7 17.5l-4 36q-4 33 -27 40t-102 7h-92
v-224h62q31 0 36 28l4 28q2 14 6 17.5t16 3.5h54q11 0 14 -4.5t3 -17.5v-204q0 -13 -2.5 -17.5t-13.5 -4.5h-55q-11 0 -15.5 4t-6.5 16l-4 29q-5 27 -36 27h-62v-213h128q64 0 82 11t31 59l6 37q5 20 25 20h60q12 0 15.5 -4.5t1.5 -17.5l-16 -159q-3 -23 -9 -31t-18 -10
q-47 -34 -47 -80q0 -36 38 -36q19 0 38 10t26 -6l12 -31q5 -13 -8 -23q-42 -31 -97 -31q-51 0 -83 21t-32 61q0 67 92 115h-451z" />
    <glyph glyph-name="eogonek" unicode="&#x119;" horiz-adv-x="552" 
d="M285 544q108 0 166.5 -46t58.5 -130q0 -78 -54 -123.5t-164 -45.5q-64 0 -116 13q8 -61 42 -88.5t104 -27.5q82 0 137 22q36 14 40 14q11 0 11 -14v-64q0 -17 -21 -28q-54 -27 -150 -32q-40 -34 -40 -75q0 -36 38 -36q19 0 38 10t26 -6l12 -31q5 -13 -8 -23
q-42 -31 -97 -31q-51 0 -83 21t-32 61q0 63 83 111q-126 8 -186.5 80t-60.5 190q0 127 66.5 203t189.5 76zM285 449q-100 0 -111 -146q62 -13 106 -13q105 0 105 82q0 77 -100 77z" />
    <glyph glyph-name="Ecaron" unicode="&#x11a;" horiz-adv-x="646" 
d="M60 0q-12 0 -16.5 4.5t-4.5 16.5v52q0 24 18 24q40 0 52.5 10t12.5 42v426q0 25 -7.5 36t-26.5 13q-9 1 -30 1q-19 0 -19 20v56q0 13 4.5 17t17.5 4h480q29 0 37 -7t9 -40l7 -129q1 -14 -2.5 -19t-17.5 -5h-60q-21 0 -23 22l-4 36q-4 33 -27 40t-102 7h-92v-224h62
q31 0 36 28l4 28q2 14 6 17.5t16 3.5h54q8 0 11.5 -2.5t4 -6t0.5 -13.5v-204q0 -13 -2.5 -17.5t-13.5 -4.5h-54q-11 0 -15.5 4t-6.5 16l-5 29q-5 27 -35 27h-62v-213h128q64 0 82 11t31 59l6 37q5 20 25 20h60q12 0 15 -4.5t1 -17.5l-16 -159q-3 -28 -10.5 -34.5t-29.5 -6.5
h-498zM278 908l50 -44l50 44q3 2 8 5t7 4t7.5 2t14.5 1h47q26 0 25 -10q-1 -4 -6 -9l-109 -100q-15 -14 -44 -14q-20 0 -27 2t-17 12l-109 100q-13 12 5 17q6 2 14 2h47q9 0 14.5 -1t7.5 -2t7 -4t8 -5z" />
    <glyph glyph-name="ecaron" unicode="&#x11b;" horiz-adv-x="552" 
d="M285 544q108 0 166.5 -46t58.5 -130q0 -78 -54 -123.5t-164 -45.5q-64 0 -116 13q8 -61 42 -88.5t104 -27.5q82 0 137 22q36 14 40 14q11 0 11 -14v-64q0 -17 -21 -28q-68 -33 -179 -33q-143 0 -212 73t-69 199q0 127 66.5 203t189.5 76zM285 449q-100 0 -111 -146
q62 -13 106 -13q105 0 105 82q0 77 -100 77zM252 724l50 -44l50 44q3 2 8 5t7 4t7.5 2t14.5 1h47q26 0 25 -10q-1 -4 -6 -9l-109 -100q-15 -14 -44 -14q-20 0 -27 2t-17 12l-109 100q-13 12 5 17q6 2 14 2h47q9 0 14.5 -1t7.5 -2t7 -4t8 -5z" />
    <glyph glyph-name="Gcircumflex" unicode="&#x11c;" horiz-adv-x="732" 
d="M429 274v56q0 24 19 24h222q17 0 17 -16v-311q0 -27 -22 -27h-49q-25 0 -33 20l-5 11q-80 -42 -178 -42q-167 0 -268.5 94.5t-101.5 278.5q0 165 99 267t276 102q75 0 130.5 -15.5t85.5 -42.5t44 -56.5t15 -62.5v-4q0 -40 -26.5 -64t-63.5 -24q-35 0 -59 23.5t-24 62.5
q0 36 22 60q-47 19 -114 19q-116 0 -174.5 -75.5t-58.5 -193.5t57.5 -187.5t168.5 -69.5q77 0 143 34v88q0 28 -29 28h-73q-20 0 -20 23zM458 805l-51 43l-51 -43q-1 -1 -4 -3.5t-4 -3.5t-3.5 -2.5t-4 -1.5t-5 -1t-7 -1h-8.5h-47q-26 0 -25 10q1 4 6 9l109 100
q10 10 17.5 12t26.5 2q20 0 27 -2t17 -12l109 -100q5 -5 5 -9.5t-6.5 -7t-16.5 -2.5h-48h-7t-6 0.5t-4.5 0.5t-3.5 1l-3 1.5t-2.5 1.5t-2.5 2t-3.5 3t-3.5 3z" />
    <glyph glyph-name="gcircumflex" unicode="&#x11d;" horiz-adv-x="621" 
d="M247 -146q152 0 152 154v44q-60 -65 -163 -65q-204 0 -204 252q0 148 64 225t175 77q75 0 128 -40v6q0 15 5 21.5t18 6.5l160 -11q13 -1 17 -4.5t4 -16.5v-53q0 -17 -20 -22l-16 -1q-19 -5 -25.5 -13t-6.5 -32v-362q0 -137 -75.5 -203t-208.5 -66q-213 0 -219 144v9
q1 34 24 56.5t54 22.5q30 0 52 -21t22 -55q0 -21 -12 -42q35 -11 75 -11zM274 92q112 0 125 168v144q-37 31 -100 31t-94 -50t-31 -137q0 -156 100 -156zM348 621l-51 43l-51 -43q-1 -1 -4 -3.5t-4 -3.5t-3.5 -2.5t-4 -1.5t-5 -1t-7 -1h-8.5h-47q-26 0 -25 10q1 4 6 9
l109 100q10 10 17.5 12t26.5 2q20 0 27 -2t17 -12l109 -100q5 -5 5 -9.5t-6.5 -7t-16.5 -2.5h-48h-7t-6 0.5t-4.5 0.5t-3.5 1l-3 1.5t-2.5 1.5t-2.5 2t-3.5 3t-3.5 3z" />
    <glyph glyph-name="Gbreve" unicode="&#x11e;" horiz-adv-x="732" 
d="M429 274v56q0 24 19 24h222q17 0 17 -16v-311q0 -27 -22 -27h-49q-25 0 -33 20l-5 11q-80 -42 -178 -42q-167 0 -268.5 94.5t-101.5 278.5q0 165 99 267t276 102q75 0 130.5 -15.5t85.5 -42.5t44 -56.5t15 -62.5v-4q0 -40 -26.5 -64t-63.5 -24q-35 0 -59 23.5t-24 62.5
q0 36 22 60q-47 19 -114 19q-116 0 -174.5 -75.5t-58.5 -193.5t57.5 -187.5t168.5 -69.5q77 0 143 34v88q0 28 -29 28h-73q-20 0 -20 23zM406 871q46 0 46 30q0 13 17 13h55q16 0 16 -17q0 -52 -34.5 -81.5t-99.5 -29.5q-64 0 -98 29t-34 82q0 17 15 17h55q17 0 17 -12
q2 -31 45 -31z" />
    <glyph glyph-name="gbreve" unicode="&#x11f;" horiz-adv-x="621" 
d="M247 -146q152 0 152 154v44q-60 -65 -163 -65q-204 0 -204 252q0 148 64 225t175 77q75 0 128 -40v6q0 15 5 21.5t18 6.5l160 -11q13 -1 17 -4.5t4 -16.5v-53q0 -17 -20 -22l-16 -1q-19 -5 -25.5 -13t-6.5 -32v-362q0 -137 -75.5 -203t-208.5 -66q-213 0 -219 144v9
q1 34 24 56.5t54 22.5q30 0 52 -21t22 -55q0 -21 -12 -42q35 -11 75 -11zM274 92q112 0 125 168v144q-37 31 -100 31t-94 -50t-31 -137q0 -156 100 -156zM296 687q46 0 46 30q0 13 17 13h55q16 0 16 -17q0 -52 -34.5 -81.5t-99.5 -29.5q-64 0 -98 29t-34 82q0 17 15 17h55
q17 0 17 -12q2 -31 45 -31z" />
    <glyph glyph-name="Gdotaccent" unicode="&#x120;" horiz-adv-x="733" 
d="M321 791q0 40 27 67t62 27q34 0 58.5 -24t24.5 -63q0 -43 -32 -70q116 -10 167.5 -60.5t52.5 -117.5q0 -40 -26.5 -64t-63.5 -24q-35 0 -59 23.5t-24 62.5q0 36 22 60q-48 19 -114 19q-117 0 -175 -75.5t-58 -193.5t57.5 -187.5t168.5 -69.5q77 0 143 34v88q0 28 -29 28
h-73q-20 0 -20 23v56q0 24 19 24h222q17 0 17 -16v-311q0 -27 -22 -27h-50q-24 0 -32 20l-5 11q-82 -42 -179 -42q-166 0 -267.5 94.5t-101.5 278.5q0 150 83 249.5t234 116.5q-27 22 -27 63z" />
    <glyph glyph-name="gdotaccent" unicode="&#x121;" horiz-adv-x="621" 
d="M247 -146q152 0 152 154v44q-60 -65 -163 -65q-204 0 -204 252q0 148 64 225t175 77q75 0 128 -40v6q0 15 5 21.5t18 6.5l160 -11q13 -1 17 -4.5t4 -16.5v-53q0 -17 -20 -22l-16 -1q-19 -5 -25.5 -13t-6.5 -32v-362q0 -137 -75.5 -203t-208.5 -66q-213 0 -219 144v9
q1 34 24 56.5t54 22.5q30 0 52 -21t22 -55q0 -21 -12 -42q35 -11 75 -11zM274 92q112 0 125 168v144q-37 31 -100 31t-94 -50t-31 -137q0 -156 100 -156zM215 687q0 40 27 67t62 27q34 0 58 -24t24 -63q0 -40 -26.5 -65.5t-63.5 -25.5q-34 0 -57.5 23.5t-23.5 60.5z" />
    <glyph glyph-name="Gcommaaccent" unicode="&#x122;" horiz-adv-x="732" 
d="M429 274v56q0 24 19 24h222q17 0 17 -16v-311q0 -27 -22 -27h-49q-25 0 -33 20l-5 11q-80 -42 -178 -42q-167 0 -268.5 94.5t-101.5 278.5q0 165 99 267t276 102q75 0 130.5 -15.5t85.5 -42.5t44 -56.5t15 -62.5v-4q0 -40 -26.5 -64t-63.5 -24q-35 0 -59 23.5t-24 62.5
q0 36 22 60q-47 19 -114 19q-116 0 -174.5 -75.5t-58.5 -193.5t57.5 -187.5t168.5 -69.5q77 0 143 34v88q0 28 -29 28h-73q-20 0 -20 23z" />
    <glyph glyph-name="gcommaaccent" unicode="&#x123;" horiz-adv-x="621" 
d="M247 -146q152 0 152 154v44q-60 -65 -163 -65q-204 0 -204 252q0 148 64 225t175 77q75 0 128 -40v6q0 15 5 21.5t18 6.5l160 -11q13 -1 17 -4.5t4 -16.5v-53q0 -17 -20 -22l-16 -1q-19 -5 -25.5 -13t-6.5 -32v-362q0 -137 -75.5 -203t-208.5 -66q-213 0 -219 144v9
q1 34 24 56.5t54 22.5q30 0 52 -21t22 -55q0 -21 -12 -42q35 -11 75 -11zM274 92q112 0 125 168v144q-37 31 -100 31t-94 -50t-31 -137q0 -156 100 -156zM403 845q0 41 24 67t65 26q38 0 60.5 -26t22.5 -73q0 -104 -125 -215q-8 -8 -12.5 -8.5t-14.5 7.5l-13 13
q-7 7 -6.5 11.5t8.5 13.5q46 48 60 100q-29 2 -49 25t-20 59z" />
    <glyph glyph-name="Hcircumflex" unicode="&#x124;" horiz-adv-x="831" 
d="M265 411h301v162q0 31 -10.5 41.5t-38.5 10.5h-13q-12 0 -16.5 4t-4.5 14v58q0 13 4.5 17t16.5 4h268q12 0 16 -4t4 -17v-58q0 -11 -4 -14.5t-16 -3.5h-14q-29 0 -38.5 -9.5t-9.5 -42.5v-424q0 -33 10 -42.5t38 -9.5h14q13 0 17 -3.5t4 -13.5v-59q0 -13 -4.5 -17
t-16.5 -4h-268q-12 0 -16.5 4t-4.5 17v59q0 9 4.5 13t16.5 4h13q27 0 38 10.5t11 41.5v167h-301v-167q0 -33 10 -42.5t39 -9.5h13q13 0 17 -3.5t4 -13.5v-59q0 -13 -4.5 -17t-16.5 -4h-267q-13 0 -17.5 4t-4.5 17v59q0 9 4.5 13t17.5 4h12q27 0 38 10.5t11 41.5v424
q0 31 -10.5 41.5t-38.5 10.5h-13q-12 0 -16.5 4t-4.5 14v58q0 13 4.5 17t16.5 4h268q12 0 16.5 -4t4.5 -17v-58q0 -11 -4 -14.5t-17 -3.5h-14q-28 0 -38 -9.5t-10 -42.5v-162zM463 805l-51 43l-51 -43q-1 -1 -4 -3.5t-4 -3.5t-3.5 -2.5t-4 -1.5t-5 -1t-7 -1h-8.5h-47
q-26 0 -25 10q1 4 6 9l109 100q10 10 17.5 12t26.5 2q20 0 27 -2t17 -12l109 -100q5 -5 5 -9.5t-6.5 -7t-16.5 -2.5h-48h-7t-6 0.5t-4.5 0.5t-3.5 1l-3 1.5t-2.5 1.5t-2.5 2t-3.5 3t-3.5 3z" />
    <glyph glyph-name="hcircumflex" unicode="&#x125;" horiz-adv-x="652" 
d="M232 461q44 83 174 83q162 0 162 -175v-228q0 -46 29 -46q11 0 20 2t13 2q5 1 7.5 -1t2.5 -9v-60q0 -19 -14 -24q-25 -11 -81 -11q-48 0 -80.5 26t-32.5 89v242q0 81 -76 81q-61 0 -92.5 -55t-31.5 -157v-83q1 -25 11.5 -32.5t37.5 -7.5h14q13 0 17 -3.5t4 -13.5v-59
q0 -13 -4.5 -17t-16.5 -4h-262q-12 0 -16.5 4t-4.5 17v59q0 10 4 13.5t17 3.5h14q27 0 37.5 7.5t11.5 32.5v454q0 22 -7 31t-25 10l-23 1q-21 1 -21 24v51q0 13 4 17t17 5l167 9q23 0 24 -24v-254zM467 616l-51 43l-51 -43q-1 -1 -4 -3.5t-4 -3.5t-3.5 -2.5t-4 -1.5t-5 -1
t-7 -1h-8.5h-47q-26 0 -25 10q1 4 6 9l109 100q10 10 17.5 12t26.5 2q20 0 27 -2t17 -12l109 -100q5 -5 5 -9.5t-6.5 -7t-16.5 -2.5h-48h-7t-6 0.5t-4.5 0.5t-3.5 1l-3 1.5t-2.5 1.5t-2.5 2t-3.5 3t-3.5 3z" />
    <glyph glyph-name="Hbar" unicode="&#x126;" horiz-adv-x="830" 
d="M121 467h-47q-18 0 -25 17.5t-7 59.5q0 19 8 24t25 5h46q0 31 -10.5 41.5t-38.5 10.5h-13q-12 0 -16.5 4t-4.5 14v58q0 13 4.5 17t16.5 4h268q12 0 16.5 -4t4.5 -17v-58q0 -11 -4 -14.5t-17 -3.5h-14q-28 0 -38 -9.5t-10 -42.5v-1l301 -1v2q0 31 -10.5 41.5t-38.5 10.5
h-13q-12 0 -16.5 4t-4.5 14v58q0 13 4.5 17t16.5 4h268q12 0 16 -4t4 -17v-58q0 -11 -4 -14.5t-16 -3.5h-14q-29 0 -38.5 -9.5t-9.5 -42.5v-3h51q20 0 26 -17.5t6 -54.5q0 -33 -17 -33h-66v-316q0 -33 10 -42.5t38 -9.5h14q13 0 17 -3.5t4 -13.5v-59q0 -13 -4.5 -17
t-16.5 -4h-268q-12 0 -16.5 4t-4.5 17v59q0 9 4.5 13t16.5 4h13q27 0 38 10.5t11 41.5v167h-301v-167q0 -33 10 -42.5t39 -9.5h13q13 0 17 -3.5t4 -13.5v-59q0 -13 -4.5 -17t-16.5 -4h-267q-13 0 -17.5 4t-4.5 17v59q0 9 4.5 13t17.5 4h12q27 0 38 10.5t11 41.5v318z
M265 466v-55h301v54z" />
    <glyph glyph-name="hbar" unicode="&#x127;" horiz-adv-x="652" 
d="M317 572h-85v-111q44 83 174 83q162 0 162 -175v-228q0 -46 29 -46q11 0 20 2t13 2q5 1 7.5 -1t2.5 -9v-60q0 -19 -14 -24q-25 -11 -81 -11q-48 0 -80.5 26t-32.5 89v242q0 81 -76 81q-60 0 -91 -52.5t-33 -149.5v-93q1 -25 11.5 -32.5t37.5 -7.5h14q13 0 17 -3.5
t4 -13.5v-59q0 -13 -4.5 -17t-16.5 -4h-262q-12 0 -16.5 4t-4.5 17v59q0 10 4 13.5t17 3.5h14q27 0 37.5 7.5t11.5 32.5v435h-44q-18 0 -25 17.5t-7 59.5q0 13 5 19.5t10.5 7.5t17.5 1h43v58q0 16 4.5 22t16.5 6h94q21 0 21 -28v-58h70q20 0 26.5 -17.5t6.5 -54.5
q0 -33 -18 -33z" />
    <glyph glyph-name="Itilde" unicode="&#x128;" horiz-adv-x="386" 
d="M265 149q0 -33 10 -42.5t39 -9.5h13q13 0 17 -3.5t4 -13.5v-59q0 -13 -4.5 -17t-16.5 -4h-267q-13 0 -17.5 4t-4.5 17v59q0 9 4.5 13t17.5 4h12q27 0 38 10.5t11 41.5v424q0 31 -10.5 41.5t-38.5 10.5h-13q-12 0 -16.5 4t-4.5 14v58q0 13 4.5 17t16.5 4h268q12 0 16.5 -4
t4.5 -17v-58q0 -11 -4 -14.5t-17 -3.5h-14q-28 0 -38 -9.5t-10 -42.5v-424zM238 878q28 0 31 20q3 11 14 11h47q13 0 13 -14q0 -49 -24.5 -76t-69.5 -27q-43 0 -63 20q-14 14 -32 14q-26 0 -31 -20q-2 -7 -4.5 -9t-10.5 -2h-46q-13 0 -13 15q0 49 24 75.5t70 26.5
q39 0 63 -22q12 -12 32 -12z" />
    <glyph glyph-name="itilde" unicode="&#x129;" horiz-adv-x="341" 
d="M110 386q0 25 -10 33t-47 8q-19 0 -19 22v55q0 20 21 21l168 9q13 0 18 -6.5t5 -21.5v-359q0 -32 10 -41t39 -9h14q13 0 17 -3.5t4 -13.5v-59q0 -13 -4.5 -17t-16.5 -4h-262q-12 0 -16.5 4t-4.5 17v59q0 10 4 13.5t17 3.5h15q26 0 36.5 7.5t11.5 32.5v249zM225 693
q28 0 31 20q3 11 14 11h47q13 0 13 -14q0 -49 -24.5 -76t-69.5 -27q-43 0 -63 20q-14 14 -32 14q-26 0 -31 -20q-2 -7 -4.5 -9t-10.5 -2h-46q-13 0 -13 15q0 49 24 75.5t70 26.5q39 0 63 -22q12 -12 32 -12z" />
    <glyph glyph-name="Imacron" unicode="&#x12a;" horiz-adv-x="386" 
d="M265 149q0 -33 10 -42.5t39 -9.5h13q13 0 17 -3.5t4 -13.5v-59q0 -13 -4.5 -17t-16.5 -4h-267q-13 0 -17.5 4t-4.5 17v59q0 9 4.5 13t17.5 4h12q27 0 38 10.5t11 41.5v424q0 31 -10.5 41.5t-38.5 10.5h-13q-12 0 -16.5 4t-4.5 14v58q0 13 4.5 17t16.5 4h268q12 0 16.5 -4
t4.5 -17v-58q0 -11 -4 -14.5t-17 -3.5h-14q-28 0 -38 -9.5t-10 -42.5v-424zM330 795h-265q-18 0 -25 17.5t-7 59.5q0 13 5 19.5t10.5 7.5t17.5 1h249q20 0 26.5 -17.5t6.5 -54.5q0 -33 -18 -33z" />
    <glyph glyph-name="imacron" unicode="&#x12b;" horiz-adv-x="341" 
d="M110 386q0 25 -10 33t-47 8q-19 0 -19 22v55q0 20 21 21l168 9q13 0 18 -6.5t5 -21.5v-359q0 -32 10 -41t39 -9h14q13 0 17 -3.5t4 -13.5v-59q0 -13 -4.5 -17t-16.5 -4h-262q-12 0 -16.5 4t-4.5 17v59q0 10 4 13.5t17 3.5h15q26 0 36.5 7.5t11.5 32.5v249zM317 610h-265
q-18 0 -25 17.5t-7 59.5q0 13 5 19.5t10.5 7.5t17.5 1h249q20 0 26.5 -17.5t6.5 -54.5q0 -33 -18 -33z" />
    <glyph glyph-name="Ibreve" unicode="&#x12c;" horiz-adv-x="386" 
d="M265 149q0 -33 10 -42.5t39 -9.5h13q13 0 17 -3.5t4 -13.5v-59q0 -13 -4.5 -17t-16.5 -4h-267q-13 0 -17.5 4t-4.5 17v59q0 9 4.5 13t17.5 4h12q27 0 38 10.5t11 41.5v424q0 31 -10.5 41.5t-38.5 10.5h-13q-12 0 -16.5 4t-4.5 14v58q0 13 4.5 17t16.5 4h268q12 0 16.5 -4
t4.5 -17v-58q0 -11 -4 -14.5t-17 -3.5h-14q-28 0 -38 -9.5t-10 -42.5v-424zM189 871q46 0 46 30q0 13 17 13h55q16 0 16 -17q0 -52 -34.5 -81.5t-99.5 -29.5q-64 0 -98 29t-34 82q0 17 15 17h55q17 0 17 -12q2 -31 45 -31z" />
    <glyph glyph-name="ibreve" unicode="&#x12d;" horiz-adv-x="341" 
d="M110 386q0 25 -10 33t-47 8q-19 0 -19 22v55q0 20 21 21l168 9q13 0 18 -6.5t5 -21.5v-359q0 -32 10 -41t39 -9h14q13 0 17 -3.5t4 -13.5v-59q0 -13 -4.5 -17t-16.5 -4h-262q-12 0 -16.5 4t-4.5 17v59q0 10 4 13.5t17 3.5h15q26 0 36.5 7.5t11.5 32.5v249zM176 687
q46 0 46 30q0 13 17 13h55q16 0 16 -17q0 -52 -34.5 -81.5t-99.5 -29.5q-64 0 -98 29t-34 82q0 17 15 17h55q17 0 17 -12q2 -31 45 -31z" />
    <glyph glyph-name="Iogonek" unicode="&#x12e;" horiz-adv-x="386" 
d="M265 149q0 -33 10 -42.5t39 -9.5h13q13 0 17 -3.5t4 -13.5v-59q0 -13 -4.5 -17t-16.5 -4h-65q-49 -34 -49 -82q0 -36 38 -36q19 0 38 10t26 -6l12 -31q5 -13 -8 -23q-42 -31 -97 -31q-51 0 -83 21t-32 61q0 69 96 117h-143q-13 0 -17.5 4t-4.5 17v59q0 9 4.5 13t17.5 4
h12q27 0 38 10.5t11 41.5v424q0 31 -10.5 41.5t-38.5 10.5h-13q-12 0 -16.5 4t-4.5 14v58q0 13 4.5 17t16.5 4h268q12 0 16.5 -4t4.5 -17v-58q0 -11 -4 -14.5t-17 -3.5h-14q-28 0 -38 -9.5t-10 -42.5v-424z" />
    <glyph glyph-name="iogonek" unicode="&#x12f;" horiz-adv-x="341" 
d="M246 506v-369q1 -25 11.5 -32.5t37.5 -7.5h14q13 0 17 -3.5t4 -13.5v-59q0 -13 -4.5 -17t-16.5 -4h-94q-49 -34 -49 -82q0 -36 38 -36q19 0 38 10t26 -6l12 -31q5 -13 -8 -23q-42 -31 -97 -31q-51 0 -83 21t-32 61q0 69 96 117h-109q-12 0 -16.5 4t-4.5 17v59
q0 10 4 13.5t17 3.5h14q27 0 37.5 7.5t11.5 32.5v257q-1 18 -8.5 25t-23.5 8l-23 1q-21 1 -21 24v51q0 13 4 17t17 5l168 9q13 0 18 -6.5t5 -21.5zM91 683q0 41 25.5 66t62.5 25q32 0 55 -23.5t23 -60.5q0 -40 -26 -64t-63 -24q-33 0 -55 22t-22 59z" />
    <glyph glyph-name="Idotaccent" unicode="&#x130;" horiz-adv-x="386" 
d="M103 791q0 40 27 67t62 27q34 0 58.5 -24t24.5 -63q0 -50 -41 -76h93q12 0 16.5 -4t4.5 -17v-58q0 -11 -4 -14.5t-17 -3.5h-14q-28 0 -38 -9.5t-10 -42.5v-424q0 -33 10 -42.5t39 -9.5h13q13 0 17 -3.5t4 -13.5v-59q0 -13 -4.5 -17t-16.5 -4h-267q-13 0 -17.5 4t-4.5 17
v59q0 9 4.5 13t17.5 4h12q27 0 38 10.5t11 41.5v424q0 31 -10.5 41.5t-38.5 10.5h-13q-12 0 -16.5 4t-4.5 14v58q0 13 4.5 17t16.5 4h79q-35 23 -35 69z" />
    <glyph glyph-name="dotlessi" unicode="&#x131;" horiz-adv-x="341" 
d="M110 386q0 25 -10 33t-47 8q-19 0 -19 22v55q0 20 21 21l168 9q13 0 18 -6.5t5 -21.5v-359q0 -32 10 -41t39 -9h14q13 0 17 -3.5t4 -13.5v-59q0 -13 -4.5 -17t-16.5 -4h-262q-12 0 -16.5 4t-4.5 17v59q0 10 4 13.5t17 3.5h15q26 0 36.5 7.5t11.5 32.5v249z" />
    <glyph glyph-name="IJ" unicode="&#x132;" horiz-adv-x="924" 
d="M418 151q0 38 26.5 63.5t61.5 25.5t60 -24.5t25 -63.5q0 -53 -44 -77q16 -8 40 -8q83 0 83 128v387q-1 25 -11.5 34t-36.5 9h-13q-12 0 -16.5 4t-4.5 14v58q0 13 4.5 17t16.5 4h267q13 0 17.5 -4t4.5 -17v-58q0 -11 -4.5 -14.5t-17.5 -3.5h-14q-27 0 -37 -8t-11 -35v-351
q0 -112 -54.5 -176t-164.5 -64q-89 0 -132 44t-45 111v5zM121 573q0 31 -10.5 41.5t-38.5 10.5h-13q-12 0 -16.5 4t-4.5 14v58q0 13 4.5 17t16.5 4h268q12 0 16.5 -4t4.5 -17v-58q0 -11 -4 -14.5t-17 -3.5h-14q-28 0 -38 -9.5t-10 -42.5v-424q0 -33 10 -42.5t39 -9.5h13
q13 0 17 -3.5t4 -13.5v-59q0 -13 -4.5 -17t-16.5 -4h-267q-13 0 -17.5 4t-4.5 17v59q0 9 4.5 13t17.5 4h12q27 0 38 10.5t11 41.5v424z" />
    <glyph glyph-name="ij" unicode="&#x133;" horiz-adv-x="640" 
d="M573 -47q0 -99 -48 -154.5t-147 -55.5q-63 0 -99 27t-45 71q-4 11 -4 26q0 35 23 58.5t55 23.5q30 0 52 -21.5t22 -55.5q0 -24 -13 -44q67 8 67 95v463q0 22 -6.5 30.5t-24.5 10.5l-24 1q-20 1 -20 23v52q0 13 3.5 16.5t16.5 4.5l168 10q24 0 24 -28v-553zM110 386
q0 22 -7 31t-25 10l-23 1q-21 1 -21 24v51q0 13 4 17t17 5l168 9q13 0 18 -6.5t5 -21.5v-369q1 -25 11.5 -32.5t37.5 -7.5h14q13 0 17 -3.5t4 -13.5v-59q0 -13 -4.5 -17t-16.5 -4h-262q-12 0 -16.5 4t-4.5 17v59q0 10 4 13.5t17 3.5h14q29 0 39 9t10 41v239zM416 677
q0 40 25.5 65.5t62.5 25.5q32 0 55.5 -23.5t23.5 -60.5q0 -40 -26.5 -64.5t-63.5 -24.5q-33 0 -55 22.5t-22 59.5zM91 683q0 41 25.5 66t62.5 25q32 0 55 -23.5t23 -60.5q0 -40 -26 -64t-63 -24q-33 0 -55 22t-22 59z" />
    <glyph glyph-name="Jcircumflex" unicode="&#x134;" horiz-adv-x="529" 
d="M420 231q0 -112 -55 -176t-165 -64q-90 0 -133.5 45t-43.5 114q0 39 26.5 64.5t62.5 25.5q35 0 59.5 -24.5t24.5 -63.5q0 -53 -44 -77q19 -8 40 -8q84 0 84 128v378q0 31 -10.5 41.5t-38.5 10.5h-13q-12 0 -16.5 4t-4.5 14v58q0 12 4.5 16.5t16.5 4.5h267q13 0 17.5 -4
t4.5 -17v-58q0 -11 -4 -14.5t-18 -3.5h-14q-26 0 -36 -8t-11 -35v-351zM400 805l-51 43l-51 -43q-1 -1 -4 -3.5t-4 -3.5t-3.5 -2.5t-4 -1.5t-5 -1t-7 -1h-8.5h-47q-26 0 -25 10q1 4 6 9l109 100q10 10 17.5 12t26.5 2q20 0 27 -2t17 -12l109 -100q5 -5 5 -9.5t-6.5 -7
t-16.5 -2.5h-48h-7t-6 0.5t-4.5 0.5t-3.5 1l-3 1.5t-2.5 1.5t-2.5 2t-3.5 3t-3.5 3z" />
    <glyph glyph-name="jcircumflex" unicode="&#x135;" horiz-adv-x="299" 
d="M-111 -131h1q-1 3 -1 9q0 35 23 58.5t54 23.5t52.5 -21.5t21.5 -55.5t-22 -56q77 4 77 96v471q-1 18 -8.5 24.5t-23.5 8.5l-23 1q-21 1 -21 23v52q0 13 4 16.5t17 4.5l168 10q13 0 18 -6.5t5 -21.5v-553q0 -99 -48 -154.5t-147 -55.5q-72 0 -109.5 36t-37.5 90zM184 621
l-51 43l-51 -43q-1 -1 -4 -3.5t-4 -3.5t-3.5 -2.5t-4 -1.5t-5 -1t-7 -1h-8.5h-47q-26 0 -25 10q1 4 6 9l109 100q10 10 17.5 12t26.5 2q20 0 27 -2t17 -12l109 -100q5 -5 5 -9.5t-6.5 -7t-16.5 -2.5h-48h-7t-6 0.5t-4.5 0.5t-3.5 1l-3 1.5t-2.5 1.5t-2.5 2t-3.5 3t-3.5 3z
" />
    <glyph glyph-name="Kcommaaccent" unicode="&#x136;" horiz-adv-x="760" 
d="M596 587l-163 -157q38 -3 67 -15t50.5 -32t41 -57.5t35.5 -81t37 -112.5q11 -30 43 -30q14 0 33 9q8 4 11.5 0.5t3.5 -16.5v-61q0 -20 -18 -28q-32 -17 -75 -17q-21 0 -36 2t-34 9.5t-34.5 25t-26.5 44.5q-8 20 -22 64t-26.5 76.5t-30 68t-41.5 56t-53 22.5l-93 -89v-119
q0 -33 10 -42.5t39 -9.5h13q13 0 17 -3.5t4 -13.5v-59q0 -13 -4.5 -17t-16.5 -4h-267q-13 0 -17.5 4t-4.5 17v59q0 9 4.5 13t17.5 4h12q27 0 38 10.5t11 41.5v424q0 31 -10.5 41.5t-38.5 10.5h-13q-12 0 -16.5 4t-4.5 14v58q0 13 4.5 17t16.5 4h268q12 0 16.5 -4t4.5 -17
v-58q0 -11 -4 -14.5t-17 -3.5h-14q-28 0 -38 -9.5t-10 -42.5v-193l216 216q11 12 14 18.5t-1 8.5t-14 2h-22q-21 0 -21 27v49q0 13 4 17t17 4h254q12 0 16 -4t4 -17v-53q0 -23 -20 -23h-45q-33 0 -71 -38z" />
    <glyph glyph-name="kcommaaccent" unicode="&#x137;" horiz-adv-x="651" 
d="M494 390l-129 -94l153 -136q41 -37 59.5 -50t36.5 -13h13q21 -1 21 -24v-52q0 -13 -4.5 -17t-17.5 -4h-257q-12 0 -16.5 4t-4.5 17v49q0 23 21 24h11q20 0 8 14q-5 6 -20 19l-136 115v-95q0 -32 10 -41t39 -9h14q13 0 17 -3.5t4 -13.5v-59q0 -13 -4.5 -17t-16.5 -4h-262
q-12 0 -16.5 4t-4.5 17v59q0 10 4 13.5t17 3.5h14q29 0 39 9t10 41v468q0 22 -7 31t-25 10l-23 1q-21 1 -21 24v51q0 13 4 17t17 5l167 9q14 0 19 -6.5t5 -21.5v-453l154 116q18 16 16 22.5t-19 6.5h-37q-22 0 -22 27v49q0 13 4.5 17t18.5 4h253q14 0 18.5 -4t4.5 -17v-53
q0 -23 -21 -23h-34q-26 0 -74 -37zM266 -133q0 32 21 53.5t50 21.5q28 0 47 -21t19 -58q0 -88 -102 -174q-11 -10 -18 -3l-15 14q-6 6 -5 9.5t8 10.5q39 35 49 80q-24 2 -39 20t-15 47z" />
    <glyph glyph-name="Lacute" unicode="&#x139;" horiz-adv-x="625" 
d="M57 97q37 0 50.5 8t14.5 34v443q-1 25 -12 34t-37 9h-13q-12 0 -16.5 4t-4.5 14v58q0 13 4.5 17t16.5 4h267q13 0 17.5 -4t4.5 -17v-58q0 -11 -4.5 -14.5t-17.5 -3.5h-14q-26 0 -36 -8t-11 -35v-487h123q64 0 82 11t31 59l6 37q5 20 25 20h60q12 0 15 -4.5t2 -17.5
l-16 -159q-4 -28 -11.5 -34.5t-29.5 -6.5h-493q-12 0 -16.5 4.5t-4.5 16.5v52q0 24 18 24zM147 806l-12 26q-6 10 -5.5 16t11.5 11l159 78q18 10 27 -3l39 -70q6 -7 3.5 -13.5t-17.5 -10.5l-177 -45q-19 -6 -28 11z" />
    <glyph glyph-name="lacute" unicode="&#x13a;" horiz-adv-x="330" 
d="M97 615q0 22 -7.5 31t-24.5 10l-24 1q-20 1 -20 24v51q0 13 4 17t16 5l168 9q14 0 19 -6.5t5 -21.5v-588q0 -32 10 -41t39 -9h14q13 0 17 -3.5t4 -13.5v-59q0 -13 -4.5 -17t-16.5 -4h-262q-13 0 -17 4t-4 17v59q0 10 4 13.5t17 3.5h14q29 0 39 9t10 41v468zM82 792
l-12 26q-6 10 -5.5 16t11.5 11l159 78q18 10 27 -3l39 -70q6 -7 3.5 -13.5t-17.5 -10.5l-177 -45q-19 -6 -28 11z" />
    <glyph glyph-name="Lcommaaccent" unicode="&#x13b;" horiz-adv-x="625" 
d="M57 97q37 0 50.5 8t14.5 34v443q-1 25 -12 34t-37 9h-13q-12 0 -16.5 4t-4.5 14v58q0 13 4.5 17t16.5 4h267q13 0 17.5 -4t4.5 -17v-58q0 -11 -4.5 -14.5t-17.5 -3.5h-14q-26 0 -36 -8t-11 -35v-487h123q64 0 82 11t31 59l6 37q5 20 25 20h60q12 0 15 -4.5t2 -17.5
l-16 -159q-4 -28 -11.5 -34.5t-29.5 -6.5h-493q-12 0 -16.5 4.5t-4.5 16.5v52q0 24 18 24zM294 -133q0 32 21 53.5t50 21.5q28 0 47 -21t19 -58q0 -88 -102 -174q-11 -10 -18 -3l-15 14q-6 6 -5 9.5t8 10.5q39 35 49 80q-24 2 -39 20t-15 47z" />
    <glyph glyph-name="lcommaaccent" unicode="&#x13c;" horiz-adv-x="330" 
d="M97 615q0 22 -7.5 31t-24.5 10l-24 1q-20 1 -20 24v51q0 13 4 17t16 5l168 9q14 0 19 -6.5t5 -21.5v-588q0 -32 10 -41t39 -9h14q13 0 17 -3.5t4 -13.5v-59q0 -13 -4.5 -17t-16.5 -4h-262q-13 0 -17 4t-4 17v59q0 10 4 13.5t17 3.5h14q29 0 39 9t10 41v468zM114 -129
q0 32 21 53.5t50 21.5q28 0 47 -21t19 -58q0 -88 -102 -174q-11 -10 -18 -3l-15 14q-6 6 -5 9.5t8 10.5q39 35 49 80q-24 2 -39 20t-15 47z" />
    <glyph glyph-name="Lcaron" unicode="&#x13d;" horiz-adv-x="627" 
d="M122 573q0 31 -10.5 41.5t-38.5 10.5h-13q-12 0 -16.5 4t-4.5 14v58q0 13 4.5 17t16.5 4h267q13 0 17.5 -4t4.5 -17v-58q0 -11 -4.5 -14.5t-17.5 -3.5h-14q-28 0 -37.5 -9.5t-9.5 -42.5v-478h123q64 0 82 11t31 59l6 37q5 20 25 20h60q12 0 15 -4.5t2 -17.5l-16 -159
q-4 -28 -11.5 -34.5t-29.5 -6.5h-493q-12 0 -16.5 4.5t-4.5 16.5v52q0 24 18 24q40 0 52.5 10t12.5 42v424zM443 485l-14 210q-2 15 14 21t60 6t59.5 -6t13.5 -21l-15 -210q-1 -13 -12.5 -17.5t-45.5 -4.5q-35 0 -47 4.5t-13 17.5z" />
    <glyph glyph-name="lcaron" unicode="&#x13e;" horiz-adv-x="381" 
d="M97 615q0 22 -7.5 31t-24.5 10l-24 1q-20 1 -20 24v51q0 13 4 17t16 5l168 9q14 0 19 -6.5t5 -21.5v-588q0 -32 10 -41t39 -9h14q13 0 17 -3.5t4 -13.5v-59q0 -13 -4.5 -17t-16.5 -4h-262q-13 0 -17 4t-4 17v59q0 10 4 13.5t17 3.5h14q29 0 39 9t10 41v468zM266 672
q0 41 24 67t65 26q38 0 60.5 -26t22.5 -73q0 -104 -125 -215q-8 -8 -12.5 -8.5t-14.5 7.5l-13 13q-7 7 -6.5 11.5t8.5 13.5q46 48 60 100q-29 2 -49 25t-20 59z" />
    <glyph glyph-name="Ldot" unicode="&#x13f;" horiz-adv-x="625" 
d="M266 95h123q64 0 82 11t31 59l6 37q5 20 25 20h60q12 0 15 -4.5t2 -17.5l-16 -159q-4 -28 -11.5 -34.5t-29.5 -6.5h-493q-12 0 -16.5 4.5t-4.5 16.5v52q0 24 18 24q40 0 52.5 10t12.5 42v424q0 31 -10.5 41.5t-38.5 10.5h-13q-12 0 -16.5 4t-4.5 14v58q0 13 4.5 17
t16.5 4h267q13 0 17.5 -4t4.5 -17v-58q0 -11 -4.5 -14.5t-17.5 -3.5h-14q-28 0 -37.5 -9.5t-9.5 -42.5v-478zM324 298q0 40 27 66.5t62 26.5q34 0 58.5 -23.5t24.5 -62.5q0 -40 -27 -65.5t-64 -25.5q-35 0 -58 23t-23 61z" />
    <glyph glyph-name="ldot" unicode="&#x140;" horiz-adv-x="412" 
d="M97 615q0 22 -7.5 31t-24.5 10l-24 1q-20 1 -20 24v51q0 13 4 17t16 5l168 9q14 0 19 -6.5t5 -21.5v-588q0 -32 10 -41t39 -9h14q13 0 17 -3.5t4 -13.5v-59q0 -13 -4.5 -17t-16.5 -4h-262q-13 0 -17 4t-4 17v59q0 10 4 13.5t17 3.5h14q29 0 39 9t10 41v468zM284 299
q0 39 27 66t62 27q34 0 58.5 -23.5t24.5 -62.5q0 -40 -26.5 -65.5t-63.5 -25.5q-35 0 -58.5 23t-23.5 61z" />
    <glyph glyph-name="Lslash" unicode="&#x141;" horiz-adv-x="626" 
d="M267 429l157 101q18 12 27 -4l29 -49q6 -10 4.5 -15.5t-11.5 -12.5l-206 -133v-221h124q64 0 82 11t31 59l6 37q4 20 24 20h60q12 0 15.5 -4.5t1.5 -17.5l-16 -159q-3 -27 -11 -34t-30 -7h-493q-12 0 -16.5 4.5t-4.5 16.5v52q0 24 18 24q40 0 52.5 10t12.5 42v75l-34 -22
q-12 -6 -17 -5t-11 11l-29 49q-6 9 -4.5 14t11.5 12l84 54v245q-1 25 -12 34t-37 9h-13q-12 0 -16.5 4t-4.5 14v58q0 12 4.5 16.5t16.5 4.5h267q13 0 17.5 -4t4.5 -17v-58q0 -11 -4 -14.5t-18 -3.5h-14q-28 0 -37.5 -9.5t-9.5 -42.5v-144z" />
    <glyph glyph-name="lslash" unicode="&#x142;" horiz-adv-x="350" 
d="M101 272l-37 -24q-34 -22 -62 25q-8 12 -9 21.5t5.5 18.5t14.5 15.5t25 17.5l63 41v236q-1 18 -8.5 25t-23.5 8l-23 1q-21 1 -21 24v51q0 13 4 17t17 5l168 9q13 0 18 -6.5t5 -21.5v-260l52 34q32 19 63 -27q22 -33 -15 -57l-100 -65v-219q0 -46 30 -46q10 0 18.5 2
t13.5 2q11 2 11 -10v-60q0 -19 -15 -24q-24 -11 -81 -11q-48 0 -80.5 26t-32.5 89v163z" />
    <glyph glyph-name="Nacute" unicode="&#x143;" horiz-adv-x="828" 
d="M71 97q28 0 39 9.5t11 38.5v431q-1 30 -13 39.5t-41 9.5h-5q-14 0 -18.5 4t-4.5 14v58q0 12 5 16.5t18 4.5h147q22 0 34 -15l362 -465v335q0 30 -10 39t-39 9h-13q-13 0 -17 3.5t-4 13.5v59q0 13 4.5 17t16.5 4h236q12 0 16.5 -4t4.5 -17v-58q0 -10 -4.5 -14t-16.5 -4
h-12q-28 0 -39 -9.5t-11 -38.5v-569q0 -9 -4.5 -12.5t-18.5 -3.5h-37q-20 0 -31 13l-393 485v-345q0 -30 10 -39t39 -9h13q13 0 17 -3.5t4 -13.5v-59q0 -13 -4.5 -17t-16.5 -4h-236q-12 0 -16.5 4t-4.5 17v58q0 10 4.5 14t16.5 4h12zM357 806l-12 26q-6 10 -5.5 16t11.5 11
l159 78q18 10 27 -3l39 -70q6 -7 3.5 -13.5t-17.5 -10.5l-177 -45q-19 -6 -28 11z" />
    <glyph glyph-name="nacute" unicode="&#x144;" horiz-adv-x="664" 
d="M369 432q-61 0 -92.5 -55t-31.5 -157v-73q0 -32 10 -41t39 -9h14q12 0 16.5 -4t4.5 -13v-59q0 -13 -4.5 -17t-16.5 -4h-262q-13 0 -17 4t-4 17v59q0 10 4 13.5t17 3.5h14q26 0 37 7.5t12 32.5v249q0 25 -10.5 33t-47.5 8q-18 0 -18 22v55q0 11 4 15.5t17 5.5l167 9
q14 0 19 -6.5t5 -21.5v-43q45 81 174 81q162 0 162 -175v-228q0 -46 29 -46q10 0 19 2t14 2q5 1 7.5 -1t2.5 -9v-60q0 -19 -14 -24q-25 -11 -82 -11q-48 0 -80 26t-32 89v242q0 81 -76 81zM305 622l-12 26q-6 10 -5.5 16t11.5 11l159 78q18 10 27 -3l39 -70q6 -7 3.5 -13.5
t-17.5 -10.5l-177 -45q-19 -6 -28 11z" />
    <glyph glyph-name="Ncommaaccent" unicode="&#x145;" horiz-adv-x="828" 
d="M71 97q28 0 39 9.5t11 38.5v431q-1 30 -13 39.5t-41 9.5h-5q-14 0 -18.5 4t-4.5 14v58q0 12 5 16.5t18 4.5h147q22 0 34 -15l362 -465v335q0 30 -10 39t-39 9h-13q-13 0 -17 3.5t-4 13.5v59q0 13 4.5 17t16.5 4h236q12 0 16.5 -4t4.5 -17v-58q0 -10 -4.5 -14t-16.5 -4
h-12q-28 0 -39 -9.5t-11 -38.5v-569q0 -9 -4.5 -12.5t-18.5 -3.5h-37q-20 0 -31 13l-393 485v-345q0 -30 10 -39t39 -9h13q13 0 17 -3.5t4 -13.5v-59q0 -13 -4.5 -17t-16.5 -4h-236q-12 0 -16.5 4t-4.5 17v58q0 10 4.5 14t16.5 4h12zM334 -133q0 32 21 53.5t50 21.5
q28 0 47 -21t19 -58q0 -88 -102 -174q-11 -10 -18 -3l-15 14q-6 6 -5 9.5t8 10.5q39 35 49 80q-24 2 -39 20t-15 47z" />
    <glyph glyph-name="ncommaaccent" unicode="&#x146;" horiz-adv-x="664" 
d="M369 432q-61 0 -92.5 -55t-31.5 -157v-73q0 -32 10 -41t39 -9h14q12 0 16.5 -4t4.5 -13v-59q0 -13 -4.5 -17t-16.5 -4h-262q-13 0 -17 4t-4 17v59q0 10 4 13.5t17 3.5h14q26 0 37 7.5t12 32.5v249q0 25 -10.5 33t-47.5 8q-18 0 -18 22v55q0 11 4 15.5t17 5.5l167 9
q14 0 19 -6.5t5 -21.5v-43q45 81 174 81q162 0 162 -175v-228q0 -46 29 -46q10 0 19 2t14 2q5 1 7.5 -1t2.5 -9v-60q0 -19 -14 -24q-25 -11 -82 -11q-48 0 -80 26t-32 89v242q0 81 -76 81zM285 -133q0 32 21 53.5t50 21.5q28 0 47 -21t19 -58q0 -88 -102 -174
q-11 -10 -18 -3l-15 14q-9 8 3 20q39 35 49 80q-24 2 -39 20t-15 47z" />
    <glyph glyph-name="Ncaron" unicode="&#x147;" horiz-adv-x="828" 
d="M71 97q28 0 39 9.5t11 38.5v431q-1 30 -13 39.5t-41 9.5h-5q-14 0 -18.5 4t-4.5 14v58q0 12 5 16.5t18 4.5h147q22 0 34 -15l362 -465v335q0 30 -10 39t-39 9h-13q-13 0 -17 3.5t-4 13.5v59q0 13 4.5 17t16.5 4h236q12 0 16.5 -4t4.5 -17v-58q0 -10 -4.5 -14t-16.5 -4
h-12q-28 0 -39 -9.5t-11 -38.5v-569q0 -9 -4.5 -12.5t-18.5 -3.5h-37q-20 0 -31 13l-393 485v-345q0 -30 10 -39t39 -9h13q13 0 17 -3.5t4 -13.5v-59q0 -13 -4.5 -17t-16.5 -4h-236q-12 0 -16.5 4t-4.5 17v58q0 10 4.5 14t16.5 4h12zM347 908l50 -44l50 44q3 2 8 5t7 4
t7.5 2t14.5 1h47q26 0 25 -10q-1 -4 -6 -9l-109 -100q-15 -14 -44 -14q-20 0 -27 2t-17 12l-109 100q-13 12 5 17q6 2 14 2h47q9 0 14.5 -1t7.5 -2t7 -4t8 -5z" />
    <glyph glyph-name="ncaron" unicode="&#x148;" horiz-adv-x="664" 
d="M369 432q-61 0 -92.5 -55t-31.5 -157v-73q0 -32 10 -41t39 -9h14q12 0 16.5 -4t4.5 -13v-59q0 -13 -4.5 -17t-16.5 -4h-262q-13 0 -17 4t-4 17v59q0 10 4 13.5t17 3.5h14q26 0 37 7.5t12 32.5v249q0 25 -10.5 33t-47.5 8q-18 0 -18 22v55q0 11 4 15.5t17 5.5l167 9
q14 0 19 -6.5t5 -21.5v-43q45 81 174 81q162 0 162 -175v-228q0 -46 29 -46q10 0 19 2t14 2q5 1 7.5 -1t2.5 -9v-60q0 -19 -14 -24q-25 -11 -82 -11q-48 0 -80 26t-32 89v242q0 81 -76 81zM294 724l50 -44l50 44q3 2 8 5t7 4t7.5 2t14.5 1h47q26 0 25 -10q-1 -4 -6 -9
l-109 -100q-15 -14 -44 -14q-20 0 -27 2t-17 12l-109 100q-13 12 5 17q6 2 14 2h47q9 0 14.5 -1t7.5 -2t7 -4t8 -5z" />
    <glyph glyph-name="napostrophe" unicode="&#x149;" horiz-adv-x="665" 
d="M369 432q-61 0 -92.5 -55t-31.5 -157v-73q0 -32 10 -41t39 -9h14q12 0 16.5 -4t4.5 -13v-59q0 -13 -4.5 -17t-16.5 -4h-262q-13 0 -17 4t-4 17v59q0 10 4 13.5t17 3.5h14q26 0 37 7.5t12 32.5v249q0 25 -10.5 33t-47.5 8q-18 0 -18 22v55q0 11 4 15.5t17 5.5l167 9
q14 0 19 -6.5t5 -21.5v-43q45 81 174 81q162 0 162 -175v-228q0 -46 29 -46q10 0 19 2t14 2q5 1 7.5 -1t2.5 -9v-60q0 -19 -14 -24q-25 -11 -82 -11q-48 0 -80 26t-32 89v242q0 81 -76 81zM62 734q0 32 21 53.5t50 21.5q28 0 47 -21t19 -58q0 -88 -102 -174q-11 -10 -18 -3
l-15 14q-6 6 -5 9.5t8 10.5q39 35 49 80q-24 2 -39 20t-15 47z" />
    <glyph glyph-name="Eng" unicode="&#x14a;" horiz-adv-x="828" 
d="M717 -5q0 -113 -54.5 -176.5t-165.5 -63.5q-85 0 -128.5 41t-48.5 104v15q1 39 27 64t62 25q35 0 59.5 -24.5t24.5 -63.5q0 -53 -44 -77q18 -9 40 -9q84 0 84 129v111l-340 420v-345q0 -30 10 -39t39 -9h13q13 0 17 -3.5t4 -13.5v-59q0 -13 -4.5 -17t-16.5 -4h-236
q-12 0 -16.5 4t-4.5 17v58q0 10 4.5 14t16.5 4h12q28 0 39 9.5t11 38.5v431q-1 30 -13 39.5t-41 9.5h-5q-14 0 -18.5 4t-4.5 14v58q0 12 5 16.5t18 4.5h147q22 0 34 -15l362 -465v335q0 30 -10 39t-39 9h-13q-13 0 -17 3.5t-4 13.5v59q0 13 4.5 17t16.5 4h236q12 0 16.5 -4
t4.5 -17v-58q0 -10 -4.5 -14t-16.5 -4h-12q-28 0 -39 -9.5t-11 -38.5v-582z" />
    <glyph glyph-name="eng" unicode="&#x14b;" horiz-adv-x="642" 
d="M109 394q-2 19 -13 26t-45 7q-18 0 -18 22v55q0 11 4 15.5t17 5.5l167 9q14 0 19 -6.5t5 -21.5v-43q45 81 174 81q162 0 162 -175v-406q0 -100 -48.5 -156t-146.5 -56q-69 0 -105.5 32t-41.5 82v9q0 35 23 58.5t54 23.5q30 0 52 -21.5t22 -55.5q0 -45 -36 -67q2 0 4 -0.5
t4 -0.5q83 0 83 114v426q0 81 -76 81q-61 0 -92.5 -55t-31.5 -157v-73q0 -32 10 -41t39 -9h14q12 0 16.5 -4t4.5 -13v-59q0 -13 -4.5 -17t-16.5 -4h-262q-13 0 -17 4t-4 17v59q0 10 4 13.5t17 3.5h14q29 0 39 9t10 41v247z" />
    <glyph glyph-name="Omacron" unicode="&#x14c;" horiz-adv-x="805" 
d="M30 359q0 54 10.5 104.5t37.5 100.5t68 86.5t106.5 59.5t148.5 23q100 0 174.5 -31t116.5 -84.5t62 -117.5t20 -139q0 -69 -18.5 -131t-58.5 -118.5t-115.5 -90.5t-178.5 -34q-100 0 -174.5 31t-116.5 85t-62 118t-20 138zM401 630q-61 0 -105.5 -24t-68 -65t-34.5 -86
t-11 -95q0 -37 5.5 -71t20.5 -71.5t38.5 -65t64 -45t92.5 -17.5q62 0 107 24.5t68 65.5t33.5 85t10.5 94q0 47 -9.5 89.5t-32 86t-68.5 69.5t-111 26zM541 795h-265q-18 0 -25 17.5t-7 59.5q0 13 5 19.5t10.5 7.5t17.5 1h249q20 0 26.5 -17.5t6.5 -54.5q0 -33 -18 -33z" />
    <glyph glyph-name="omacron" unicode="&#x14d;" horiz-adv-x="593" 
d="M29 266q0 122 66 200t201 78t201.5 -78t66.5 -200q0 -121 -66.5 -200t-201.5 -79t-201 78.5t-66 200.5zM296 449q-123 0 -123 -184q0 -183 123 -183q124 0 124 183q0 184 -124 184zM437 611h-265q-18 0 -25 17.5t-7 59.5q0 13 5 19.5t10.5 7.5t17.5 1h249
q20 0 26.5 -17.5t6.5 -54.5q0 -33 -18 -33z" />
    <glyph glyph-name="Obreve" unicode="&#x14e;" horiz-adv-x="805" 
d="M30 359q0 54 10.5 104.5t37.5 100.5t68 86.5t106.5 59.5t148.5 23q100 0 174.5 -31t116.5 -84.5t62 -117.5t20 -139q0 -69 -18.5 -131t-58.5 -118.5t-115.5 -90.5t-178.5 -34q-100 0 -174.5 31t-116.5 85t-62 118t-20 138zM401 630q-61 0 -105.5 -24t-68 -65t-34.5 -86
t-11 -95q0 -37 5.5 -71t20.5 -71.5t38.5 -65t64 -45t92.5 -17.5q62 0 107 24.5t68 65.5t33.5 85t10.5 94q0 47 -9.5 89.5t-32 86t-68.5 69.5t-111 26zM400 871q46 0 46 30q0 13 17 13h55q16 0 16 -17q0 -52 -34.5 -81.5t-99.5 -29.5q-64 0 -98 29t-34 82q0 17 15 17h55
q17 0 17 -12q2 -31 45 -31z" />
    <glyph glyph-name="obreve" unicode="&#x14f;" horiz-adv-x="593" 
d="M29 266q0 122 66 200t201 78t201.5 -78t66.5 -200q0 -121 -66.5 -200t-201.5 -79t-201 78.5t-66 200.5zM296 449q-123 0 -123 -184q0 -183 123 -183q124 0 124 183q0 184 -124 184zM296 688q46 0 46 30q0 13 17 13h55q16 0 16 -17q0 -52 -34.5 -81.5t-99.5 -29.5
q-64 0 -98 29t-34 82q0 17 15 17h55q17 0 17 -12q2 -31 45 -31z" />
    <glyph glyph-name="Ohungarumlaut" unicode="&#x150;" horiz-adv-x="805" 
d="M30 359q0 54 10.5 104.5t37.5 100.5t68 86.5t106.5 59.5t148.5 23q100 0 174.5 -31t116.5 -84.5t62 -117.5t20 -139q0 -69 -18.5 -131t-58.5 -118.5t-115.5 -90.5t-178.5 -34q-100 0 -174.5 31t-116.5 85t-62 118t-20 138zM401 630q-61 0 -105.5 -24t-68 -65t-34.5 -86
t-11 -95q0 -37 5.5 -71t20.5 -71.5t38.5 -65t64 -45t92.5 -17.5q62 0 107 24.5t68 65.5t33.5 85t10.5 94q0 47 -9.5 89.5t-32 86t-68.5 69.5t-111 26zM302 796l-25 19q-10 7 -11.5 10.5t5.5 14.5l109 137q15 16 27 7l67 -42q17 -12 -3 -28l-139 -114q-17 -14 -30 -4z
M472 796l-24 17q-10 8 -11.5 11.5t4.5 13.5l108 139q13 16 27 7l67 -41q18 -11 -3 -28l-138 -116q-16 -14 -30 -3z" />
    <glyph glyph-name="ohungarumlaut" unicode="&#x151;" horiz-adv-x="593" 
d="M29 266q0 122 66 200t201 78t201.5 -78t66.5 -200q0 -121 -66.5 -200t-201.5 -79t-201 78.5t-66 200.5zM296 449q-123 0 -123 -184q0 -183 123 -183q124 0 124 183q0 184 -124 184zM198 614l-25 19q-10 7 -11.5 10.5t5.5 14.5l109 137q15 16 27 7l67 -42q17 -12 -3 -28
l-139 -114q-17 -14 -30 -4zM368 614l-24 17q-10 8 -11.5 11.5t4.5 13.5l108 139q13 16 27 7l67 -41q18 -11 -3 -28l-138 -116q-16 -14 -30 -3z" />
    <glyph glyph-name="OE" unicode="&#x152;" horiz-adv-x="1150" 
d="M30 359q0 54 10.5 104.5t37.5 100.5t68 86.5t106.5 59.5t148.5 23q136 0 228 -60v28q0 15 4.5 18t18.5 3h395q28 0 35.5 -7t8.5 -40l8 -129q0 -11 -0.5 -14.5t-4 -6.5t-12.5 -3h-63q-11 0 -16 4.5t-7 17.5l-5 36q-4 33 -26.5 40t-101.5 7h-90v-214h59q32 0 37 28l4 28
q2 14 6 17.5t15 3.5h55q11 0 14 -4.5t3 -17.5v-204q0 -13 -3 -17.5t-14 -4.5h-55q-11 0 -15.5 4t-6.5 16l-4 29q-5 27 -36 27h-59v-223h132q64 0 82 11t31 59l6 37q5 20 25 20h52q12 0 15 -4.5t1 -17.5l-16 -159q-3 -28 -10.5 -34.5t-29.5 -6.5h-404q-19 0 -23.5 4t-4.5 23
v20q-89 -60 -226 -60q-100 0 -174.5 31t-116.5 85t-62 118t-20 138zM401 630q-61 0 -105.5 -24t-68 -65t-34.5 -86t-11 -95q0 -37 5.5 -71t20.5 -71.5t38.5 -65t64 -45t92.5 -17.5q62 0 107 24.5t68 65.5t33.5 85t10.5 94q0 47 -9.5 89.5t-32 86t-68.5 69.5t-111 26z" />
    <glyph glyph-name="oe" unicode="&#x153;" horiz-adv-x="957" 
d="M29 266q0 122 66 200t201 78q128 0 198 -75q73 75 204 75q110 0 170.5 -49.5t60.5 -137.5q0 -79 -59 -123t-179 -44q-64 0 -120 12q22 -110 149 -110q64 0 105 12q8 2 24 8t27.5 9.5t16.5 3.5q6 1 9 -3t3 -11v-58q0 -15 -3.5 -20.5t-17.5 -12.5q-66 -33 -177 -33
q-148 0 -218 70q-70 -70 -193 -70q-135 0 -201 78.5t-66 200.5zM296 449q-123 0 -123 -184q0 -183 123 -183q124 0 124 183q0 184 -124 184zM698 449q-62 0 -93.5 -42.5t-37.5 -112.5q62 -13 114 -13q116 0 116 81q0 40 -27 63.5t-72 23.5z" />
    <glyph glyph-name="Racute" unicode="&#x154;" horiz-adv-x="690" 
d="M288 292h-23v-143q0 -33 10 -42.5t39 -9.5h13q13 0 17 -3.5t4 -13.5v-59q0 -13 -4.5 -17t-16.5 -4h-267q-13 0 -17.5 4t-4.5 17v59q0 9 4.5 13t17.5 4h12q27 0 38 10.5t11 41.5v426q0 25 -7.5 36t-26.5 13q-9 1 -30 1q-19 0 -19 20v56q0 13 4.5 17t17.5 4h253
q160 0 232 -47t72 -165q0 -154 -144 -201q32 -19 56.5 -60t57.5 -125q12 -30 39 -30q18 0 37 8q16 6 16 -10v-58q0 -19 -19 -28q-32 -17 -88 -17q-26 0 -43 4t-38.5 22.5t-36.5 53.5q-6 14 -20.5 52t-26 61.5t-29 52t-40.5 43t-50 14.5zM265 387h62q138 0 138 123
q0 62 -36 89.5t-109 27.5h-55v-240zM301 806l-12 26q-6 10 -5.5 16t11.5 11l159 78q18 10 27 -3l39 -70q6 -7 3.5 -13.5t-17.5 -10.5l-177 -45q-19 -6 -28 11z" />
    <glyph glyph-name="racute" unicode="&#x155;" horiz-adv-x="519" 
d="M109 386q0 25 -10.5 33t-47.5 8q-18 0 -18 22v55q0 11 4 15.5t17 5.5l167 9q14 0 19 -6.5t5 -21.5v-100q6 21 17 42t30 44t50.5 37.5t69.5 14.5q104 0 104 -105h-2q2 -12 2 -18q0 -36 -23.5 -58.5t-56.5 -22.5q-32 0 -52.5 21t-20.5 55q0 17 4 29q-55 -15 -88.5 -90
t-33.5 -159v-59q1 -25 11.5 -32.5t37.5 -7.5h34q12 0 16.5 -4t4.5 -13v-60q0 -12 -4.5 -16t-17.5 -4h-281q-12 0 -16.5 4t-4.5 17v59q0 10 4 13.5t17 3.5h13q28 0 39 10t11 40v239zM230 622l-12 26q-6 10 -5.5 16t11.5 11l159 78q18 10 27 -3l39 -70q6 -7 3.5 -13.5
t-17.5 -10.5l-177 -45q-19 -6 -28 11z" />
    <glyph glyph-name="Rcommaaccent" unicode="&#x156;" horiz-adv-x="690" 
d="M288 292h-23v-143q0 -33 10 -42.5t39 -9.5h13q13 0 17 -3.5t4 -13.5v-59q0 -13 -4.5 -17t-16.5 -4h-267q-13 0 -17.5 4t-4.5 17v59q0 9 4.5 13t17.5 4h12q27 0 38 10.5t11 41.5v426q0 25 -7.5 36t-26.5 13q-9 1 -30 1q-19 0 -19 20v56q0 13 4.5 17t17.5 4h253
q160 0 232 -47t72 -165q0 -154 -144 -201q32 -19 56.5 -60t57.5 -125q12 -30 39 -30q18 0 37 8q16 6 16 -10v-58q0 -19 -19 -28q-32 -17 -88 -17q-26 0 -43 4t-38.5 22.5t-36.5 53.5q-6 14 -20.5 52t-26 61.5t-29 52t-40.5 43t-50 14.5zM265 387h62q138 0 138 123
q0 62 -36 89.5t-109 27.5h-55v-240zM364 -133q0 32 21 53.5t50 21.5q28 0 47 -21t19 -58q0 -88 -102 -174q-11 -10 -18 -3l-15 14q-6 6 -5 9.5t8 10.5q39 35 49 80q-24 2 -39 20t-15 47z" />
    <glyph glyph-name="rcommaaccent" unicode="&#x157;" horiz-adv-x="519" 
d="M109 386q0 25 -10.5 33t-47.5 8q-18 0 -18 22v55q0 11 4 15.5t17 5.5l167 9q14 0 19 -6.5t5 -21.5v-100q6 21 17 42t30 44t50.5 37.5t69.5 14.5q104 0 104 -105h-2q2 -12 2 -18q0 -36 -23.5 -58.5t-56.5 -22.5q-32 0 -52.5 21t-20.5 55q0 17 4 29q-55 -15 -88.5 -90
t-33.5 -159v-59q1 -25 11.5 -32.5t37.5 -7.5h34q12 0 16.5 -4t4.5 -13v-60q0 -12 -4.5 -16t-17.5 -4h-281q-12 0 -16.5 4t-4.5 17v59q0 10 4 13.5t17 3.5h13q28 0 39 10t11 40v239zM106 -116q0 32 21 53.5t50 21.5q28 0 47 -21t19 -58q0 -88 -102 -174q-11 -10 -18 -3
l-15 14q-6 6 -5 9.5t8 10.5q39 35 49 80q-24 2 -39 20t-15 47z" />
    <glyph glyph-name="Rcaron" unicode="&#x158;" horiz-adv-x="690" 
d="M288 292h-23v-143q0 -33 10 -42.5t39 -9.5h13q13 0 17 -3.5t4 -13.5v-59q0 -13 -4 -17t-17 -4h-267q-12 0 -17 4.5t-5 16.5v59q0 9 4.5 13t17.5 4h12q28 0 38.5 10.5t10.5 41.5v426q0 26 -7.5 36.5t-26.5 12.5q-9 1 -30 1q-19 0 -19 20v56q0 13 4.5 17t17.5 4h253
q160 0 232 -47t72 -165q0 -155 -144 -201q32 -19 56.5 -60.5t57.5 -124.5q12 -30 39 -30q18 0 37 8q16 6 16 -10v-58q0 -19 -19 -28q-32 -17 -88 -17q-19 0 -32 2t-29.5 9.5t-30.5 24.5t-26 44q-6 13 -20.5 52t-25.5 62t-29 51.5t-40.5 43t-50.5 14.5zM265 387h62
q138 0 138 123q0 62 -36 89.5t-109 27.5h-55v-240zM291 908l50 -44l50 44q3 2 8 5t7 4t7.5 2t14.5 1h47q26 0 25 -10q-1 -4 -6 -9l-109 -100q-15 -14 -44 -14q-20 0 -27 2t-17 12l-109 100q-13 12 5 17q6 2 14 2h47q9 0 14.5 -1t7.5 -2t7 -4t8 -5z" />
    <glyph glyph-name="rcaron" unicode="&#x159;" horiz-adv-x="519" 
d="M109 386q0 25 -10.5 33t-47.5 8q-18 0 -18 22v55q0 11 4 15.5t17 5.5l167 9q14 0 19 -6.5t5 -21.5v-100q6 21 17 42t30 44t50.5 37.5t69.5 14.5q104 0 104 -105h-2q2 -12 2 -18q0 -36 -23.5 -58.5t-56.5 -22.5q-32 0 -52.5 21t-20.5 55q0 17 4 29q-55 -15 -88.5 -90
t-33.5 -159v-59q1 -25 11.5 -32.5t37.5 -7.5h34q12 0 16.5 -4t4.5 -13v-60q0 -12 -4.5 -16t-17.5 -4h-281q-12 0 -16.5 4t-4.5 17v59q0 10 4 13.5t17 3.5h13q28 0 39 10t11 40v239zM220 724l50 -44l50 44q3 2 8 5t7 4t7.5 2t14.5 1h47q26 0 25 -10q-1 -4 -6 -9l-109 -100
q-15 -14 -44 -14q-20 0 -27 2t-17 12l-109 100q-13 12 5 17q6 2 14 2h47q9 0 14.5 -1t7.5 -2t7 -4t8 -5z" />
    <glyph glyph-name="Sacute" unicode="&#x15a;" horiz-adv-x="618" 
d="M24 157q0 39 26.5 65t62.5 26q35 0 59.5 -24.5t24.5 -63.5q0 -32 -18 -55q44 -18 120 -18q137 0 137 99q0 39 -21 66t-55 42t-74.5 26.5t-81.5 26t-75 35.5t-55 59.5t-21 92.5q0 99 70 148.5t196 49.5q124 0 190 -44t68 -121v-4q0 -40 -26.5 -64t-63.5 -24
q-36 0 -60 23.5t-24 62.5q0 29 16 53q-45 18 -102 18q-120 0 -120 -76q0 -28 16.5 -48t43.5 -31.5t61.5 -23.5t70.5 -22t70.5 -29t61.5 -43.5t43.5 -65.5t16.5 -94q0 -109 -76.5 -160.5t-200.5 -51.5q-278 0 -280 172l95 -7q18 -31 60 -47q-25 -34 -72 -34q-35 0 -59 23.5
t-24 62.5zM280 806l-12 26q-6 10 -5.5 16t11.5 11l159 78q18 10 27 -3l39 -70q6 -7 3.5 -13.5t-17.5 -10.5l-177 -45q-19 -6 -28 11z" />
    <glyph glyph-name="sacute" unicode="&#x15b;" horiz-adv-x="508" 
d="M25 115q0 35 23 58.5t54 23.5q30 0 52 -21.5t22 -55.5q0 -17 -7 -34q35 -12 79 -12q102 0 102 68q0 22 -16.5 37t-43 23t-58 15.5t-63.5 19t-58.5 28t-43 47.5t-16.5 74q0 158 221 158q158 0 186 -82q6 -15 6 -32q0 -35 -23 -57.5t-55 -22.5q-31 0 -52 20.5t-21 54.5
q0 14 3 26q-28 5 -58 5q-78 0 -78 -54q0 -25 22 -40.5t55 -22.5t71.5 -19t71.5 -28t55 -51.5t22 -86.5q0 -167 -232 -167q-144 0 -191 66q-29 21 -29 62zM227 622l-12 26q-6 10 -5.5 16t11.5 11l159 78q18 10 27 -3l39 -70q6 -7 3.5 -13.5t-17.5 -10.5l-177 -45
q-19 -6 -28 11z" />
    <glyph glyph-name="Scircumflex" unicode="&#x15c;" horiz-adv-x="618" 
d="M24 157q0 39 26.5 65t62.5 26q35 0 59.5 -24.5t24.5 -63.5q0 -32 -18 -55q44 -18 120 -18q137 0 137 99q0 39 -21 66t-55 42t-74.5 26.5t-81.5 26t-75 35.5t-55 59.5t-21 92.5q0 99 70 148.5t196 49.5q124 0 190 -44t68 -121v-4q0 -40 -26.5 -64t-63.5 -24
q-36 0 -60 23.5t-24 62.5q0 29 16 53q-45 18 -102 18q-120 0 -120 -76q0 -28 16.5 -48t43.5 -31.5t61.5 -23.5t70.5 -22t70.5 -29t61.5 -43.5t43.5 -65.5t16.5 -94q0 -109 -76.5 -160.5t-200.5 -51.5q-278 0 -280 172l95 -7q18 -31 60 -47q-25 -34 -72 -34q-35 0 -59 23.5
t-24 62.5zM371 805l-51 43l-51 -43q-1 -1 -4 -3.5t-4 -3.5t-3.5 -2.5t-4 -1.5t-5 -1t-7 -1h-8.5h-47q-26 0 -25 10q1 4 6 9l109 100q10 10 17.5 12t26.5 2q20 0 27 -2t17 -12l109 -100q5 -5 5 -9.5t-6.5 -7t-16.5 -2.5h-48h-7t-6 0.5t-4.5 0.5t-3.5 1l-3 1.5t-2.5 1.5
t-2.5 2t-3.5 3t-3.5 3z" />
    <glyph glyph-name="scircumflex" unicode="&#x15d;" horiz-adv-x="508" 
d="M25 115q0 35 23 58.5t54 23.5q30 0 52 -21.5t22 -55.5q0 -17 -7 -34q35 -12 79 -12q102 0 102 68q0 22 -16.5 37t-43 23t-58 15.5t-63.5 19t-58.5 28t-43 47.5t-16.5 74q0 158 221 158q158 0 186 -82q6 -15 6 -32q0 -35 -23 -57.5t-55 -22.5q-31 0 -52 20.5t-21 54.5
q0 14 3 26q-28 5 -58 5q-78 0 -78 -54q0 -25 22 -40.5t55 -22.5t71.5 -19t71.5 -28t55 -51.5t22 -86.5q0 -167 -232 -167q-144 0 -191 66q-29 21 -29 62zM318 621l-51 43l-51 -43q-1 -1 -4 -3.5t-4 -3.5t-3.5 -2.5t-4 -1.5t-5 -1t-7 -1h-8.5h-47q-26 0 -25 10q1 4 6 9
l109 100q10 10 17.5 12t26.5 2q20 0 27 -2t17 -12l109 -100q5 -5 5 -9.5t-6.5 -7t-16.5 -2.5h-48h-7t-6 0.5t-4.5 0.5t-3.5 1l-3 1.5t-2.5 1.5t-2.5 2t-3.5 3t-3.5 3z" />
    <glyph glyph-name="Scedilla" unicode="&#x15e;" horiz-adv-x="618" 
d="M262 -79l27 66q-245 5 -263 150l-2 11v11q1 39 27 64t62 25q35 0 59.5 -24.5t24.5 -63.5q0 -32 -18 -55q44 -18 120 -18q137 0 137 99q0 39 -21 66t-55 42t-74.5 26.5t-81.5 26t-75 35.5t-55 59.5t-21 92.5q0 99 70 148.5t196 49.5q124 0 190 -44t68 -121v-4
q0 -40 -26.5 -64t-63.5 -24q-36 0 -60 23.5t-24 62.5q0 29 16 53q-45 18 -102 18q-120 0 -120 -76q0 -28 16.5 -48t43.5 -31.5t61.5 -23.5t70.5 -22t70.5 -29t61.5 -43.5t43.5 -65.5t16.5 -94q0 -98 -62 -149t-165 -60l-9 -24q107 3 107 -80q0 -95 -144 -95q-13 0 -41 2
t-29 2q-7 0 -7 14v35q0 8 1.5 9.5t7.5 1.5q38 -5 57 -5q60 0 60 34q0 28 -42 28q-9 0 -25 -1.5t-20 -1.5q-14 0 -8 12z" />
    <glyph glyph-name="scedilla" unicode="&#x15f;" horiz-adv-x="508" 
d="M168 -78l28 68q-104 9 -142 63q-29 21 -29 62q0 35 23 58.5t54 23.5q30 0 52 -21.5t22 -55.5q0 -17 -7 -34q35 -12 79 -12q102 0 102 68q0 22 -16.5 37t-43 23t-58 15.5t-63.5 19t-58.5 28t-43 47.5t-16.5 74q0 158 221 158q158 0 186 -82q6 -15 6 -32q0 -35 -23 -57.5
t-55 -22.5q-31 0 -52 20.5t-21 54.5q0 14 3 26q-28 5 -58 5q-78 0 -78 -54q0 -25 22 -40.5t55 -22.5t71.5 -19t71.5 -28t55 -51.5t22 -86.5q0 -161 -219 -167l-7 -20q107 3 107 -80q0 -95 -144 -95q-13 0 -41 2t-29 2q-7 0 -7 14v35q0 8 1.5 9.5t7.5 1.5q38 -5 57 -5
q60 0 60 34q0 28 -42 28q-9 0 -25 -1.5t-20 -1.5q-14 0 -8 12z" />
    <glyph glyph-name="Scaron" unicode="&#x160;" horiz-adv-x="618" 
d="M24 157q0 39 26.5 65t62.5 26q34 0 59 -24.5t25 -63.5q0 -32 -18 -55q44 -18 119 -18q138 0 138 99q0 39 -21 66t-55 42t-74.5 26.5t-81.5 26t-75 35.5t-55 59.5t-21 92.5q0 99 70 148.5t195 49.5q126 0 192 -45t67 -124q0 -40 -26.5 -64t-64.5 -24q-35 0 -59 23.5
t-24 62.5q0 29 16 53q-45 18 -102 18q-120 0 -120 -76q0 -28 16.5 -48t43.5 -31.5t61.5 -23.5t70 -22t70 -29t61.5 -43.5t43.5 -65.5t16.5 -94q0 -109 -76.5 -160.5t-200.5 -51.5q-136 0 -207 43.5t-72 128.5l95 -7q18 -31 60 -47q-25 -34 -72 -34q-35 0 -59 23.5t-24 62.5z
M269 908l50 -44l50 44q3 2 8 5t7 4t7.5 2t14.5 1h47q26 0 25 -10q-1 -4 -6 -9l-109 -100q-15 -14 -44 -14q-20 0 -27 2t-17 12l-109 100q-13 12 5 17q6 2 14 2h47q9 0 14.5 -1t7.5 -2t7 -4t8 -5z" />
    <glyph glyph-name="scaron" unicode="&#x161;" horiz-adv-x="508" 
d="M25 115q0 35 23 58.5t54 23.5q30 0 52 -21.5t22 -55.5q0 -17 -7 -34q35 -12 79 -12q102 0 102 68q0 22 -16.5 37t-43 23t-58 15.5t-63.5 19t-58.5 28t-43 47.5t-16.5 74q0 158 221 158q158 0 186 -82q6 -15 6 -32q0 -35 -23 -57.5t-55 -22.5q-31 0 -52 20.5t-21 54.5
q0 14 3 26q-28 5 -58 5q-78 0 -78 -54q0 -25 22 -40.5t55 -22.5t71.5 -19t71.5 -28t55 -51.5t22 -86.5q0 -167 -232 -167q-144 0 -191 66q-29 21 -29 62zM217 724l50 -44l50 44q3 2 8 5t7 4t7.5 2t14.5 1h47q26 0 25 -10q-1 -4 -6 -9l-109 -100q-15 -14 -44 -14q-20 0 -27 2
t-17 12l-109 100q-13 12 5 17q6 2 14 2h47q9 0 14.5 -1t7.5 -2t7 -4t8 -5z" />
    <glyph glyph-name="Tcommaaccent" unicode="&#x162;" horiz-adv-x="658" 
d="M195 0q-12 0 -16.5 4t-4.5 17v59q0 9 4.5 13t16.5 4h13q27 0 38 10.5t11 41.5v470h-28q-63 0 -81 -6t-22 -35l-5 -42q-1 -12 -6 -16t-16 -4h-64q-12 0 -14.5 4.5t-1.5 17.5l7 143q1 28 8 34.5t31 6.5h527q24 0 31 -6.5t9 -34.5l7 -143q1 -13 -1.5 -17.5t-15.5 -4.5h-63
q-21 0 -23 20l-5 42q-4 28 -22 34.5t-82 6.5h-26v-470q0 -33 10 -42.5t39 -9.5h13q13 0 16.5 -3.5t3.5 -13.5v-59q0 -13 -4 -17t-16 -4h-268zM298 -133q0 32 21 53.5t50 21.5q28 0 47 -21t19 -58q0 -88 -102 -174q-11 -10 -18 -3l-15 14q-6 6 -5 9.5t8 10.5q39 35 49 80
q-24 2 -39 20t-15 47z" />
    <glyph glyph-name="tcommaaccent" unicode="&#x163;" horiz-adv-x="388" 
d="M30 525h55l63 140q7 16 42 16q22 0 26.5 -2.5t4.5 -13.5v-140h113q16 0 21.5 -3.5t5.5 -15.5v-61q0 -22 -26 -22h-114v-228q0 -61 17 -80t60 -19q35 0 60 9q9 3 12.5 0t3.5 -16v-55q0 -20 -17 -27q-32 -13 -99 -13q-79 0 -126 36.5t-47 130.5v262h-47q-18 0 -23.5 4
t-5.5 20v50q0 28 21 28zM155 -133q0 32 21 53.5t50 21.5q28 0 47 -21t19 -58q0 -88 -102 -174q-11 -10 -18 -3l-15 14q-9 8 3 20q39 35 49 80q-24 2 -39 20t-15 47z" />
    <glyph glyph-name="Tcaron" unicode="&#x164;" horiz-adv-x="658" 
d="M195 0q-12 0 -16.5 4t-4.5 17v59q0 9 4.5 13t16.5 4h13q27 0 38 10.5t11 41.5v470h-28q-63 0 -81 -6t-22 -35l-5 -42q-1 -12 -6 -16t-16 -4h-64q-12 0 -14.5 4.5t-1.5 17.5l7 143q1 28 8 34.5t31 6.5h527q24 0 31 -6.5t9 -34.5l7 -143q1 -13 -1.5 -17.5t-15.5 -4.5h-63
q-21 0 -23 20l-5 42q-4 28 -22 34.5t-82 6.5h-26v-470q0 -33 10 -42.5t39 -9.5h13q13 0 16.5 -3.5t3.5 -13.5v-59q0 -13 -4 -17t-16 -4h-268zM275 889l50 -44l50 44q3 2 8 5t7 4t7.5 2t14.5 1h47q26 0 25 -10q-1 -4 -6 -9l-109 -100q-15 -14 -44 -14q-20 0 -27 2t-17 12
l-109 100q-13 12 5 17q6 2 14 2h47q9 0 14.5 -1t7.5 -2t7 -4t8 -5z" />
    <glyph glyph-name="tcaron" unicode="&#x165;" horiz-adv-x="389" 
d="M30 525h55l63 140q7 16 42 16q22 0 26.5 -2.5t4.5 -13.5v-140h113q16 0 21.5 -3.5t5.5 -15.5v-61q0 -22 -26 -22h-114v-228q0 -61 17 -80t60 -19q35 0 60 9q9 3 12.5 0t3.5 -16v-55q0 -20 -17 -27q-32 -13 -99 -13q-79 0 -126 36.5t-47 130.5v262h-47q-18 0 -23.5 4
t-5.5 20v50q0 28 21 28zM266 720q0 31 18 50t48 19q28 0 44.5 -19.5t16.5 -54.5q0 -76 -93 -159q-10 -10 -20 -1l-9 10q-8 7 1 18q34 36 45 75q-22 2 -36.5 19t-14.5 43z" />
    <glyph glyph-name="Tbar" unicode="&#x166;" horiz-adv-x="658" 
d="M506 333h-105v-184q0 -33 10 -42.5t39 -9.5h13q13 0 16.5 -3.5t3.5 -13.5v-59q0 -13 -4 -17t-16 -4h-268q-12 0 -16.5 4t-4.5 17v59q0 9 4.5 13t16.5 4h13q27 0 38 10.5t11 41.5v184h-97q-24 0 -33 18t-9 61q0 20 10 24.5t33 4.5h96v178h-28q-63 0 -81 -6t-22 -35l-5 -42
q-1 -12 -6 -16t-16 -4h-64q-12 0 -14.5 4.5t-1.5 17.5l7 143q1 28 8 34.5t31 6.5h527q24 0 31 -6.5t9 -34.5l7 -143q1 -13 -1.5 -17.5t-15.5 -4.5h-63q-21 0 -23 20l-5 42q-4 28 -22 34.5t-82 6.5h-26v-178h86q26 0 34.5 -18t8.5 -56q0 -34 -24 -34z" />
    <glyph glyph-name="tbar" unicode="&#x167;" horiz-adv-x="393" 
d="M33 525h55l63 140q7 16 42 16q22 0 26.5 -2.5t4.5 -13.5v-140h113q16 0 21.5 -3.5t5.5 -15.5v-61q0 -22 -26 -22h-114v-35h114q16 0 21 -3.5t5 -15.5v-61q0 -22 -25 -22h-115v-91q0 -61 17 -80t60 -19q35 0 60 9q9 3 12.5 0t3.5 -16v-55q0 -20 -17 -27q-32 -13 -99 -13
q-79 0 -126 36.5t-47 130.5v125h-47q-17 0 -22.5 4t-5.5 20v50q0 16 4 22t16 6h55v35h-47q-18 0 -23.5 4t-5.5 20v50q0 28 21 28z" />
    <glyph glyph-name="Utilde" unicode="&#x168;" horiz-adv-x="811" 
d="M709 278q0 -143 -76.5 -214t-223.5 -71q-146 0 -226.5 69t-80.5 201v310q0 31 -10.5 41.5t-38.5 10.5h-13q-13 0 -17 4t-4 14v58q0 13 4.5 17t16.5 4h267q12 0 16.5 -4t4.5 -17v-58q0 -11 -4 -14.5t-17 -3.5h-14q-28 0 -37.5 -9.5t-9.5 -42.5v-292q0 -175 167 -175
q85 0 131 45t46 132v298q0 27 -10.5 35.5t-38.5 8.5h-13q-13 0 -17.5 4t-4.5 14v58q0 12 5 16.5t17 4.5h243q12 0 16.5 -4t4.5 -17v-58q0 -11 -4 -14.5t-17 -3.5h-14q-28 0 -38 -8t-10 -36v-303zM455 878q28 0 31 20q3 11 14 11h47q13 0 13 -14q0 -49 -24.5 -76t-69.5 -27
q-43 0 -63 20q-14 14 -32 14q-26 0 -31 -20q-2 -7 -4.5 -9t-10.5 -2h-46q-13 0 -13 15q0 49 24 75.5t70 26.5q39 0 63 -22q12 -12 32 -12z" />
    <glyph glyph-name="utilde" unicode="&#x169;" horiz-adv-x="655" 
d="M565 134q1 -39 29 -39q11 0 20 2t13 2q11 2 11 -10v-60q0 -19 -15 -24q-24 -11 -81 -11q-80 0 -104 60q-51 -69 -184 -69q-81 0 -125 40.5t-44 136.5v224q0 25 -10 33t-47 8q-19 0 -19 22v55q0 20 21 21l168 9q13 0 18 -6.5t5 -21.5v-330q0 -80 82 -80q62 0 94 47.5
t32 135.5v107q0 25 -10 33t-47 8q-19 0 -19 22v55q0 20 21 21l167 9q14 0 19 -6.5t5 -21.5v-372zM348 693q28 0 31 20q3 11 14 11h47q13 0 13 -14q0 -49 -24.5 -76t-69.5 -27q-43 0 -63 20q-14 14 -32 14q-26 0 -31 -20q-2 -7 -4.5 -9t-10.5 -2h-46q-13 0 -13 15
q0 49 24 75.5t70 26.5q39 0 63 -22q12 -12 32 -12z" />
    <glyph glyph-name="Umacron" unicode="&#x16a;" horiz-adv-x="811" 
d="M709 278q0 -143 -76.5 -214t-223.5 -71q-146 0 -226.5 69t-80.5 201v310q0 31 -10.5 41.5t-38.5 10.5h-13q-13 0 -17 4t-4 14v58q0 13 4.5 17t16.5 4h267q12 0 16.5 -4t4.5 -17v-58q0 -11 -4 -14.5t-17 -3.5h-14q-28 0 -37.5 -9.5t-9.5 -42.5v-292q0 -175 167 -175
q85 0 131 45t46 132v298q0 27 -10.5 35.5t-38.5 8.5h-13q-13 0 -17.5 4t-4.5 14v58q0 12 5 16.5t17 4.5h243q12 0 16.5 -4t4.5 -17v-58q0 -11 -4 -14.5t-17 -3.5h-14q-28 0 -38 -8t-10 -36v-303zM547 795h-265q-18 0 -25 17.5t-7 59.5q0 13 5 19.5t10.5 7.5t17.5 1h249
q20 0 26.5 -17.5t6.5 -54.5q0 -33 -18 -33z" />
    <glyph glyph-name="umacron" unicode="&#x16b;" horiz-adv-x="655" 
d="M565 134q1 -39 29 -39q11 0 20 2t13 2q11 2 11 -10v-60q0 -19 -15 -24q-24 -11 -81 -11q-80 0 -104 60q-51 -69 -184 -69q-81 0 -125 40.5t-44 136.5v224q0 25 -10 33t-47 8q-19 0 -19 22v55q0 20 21 21l168 9q13 0 18 -6.5t5 -21.5v-330q0 -80 82 -80q62 0 94 47.5
t32 135.5v107q0 25 -10 33t-47 8q-19 0 -19 22v55q0 20 21 21l167 9q14 0 19 -6.5t5 -21.5v-372zM441 610h-265q-18 0 -25 17.5t-7 59.5q0 13 5 19.5t10.5 7.5t17.5 1h249q20 0 26.5 -17.5t6.5 -54.5q0 -33 -18 -33z" />
    <glyph glyph-name="Ubreve" unicode="&#x16c;" horiz-adv-x="811" 
d="M709 278q0 -143 -76.5 -214t-223.5 -71q-146 0 -226.5 69t-80.5 201v310q0 31 -10.5 41.5t-38.5 10.5h-13q-13 0 -17 4t-4 14v58q0 13 4.5 17t16.5 4h267q12 0 16.5 -4t4.5 -17v-58q0 -11 -4 -14.5t-17 -3.5h-14q-28 0 -37.5 -9.5t-9.5 -42.5v-292q0 -175 167 -175
q85 0 131 45t46 132v298q0 27 -10.5 35.5t-38.5 8.5h-13q-13 0 -17.5 4t-4.5 14v58q0 12 5 16.5t17 4.5h243q12 0 16.5 -4t4.5 -17v-58q0 -11 -4 -14.5t-17 -3.5h-14q-28 0 -38 -8t-10 -36v-303zM414 871q46 0 46 30q0 13 17 13h55q16 0 16 -17q0 -52 -34.5 -81.5
t-99.5 -29.5q-64 0 -98 29t-34 82q0 17 15 17h55q17 0 17 -12q2 -31 45 -31z" />
    <glyph glyph-name="ubreve" unicode="&#x16d;" horiz-adv-x="655" 
d="M565 134q1 -39 29 -39q11 0 20 2t13 2q11 2 11 -10v-60q0 -19 -15 -24q-24 -11 -81 -11q-80 0 -104 60q-51 -69 -184 -69q-81 0 -125 40.5t-44 136.5v224q0 25 -10 33t-47 8q-19 0 -19 22v55q0 20 21 21l168 9q13 0 18 -6.5t5 -21.5v-330q0 -80 82 -80q62 0 94 47.5
t32 135.5v107q0 25 -10 33t-47 8q-19 0 -19 22v55q0 20 21 21l167 9q14 0 19 -6.5t5 -21.5v-372zM300 687q46 0 46 30q0 13 17 13h55q16 0 16 -17q0 -52 -34.5 -81.5t-99.5 -29.5q-64 0 -98 29t-34 82q0 17 15 17h55q17 0 17 -12q2 -31 45 -31z" />
    <glyph glyph-name="Uring" unicode="&#x16e;" horiz-adv-x="811" 
d="M709 278q0 -143 -76.5 -214t-223.5 -71q-146 0 -226.5 69t-80.5 201v310q0 31 -10.5 41.5t-38.5 10.5h-13q-13 0 -17 4t-4 14v58q0 13 4.5 17t16.5 4h267q12 0 16.5 -4t4.5 -17v-58q0 -11 -4 -14.5t-17 -3.5h-14q-28 0 -37.5 -9.5t-9.5 -42.5v-292q0 -175 167 -175
q85 0 131 45t46 132v298q0 27 -10.5 35.5t-38.5 8.5h-13q-13 0 -17.5 4t-4.5 14v58q0 12 5 16.5t17 4.5h243q12 0 16.5 -4t4.5 -17v-58q0 -11 -4 -14.5t-17 -3.5h-14q-28 0 -38 -8t-10 -36v-303zM407 780q-59 0 -95 23.5t-36 60.5q0 38 35.5 61t95.5 23t96 -23t36 -61
q0 -37 -36.5 -60.5t-95.5 -23.5zM407 834q36 0 36 30q0 15 -10 23.5t-26 8.5t-26.5 -8.5t-10.5 -23.5q0 -14 10.5 -22t26.5 -8z" />
    <glyph glyph-name="uring" unicode="&#x16f;" horiz-adv-x="655" 
d="M565 134q1 -39 29 -39q11 0 20 2t13 2q11 2 11 -10v-60q0 -19 -15 -24q-24 -11 -81 -11q-80 0 -104 60q-51 -69 -184 -69q-81 0 -125 40.5t-44 136.5v224q0 25 -10 33t-47 8q-19 0 -19 22v55q0 20 21 21l168 9q13 0 18 -6.5t5 -21.5v-330q0 -80 82 -80q62 0 94 47.5
t32 135.5v107q0 25 -10 33t-47 8q-19 0 -19 22v55q0 20 21 21l167 9q14 0 19 -6.5t5 -21.5v-372zM300 596q-59 0 -95 23.5t-36 60.5q0 38 35.5 61t95.5 23t96 -23t36 -61q0 -37 -36.5 -60.5t-95.5 -23.5zM300 650q36 0 36 30q0 15 -10 23.5t-26 8.5t-26.5 -8.5t-10.5 -23.5
q0 -14 10.5 -22t26.5 -8z" />
    <glyph glyph-name="Uhungarumlaut" unicode="&#x170;" horiz-adv-x="811" 
d="M709 278q0 -143 -76.5 -214t-223.5 -71q-146 0 -226.5 69t-80.5 201v310q0 31 -10.5 41.5t-38.5 10.5h-13q-13 0 -17 4t-4 14v58q0 13 4.5 17t16.5 4h267q12 0 16.5 -4t4.5 -17v-58q0 -11 -4 -14.5t-17 -3.5h-14q-28 0 -37.5 -9.5t-9.5 -42.5v-292q0 -175 167 -175
q85 0 131 45t46 132v298q0 27 -10.5 35.5t-38.5 8.5h-13q-13 0 -17.5 4t-4.5 14v58q0 12 5 16.5t17 4.5h243q12 0 16.5 -4t4.5 -17v-58q0 -11 -4 -14.5t-17 -3.5h-14q-28 0 -38 -8t-10 -36v-303zM307 796l-25 19q-10 7 -11.5 10.5t5.5 14.5l109 137q15 16 27 7l67 -42
q17 -12 -3 -28l-139 -114q-17 -14 -30 -4zM477 796l-24 17q-10 8 -11.5 11.5t4.5 13.5l108 139q13 16 27 7l67 -41q18 -11 -3 -28l-138 -116q-16 -14 -30 -3z" />
    <glyph glyph-name="uhungarumlaut" unicode="&#x171;" horiz-adv-x="655" 
d="M565 134q1 -39 29 -39q11 0 20 2t13 2q11 2 11 -10v-60q0 -19 -15 -24q-24 -11 -81 -11q-80 0 -104 60q-51 -69 -184 -69q-81 0 -125 40.5t-44 136.5v224q0 25 -10 33t-47 8q-19 0 -19 22v55q0 20 21 21l168 9q13 0 18 -6.5t5 -21.5v-330q0 -80 82 -80q62 0 94 47.5
t32 135.5v107q0 25 -10 33t-47 8q-19 0 -19 22v55q0 20 21 21l167 9q14 0 19 -6.5t5 -21.5v-372zM201 612l-25 19q-10 7 -11.5 10.5t5.5 14.5l109 137q15 16 27 7l67 -42q17 -12 -3 -28l-139 -114q-17 -14 -30 -4zM371 612l-24 17q-10 8 -11.5 11.5t4.5 13.5l108 139
q13 16 27 7l67 -41q18 -11 -3 -28l-138 -116q-16 -14 -30 -3z" />
    <glyph glyph-name="Uogonek" unicode="&#x172;" horiz-adv-x="813" 
d="M709 278q0 -277 -283 -285q-48 -35 -48 -81q0 -36 38 -36q19 0 38 10t26 -6l12 -31q5 -13 -8 -23q-42 -31 -97 -31q-51 0 -83 21t-32 61q0 67 97 118q-128 9 -197.5 77t-69.5 191v310q0 31 -10.5 41.5t-38.5 10.5h-13q-12 0 -16.5 4t-4.5 14v58q0 13 4.5 17t16.5 4h267
q13 0 17.5 -4t4.5 -17v-58q0 -11 -4.5 -14.5t-17.5 -3.5h-14q-28 0 -37.5 -9.5t-9.5 -42.5v-292q0 -175 168 -175q84 0 130 45t46 132v298q0 27 -10.5 35.5t-38.5 8.5h-13q-12 0 -16.5 4t-4.5 14v58q0 13 4.5 17t16.5 4h243q13 0 17.5 -4t4.5 -17v-58q0 -11 -4.5 -14.5
t-17.5 -3.5h-14q-28 0 -38 -8t-10 -36v-303z" />
    <glyph glyph-name="uogonek" unicode="&#x173;" horiz-adv-x="655" 
d="M565 134q1 -39 29 -39q11 0 20 2t13 2q11 2 11 -10v-60q0 -19 -15 -24q-19 -9 -47 -10q-49 -36 -49 -82q0 -36 38 -36q19 0 38 10t26 -6l12 -31q5 -13 -8 -23q-42 -31 -97 -31q-51 0 -83 21t-32 61q0 67 97 118q-60 7 -80 58q-51 -69 -184 -69q-81 0 -125 40.5t-44 136.5
v224q0 25 -10 33t-47 8q-19 0 -19 22v55q0 20 21 21l168 9q13 0 18 -6.5t5 -21.5v-330q0 -80 82 -80q62 0 94 47.5t32 135.5v107q0 25 -10 33t-47 8q-19 0 -19 22v55q0 20 21 21l167 9q14 0 19 -6.5t5 -21.5v-372z" />
    <glyph glyph-name="Wcircumflex" unicode="&#x174;" horiz-adv-x="1044" 
d="M236 572l107 -436l128 563q3 15 6.5 19t15.5 4h113q12 0 15.5 -4t7.5 -20l133 -521l95 401q5 22 5 29q0 13 -10 16t-40 3q-20 0 -20 20v56q0 14 4 17t22 3h210q12 0 15.5 -4t3.5 -17v-52q0 -23 -19 -23q-35 0 -45 -8t-20 -48l-142 -549q-5 -20 -10 -24.5t-23 -4.5h-105
q-10 0 -16 4.5t-7.5 9.5l-4.5 15l-124 495l-109 -495q-4 -19 -9 -24t-17 -5h-139q-11 0 -17 6t-11 23l-148 545q-11 41 -20.5 50.5t-35.5 9.5q-20 0 -25.5 6t-5.5 25v45q0 12 4 16t15 4h268q12 0 16 -4t4 -16v-56q0 -20 -18 -20q-23 0 -32.5 -1t-15 -5.5t-5.5 -13.5
q0 -12 6 -34zM583 805l-51 43l-51 -43q-1 -1 -4 -3.5t-4 -3.5t-3.5 -2.5t-4 -1.5t-5 -1t-7 -1h-8.5h-47q-26 0 -25 10q1 4 6 9l109 100q10 10 17.5 12t26.5 2q20 0 27 -2t17 -12l109 -100q5 -5 5 -9.5t-6.5 -7t-16.5 -2.5h-48h-7t-6 0.5t-4.5 0.5t-3.5 1l-3 1.5t-2.5 1.5
t-2.5 2t-3.5 3t-3.5 3z" />
    <glyph glyph-name="wcircumflex" unicode="&#x175;" horiz-adv-x="919" 
d="M237 381l68 -274l95 393q4 16 8.5 20.5t16.5 4.5h101q7 0 10.5 -1t6.5 -6.5t3.5 -7t3.5 -12.5l99 -389l59 273q6 28 3 34.5t-26 10.5l-16 2q-13 3 -16.5 7t-3.5 14v55q0 12 4.5 16t15.5 4h225q11 0 15 -4t4 -15v-46q0 -30 -20 -33l-19 -1q-3 0 -10.5 -1t-9.5 -1.5
t-7.5 -2.5t-7 -5t-5.5 -8.5t-7 -13.5t-6 -19l-109 -368q-4 -12 -10 -13.5t-38 -1.5h-98q-18 0 -22 14l-92 332l-91 -331q-2 -10 -6 -12.5t-18 -2.5h-111q-16 0 -20 14l-115 370q-10 34 -18.5 41.5t-34.5 9.5q-20 2 -26 7t-6 17v54q0 12 4.5 16t16.5 4h250q11 0 15 -4t4 -16
v-55q0 -18 -12 -20q-40 -2 -47.5 -10t0.5 -39zM528 699l-51 43l-51 -43q-1 -1 -4 -3.5t-4 -3.5t-3.5 -2.5t-4 -1.5t-5 -1t-7 -1h-8.5h-47q-26 0 -25 10q1 4 6 9l109 100q10 10 17.5 12t26.5 2q20 0 27 -2t17 -12l109 -100q5 -5 5 -9.5t-6.5 -7t-16.5 -2.5h-48h-7t-6 0.5
t-4.5 0.5t-3.5 1l-3 1.5t-2.5 1.5t-2.5 2t-3.5 3t-3.5 3z" />
    <glyph glyph-name="Ycircumflex" unicode="&#x176;" horiz-adv-x="666" 
d="M211 97q26 0 37.5 9t12.5 34v151l-167 277q-21 34 -35 45.5t-30 11.5h-14q-21 0 -21 23v53q0 13 4 17t16 4h250q13 0 17.5 -4t4.5 -17v-50q0 -23 -22 -23h-10q-36 0 -15 -32l108 -201l121 202q18 28 -12 28h-14q-21 0 -21 27v49q0 13 4.5 17t16.5 4h209q13 0 17 -4t4 -17
v-53q0 -23 -21 -23h-18q-12 0 -20 -6.5t-23 -30.5l-185 -280v-169q1 -26 11 -34t37 -8h13q14 0 18 -3.5t4 -13.5v-59q0 -13 -4.5 -17t-17.5 -4h-267q-12 0 -16.5 4t-4.5 17v59q0 9 4.5 13t16.5 4h12zM403 805l-51 43l-51 -43q-1 -1 -4 -3.5t-4 -3.5t-3.5 -2.5t-4 -1.5t-5 -1
t-7 -1h-8.5h-47q-26 0 -25 10q1 4 6 9l109 100q10 10 17.5 12t26.5 2q20 0 27 -2t17 -12l109 -100q5 -5 5 -9.5t-6.5 -7t-16.5 -2.5h-48h-7t-6 0.5t-4.5 0.5t-3.5 1l-3 1.5t-2.5 1.5t-2.5 2t-3.5 3t-3.5 3z" />
    <glyph glyph-name="ycircumflex" unicode="&#x177;" horiz-adv-x="673" 
d="M249 377l99 -260l106 268q11 27 5 34.5t-37 7.5h-9q-21 0 -21 22v55q0 13 4.5 17t16.5 4h237q12 0 16.5 -4t4.5 -17v-52q0 -24 -21 -24h-19q-22 0 -34 -9t-26 -42l-199 -484q-59 -142 -189 -142q-55 0 -94 30t-44 81v13q1 34 23.5 57t53.5 23q30 0 52 -21.5t22 -55.5
q0 -39 -28 -62h7q54 0 88 84l22 57l-185 413q-18 39 -27.5 48t-35.5 9h-10q-21 0 -21 23v54q0 13 4 17t17 4h263q12 0 16.5 -4t4.5 -17v-54q0 -22 -21 -22h-13q-22 0 -30.5 -3t-8.5 -12t11 -36zM401 621l-51 43l-51 -43q-1 -1 -4 -3.5t-4 -3.5t-3.5 -2.5t-4 -1.5t-5 -1
t-7 -1h-8.5h-47q-26 0 -25 10q1 4 6 9l109 100q10 10 17.5 12t26.5 2q20 0 27 -2t17 -12l109 -100q5 -5 5 -9.5t-6.5 -7t-16.5 -2.5h-48h-7t-6 0.5t-4.5 0.5t-3.5 1l-3 1.5t-2.5 1.5t-2.5 2t-3.5 3t-3.5 3z" />
    <glyph glyph-name="Ydieresis" unicode="&#x178;" horiz-adv-x="666" 
d="M211 97q26 0 37.5 9t12.5 34v151l-167 277q-21 34 -35 45.5t-30 11.5h-14q-21 0 -21 23v53q0 13 4 17t16 4h250q13 0 17.5 -4t4.5 -17v-50q0 -23 -22 -23h-10q-36 0 -15 -32l108 -201l121 202q18 28 -12 28h-14q-21 0 -21 27v49q0 13 4.5 17t16.5 4h209q13 0 17 -4t4 -17
v-53q0 -23 -21 -23h-18q-12 0 -20 -6.5t-23 -30.5l-185 -280v-169q1 -26 11 -34t37 -8h13q14 0 18 -3.5t4 -13.5v-59q0 -13 -4.5 -17t-17.5 -4h-267q-12 0 -16.5 4t-4.5 17v59q0 9 4.5 13t16.5 4h12zM182 864q0 34 23 57.5t54 23.5q30 0 50.5 -21t20.5 -55t-23 -56t-54 -22
t-51 20t-20 53zM377 864q0 34 22.5 57.5t53.5 23.5q30 0 51 -21t21 -55t-23 -56t-55 -22q-30 0 -50 20t-20 53z" />
    <glyph glyph-name="Zacute" unicode="&#x179;" horiz-adv-x="623" 
d="M70 722h491q18 0 18 -22v-37q0 -19 -14 -39l-358 -529h202q35 0 49 17.5t37 87.5q7 19 24 19h63q18 0 15 -20l-19 -183q-3 -16 -22 -16h-511q-13 1 -13 22v55q0 13 5 19l361 531h-181q-35 0 -48.5 -19.5t-28.5 -79.5q-6 -19 -23 -19h-64q-17 0 -15 21l10 176q1 16 22 16z
M275 806l-12 26q-6 10 -5.5 16t11.5 11l159 78q18 10 27 -3l39 -70q6 -7 3.5 -13.5t-17.5 -10.5l-177 -45q-19 -6 -28 11z" />
    <glyph glyph-name="zacute" unicode="&#x17a;" horiz-adv-x="554" 
d="M80 531h414q17 0 17 -20v-36q0 -25 -13 -40l-294 -340h129q38 0 52 14.5t36 82.5q6 17 22 17h64q16 0 15 -18l-19 -175q-3 -16 -23 -16h-436q-13 1 -13 20v56q0 14 5 19l294 341h-106q-38 0 -52 -13t-30 -64q-5 -19 -22 -19h-65q-18 0 -15 19l17 156q1 16 23 16zM243 622
l-12 26q-6 10 -5.5 16t11.5 11l159 78q18 10 27 -3l39 -70q6 -7 3.5 -13.5t-17.5 -10.5l-177 -45q-19 -6 -28 11z" />
    <glyph glyph-name="Zdotaccent" unicode="&#x17b;" horiz-adv-x="623" 
d="M70 722h192q-34 24 -34 69q0 40 27 67t62 27q34 0 58 -24t24 -63q0 -50 -41 -76h203q18 0 18 -22v-37q0 -19 -14 -39l-358 -529h202q35 0 49 17.5t37 87.5q7 19 24 19h63q18 0 15 -20l-19 -183q-3 -16 -22 -16h-511q-13 1 -13 22v55q0 13 5 19l361 531h-181
q-35 0 -48.5 -19.5t-28.5 -79.5q-6 -19 -23 -19h-64q-17 0 -15 21l10 176q1 16 22 16z" />
    <glyph glyph-name="zdotaccent" unicode="&#x17c;" horiz-adv-x="554" 
d="M80 531h414q17 0 17 -20v-36q0 -25 -13 -40l-294 -340h129q38 0 52 14.5t36 82.5q6 17 22 17h64q16 0 15 -18l-19 -175q-3 -16 -23 -16h-436q-13 1 -13 20v56q0 14 5 19l294 341h-106q-38 0 -52 -13t-30 -64q-5 -19 -22 -19h-65q-18 0 -15 19l17 156q1 16 23 16zM201 687
q0 40 27 67t62 27q34 0 58 -24t24 -63q0 -40 -26.5 -65.5t-63.5 -25.5q-34 0 -57.5 23.5t-23.5 60.5z" />
    <glyph glyph-name="Zcaron" unicode="&#x17d;" horiz-adv-x="623" 
d="M70 722h491q18 0 18 -22v-37q0 -19 -14 -39l-358 -529h202q35 0 49 17.5t37 87.5q7 19 24 19h63q18 0 15 -20l-19 -183q-3 -16 -22 -16h-511q-13 1 -13 22v55q0 13 5 19l361 531h-181q-35 0 -48.5 -19.5t-28.5 -79.5q-6 -19 -23 -19h-64q-17 0 -15 21l10 176q1 16 22 16z
M265 908l50 -44l50 44q3 2 8 5t7 4t7.5 2t14.5 1h47q26 0 25 -10q-1 -4 -6 -9l-109 -100q-15 -14 -44 -14q-20 0 -27 2t-17 12l-109 100q-13 12 5 17q6 2 14 2h47q9 0 14.5 -1t7.5 -2t7 -4t8 -5z" />
    <glyph glyph-name="zcaron" unicode="&#x17e;" horiz-adv-x="554" 
d="M80 531h414q17 0 17 -20v-36q0 -25 -13 -40l-294 -340h129q38 0 52 14.5t36 82.5q6 17 22 17h64q16 0 15 -18l-19 -175q-3 -16 -23 -16h-436q-13 1 -13 20v56q0 14 5 19l294 341h-106q-38 0 -52 -13t-30 -64q-5 -19 -22 -19h-65q-18 0 -15 19l17 156q1 16 23 16zM233 724
l50 -44l50 44q3 2 8 5t7 4t7.5 2t14.5 1h47q26 0 25 -10q-1 -4 -6 -9l-109 -100q-15 -14 -44 -14q-20 0 -27 2t-17 12l-109 100q-13 12 5 17q6 2 14 2h47q9 0 14.5 -1t7.5 -2t7 -4t8 -5z" />
    <glyph glyph-name="florin" unicode="&#x192;" horiz-adv-x="641" 
d="M193 517h68v62q0 101 47.5 152.5t152.5 51.5q77 0 121 -36t44 -105h-7q-1 -34 -24 -55.5t-55 -21.5q-31 0 -51.5 20.5t-20.5 54.5q0 30 17 52h-8q-41 0 -60.5 -25t-19.5 -81v-69h103q17 0 22 -3t5 -16v-54q0 -22 -26 -22h-104v-399q0 -101 -48 -152.5t-153 -51.5
q-73 0 -117 32.5t-48 96.5v9q0 35 23.5 58t54.5 23q30 0 52 -21t22 -55q0 -30 -18 -51q4 -1 15 -1q41 0 61 25t20 81v406h-60q-17 0 -22.5 4t-5.5 20v43q0 15 4 21.5t16 6.5z" />
    <glyph glyph-name="acaron" unicode="&#x1ce;" horiz-adv-x="582" 
d="M499 137q1 -42 29 -42q11 0 19.5 2t12.5 2q11 2 11 -10v-60q0 -19 -14 -24q-25 -11 -81 -11q-80 0 -104 60q-58 -60 -167 -60q-176 0 -176 153q0 52 20.5 87.5t61.5 54t92 26t124 7.5h36v43q0 44 -24 64t-78 20q-25 0 -57 -5q2 -10 2 -16q0 -35 -23.5 -57.5t-55.5 -22.5
q-31 0 -51.5 20.5t-20.5 54.5v9q4 62 53.5 87t149.5 25q124 0 182.5 -42.5t58.5 -156.5v-208zM228 724l50 -44l50 44q3 2 8 5t7 4t7.5 2t14.5 1h47q26 0 25 -10q-1 -4 -6 -9l-109 -100q-15 -14 -44 -14q-20 0 -27 2t-17 12l-109 100q-13 12 5 17q6 2 14 2h47q9 0 14.5 -1
t7.5 -2t7 -4t8 -5zM164 148q0 -58 74 -58q57 0 91 35t34 97v11h-36q-163 0 -163 -85z" />
    <glyph glyph-name="AEacute" unicode="&#x1fc;" horiz-adv-x="961" 
d="M436 227h-215l-30 -83q-8 -29 -1 -36.5t31 -10.5l12 -1q21 -2 21 -23v-52q0 -12 -4.5 -16.5t-16.5 -4.5h-222q-12 0 -16.5 4t-4.5 17v53q0 23 21 23l27 1q15 1 24 10t22 44l204 548q5 15 11 18.5t25 3.5h533q29 0 36.5 -7t9.5 -40l7 -129q1 -9 0.5 -14.5t-4.5 -7.5
t-13 -2h-63q-21 0 -23 22l-5 36q-4 33 -27 40t-101 7h-95v-224h77q31 0 36 28l4 29q2 13 6 16.5t15 3.5h43q11 0 14 -4.5t3 -17.5v-205q0 -12 -3 -17t-14 -5h-43q-10 0 -14.5 4.5t-6.5 15.5l-4 30q-5 27 -36 27h-77v-213h131q69 0 88.5 11.5t32.5 63.5l6 32q4 20 25 20h51
q13 0 16 -4.5t1 -17.5l-16 -153q-3 -32 -11.5 -39.5t-32.5 -7.5h-496q-12 0 -16.5 4.5t-4.5 16.5v52q0 24 18 24q40 0 52.5 10t12.5 42v78zM360 605l-104 -283h180v302h-50q-18 0 -26 -19zM470 806l-12 26q-6 10 -5.5 16t11.5 11l159 78q18 10 27 -3l39 -70q6 -7 3.5 -13.5
t-17.5 -10.5l-177 -45q-19 -6 -28 11z" />
    <glyph glyph-name="aeacute" unicode="&#x1fd;" horiz-adv-x="899" 
d="M640 544q110 0 170.5 -49.5t60.5 -137.5q0 -79 -59 -123t-179 -44q-67 0 -120 13q22 -111 149 -111q62 0 105 12q8 3 23.5 8t27 9t16.5 4q7 1 10 -3t3 -11v-58q0 -15 -3.5 -20.5t-18.5 -12.5q-66 -33 -176 -33q-184 0 -247 109q-23 -47 -73.5 -74.5t-123.5 -27.5
q-176 0 -176 153q0 52 20.5 87.5t61.5 54t92 26t124 7.5h36v43q0 44 -24 64t-78 20q-26 0 -59 -5q4 -16 4 -24q0 -35 -23.5 -57.5t-55.5 -22.5q-31 0 -51.5 20.5t-20.5 54.5v3q0 71 49.5 98.5t153.5 27.5q145 0 198 -57q71 57 184 57zM640 449q-62 0 -93.5 -42.5
t-37.5 -112.5q62 -13 114 -13q115 0 115 81q0 40 -26.5 63.5t-71.5 23.5zM165 148q0 -58 73 -58q57 0 91 35t34 97v11h-36q-162 0 -162 -85zM451 621l-12 26q-6 10 -5.5 16t11.5 11l159 78q18 10 27 -3l39 -70q6 -7 3.5 -13.5t-17.5 -10.5l-177 -45q-19 -6 -28 11z" />
    <glyph glyph-name="Oslashacute" unicode="&#x1fe;" horiz-adv-x="805" 
d="M180 12l10 25q-82 48 -121 133t-39 189q0 54 10.5 104.5t37.5 100.5t68 86.5t106.5 59.5t148.5 23q41 0 79 -6l10 24q7 19 21 16l107 -21q10 -2 11.5 -7t-3.5 -15l-17 -39q85 -48 125 -133.5t40 -190.5q0 -69 -18.5 -131t-58.5 -118.5t-115.5 -90.5t-178.5 -34
q-45 0 -83 6l-4 -9q-5 -10 -9.5 -13t-13.5 -1l-104 21q-11 2 -12.5 5t3.5 16zM622 359q0 134 -63 206l-197 -472q19 -3 41 -3q62 0 107 24.5t68 65.5t33.5 85t10.5 94zM401 630q-61 0 -105.5 -24t-68 -65t-34.5 -86t-11 -95q0 -128 60 -201l196 468q-17 3 -37 3zM361 806
l-12 26q-6 10 -5.5 16t11.5 11l159 78q18 10 27 -3l39 -70q6 -7 3.5 -13.5t-17.5 -10.5l-177 -45q-19 -6 -28 11z" />
    <glyph glyph-name="oslashacute" unicode="&#x1ff;" horiz-adv-x="595" 
d="M113 -13l19 45q-103 73 -103 234q0 122 66 200t201 78q26 0 50 -3l15 35q6 16 17 13l85 -16q13 -3 6 -18l-21 -49q116 -69 116 -240q0 -121 -66.5 -200t-201.5 -79q-34 0 -62 6l-12 -29q-7 -13 -18 -11l-83 17q-9 2 -10.5 4t2.5 13zM420 265q0 76 -22 120l-126 -301
q7 -2 24 -2q124 0 124 183zM257 622l-12 26q-6 10 -5.5 16t11.5 11l159 78q18 10 27 -3l39 -70q6 -7 3.5 -13.5t-17.5 -10.5l-177 -45q-19 -6 -28 11zM296 449q-123 0 -123 -184q0 -58 14 -102l120 285q-3 1 -11 1z" />
    <glyph glyph-name="Scommaaccent" unicode="&#x218;" horiz-adv-x="618" 
d="M24 157q0 39 26.5 65t62.5 26q34 0 59 -24.5t25 -63.5q0 -32 -18 -55q44 -18 119 -18q138 0 138 99q0 39 -21 66t-55 42t-74.5 26.5t-81.5 26t-75 35.5t-55 59.5t-21 92.5q0 99 70 148.5t195 49.5q126 0 192 -45t67 -124q0 -40 -26.5 -64t-64.5 -24q-35 0 -59 23.5
t-24 62.5q0 29 16 53q-45 18 -102 18q-120 0 -120 -76q0 -28 16.5 -48t43.5 -31.5t61.5 -23.5t70 -22t70 -29t61.5 -43.5t43.5 -65.5t16.5 -94q0 -109 -76.5 -160.5t-200.5 -51.5q-136 0 -207 43.5t-72 128.5l95 -7q18 -31 60 -47q-25 -34 -72 -34q-35 0 -59 23.5t-24 62.5z
" />
    <glyph glyph-name="scommaaccent" unicode="&#x219;" horiz-adv-x="508" 
d="M25 115q0 35 23 58.5t54 23.5q30 0 52 -21.5t22 -55.5q0 -17 -7 -34q35 -12 79 -12q102 0 102 68q0 22 -16.5 37t-43 23t-58 15.5t-63.5 19t-58.5 28t-43 47.5t-16.5 74q0 158 221 158q158 0 186 -82q6 -15 6 -32q0 -35 -23 -57.5t-55 -22.5q-31 0 -52 20.5t-21 54.5
q0 14 3 26q-28 5 -58 5q-78 0 -78 -54q0 -25 22 -40.5t55 -22.5t71.5 -19t71.5 -28t55 -51.5t22 -86.5q0 -167 -232 -167q-144 0 -191 66q-29 21 -29 62zM181 -133q0 32 21 53.5t50 21.5q28 0 47 -21t19 -58q0 -88 -102 -174q-11 -10 -18 -3l-15 14q-9 8 3 20q39 35 49 80
q-24 2 -39 20t-15 47z" />
    <glyph glyph-name="dotlessj" unicode="&#x237;" horiz-adv-x="299" 
d="M-111 -131h1q-1 3 -1 9q0 35 23 58.5t54 23.5t52.5 -21.5t21.5 -55.5t-22 -56q77 4 77 96v471q-1 18 -8.5 24.5t-23.5 8.5l-23 1q-21 1 -21 23v52q0 13 4 16.5t17 4.5l168 10q13 0 18 -6.5t5 -21.5v-553q0 -99 -48 -154.5t-147 -55.5q-72 0 -109.5 36t-37.5 90z" />
    <glyph glyph-name="circumflex" unicode="&#x2c6;" horiz-adv-x="384" 
d="M204 699l-51 43l-51 -43q-1 -1 -4 -3.5t-4 -3.5t-3.5 -2.5t-4 -1.5t-5 -1t-7 -1h-8.5h-47q-26 0 -25 10q1 4 6 9l109 100q10 10 17.5 12t26.5 2q20 0 27 -2t17 -12l109 -100q5 -5 5 -9.5t-6.5 -7t-16.5 -2.5h-48h-7t-6 0.5t-4.5 0.5t-3.5 1l-3 1.5t-2.5 1.5t-2.5 2
t-3.5 3t-3.5 3z" />
    <glyph glyph-name="caron" unicode="&#x2c7;" horiz-adv-x="833" 
d="M103 807l50 -44l50 44q3 2 8 5t7 4t7.5 2t14.5 1h47q26 0 25 -10q-1 -4 -6 -9l-109 -100q-15 -14 -44 -14q-20 0 -27 2t-17 12l-109 100q-13 12 5 17q6 2 14 2h47q9 0 14.5 -1t7.5 -2t7 -4t8 -5z" />
    <glyph glyph-name="breve" unicode="&#x2d8;" horiz-adv-x="304" 
d="M137 767q46 0 46 30q0 13 17 13h55q16 0 16 -17q0 -52 -34.5 -81.5t-99.5 -29.5q-64 0 -98 29t-34 82q0 17 15 17h55q17 0 17 -12q2 -31 45 -31z" />
    <glyph glyph-name="dotaccent" unicode="&#x2d9;" horiz-adv-x="243" 
d="M31 727q0 40 27 67t62 27q34 0 58 -24t24 -63q0 -40 -26.5 -65.5t-63.5 -25.5q-34 0 -57.5 23.5t-23.5 60.5z" />
    <glyph glyph-name="ring" unicode="&#x2da;" horiz-adv-x="314" 
d="M157 601q-59 0 -95 23.5t-36 60.5q0 38 35.5 61t95.5 23t96 -23t36 -61q0 -37 -36.5 -60.5t-95.5 -23.5zM157 655q36 0 36 30q0 15 -10 23.5t-26 8.5t-26.5 -8.5t-10.5 -23.5q0 -14 10.5 -22t26.5 -8z" />
    <glyph glyph-name="ogonek" unicode="&#x2db;" horiz-adv-x="311" 
d="M140 10h54q-65 -38 -65 -92q0 -36 38 -36q19 0 38 10t26 -6l12 -31q5 -13 -8 -23q-42 -31 -97 -31q-51 0 -83 21t-32 61q0 74 117 127z" />
    <glyph glyph-name="tilde" unicode="&#x2dc;" horiz-adv-x="399" 
d="M200 771q28 0 31 20q3 11 14 11h47q13 0 13 -14q0 -49 -24.5 -76t-69.5 -27q-43 0 -63 20q-14 14 -32 14q-26 0 -31 -20q-2 -7 -4.5 -9t-10.5 -2h-46q-13 0 -13 15q0 49 24 75.5t70 26.5q39 0 63 -22q12 -12 32 -12z" />
    <glyph glyph-name="hungarumlaut" unicode="&#x2dd;" horiz-adv-x="552" 
d="M116 604l-25 19q-10 7 -11.5 10.5t5.5 14.5l109 137q15 16 27 7l67 -42q17 -12 -3 -28l-139 -114q-17 -14 -30 -4zM286 604l-24 17q-10 8 -11.5 11.5t4.5 13.5l108 139q13 16 27 7l67 -41q18 -11 -3 -28l-138 -116q-16 -14 -30 -3z" />
    <glyph glyph-name="Wgrave" unicode="&#x1e80;" horiz-adv-x="1044" 
d="M236 572l107 -436l128 563q3 15 6.5 19t15.5 4h113q12 0 15.5 -4t7.5 -20l133 -521l95 401q5 22 5 29q0 13 -10 16t-40 3q-20 0 -20 20v56q0 14 4 17t22 3h210q12 0 15.5 -4t3.5 -17v-52q0 -23 -19 -23q-35 0 -45 -8t-20 -48l-142 -549q-5 -20 -10 -24.5t-23 -4.5h-105
q-10 0 -16 4.5t-7.5 9.5l-4.5 15l-124 495l-109 -495q-4 -19 -9 -24t-17 -5h-139q-11 0 -17 6t-11 23l-148 545q-11 41 -20.5 50.5t-35.5 9.5q-20 0 -25.5 6t-5.5 25v45q0 12 4 16t15 4h268q12 0 16 -4t4 -16v-56q0 -20 -18 -20q-23 0 -32.5 -1t-15 -5.5t-5.5 -13.5
q0 -12 6 -34zM558 832l-13 -26q-6 -16 -28 -11l-182 47q-17 5 -8 22l38 70q8 13 27 3l160 -77q10 -5 11 -11t-5 -17z" />
    <glyph glyph-name="wgrave" unicode="&#x1e81;" horiz-adv-x="919" 
d="M237 381l68 -274l95 393q4 16 8.5 20.5t16.5 4.5h101q7 0 10.5 -1t6.5 -6.5t3.5 -7t3.5 -12.5l99 -389l59 273q6 28 3 34.5t-26 10.5l-16 2q-13 3 -16.5 7t-3.5 14v55q0 12 4.5 16t15.5 4h225q11 0 15 -4t4 -15v-46q0 -30 -20 -33l-19 -1q-3 0 -10.5 -1t-9.5 -1.5
t-7.5 -2.5t-7 -5t-5.5 -8.5t-7 -13.5t-6 -19l-109 -368q-4 -12 -10 -13.5t-38 -1.5h-98q-18 0 -22 14l-92 332l-91 -331q-2 -10 -6 -12.5t-18 -2.5h-111q-16 0 -20 14l-115 370q-10 34 -18.5 41.5t-34.5 9.5q-20 2 -26 7t-6 17v54q0 12 4.5 16t16.5 4h250q11 0 15 -4t4 -16
v-55q0 -18 -12 -20q-40 -2 -47.5 -10t0.5 -39zM502 726l-13 -26q-6 -16 -28 -11l-182 47q-17 5 -8 22l38 70q8 13 27 3l160 -77q10 -5 11 -11t-5 -17z" />
    <glyph glyph-name="Wacute" unicode="&#x1e82;" horiz-adv-x="1044" 
d="M236 572l107 -436l128 563q3 15 6.5 19t15.5 4h113q12 0 15.5 -4t7.5 -20l133 -521l95 401q5 22 5 29q0 13 -10 16t-40 3q-20 0 -20 20v56q0 14 4 17t22 3h210q12 0 15.5 -4t3.5 -17v-52q0 -23 -19 -23q-35 0 -45 -8t-20 -48l-142 -549q-5 -20 -10 -24.5t-23 -4.5h-105
q-10 0 -16 4.5t-7.5 9.5l-4.5 15l-124 495l-109 -495q-4 -19 -9 -24t-17 -5h-139q-11 0 -17 6t-11 23l-148 545q-11 41 -20.5 50.5t-35.5 9.5q-20 0 -25.5 6t-5.5 25v45q0 12 4 16t15 4h268q12 0 16 -4t4 -16v-56q0 -20 -18 -20q-23 0 -32.5 -1t-15 -5.5t-5.5 -13.5
q0 -12 6 -34zM493 806l-12 26q-6 10 -5.5 16t11.5 11l159 78q18 10 27 -3l39 -70q6 -7 3.5 -13.5t-17.5 -10.5l-177 -45q-19 -6 -28 11z" />
    <glyph glyph-name="wacute" unicode="&#x1e83;" horiz-adv-x="919" 
d="M237 381l68 -274l95 393q4 16 8.5 20.5t16.5 4.5h101q7 0 10.5 -1t6.5 -6.5t3.5 -7t3.5 -12.5l99 -389l59 273q6 28 3 34.5t-26 10.5l-16 2q-13 3 -16.5 7t-3.5 14v55q0 12 4.5 16t15.5 4h225q11 0 15 -4t4 -15v-46q0 -30 -20 -33l-19 -1q-3 0 -10.5 -1t-9.5 -1.5
t-7.5 -2.5t-7 -5t-5.5 -8.5t-7 -13.5t-6 -19l-109 -368q-4 -12 -10 -13.5t-38 -1.5h-98q-18 0 -22 14l-92 332l-91 -331q-2 -10 -6 -12.5t-18 -2.5h-111q-16 0 -20 14l-115 370q-10 34 -18.5 41.5t-34.5 9.5q-20 2 -26 7t-6 17v54q0 12 4.5 16t16.5 4h250q11 0 15 -4t4 -16
v-55q0 -18 -12 -20q-40 -2 -47.5 -10t0.5 -39zM437 700l-12 26q-6 10 -5.5 16t11.5 11l159 78q18 10 27 -3l39 -70q6 -7 3.5 -13.5t-17.5 -10.5l-177 -45q-19 -6 -28 11z" />
    <glyph glyph-name="Wdieresis" unicode="&#x1e84;" horiz-adv-x="1044" 
d="M236 572l107 -436l128 563q3 15 6.5 19t15.5 4h113q12 0 15.5 -4t7.5 -20l133 -521l95 401q5 22 5 29q0 13 -10 16t-40 3q-20 0 -20 20v56q0 14 4 17t22 3h210q12 0 15.5 -4t3.5 -17v-52q0 -23 -19 -23q-35 0 -45 -8t-20 -48l-142 -549q-5 -20 -10 -24.5t-23 -4.5h-105
q-10 0 -16 4.5t-7.5 9.5l-4.5 15l-124 495l-109 -495q-4 -19 -9 -24t-17 -5h-139q-11 0 -17 6t-11 23l-148 545q-11 41 -20.5 50.5t-35.5 9.5q-20 0 -25.5 6t-5.5 25v45q0 12 4 16t15 4h268q12 0 16 -4t4 -16v-56q0 -20 -18 -20q-23 0 -32.5 -1t-15 -5.5t-5.5 -13.5
q0 -12 6 -34zM362 864q0 34 23 57.5t54 23.5q30 0 50.5 -21t20.5 -55t-23 -56t-54 -22t-51 20t-20 53zM557 864q0 34 22.5 57.5t53.5 23.5q30 0 51 -21t21 -55t-23 -56t-55 -22q-30 0 -50 20t-20 53z" />
    <glyph glyph-name="wdieresis" unicode="&#x1e85;" horiz-adv-x="919" 
d="M237 381l68 -274l95 393q4 16 8.5 20.5t16.5 4.5h101q7 0 10.5 -1t6.5 -6.5t3.5 -7t3.5 -12.5l99 -389l59 273q6 28 3 34.5t-26 10.5l-16 2q-13 3 -16.5 7t-3.5 14v55q0 12 4.5 16t15.5 4h225q11 0 15 -4t4 -15v-46q0 -30 -20 -33l-19 -1q-3 0 -10.5 -1t-9.5 -1.5
t-7.5 -2.5t-7 -5t-5.5 -8.5t-7 -13.5t-6 -19l-109 -368q-4 -12 -10 -13.5t-38 -1.5h-98q-18 0 -22 14l-92 332l-91 -331q-2 -10 -6 -12.5t-18 -2.5h-111q-16 0 -20 14l-115 370q-10 34 -18.5 41.5t-34.5 9.5q-20 2 -26 7t-6 17v54q0 12 4.5 16t16.5 4h250q11 0 15 -4t4 -16
v-55q0 -18 -12 -20q-40 -2 -47.5 -10t0.5 -39zM306 758q0 34 23 57.5t54 23.5q30 0 50.5 -21t20.5 -55t-23 -56t-54 -22t-51 20t-20 53zM501 758q0 34 22.5 57.5t53.5 23.5q30 0 51 -21t21 -55t-23 -56t-55 -22q-30 0 -50 20t-20 53z" />
    <glyph glyph-name="Ygrave" unicode="&#x1ef2;" horiz-adv-x="666" 
d="M211 97q26 0 37.5 9t12.5 34v151l-167 277q-21 34 -35 45.5t-30 11.5h-14q-21 0 -21 23v53q0 13 4 17t16 4h250q13 0 17.5 -4t4.5 -17v-50q0 -23 -22 -23h-10q-36 0 -15 -32l108 -201l121 202q18 28 -12 28h-14q-21 0 -21 27v49q0 13 4.5 17t16.5 4h209q13 0 17 -4t4 -17
v-53q0 -23 -21 -23h-18q-12 0 -20 -6.5t-23 -30.5l-185 -280v-169q1 -26 11 -34t37 -8h13q14 0 18 -3.5t4 -13.5v-59q0 -13 -4.5 -17t-17.5 -4h-267q-12 0 -16.5 4t-4.5 17v59q0 9 4.5 13t16.5 4h12zM378 832l-13 -26q-6 -16 -28 -11l-182 47q-17 5 -8 22l38 70q8 13 27 3
l160 -77q10 -5 11 -11t-5 -17z" />
    <glyph glyph-name="ygrave" unicode="&#x1ef3;" horiz-adv-x="673" 
d="M249 377l99 -260l106 268q11 27 5 34.5t-37 7.5h-9q-21 0 -21 22v55q0 13 4.5 17t16.5 4h237q12 0 16.5 -4t4.5 -17v-52q0 -24 -21 -24h-19q-22 0 -34 -9t-26 -42l-199 -484q-59 -142 -189 -142q-55 0 -94 30t-44 81v13q1 34 23.5 57t53.5 23q30 0 52 -21.5t22 -55.5
q0 -39 -28 -62h7q54 0 88 84l22 57l-185 413q-18 39 -27.5 48t-35.5 9h-10q-21 0 -21 23v54q0 13 4 17t17 4h263q12 0 16.5 -4t4.5 -17v-54q0 -22 -21 -22h-13q-22 0 -30.5 -3t-8.5 -12t11 -36zM375 648l-13 -26q-6 -16 -28 -11l-182 47q-17 5 -8 22l38 70q8 13 27 3
l160 -77q10 -5 11 -11t-5 -17z" />
    <glyph glyph-name="thinspace" unicode="&#x2009;" horiz-adv-x="32" 
 />
    <glyph glyph-name="endash" unicode="&#x2013;" horiz-adv-x="520" 
d="M449 267h-378q-12 0 -16 4t-4 16v57q0 11 4 14.5t16 3.5h378q12 0 16 -3.5t4 -14.5v-57q0 -12 -4 -16t-16 -4z" />
    <glyph glyph-name="emdash" unicode="&#x2014;" horiz-adv-x="818" 
d="M748 267h-677q-12 0 -16 4t-4 16v57q0 11 4 14.5t16 3.5h677q12 0 16 -3.5t4 -14.5v-57q0 -11 -4 -15.5t-16 -4.5z" />
    <glyph glyph-name="quoteleft" unicode="&#x2018;" horiz-adv-x="246" 
d="M204 497q0 -41 -24 -67t-65 -26q-38 0 -60.5 26t-22.5 73q0 104 125 215q8 8 12.5 8.5t14.5 -7.5l13 -13q7 -7 6.5 -11.5t-8.5 -13.5q-46 -48 -60 -100q29 -2 49 -25t20 -59z" />
    <glyph glyph-name="quoteright" unicode="&#x2019;" horiz-adv-x="245" 
d="M46 637q0 41 24 67t65 26q38 0 60.5 -26t22.5 -73q0 -104 -125 -215q-8 -8 -12.5 -8.5t-14.5 7.5l-13 13q-7 7 -6.5 11.5t8.5 13.5q46 48 60 100q-29 2 -49 25t-20 59z" />
    <glyph glyph-name="quotesinglbase" unicode="&#x201a;" horiz-adv-x="261" 
d="M44 74q0 41 24 67t65 26q38 0 60.5 -26t22.5 -73q0 -104 -125 -215q-8 -8 -12.5 -8.5t-14.5 7.5l-13 13q-7 7 -6.5 11.5t8.5 13.5q46 48 60 100q-29 2 -49 25t-20 59z" />
    <glyph glyph-name="quotedblleft" unicode="&#x201c;" horiz-adv-x="450" 
d="M204 497q0 -41 -24 -67t-65 -26q-38 0 -60.5 26t-22.5 73q0 104 125 215q8 8 12.5 8.5t14.5 -7.5l13 -13q7 -7 6.5 -11.5t-8.5 -13.5q-46 -48 -60 -100q29 -2 49 -25t20 -59zM409 497q0 -41 -24 -67t-65 -26q-38 0 -60.5 26t-22.5 73q0 104 125 215q8 8 12.5 8.5
t14.5 -7.5l13 -13q7 -7 6.5 -11.5t-8.5 -13.5q-46 -48 -60 -100q29 -2 49 -25t20 -59z" />
    <glyph glyph-name="quotedblright" unicode="&#x201d;" horiz-adv-x="449" 
d="M46 637q0 41 24 67t65 26q38 0 60.5 -26t22.5 -73q0 -104 -125 -215q-8 -8 -12.5 -8.5t-14.5 7.5l-13 13q-7 7 -6.5 11.5t8.5 13.5q46 48 60 100q-29 2 -49 25t-20 59zM250 637q0 41 24 67t65 26q38 0 60.5 -26t22.5 -73q0 -104 -125 -215q-8 -8 -12.5 -8.5t-14.5 7.5
l-13 13q-7 7 -6.5 11.5t8.5 13.5q46 48 60 100q-29 2 -49 25t-20 59z" />
    <glyph glyph-name="quotedblbase" unicode="&#x201e;" horiz-adv-x="470" 
d="M44 74q0 41 24 67t65 26q38 0 60.5 -26t22.5 -73q0 -104 -125 -215q-8 -8 -12.5 -8.5t-14.5 7.5l-13 13q-7 7 -6.5 11.5t8.5 13.5q46 48 60 100q-29 2 -49 25t-20 59zM253 74q0 41 24 67t65 26q38 0 60.5 -26t22.5 -73q0 -104 -125 -215q-8 -8 -12.5 -8.5t-14.5 7.5
l-13 13q-7 7 -6.5 11.5t8.5 13.5q46 48 60 100q-29 2 -49 25t-20 59z" />
    <glyph glyph-name="dagger" unicode="&#x2020;" horiz-adv-x="616" 
d="M392 299q-27 -73 -40 -157.5t-14.5 -126.5t-1.5 -119q0 -12 -28 -12t-28 12q0 77 -1.5 119t-14.5 126.5t-40 157.5q36 36 47 77t11 104q-39 0 -93 -19.5t-86 -19.5q-34 0 -54.5 17.5t-20.5 48.5q0 56 71 56q39 0 92 -19t91 -21v6q0 31 -24 80t-24 81q0 35 21 59t53 24
q33 0 53.5 -25t20.5 -59q0 -31 -24 -80t-24 -80v-6q38 2 89.5 21t90.5 19q74 0 74 -57q0 -31 -21.5 -48t-56.5 -17q-31 0 -84 19.5t-92 19.5q1 -65 11.5 -105.5t46.5 -75.5z" />
    <glyph glyph-name="daggerdbl" unicode="&#x2021;" horiz-adv-x="642" 
d="M405 299h-168q36 36 46.5 76.5t11.5 104.5q-39 0 -93 -19.5t-86 -19.5q-34 0 -55 17.5t-21 48.5q0 56 72 56q39 0 92 -19t91 -21v6q0 31 -24 80t-24 81q0 34 20.5 58.5t52.5 24.5q33 0 54 -25t21 -59q0 -31 -24 -80t-24 -80v-6q38 2 89.5 21t89.5 19q75 0 75 -57
q0 -31 -21.5 -48t-56.5 -17q-31 0 -84 19.5t-92 19.5q1 -65 11.5 -105.5t46.5 -75.5zM405 299h-168q36 -36 46.5 -76.5t11.5 -104.5q-39 0 -93 19.5t-86 19.5q-34 0 -55 -17.5t-21 -48.5q0 -56 72 -56q39 0 92 19t91 21v-6q0 -31 -24 -80t-24 -81q0 -34 20.5 -58.5
t52.5 -24.5q33 0 54 25t21 59q0 31 -24 79.5t-24 80.5v6q38 -2 89.5 -21t89.5 -19q75 0 75 57q0 31 -21.5 48t-56.5 17q-31 0 -84 -19.5t-92 -19.5q1 65 11.5 105.5t46.5 75.5z" />
    <glyph glyph-name="bullet" unicode="&#x2022;" horiz-adv-x="414" 
d="M66 353q0 69 44 114.5t104 45.5q57 0 95.5 -41.5t38.5 -109.5t-45.5 -113t-104.5 -45q-56 0 -94 41t-38 108z" />
    <glyph glyph-name="ellipsis" unicode="&#x2026;" horiz-adv-x="829" 
d="M39 74q0 40 26.5 66.5t62.5 26.5q34 0 58 -23.5t24 -62.5q0 -40 -26.5 -65.5t-63.5 -25.5q-34 0 -57.5 23t-23.5 61zM329 74q0 40 26.5 66.5t62.5 26.5q34 0 58 -23.5t24 -62.5q0 -40 -26.5 -65.5t-63.5 -25.5q-34 0 -57.5 23t-23.5 61zM619 74q0 40 26.5 66.5t62.5 26.5
q34 0 58 -23.5t24 -62.5q0 -40 -26.5 -65.5t-63.5 -25.5q-34 0 -57.5 23t-23.5 61z" />
    <glyph glyph-name="perthousand" unicode="&#x2030;" horiz-adv-x="1460" 
d="M28 529q0 92 50.5 150t155.5 58t156 -58.5t51 -149.5q0 -92 -51 -150.5t-156 -58.5t-155.5 58.5t-50.5 150.5zM234 658q-38 0 -58 -34.5t-20 -95.5q0 -129 78 -129q79 0 79 129q0 61 -20 95.5t-59 34.5zM562 200q0 92 50.5 150t155.5 58t156 -58.5t51 -149.5t-51 -150
t-156 -59t-155.5 58.5t-50.5 150.5zM768 329q-38 0 -58 -34.5t-20 -95.5q0 -129 78 -129q79 0 79 129q0 61 -20 95.5t-59 34.5zM1018 200q0 92 50.5 150t155.5 58t156 -58.5t51 -149.5t-51 -150t-156 -59t-155.5 58.5t-50.5 150.5zM1224 329q-38 0 -58 -34.5t-20 -95.5
q0 -129 78 -129q79 0 79 129q0 61 -20 95.5t-59 34.5zM243 83l447 645q14 20 33 19q19 0 37.5 -12t18.5 -34q3 -15 -12 -35l-446 -644q-16 -22 -36 -21q-19 1 -36 14.5t-17 37.5q-1 13 11 30z" />
    <glyph glyph-name="guilsinglleft" unicode="&#x2039;" horiz-adv-x="498" 
d="M442 82q20 -16 20 -30q0 -25 -26 -25h-84q-21 0 -42 13l-251 163q-20 13 -26 27t-6 47t6 47t26 27l251 163q21 13 42 13h84q26 0 26 -25q0 -14 -20 -30l-301 -195z" />
    <glyph glyph-name="guilsinglright" unicode="&#x203a;" horiz-adv-x="497" 
d="M55 82l301 195l-301 195q-20 14 -20 30q0 25 26 25h83q22 0 43 -13l250 -163q21 -13 26.5 -26.5t5.5 -47.5t-5.5 -47.5t-26.5 -26.5l-250 -163q-21 -13 -43 -13h-83q-26 0 -26 25q0 16 20 30z" />
    <glyph glyph-name="fraction" unicode="&#x2044;" horiz-adv-x="449" 
d="M-38 83l447 645q14 20 33 19q19 0 37.5 -12t18.5 -34q3 -15 -12 -35l-446 -644q-16 -22 -36 -21q-19 1 -36 14.5t-17 37.5q-1 13 11 30z" />
    <glyph glyph-name="zerosuperior" unicode="&#x2070;" horiz-adv-x="382" 
d="M191 413q-83 0 -129 58.5t-46 149.5t45.5 147.5t129.5 56.5q85 0 129.5 -56.5t44.5 -147.5q0 -92 -45.5 -150t-128.5 -58zM266 629q0 136 -75 136q-76 0 -76 -137q0 -155 77 -155q74 0 74 156z" />
    <glyph glyph-name="foursuperior" unicode="&#x2074;" 
d="M148 420q-13 0 -13 13v39q0 9 13 9h3q15 0 21.5 5t7.5 19h-157q-12 0 -15 2.5t-3 12.5v28q0 12 5 15l183 241q9 13 19 13h75q21 0 4 -22l-177 -230h66v52q0 8 9 8h77q8 0 8 -8v-52h28q8 0 10.5 -0.5t4.5 -3t2 -8.5v-35q0 -13 -16 -13h-29q1 -15 7.5 -19.5t21.5 -4.5h3
q13 0 13 -9v-39q0 -8 -2.5 -10.5t-10.5 -2.5h-158z" />
    <glyph glyph-name="fivesuperior" unicode="&#x2075;" horiz-adv-x="321" 
d="M178 746h-56l-9 -84q26 4 46 4q145 0 145 -118q0 -135 -173 -135q-79 0 -108 11q-9 3 -9 14v48q0 10 7 10q1 0 11.5 -3t30.5 -5.5t43 -2.5q99 0 99 60q0 59 -90 59q-11 0 -59 -3q-8 -2 -13 -2q-14 0 -10 22l24 187q1 9 13 9h188q16 0 19.5 -4t4.5 -22l4 -82q0 -13 -9 -13
h-36q-11 0 -13 12l-2 10q-4 19 -12 23.5t-36 4.5z" />
    <glyph glyph-name="sixsuperior" unicode="&#x2076;" 
d="M171 414q-85 0 -119 46.5t-34 141.5q0 221 192 221q34 0 74 -8q6 -1 7 -2.5t1 -7.5v-2v-54q0 -9 -13 -8q-32 5 -52 5q-60 0 -84.5 -27.5t-31.5 -98.5q20 59 85 59q59 0 92.5 -33t33.5 -98q0 -134 -151 -134zM172 480q24 0 38 16.5t14 47.5q0 63 -52 63q-24 0 -38 -17
t-14 -46q0 -31 14.5 -47.5t37.5 -16.5z" />
    <glyph glyph-name="sevensuperior" unicode="&#x2077;" horiz-adv-x="303" 
d="M41 817h249q8 0 10 -2.5t2 -9.5v-19q0 -28 -21 -72l-133 -281q-5 -13 -18 -13h-76q-18 0 -12 13l155 313h-48q-41 0 -53 -4t-16 -22l-2 -18q-3 -12 -13 -12h-43q-4 0 -6 0.5t-3 3t-1 3.5v6l4 89q1 17 5 21t20 4z" />
    <glyph glyph-name="eightsuperior" unicode="&#x2078;" horiz-adv-x="352" 
d="M177 823q63 0 98.5 -27.5t35.5 -79.5t-37 -78q64 -31 64 -102q0 -61 -45 -92t-116 -31t-116.5 31t-45.5 92q0 71 64 102q-37 25 -37 78q0 52 36 79.5t99 27.5zM177 479q26 0 44 15t18 43q0 25 -15.5 43t-46.5 18q-32 0 -47.5 -18t-15.5 -43q0 -28 18 -43t45 -15zM177 762
q-19 0 -31 -12.5t-12 -34.5t12 -34t31 -12q18 0 29.5 12t11.5 34t-11.5 34.5t-29.5 12.5z" />
    <glyph glyph-name="ninesuperior" unicode="&#x2079;" horiz-adv-x="337" 
d="M166 823q85 0 118.5 -46t33.5 -141q0 -115 -47.5 -168.5t-144.5 -53.5q-44 0 -76 8q-5 1 -5.5 2t-0.5 7v57q0 9 13 8q50 -5 53 -5q60 0 84.5 26.5t30.5 94.5q-19 -54 -84 -54q-59 0 -93 33t-34 98q0 134 152 134zM164 757q-23 0 -37 -16.5t-14 -47.5q0 -29 13.5 -46
t37.5 -17q25 0 39 17t14 46q0 64 -53 64z" />
    <glyph glyph-name="zeroinferior" unicode="&#x2080;" horiz-adv-x="382" 
d="M191 -307q-83 0 -129 58.5t-46 149.5t45.5 147.5t129.5 56.5q85 0 129.5 -56.5t44.5 -147.5q0 -92 -45.5 -150t-128.5 -58zM266 -91q0 136 -75 136q-76 0 -76 -137q0 -155 77 -155q74 0 74 156z" />
    <glyph glyph-name="oneinferior" unicode="&#x2081;" horiz-adv-x="253" 
d="M87 -208v209q-2 11 -13 8l-42 -10q-13 -3 -13 10v45q0 9 14 13l104 28q20 5 30 5q13 0 13 -16v-292q0 -21 7 -26t44 -5h3q13 0 13 -9v-39q0 -13 -13 -13h-202q-13 0 -13 13v39q0 9 13 9h2q38 0 45.5 5.5t7.5 25.5z" />
    <glyph glyph-name="twoinferior" unicode="&#x2082;" 
d="M17 0q0 25 17 41.5t39 16.5q29 0 45 -26q-37 -9 -37 -26h-63q0 42 37 69t104 27q72 0 108.5 -31t36.5 -78q0 -34 -19 -65.5t-60 -72.5l-93 -94h48q10 0 18 1t13.5 1.5t10.5 3.5t7.5 4t7 6.5t5.5 7t6 10t6 10.5l2 10q3 12 14 12h35q8 0 9.5 -2.5t0.5 -10.5l-10 -88
q-1 -18 -6 -22t-19 -4h-251q-12 0 -12 14v26q0 17 21 38l128 125q39 39 39 84q0 24 -12 36.5t-43 12.5q-19 0 -32 -4q8 -13 8 -30q0 -25 -16.5 -40.5t-40.5 -15.5q-21 0 -36.5 15t-15.5 39z" />
    <glyph glyph-name="threeinferior" unicode="&#x2083;" horiz-adv-x="323" 
d="M16 13q0 12 4 20q10 33 44 51.5t85 18.5q63 0 97.5 -28t34.5 -79q0 -41 -20.5 -63t-42.5 -23q89 -11 89 -97q0 -60 -42.5 -90t-115.5 -30q-86 0 -118 16q-8 3 -8 14v48q0 10 7 10q1 0 15 -4q60 -12 87 -12q71 0 71 53q0 28 -17.5 41t-42.5 13h-22q-7 0 -8.5 2t-1.5 9v52
q0 9 10 9h21q46 0 46 48q0 44 -44 44q-17 0 -35 -8q2 -10 2 -15q0 -22 -14.5 -35t-34.5 -13q-18 0 -31 11t-15 30v7z" />
    <glyph glyph-name="fourinferior" unicode="&#x2084;" 
d="M148 -300q-13 0 -13 13v39q0 9 13 9h3q15 0 21.5 5t7.5 19h-157q-12 0 -15 2.5t-3 12.5v28q0 12 5 15l183 241q9 13 19 13h75q21 0 4 -22l-177 -230h66v52q0 8 9 8h77q8 0 8 -8v-52h28q8 0 10.5 -0.5t4.5 -3t2 -8.5v-35q0 -13 -16 -13h-29q1 -15 7.5 -19.5t21.5 -4.5h3
q13 0 13 -9v-39q0 -8 -2.5 -10.5t-10.5 -2.5h-158z" />
    <glyph glyph-name="fiveinferior" unicode="&#x2085;" horiz-adv-x="321" 
d="M178 26h-58l-7 -84q26 4 46 4q145 0 145 -118q0 -135 -173 -135q-79 0 -108 11q-9 3 -9 14v48q0 10 7 10q1 0 11.5 -3t30.5 -5.5t43 -2.5q99 0 99 60q0 59 -90 59q-11 0 -59 -3q-8 -2 -13 -2q-12 0 -11 22l13 187q0 9 13 9h200q16 0 19.5 -4t4.5 -22l4 -82q0 -13 -9 -13
h-36q-11 0 -13 12l-2 10q-4 19 -12 23.5t-36 4.5z" />
    <glyph glyph-name="sixinferior" unicode="&#x2086;" 
d="M171 -306q-85 0 -119 46.5t-34 141.5q0 221 192 221q34 0 74 -8q6 -1 7 -2.5t1 -7.5v-2v-54q0 -9 -13 -8q-32 5 -52 5q-60 0 -84.5 -27.5t-31.5 -98.5q20 59 85 59q59 0 92.5 -33t33.5 -98q0 -134 -151 -134zM172 -240q24 0 38 16.5t14 47.5q0 63 -52 63q-24 0 -38 -17
t-14 -46q0 -31 14.5 -47.5t37.5 -16.5z" />
    <glyph glyph-name="seveninferior" unicode="&#x2087;" horiz-adv-x="303" 
d="M41 97h249q8 0 10 -2.5t2 -9.5v-19q0 -29 -21 -72l-133 -281q-5 -13 -18 -13h-76q-18 0 -12 13l155 313h-48q-41 0 -53 -4t-16 -22l-2 -18q-3 -12 -13 -12h-43q-4 0 -6 0.5t-3 3t-1 3.5v6l4 89q1 17 5 21t20 4z" />
    <glyph glyph-name="eightinferior" unicode="&#x2088;" horiz-adv-x="352" 
d="M177 103q63 0 98.5 -27.5t35.5 -79.5t-37 -78q64 -31 64 -102q0 -61 -45 -92t-116 -31t-116.5 31t-45.5 92q0 71 64 102q-37 25 -37 78q0 52 36 79.5t99 27.5zM177 -241q26 0 44 15t18 43q0 25 -15.5 43t-46.5 18q-32 0 -47.5 -18t-15.5 -43q0 -28 18 -43t45 -15zM177 42
q-19 0 -31 -12.5t-12 -34.5t12 -34t31 -12q18 0 29.5 12t11.5 34t-11.5 34.5t-29.5 12.5z" />
    <glyph glyph-name="nineinferior" unicode="&#x2089;" horiz-adv-x="337" 
d="M166 103q85 0 118.5 -46t33.5 -141q0 -115 -47.5 -168.5t-144.5 -53.5q-47 0 -75 7q-7 2 -7 14v53q0 9 13 8q50 -5 53 -5q60 0 84.5 26.5t30.5 94.5q-19 -54 -84 -54q-59 0 -93 33t-34 98q0 134 152 134zM164 37q-23 0 -37 -16.5t-14 -47.5q0 -29 13.5 -46t37.5 -17
q25 0 39 17t14 46q0 64 -53 64z" />
    <glyph glyph-name="Euro" unicode="&#x20ac;" horiz-adv-x="835" 
d="M610 548q0 37 24 63q-42 16 -99 16q-98 0 -154.5 -53t-72.5 -141h263q35 0 35 -55q0 -20 -8.5 -30t-31.5 -10h-265l3 -34h190q37 0 37 -55q0 -40 -40 -40h-157q58 -107 211 -107q111 0 210 51q12 7 19 9.5t12.5 -1t5.5 -16.5v-74q0 -15 -15 -24q-88 -58 -257 -58
q-128 0 -219.5 55t-128.5 165h-102q-37 0 -37 53q0 27 15.5 34.5t52.5 7.5h50l-2 34h-80q-37 0 -37 54q0 27 15.5 34t52.5 7h54q21 135 117.5 216.5t252.5 81.5q128 0 193.5 -54t65.5 -121v-6q0 -40 -26.5 -64t-63.5 -24q-35 0 -59 23.5t-24 62.5z" />
    <glyph glyph-name="trademark" unicode="&#x2122;" horiz-adv-x="1031" 
d="M591 707l114 -334v-1l117 336q4 14 17 14h125q13 0 13 -14v-39q0 -16 -13 -16l-3 -1q-28 0 -28 -33v-223q0 -23 4 -29t21 -6h7q18 0 18 -11v-47q0 -14 -18 -14h-157q-14 0 -14 14v47q0 11 14 11h2q14 0 19.5 7.5t5.5 27.5v132l-83 -235q-2 -9 -15 -9h-96q-11 0 -14 8
l-90 252v-152q0 -21 6.5 -26t26.5 -5h2q14 0 14 -10v-48q0 -8 -3 -11t-11 -3h-149q-14 0 -14 14v47q0 11 14 11h2q19 0 25.5 5.5t6.5 25.5v229q-1 22 -3.5 26.5t-13.5 5.5l-4 1q-14 0 -14 12v42q0 8 3 11t11 3h140q9 0 15 -15zM153 645q-38 -1 -50 -6t-16 -24l-2 -16
q-3 -13 -15 -13h-51q-10 0 -10 10v4l3 92q1 21 6 25.5t24 4.5h332q18 0 23 -4.5t6 -25.5l5 -92v-2q0 -7 -1.5 -9.5t-9.5 -2.5h-51q-11 0 -15 13l-2 16q-4 19 -16.5 24t-49.5 6v-250q0 -21 7 -27.5t26 -6.5h1q15 0 15 -11v-46q0 -10 -3 -12.5t-12 -2.5h-179q-14 0 -14 14v47
q0 11 14 11h2q17 0 24.5 5.5t8.5 22.5v256z" />
    <glyph glyph-name="minus" unicode="&#x2212;" horiz-adv-x="521" 
d="M449 288h-378q-12 0 -16 4t-4 16v57q0 11 4 14.5t16 3.5h378q12 0 16 -3.5t4 -14.5v-57q0 -12 -4 -16t-16 -4z" />
    <glyph glyph-name="commaaccent" unicode="&#xf6c3;" horiz-adv-x="249" 
d="M56 -133q0 32 21 53.5t50 21.5q28 0 47 -21t19 -58q0 -88 -102 -174q-11 -10 -18 -3l-15 14q-6 6 -5 9.5t8 10.5q39 35 49 80q-24 2 -39 20t-15 47z" />
    <glyph glyph-name="dollaroldstyle" unicode="&#xf724;" horiz-adv-x="524" 
d="M36 115q0 35 23 58.5t54 23.5t52.5 -21.5t21.5 -55.5q0 -18 -7 -35q35 -11 77 -11q102 0 102 68q0 22 -16.5 37t-42.5 23t-58 15.5t-64 19t-58 28t-42.5 47.5t-16.5 74q0 130 152 153v69q0 22 25 24h87q24 0 24 -23v-70q98 -14 119 -77q6 -15 6 -32q0 -35 -23.5 -57.5
t-55.5 -22.5q-31 0 -51.5 20.5t-20.5 54.5q0 14 3 26q-30 5 -58 5q-79 0 -79 -54q0 -25 22 -40.5t55 -22.5t72 -19t72 -28t55 -51.5t22 -86.5q0 -137 -159 -161v-62q0 -23 -25 -24h-87q-24 0 -24 23v61q-98 12 -132 67q-24 21 -24 57z" />
    <glyph glyph-name="zerooldstyle" unicode="&#xf730;" horiz-adv-x="664" 
d="M32 266q0 122 73.5 200t226.5 78q152 0 226.5 -78t74.5 -200t-74.5 -200.5t-226.5 -78.5t-226 78.5t-74 200.5zM332 449q-157 0 -157 -184q0 -183 157 -183t157 183q0 184 -157 184z" />
    <glyph glyph-name="oneoldstyle" unicode="&#xf731;" horiz-adv-x="414" 
d="M147 150l-3 217v17q0 13 -3.5 17.5t-16.5 1.5l-66 -15q-21 -4 -21 14v72q0 9 4 12.5t16 6.5l165 45q29 6 46 6q12 0 16 -5.5t4 -18.5v-127l3 -226v-24q0 -32 12 -39.5t70 -7.5h7q13 0 16.5 -3.5t3.5 -12.5v-61q0 -12 -4 -15.5t-16 -3.5h-321q-12 0 -16 3.5t-4 15.5v61
q0 9 4 12.5t16 3.5h7q58 0 69.5 7.5t11.5 39.5v7z" />
    <glyph glyph-name="twooldstyle" unicode="&#xf732;" horiz-adv-x="553" 
d="M40 382l1 1h-1q0 69 62.5 115.5t174.5 46.5q111 0 168.5 -46t57.5 -117q0 -41 -20 -74.5t-75.5 -81.5t-173.5 -134h115q33 0 43 8.5t21 41.5l1.5 3t1 3t1.5 4v11q7 16 22 16h66q11 0 13.5 -4t0.5 -16l-15 -120q-3 -26 -10 -32.5t-28 -6.5h-408q-19 0 -19 20v41
q0 27 34 52q123 90 183.5 142.5t77 78t16.5 52.5q0 58 -79 58q-41 0 -76 -12q14 -20 14 -48q0 -37 -26 -60.5t-63 -23.5q-33 0 -56.5 23t-23.5 59z" />
    <glyph glyph-name="threeoldstyle" unicode="&#xf733;" horiz-adv-x="533" 
d="M33 395q0 68 60.5 108.5t163.5 40.5q105 0 163 -45.5t58 -126.5q0 -67 -38.5 -103.5t-81.5 -37.5q147 -15 147 -143q0 -89 -69.5 -133t-189.5 -44q-135 0 -191 25q-13 6 -13 21v75q0 16 10 16l26 -7q79 -19 143 -19q147 0 147 75t-130 75h-26q-11 0 -14 3t-3 14v80
q0 8 3.5 10t13.5 2h25q52 0 83.5 21.5t31.5 61.5q0 77 -95 77q-31 0 -61 -9q7 -14 7 -35q0 -38 -26 -61.5t-63 -23.5q-34 0 -57.5 23t-23.5 60z" />
    <glyph glyph-name="fouroldstyle" unicode="&#xf734;" horiz-adv-x="534" 
d="M173 97h115v103q0 7 2.5 10t12.5 3h117q8 0 10.5 -2.5t2.5 -9.5v-104h49q17 0 22 -2.5t5 -14.5v-59q0 -21 -26 -21h-50v-4q0 -30 9.5 -38.5t36.5 -8.5h8q12 0 16 -3.5t4 -12.5v-60q0 -12 -4 -16t-16 -4h-251q-11 0 -15.5 4t-4.5 16v60q0 9 4 12.5t16 3.5h7q26 0 35.5 9.5
t9.5 37.5v4h-255q-18 0 -23 4t-5 19v47q0 19 6 24l299 429q14 20 30 20h113q32 0 8 -34z" />
    <glyph glyph-name="fiveoldstyle" unicode="&#xf735;" horiz-adv-x="525" 
d="M297 416h-100l-17 -128q35 5 82 5q50 0 89 -8t73 -27t52.5 -56.5t18.5 -90.5q0 -106 -72.5 -157.5t-206.5 -51.5q-118 0 -177 18q-10 3 -12 7t-2 13v75q0 9 3 13t8 3q3 0 20.5 -4t50 -8t71.5 -4q82 0 123.5 21t41.5 70q0 91 -149 91q-55 0 -100 -5q-14 -2 -23 -2
q-11 0 -14.5 6.5t-0.5 25.5l39 290q3 15 21 15h304q25 0 32 -6t8 -35l6 -127q1 -20 -15 -20h-54q-19 0 -22 19l-3 15q-5 30 -18.5 36.5t-56.5 6.5z" />
    </font>
</defs>
</svg>
