<?xml version="1.0" standalone="no"?>
<!DOCTYPE svg PUBLIC "-//W3C//DTD SVG 1.1//EN" "http://www.w3.org/Graphics/SVG/1.1/DTD/svg11.dtd" >
<svg xmlns="http://www.w3.org/2000/svg" xmlns:xlink="http://www.w3.org/1999/xlink" version="1.1">
<metadata>
Created by FontForge 20161003 at Fri Oct 13 19:14:53 2017
 By www-data
Generated in 2013 by FontLab Studio. Copyright info pending.
</metadata>
<defs>
<font id="CabritoNorReg" horiz-adv-x="607" >
  <font-face 
    font-family="CabritoNorReg"
    font-weight="500"
    font-stretch="normal"
    units-per-em="1000"
    panose-1="0 0 0 0 0 0 0 0 0 0"
    ascent="765"
    descent="-235"
    x-height="526"
    cap-height="722"
    bbox="-94 -307 1285 953"
    underline-thickness="50"
    underline-position="-150"
    unicode-range="U+0020-FB04"
  />
<missing-glyph horiz-adv-x="278" 
 />
    <glyph glyph-name="ff" unicode="ff" horiz-adv-x="708" 
d="M413 472h-224v-384q0 -21 8 -27.5t30 -6.5h36q9 0 12 -2.5t3 -10.5v-26q0 -9 -3 -12t-12 -3h-218q-16 0 -16 15v26q0 8 3 10.5t13 2.5h36q22 0 30 6.5t8 27.5v384h-72q-10 0 -13 2.5t-3 12.5v23q0 16 14 16h74v33q0 174 176 174q88 0 131 -59q35 109 150 109
q64 0 98 -31.5t34 -82.5q0 -21 -15 -35t-34 -14q-20 0 -32.5 13t-12.5 34q0 33 27 45q-20 18 -59 18q-99 0 -99 -144v-60h146q11 0 13.5 -2t2.5 -10v-28q0 -14 -15 -14h-147v-384q0 -21 8 -27.5t30 -6.5h36q10 0 12.5 -2.5t2.5 -10.5v-26q0 -9 -3 -12t-12 -3h-218
q-16 0 -16 15v26q0 8 2.5 10.5t13.5 2.5h36q21 0 29.5 6.5t8.5 27.5v384zM413 526v54q-5 46 -32.5 73t-79.5 27q-57 0 -84.5 -27t-27.5 -87v-40h224z" />
    <glyph glyph-name="fi" unicode="fi" horiz-adv-x="592" 
d="M493 93q0 -42 31 -42q8 0 36 5q8 3 11 1.5t3 -9.5v-27q0 -13 -12 -18q-29 -8 -57 -8q-82 0 -82 88v335q-1 20 -13 24t-60 4q-7 0 -9 1h-148v-359q0 -21 8 -27.5t30 -6.5h36q9 0 12 -2.5t3 -10.5v-26q0 -9 -3 -12t-12 -3h-218q-16 0 -16 15v26q0 8 3 10.5t13 2.5h36
q22 0 30 6.5t8 27.5v359h-72q-10 0 -13 2.5t-3 11.5v23q0 16 14 16h74v79q0 97 48.5 150.5t142.5 53.5q80 0 122.5 -31.5t42.5 -82.5q0 -21 -14.5 -35t-33.5 -14q-20 0 -33 13t-13 34q0 24 18 39q-31 19 -89 19q-62 0 -91.5 -35t-29.5 -112v-78h151q1 0 3 0.5t4 0.5l118 7
q14 0 19 -6.5t5 -21.5v-387z" />
    <glyph glyph-name="fl" unicode="fl" horiz-adv-x="601" 
d="M49 500h74v81q0 202 186 202q192 0 192 -201v-489q0 -42 32 -42q6 0 36 5q7 3 10.5 1.5t3.5 -9.5v-27q0 -13 -13 -18q-27 -8 -57 -8q-82 0 -82 88v499q0 146 -120 146q-59 0 -88.5 -34.5t-29.5 -111.5v-82h131q15 0 15 -12v-28q0 -13 -15 -13h-131v-359q0 -21 8 -27.5
t30 -6.5h36q9 0 12 -2.5t3 -10.5v-26q0 -9 -3 -12t-12 -3h-218q-16 0 -16 15v26q0 8 3 10.5t13 2.5h36q22 0 30 6.5t8 27.5v359h-72q-10 0 -13 2.5t-3 11.5v23q0 16 14 16z" />
    <glyph glyph-name="ffi" unicode="ffi" horiz-adv-x="862" 
d="M763 93q0 -42 31 -42q8 0 36 5q8 3 11 1.5t3 -9.5v-27q0 -13 -12 -18q-29 -8 -57 -8q-82 0 -82 88v359q0 19 -11 24t-50 6h-149v-384q0 -21 8 -27.5t30 -6.5h36q10 0 12.5 -2.5t2.5 -10.5v-26q0 -9 -3 -12t-12 -3h-218q-16 0 -16 15v26q0 8 2.5 10.5t13.5 2.5h36
q21 0 29.5 6.5t8.5 27.5v384h-224v-384q0 -21 8 -27.5t30 -6.5h36q9 0 12 -2.5t3 -10.5v-26q0 -9 -3 -12t-12 -3h-218q-16 0 -16 15v26q0 8 3 10.5t13 2.5h36q22 0 30 6.5t8 27.5v384h-72q-10 0 -13 2.5t-3 11.5v24q0 16 14 16h74v33q0 174 176 174q91 0 132 -61
q41 111 177 111q80 0 122.5 -31.5t42.5 -82.5q0 -21 -14.5 -35t-33.5 -14q-20 0 -33 13t-13 34q0 29 23 42q-29 21 -89 21q-65 0 -95.5 -35t-30.5 -112v-57h138l118 7q14 0 19 -6.5t5 -21.5v-412zM413 526v54q-5 46 -32.5 73t-79.5 27q-57 0 -84.5 -27t-27.5 -87v-40h224z
" />
    <glyph glyph-name="ffl" unicode="ffl" horiz-adv-x="885" 
d="M413 472h-224v-384q0 -21 8 -27.5t30 -6.5h36q9 0 12 -2.5t3 -10.5v-26q0 -9 -3 -12t-12 -3h-218q-16 0 -16 15v26q0 8 3 10.5t13 2.5h36q22 0 30 6.5t8 27.5v384h-72q-10 0 -13 2.5t-3 11.5v24q0 16 14 16h74v33q0 174 176 174q92 0 132 -58q36 100 167 100
q91 0 137 -46t46 -147v-386h1v-108q0 -21 8 -27.5t30 -6.5h36q9 0 12 -2.5t3 -10.5v-26q0 -9 -3 -12t-12 -3h-218q-16 0 -16 15v26q0 8 3 10.5t13 2.5h36q22 0 30 6.5t8 27.5v90h-1v399q0 143 -111 143q-56 0 -84.5 -34t-28.5 -109v-51h117q10 0 13 -2t3 -10v-29
q0 -13 -15 -13h-118v-384q0 -21 8 -27.5t30 -6.5h36q10 0 12.5 -2.5t2.5 -10.5v-26q0 -9 -3 -12t-12 -3h-218q-16 0 -16 15v26q0 8 2.5 10.5t13.5 2.5h36q21 0 29.5 6.5t8.5 27.5v384zM413 526v54q-5 46 -32.5 73t-79.5 27q-57 0 -84.5 -27t-27.5 -87v-40h224z" />
    <glyph glyph-name="f_f_j" unicode="ffj" horiz-adv-x="838" 
d="M492 -155q0 22 14 36.5t34 14.5q19 0 32.5 -13t13.5 -35q0 -27 -22 -41q18 -9 40 -9q89 0 89 118v526q0 19 -11 24t-50 6h-149v-384q0 -21 8 -27.5t30 -6.5h36q10 0 12.5 -2.5t2.5 -10.5v-26q0 -9 -3 -12t-12 -3h-218q-16 0 -16 15v26q0 8 2.5 10.5t13.5 2.5h36
q21 0 29.5 6.5t8.5 27.5v384h-224v-384q0 -21 8 -27.5t30 -6.5h36q9 0 12 -2.5t3 -10.5v-26q0 -9 -3 -12t-12 -3h-218q-16 0 -16 15v26q0 8 3 10.5t13 2.5h36q22 0 30 6.5t8 27.5v384h-72q-10 0 -13 2.5t-3 11.5v24q0 16 14 16h74v33q0 174 176 174q92 0 133 -59
q40 109 176 109q80 0 122.5 -31.5t42.5 -82.5q0 -21 -14.5 -35t-33.5 -14q-20 0 -33 13t-13 34q0 24 18 39q-31 19 -87 19q-63 0 -93 -34t-30 -108v-57h138l118 7q14 0 19 -6.5t5 -21.5v-576q0 -86 -37.5 -133.5t-113.5 -47.5q-56 0 -88 28t-32 69zM413 526v54
q-5 46 -32.5 73t-79.5 27q-57 0 -84.5 -27t-27.5 -87v-40h224z" />
    <glyph glyph-name="f_j" unicode="fj" horiz-adv-x="565" 
d="M49 500h74v79q0 97 48.5 150.5t142.5 53.5q80 0 122.5 -31.5t42.5 -82.5q0 -21 -14.5 -35t-33.5 -14q-20 0 -33 13t-13 34q0 23 17 38q-30 20 -88 20q-121 0 -121 -147v-78h151q1 0 3 0.5t4 0.5l118 7q14 0 19 -6.5t5 -21.5v-551q0 -86 -37.5 -133.5t-113.5 -47.5
q-56 0 -88 28t-32 69h1q0 22 13.5 36.5t33.5 14.5t33.5 -13t13.5 -35q0 -26 -23 -42q19 -8 40 -8q89 0 89 118v500q0 22 -12 26t-61 4q-7 0 -9 1h-148v-359q0 -21 8 -27.5t30 -6.5h36q9 0 12 -2.5t3 -10.5v-26q0 -9 -3 -12t-12 -3h-218q-16 0 -16 15v26q0 8 3 10.5t13 2.5
h36q22 0 30 6.5t8 27.5v359h-72q-10 0 -13 2.5t-3 11.5v23q0 16 14 16z" />
    <glyph glyph-name=".notdef" horiz-adv-x="278" 
 />
    <glyph glyph-name=".null" horiz-adv-x="0" 
 />
    <glyph glyph-name="nonmarkingreturn" horiz-adv-x="333" 
 />
    <glyph glyph-name="space" unicode=" " horiz-adv-x="233" 
 />
    <glyph glyph-name="exclam" unicode="!" horiz-adv-x="252" 
d="M169 694q0 -30 -11.5 -176t-11.5 -338q0 -12 -21 -12q-22 0 -22 12q0 192 -11.5 338t-11.5 176q0 55 45 55q44 0 44 -55zM72 43q0 25 17 42t39 17q23 0 38 -15t15 -40t-17 -41t-40 -16q-22 0 -37 14.5t-15 38.5z" />
    <glyph glyph-name="quotedbl" unicode="&#x22;" horiz-adv-x="371" 
d="M245 538l-8 179q-2 9 6 12.5t32 3.5q23 0 31 -3.5t7 -12.5l-9 -179q0 -15 -29 -15q-17 0 -23 3t-7 12zM67 538l-9 179q-1 9 6.5 12.5t31.5 3.5t32 -3.5t7 -12.5l-9 -179q-1 -15 -30 -15q-17 0 -23 3t-6 12z" />
    <glyph glyph-name="numbersign" unicode="#" horiz-adv-x="830" 
d="M393 40l71 170h-225l-84 -200q-6 -14 -12.5 -17.5t-24.5 -3.5q-32 0 -32 22q0 12 7 29l71 170h-105q-28 0 -28 30q0 15 9 19.5t28 4.5h118l90 216h-127q-28 0 -28 30q0 15 9 19.5t28 4.5h141l67 161q9 21 18 28t34 7q33 0 24 -33l-12 -33l-55 -130h224l67 161q9 21 18 28
t34 7q33 0 24 -33l-12 -33l-55 -130h105q19 0 19 -30q0 -24 -23 -24h-123l-91 -216h128q19 0 19 -30q0 -24 -23 -24h-147l-84 -200q-6 -14 -12.5 -17.5t-24.5 -3.5q-32 0 -32 22q0 12 7 29zM353 480l-91 -216h224l90 216h-223z" />
    <glyph glyph-name="dollar" unicode="$" horiz-adv-x="571" 
d="M514 572q0 -25 -17 -41.5t-40 -16.5q-22 0 -37 15t-15 40q0 36 33 52q-42 56 -154 56q-153 0 -153 -114q0 -37 17 -63.5t44.5 -41t63 -27.5t72 -22.5t72 -27t63 -39.5t44.5 -61.5t17 -91.5q0 -184 -214 -200v-93q0 -19 -19 -20h-34q-17 0 -17 19v93q-200 11 -202 156
q0 24 17 41t39 17t37.5 -15t15.5 -40q0 -40 -35 -54q42 -51 161 -51q179 0 179 140q0 43 -17 74t-44.5 48t-62.5 31t-72 23t-72 25t-62.5 35t-44.5 54t-17 82q0 161 187 176v79q0 20 19 21h34q17 0 17 -20v-79q97 -6 147 -47.5t50 -111.5z" />
    <glyph glyph-name="percent" unicode="%" horiz-adv-x="883" 
d="M31 529q0 92 42 150t131 58q88 0 131 -58.5t43 -149.5t-43 -150t-131 -59q-89 0 -131 58.5t-42 150.5zM204 688q-51 0 -78.5 -45t-27.5 -115q0 -71 26 -115t80 -44q106 0 106 159q0 71 -26.5 115.5t-79.5 44.5zM506 200q0 92 42 150t131 58q88 0 131 -58.5t43 -149.5
t-43 -150t-131 -59q-89 0 -131 58.5t-42 150.5zM679 359q-51 0 -78.5 -45t-27.5 -115q0 -71 26 -115t80 -44q106 0 106 159q0 71 -26.5 115.5t-79.5 44.5zM190 51l474 684q11 17 25 13q7 0 17 -7t12 -15q6 -10 -8 -29l-473 -683q-13 -18 -30 -12q-23 8 -24 23q-4 10 7 26z
" />
    <glyph glyph-name="ampersand" unicode="&#x26;" horiz-adv-x="723" 
d="M404 579q0 34 29 48q-46 48 -135 48q-74 0 -111.5 -35.5t-37.5 -96.5q0 -134 157 -134h359q14 0 18.5 -4t5.5 -20l7 -111q1 -9 -1.5 -11.5t-13.5 -2.5h-25q-16 0 -18 12l-4 56q-2 16 -9 19.5t-33 3.5h-98v-269q1 -18 8 -23.5t26 -5.5h29q9 0 11 -2.5t2 -9.5v-27
q0 -14 -13 -14h-260q-115 0 -183.5 49.5t-68.5 148.5q0 82 45.5 130t115.5 54q-129 26 -129 165q0 86 56 135.5t161 49.5q95 0 155.5 -40t63.5 -107v-5q0 -25 -16.5 -39.5t-40.5 -14.5q-22 0 -37 14.5t-15 38.5zM305 351q-79 0 -131 -37t-52 -116q0 -137 183 -137l115 1v289
h-115z" />
    <glyph glyph-name="quotesingle" unicode="'" horiz-adv-x="193" 
d="M67 538l-9 179q-1 9 6.5 12.5t31.5 3.5t32 -3.5t7 -12.5l-9 -179q-1 -15 -30 -15q-17 0 -23 3t-6 12z" />
    <glyph glyph-name="parenleft" unicode="(" horiz-adv-x="356" 
d="M303 -105q14 -8 23 6q10 16 -1 24q-213 151 -215 383h-70q1 -128 67.5 -235t195.5 -178zM303 721q14 8 23 -6q10 -16 -1 -24q-213 -151 -215 -383h-70q1 128 67.5 235t195.5 178z" />
    <glyph glyph-name="parenright" unicode=")" horiz-adv-x="356" 
d="M53 -105q-15 -8 -24 6q-10 16 1 24q213 151 215 383h70q-1 -128 -67.5 -235t-194.5 -178zM53 721q128 -71 194.5 -178t67.5 -235h-70q-2 232 -215 383q-11 8 -1 24q9 14 24 6z" />
    <glyph glyph-name="asterisk" unicode="*" horiz-adv-x="446" 
d="M243 545l-1 -1q22 -13 62 -28t62 -29q13 -9 18 -21.5t-2 -24.5q-15 -24 -46 -4q-22 14 -52.5 44.5t-52.5 45.5q1 -25 10 -66t9 -67q0 -16 -8 -27t-22 -11q-13 0 -20.5 10.5t-7.5 26.5q0 25 9 67t10 66q-20 -13 -51 -41.5t-53 -41.5q-32 -19 -47 6q-15 23 16 43
q21 12 62.5 26t64.5 27q-23 15 -63.5 29.5t-61.5 28.5q-31 21 -16 44q7 11 20.5 11.5t26.5 -8.5q21 -14 51.5 -42.5t50.5 -42.5q-1 25 -10 66.5t-9 68.5q0 16 7.5 26.5t20.5 10.5q14 0 21.5 -11t7.5 -27q0 -27 -8.5 -69t-9.5 -68v-1l1 1q22 14 54 43.5t55 42.5q32 20 46 -5
q14 -22 -18 -43q-23 -13 -63 -28t-63 -27z" />
    <glyph glyph-name="plus" unicode="+" horiz-adv-x="498" 
d="M274 510v-146h157q27 0 27 -27q0 -15 -6.5 -21t-24.5 -6h-153v-159q0 -28 -29 -28q-28 0 -28 37v150h-149q-28 0 -28 29q0 17 8 21t29 4h140v150q0 27 30 27q15 0 21 -6.5t6 -24.5z" />
    <glyph glyph-name="comma" unicode="," horiz-adv-x="256" 
d="M76 43q0 26 15.5 42.5t40.5 16.5q23 0 37.5 -16t14.5 -46q0 -77 -93 -158q-12 -10 -20 -2l-8 8q-7 8 4 18q45 38 55 84q-21 1 -33.5 15t-12.5 38z" />
    <glyph glyph-name="hyphen" unicode="-" horiz-adv-x="413" 
d="M78 340h258q9 0 11.5 -3t2.5 -12v-23q0 -10 -3 -13t-12 -3h-257q-9 0 -12 3t-3 13v23q0 9 2.5 12t12.5 3z" />
    <glyph glyph-name="period" unicode="." horiz-adv-x="226" 
d="M59 43q0 26 16.5 42.5t39.5 16.5q22 0 37 -15t15 -40t-17 -41t-40 -16q-22 0 -36.5 14.5t-14.5 38.5z" />
    <glyph glyph-name="slash" unicode="/" horiz-adv-x="439" 
d="M29 -2l309 737q8 19 18 17l49 -10q13 -3 4 -22l-311 -740q-4 -10 -7.5 -13t-9.5 -1l-48 11q-7 2 -8 5.5t4 15.5z" />
    <glyph glyph-name="zero" unicode="0" horiz-adv-x="669" 
d="M334 -13q-137 0 -212.5 106t-75.5 272q0 165 75 268.5t214 103.5q138 0 212 -103t74 -268q0 -167 -75 -273t-212 -106zM547 369q0 142 -53 228t-159 86q-105 0 -159.5 -86.5t-54.5 -228.5q0 -152 56.5 -239.5t157.5 -87.5q99 0 155.5 87.5t56.5 240.5z" />
    <glyph glyph-name="one" unicode="1" horiz-adv-x="346" 
d="M147 634q0 16 -4 18t-22 -5l-62 -24q-16 -6 -16 11v27q0 14 18 21l106 39q14 6 29 6q13 0 18 -6.5t5 -21.5v-611q0 -21 13 -27.5t53 -6.5h29q10 0 12.5 -3t2.5 -13v-18q0 -9 -1.5 -13.5t-4.5 -5.5t-9 -1h-262q-9 0 -12 3.5t-3 16.5v18q0 10 2.5 13t12.5 3h28
q40 0 53.5 6.5t13.5 27.5v546z" />
    <glyph glyph-name="two" unicode="2" horiz-adv-x="570" 
d="M43 563q0 75 64.5 121.5t168.5 46.5q110 0 168.5 -54t58.5 -140q0 -102 -110 -214l-262 -264h271q33 0 42 5.5t14 28.5l9 90q1 14 20 14h22q18 0 15 -16l-13 -157q-1 -16 -7 -20t-22 -4h-419q-13 0 -17 4t-4 18v15q0 22 37 59l269 274q80 80 80 165q0 60 -39 99.5
t-116 39.5q-49 0 -91.5 -16t-64.5 -43q35 -12 35 -51q0 -25 -16.5 -39.5t-40.5 -14.5q-22 0 -37 14.5t-15 38.5z" />
    <glyph glyph-name="three" unicode="3" horiz-adv-x="575" 
d="M59 579q0 70 62 111.5t162 41.5q107 0 163 -49.5t56 -137.5q0 -137 -136 -163q71 -6 117 -54t46 -132q0 -104 -71.5 -156.5t-200.5 -52.5q-65 0 -127 9.5t-80 19.5q-8 4 -8 17v34q0 11 9 11q3 0 8 -1.5t12 -3.5t11 -3q79 -22 165 -22q205 0 205 150q0 80 -51.5 116
t-134.5 36h-24q-12 0 -15.5 3t-3.5 15v26q0 10 4 12.5t15 2.5h23q168 0 168 133q0 63 -38 98t-115 35q-91 0 -140 -47q28 -14 28 -48q0 -25 -16.5 -39.5t-39.5 -14.5t-38 14.5t-15 38.5z" />
    <glyph glyph-name="four" unicode="4" horiz-adv-x="547" 
d="M337 204v154q0 15 15 15h44q14 0 14 -14v-155h99q16 0 16 -12v-28q0 -14 -15 -14h-100v-63q1 -20 9 -26.5t28 -6.5h34q9 0 11.5 -2.5t2.5 -10.5v-26q0 -15 -14 -15h-217q-9 0 -12 3t-3 11v26q0 8 2.5 11t12.5 3h38q21 0 28 8t7 33v55h-304q-11 0 -14 2.5t-3 11.5v24
q0 10 5 14l353 507q9 13 26 13h42q27 0 6 -29l-343 -489h232z" />
    <glyph glyph-name="five" unicode="5" horiz-adv-x="544" 
d="M355 663h-183l-35 -222q36 4 138 4q49 0 87 -9.5t71 -32t51 -66t18 -106.5q0 -125 -72 -184.5t-203 -59.5q-116 0 -174 21q-7 2 -10.5 5.5t-4 6t-0.5 9.5v30q0 8 3.5 12t7.5 3q1 0 12.5 -4t23.5 -7t30 -6.5t43 -5.5t52 -2q108 0 162.5 42t54.5 137q0 87 -44 124.5
t-130 37.5q-20 0 -74 -2t-67 -2q-8 -2 -26 -2q-23 0 -17 38l44 283q3 17 22 17h286q26 0 34 -7t9 -36l4 -87q1 -20 -12 -20h-25q-12 0 -15 22l-5 33q-4 25 -13.5 30.5t-42.5 5.5z" />
    <glyph glyph-name="six" unicode="6" horiz-adv-x="588" 
d="M303 -11q-140 0 -197 87t-57 252q0 405 308 405q53 0 125 -13q9 -2 12.5 -4t4 -4t0.5 -7v-3v-33q0 -11 -5.5 -12.5t-19.5 2.5q-61 12 -107 12q-128 0 -185.5 -83t-60.5 -255q15 50 48.5 82t71.5 44t82 12q102 0 165.5 -60.5t63.5 -175.5q0 -125 -67 -185.5t-182 -60.5z
M306 45q75 0 123.5 47t48.5 140q0 82 -44.5 131t-123.5 49q-78 0 -125.5 -51t-47.5 -135q0 -81 43.5 -131t125.5 -50z" />
    <glyph glyph-name="seven" unicode="7" horiz-adv-x="501" 
d="M70 722h413q11 0 11 -10v-20q0 -21 -18 -60l-293 -617q-7 -15 -21 -15h-52q-16 0 -9 15l312 648h-269q-32 0 -42 -5.5t-12 -27.5l-5 -53q-1 -15 -16 -15h-29q-8 0 -10 3.5t-1 13.5l4 111q1 22 7.5 27t29.5 5z" />
    <glyph glyph-name="eight" unicode="8" horiz-adv-x="620" 
d="M310 732q101 0 158 -46.5t57 -132.5q0 -111 -97 -151q59 -18 102.5 -66t43.5 -134q0 -112 -72.5 -163.5t-191.5 -51.5t-191.5 51.5t-72.5 163.5q0 87 43 135t102 65q-96 39 -96 151q0 86 57 132.5t158 46.5zM310 43q85 0 137 38.5t52 120.5q0 70 -44.5 116.5t-134.5 49.5
h-10q-96 0 -142.5 -46.5t-46.5 -119.5q0 -82 51.5 -120.5t137.5 -38.5zM310 678q-66 0 -104.5 -32t-38.5 -94q0 -64 38.5 -95t104.5 -31q61 0 102 31.5t41 94.5q0 62 -39 94t-104 32z" />
    <glyph glyph-name="nine" unicode="9" horiz-adv-x="598" 
d="M290 733q72 0 123.5 -24.5t79.5 -71.5t40.5 -105t12.5 -134q0 -212 -77.5 -310.5t-239.5 -98.5q-80 0 -155 22q-9 3 -9 12v39q0 15 17 10q88 -22 144 -22q128 0 187 79.5t61 250.5q-25 -69 -79.5 -99t-119.5 -30q-101 0 -165.5 63.5t-64.5 175.5q0 111 64 177t181 66z
M290 674q-81 0 -126 -49.5t-45 -131.5q0 -84 47.5 -133.5t123.5 -49.5t124 48.5t48 129.5q0 87 -45 136.5t-127 49.5z" />
    <glyph glyph-name="colon" unicode=":" horiz-adv-x="232" 
d="M61 43q0 25 16.5 42t39.5 17t38 -15t15 -40t-17 -41t-40 -16q-22 0 -37 14.5t-15 38.5zM61 467q0 25 17 42t39 17q23 0 38 -15t15 -40t-17 -41t-40 -16q-22 0 -37 14.5t-15 38.5z" />
    <glyph glyph-name="semicolon" unicode=";" horiz-adv-x="254" 
d="M76 43q0 26 16.5 42.5t39.5 16.5q22 0 37 -15t15 -40v-5q-4 -93 -109 -187q-7 -7 -12 -3l-17 15q-4 4 6 13q56 49 72 110q-21 1 -34.5 15.5t-13.5 37.5zM76 467q0 25 16.5 42t39.5 17q22 0 37 -15t15 -40t-17 -41t-40 -16q-22 0 -36.5 14.5t-14.5 38.5z" />
    <glyph glyph-name="less" unicode="&#x3c;" horiz-adv-x="589" 
d="M108 279l403 -177q20 -8 24 -16.5t1 -28.5q-7 -35 -46 -17l-426 187q-18 8 -24.5 19t-6.5 33h75zM511 456l-403 -177h-75q0 22 6.5 33t24.5 19l426 187q39 16 46 -17q3 -20 -1 -28.5t-24 -16.5z" />
    <glyph glyph-name="equal" unicode="=" horiz-adv-x="545" 
d="M458 360h-374q-21 0 -21 28q0 16 7 21t23 5h369q19 0 19 -28q0 -26 -23 -26zM458 216h-374q-21 0 -21 28q0 16 7 21t23 5h369q19 0 19 -28q0 -26 -23 -26z" />
    <glyph glyph-name="greater" unicode="&#x3e;" horiz-adv-x="590" 
d="M481 279l-403 -177q-20 -8 -24 -16.5t-1 -28.5q7 -35 46 -17l426 187q18 8 24.5 19t6.5 33h-75zM481 279l-403 177q-20 8 -24 16.5t-1 28.5q7 33 46 17l426 -187q18 -8 24.5 -19t6.5 -33h-75z" />
    <glyph glyph-name="question" unicode="?" horiz-adv-x="499" 
d="M392 546q0 53 -36 90.5t-104 37.5q-103 0 -141 -69q30 -14 30 -48q0 -26 -16.5 -40t-40.5 -14q-23 0 -38 14t-15 39q0 67 57 121t167 54q99 0 155 -51t56 -131q0 -53 -21.5 -99t-52 -78t-61 -61t-52 -61.5t-21.5 -65.5v-10q0 -17 -20 -17h-27q-23 0 -23 29q0 40 21 76
t51 65.5t60 60t51 71t21 87.5zM166 39q0 25 16.5 40t39.5 15t38.5 -14.5t15.5 -39.5t-16.5 -39.5t-40.5 -14.5q-22 0 -37.5 14.5t-15.5 38.5z" />
    <glyph glyph-name="at" unicode="@" horiz-adv-x="847" 
d="M795 399q0 -110 -54 -188t-129 -78q-38 0 -61.5 22.5t-25.5 62.5q-26 -39 -67.5 -62t-86.5 -23q-61 0 -104.5 43t-43.5 123q0 102 66.5 179.5t174.5 77.5q84 0 119.5 -42.5t32.5 -109.5q-1 -52 -29 -137q-4 -26 -4 -33q0 -53 41 -53q46 0 81.5 66.5t35.5 150.5
q0 130 -87.5 204t-212.5 74q-149 0 -238.5 -99.5t-89.5 -241.5q0 -143 91 -229.5t231 -86.5q52 0 112 12t99 32q10 5 14.5 7t9 2t5.5 -2.5t1 -8.5v-16q0 -16 -14 -24q-28 -18 -95 -33t-136 -15q-170 0 -277.5 101t-107.5 265q0 165 109 275.5t286 110.5q152 0 253 -87.5
t101 -238.5zM377 180q68 0 122.5 64.5t54.5 156.5q0 107 -90 107q-78 0 -128.5 -67t-50.5 -148q0 -55 25 -84t67 -29z" />
    <glyph glyph-name="A" unicode="A" horiz-adv-x="683" 
d="M517 100l-47 143h-271l-48 -149q-8 -25 -2 -32t31 -8l18 -1q12 0 16 -3.5t4 -13.5v-21q0 -10 -3.5 -12.5t-15.5 -2.5h-179q-8 0 -11.5 3t-3.5 12v22q0 17 15 17l34 1q13 0 20 7t16 35l204 616q4 10 7.5 12.5t16.5 2.5h48q16 0 22 -14l204 -612q12 -32 19.5 -39.5
t32.5 -8.5h21q13 0 16.5 -3t3.5 -13v-23q0 -10 -3 -12.5t-16 -2.5h-194q-12 0 -15.5 2.5t-3.5 12.5v22q0 10 3.5 12.5t17.5 3.5h17q33 1 33 17q0 10 -7 30zM334 659l-118 -363h237z" />
    <glyph glyph-name="B" unicode="B" horiz-adv-x="636" 
d="M127 634q0 32 -27 33h-44q-14 0 -14 15v25q0 9 3.5 12t13.5 3h260q115 0 172.5 -40t57.5 -133q0 -72 -32.5 -112.5t-77.5 -49.5v-1q69 -11 111.5 -59t42.5 -130q0 -61 -21 -102t-60.5 -60.5t-80.5 -27t-96 -7.5h-278q-8 0 -11.5 3t-3.5 12v22q0 17 14 17q45 0 58 7t13 34
v539zM199 356v-302h141q176 0 176 142q0 160 -185 160h-132zM199 667v-254h135q139 0 139 133q0 70 -38 95.5t-109 25.5h-127z" />
    <glyph glyph-name="C" unicode="C" horiz-adv-x="675" 
d="M121 349q0 -138 68.5 -219.5t213.5 -81.5q51 0 100.5 11.5t65 18.5t48.5 23q10 6 15.5 7t9 -2t3.5 -13v-26q0 -14 -15 -23q-88 -55 -235 -55q-161 0 -255 90.5t-94 269.5q0 171 91.5 276.5t255.5 105.5q124 0 183.5 -52.5t59.5 -122.5q0 -25 -16.5 -39.5t-40.5 -14.5
q-23 0 -37.5 14t-14.5 39q0 20 12 34.5t30 18.5q-49 66 -171 66q-139 0 -208 -91.5t-69 -233.5z" />
    <glyph glyph-name="D" unicode="D" horiz-adv-x="719" 
d="M672 360q0 -360 -390 -360h-225q-8 0 -11.5 3t-3.5 12v22q0 17 14 17q45 0 58 7t13 34v539q0 32 -27 33h-44q-14 0 -14 15v25q0 9 3.5 12t13.5 3h223q198 0 294 -90t96 -272zM199 667v-610h82q164 0 240 72.5t76 230.5q0 160 -77 233.5t-241 73.5h-80z" />
    <glyph glyph-name="E" unicode="E" horiz-adv-x="611" 
d="M57 0q-8 0 -11.5 3t-3.5 12v22q0 17 14 17q45 0 58 7t13 34v539q0 32 -27 33h-44q-14 0 -14 15v25q0 9 3.5 12t13.5 3h438q28 0 35.5 -7t10.5 -40l6 -99q2 -15 -0.5 -19.5t-14.5 -4.5h-22q-12 0 -16 4t-5 18l-4 47q-3 33 -18.5 40t-66.5 7h-203v-286h136q24 0 25 29l2 38
q1 11 4 13.5t14 2.5h19q11 0 14 -3.5t3 -12.5v-188q0 -9 -3 -12t-12 -3h-21q-11 0 -14 2.5t-4 11.5l-2 39q-1 30 -25 30h-136v-275h251q32 0 41 6.5t14 32.5l9 90q3 14 20 14h23q16 0 15 -16l-14 -157q-1 -16 -7 -20t-21 -4h-473z" />
    <glyph glyph-name="F" unicode="F" horiz-adv-x="590" 
d="M58 0q-9 0 -12 3t-3 11v26q0 8 2.5 11t12.5 3h33q21 0 28.5 8t7.5 33v539q0 32 -27 33h-43q-15 0 -15 15v25q0 9 3.5 12t14.5 3h450q28 0 35.5 -7t9.5 -40l7 -99q2 -15 -0.5 -19.5t-14.5 -4.5h-22q-12 0 -16 4t-5 18l-5 47q-3 33 -18 40t-66 7h-216v-288h148q25 0 26 28
l1 39q1 10 4.5 12.5t14.5 2.5h19q11 0 14 -3t3 -13v-188q0 -15 -15 -15h-21q-18 0 -19 15l-1 39q-1 29 -26 29h-148v-239q1 -20 9 -26.5t29 -6.5h33q10 0 12.5 -2.5t2.5 -10.5v-26q0 -15 -15 -15h-212z" />
    <glyph glyph-name="G" unicode="G" horiz-adv-x="701" 
d="M417 299v28q0 16 11 16h197q17 0 17 -16v-310q0 -17 -15 -17h-26q-16 0 -19 14l-4 19q-82 -46 -191 -46q-152 0 -247 93t-95 273q0 171 91.5 274.5t253.5 103.5q122 0 186 -51t64 -127q0 -25 -16.5 -39t-39.5 -14t-38 14t-15 39q0 20 12.5 34.5t31.5 18.5q-50 69 -181 69
q-133 0 -203.5 -91t-70.5 -232q0 -144 73 -224.5t199 -80.5q98 0 180 47v176q0 17 -18 17h-124q-13 0 -13 12z" />
    <glyph glyph-name="H" unicode="H" horiz-adv-x="748" 
d="M126 627q0 25 -7 33t-28 8h-35q-10 0 -12.5 2.5t-2.5 12.5v23q0 10 3 13t12 3h212q9 0 12 -3t3 -13v-23q0 -10 -2.5 -12.5t-12.5 -2.5h-36q-21 0 -27.5 -7.5t-6.5 -33.5v-241h351v241q0 25 -7 33t-28 8h-35q-10 0 -12.5 2.5t-2.5 12.5v23q0 10 3 13t12 3h212q9 0 12 -3
t3 -13v-23q0 -10 -2.5 -12.5t-12.5 -2.5h-36q-21 0 -27.5 -7.5t-6.5 -33.5v-532q0 -25 8 -33t29 -8h34q9 0 12 -2.5t3 -10.5v-26q0 -15 -15 -15h-212q-10 0 -13 3t-3 11v26q0 8 3 11t13 3h33q21 0 28.5 8t7.5 33v237h-351v-237q0 -25 8 -33t29 -8h34q9 0 12 -2.5t3 -10.5
v-26q0 -15 -15 -15h-212q-10 0 -13 3t-3 11v26q0 8 3 11t13 3h33q21 0 28.5 8t7.5 33v532z" />
    <glyph glyph-name="I" unicode="I" horiz-adv-x="325" 
d="M126 95v532q0 25 -7 33t-28 8h-35q-10 0 -12.5 2.5t-2.5 12.5v23q0 10 3 13t12 3h212q9 0 12 -3t3 -13v-23q0 -10 -2.5 -12.5t-12.5 -2.5h-36q-21 0 -27.5 -7.5t-6.5 -33.5v-532q0 -25 8 -33t29 -8h34q9 0 12 -2.5t3 -10.5v-26q0 -15 -15 -15h-212q-10 0 -13 3t-3 11v26
q0 8 3 11t13 3h33q21 0 28.5 8t7.5 33z" />
    <glyph glyph-name="J" unicode="J" horiz-adv-x="512" 
d="M25 142q0 24 16 39t40 15t39 -14t15 -39q0 -44 -43 -53q27 -45 103 -45q66 0 98.5 47.5t32.5 127.5v407q0 25 -7 33t-28 8h-35q-10 0 -12.5 2.5t-2.5 12.5v23q0 10 3.5 13t11.5 3h212q9 0 12 -3t3 -13v-23q0 -10 -2.5 -12.5t-12.5 -2.5h-36q-21 0 -27.5 -7.5t-6.5 -33.5
v-414q0 -103 -48.5 -162.5t-144.5 -59.5q-94 0 -137 42.5t-43 108.5z" />
    <glyph glyph-name="K" unicode="K" horiz-adv-x="686" 
d="M126 627q0 25 -7 33t-28 8h-35q-10 0 -12.5 2.5t-2.5 12.5v23q0 10 3 13t12 3h212q9 0 12 -3t3 -13v-23q0 -10 -2.5 -12.5t-12.5 -2.5h-36q-21 0 -27.5 -7.5t-6.5 -33.5v-284l270 296q11 11 14 17.5t-0.5 9t-13.5 2.5h-28q-15 0 -15 21v17q0 10 3.5 13t11.5 3h200
q9 0 11.5 -3t2.5 -13v-21q0 -17 -14 -17h-43q-30 0 -68 -41l-190 -206q23 0 43.5 -6t36.5 -14.5t32 -26t26.5 -31t23.5 -40t20 -42t18 -48t15.5 -47.5t15.5 -50q5 -15 7 -23q9 -26 20 -35.5t29 -9.5q16 0 41 14q7 4 11.5 1t4.5 -11v-25q0 -15 -18 -25q-23 -13 -54 -13
q-22 0 -37.5 4t-34 22.5t-31.5 53.5q-7 20 -22 70t-27.5 83.5t-32.5 72t-49 59t-66 20.5h-16l-97 -106v-173q0 -25 8 -33t29 -8h34q9 0 12 -2.5t3 -10.5v-26q0 -15 -15 -15h-212q-10 0 -13 3t-3 11v26q0 8 3 11t13 3h33q21 0 28.5 8t7.5 33v532z" />
    <glyph glyph-name="L" unicode="L" horiz-adv-x="583" 
d="M57 0q-8 0 -11.5 3t-3.5 12v22q0 17 14 17q45 0 58 7t13 34v532q0 25 -7 33t-28 8h-35q-10 0 -12.5 2.5t-2.5 12.5v23q0 10 3 13t12 3h212q9 0 12 -3t3 -13v-23q0 -10 -2.5 -12.5t-12.5 -2.5h-36q-19 0 -26 -6t-8 -26v-582h233q32 0 41 6.5t14 32.5l9 90q3 14 20 14h23
q17 0 14 -16l-13 -157q-1 -16 -7 -20t-21 -4h-455z" />
    <glyph glyph-name="M" unicode="M" horiz-adv-x="924" 
d="M233 701l241 -643l227 649q6 15 32 15h135q16 0 16 -15v-21q0 -16 -16 -17l-48 -1q-26 0 -26 -32v-548q0 -21 5.5 -27.5t22.5 -6.5h47q10 0 13.5 -4t3.5 -14v-21q0 -9 -3.5 -12t-13.5 -3h-219q-9 0 -12.5 3t-3.5 12v21q0 10 3 14t13 4h43q19 0 26 7t7 27v513l-204 -588
q-4 -10 -8.5 -12.5t-19.5 -2.5h-52q-20 0 -26 14l-225 596v-530q0 -15 8 -19.5t32 -4.5h36q10 0 13 -2.5t3 -11.5v-25q0 -15 -16 -15h-214q-9 0 -12.5 2.5t-3.5 11.5v25q0 10 3 12.5t13 2.5h35q23 0 32 4.5t9 19.5v556q-1 16 -9.5 23.5t-17 9t-25.5 2.5h-19q-16 0 -16 15v23
q0 15 16 15h149q8 0 13.5 -3.5t7.5 -6.5t5 -11z" />
    <glyph glyph-name="N" unicode="N" horiz-adv-x="763" 
d="M644 8q0 -16 -18 -16h-18q-18 0 -28 13l-393 589v-514q0 -16 8 -21t30 -5h32q10 0 12.5 -2t2.5 -12v-25q0 -10 -3 -12.5t-12 -2.5h-202q-9 0 -12 3t-3 12v24q0 10 2.5 12.5t12.5 2.5h31q22 0 30.5 5.5t8.5 20.5v540q-1 29 -13 38.5t-41 9.5h-5q-14 0 -18.5 4t-4.5 14v19
q0 17 23 17h102q20 0 29 -15l385 -584v519q0 16 -8 21t-31 5h-31q-10 0 -13 2.5t-3 11.5v24q0 10 3.5 13t12.5 3h201q9 0 12.5 -3t3.5 -12v-24q0 -10 -3 -12.5t-13 -2.5h-30q-22 0 -30.5 -5.5t-8.5 -20.5v-634z" />
    <glyph glyph-name="O" unicode="O" horiz-adv-x="779" 
d="M45 357q0 55 9.5 105.5t34.5 101t63 87t99 59.5t138 23q92 0 161 -31t108 -85t57.5 -117.5t18.5 -136.5q0 -55 -9.5 -105.5t-34.5 -101t-62.5 -87t-98.5 -59.5t-139 -23q-93 0 -162 31t-107.5 85t-57 117.5t-18.5 136.5zM388 677q-75 0 -129.5 -28.5t-83.5 -76.5
t-42 -100.5t-13 -110.5q0 -45 7.5 -87t26.5 -85t49 -74.5t78.5 -51.5t110.5 -20q77 0 132 29.5t83 79t40 100t12 106.5q0 44 -7 85.5t-26.5 85t-48.5 75.5t-78 52.5t-111 20.5z" />
    <glyph glyph-name="P" unicode="P" horiz-adv-x="605" 
d="M310 272h-111v-177q0 -25 8 -33t30 -8h33q10 0 12.5 -2.5t2.5 -10.5v-26q0 -15 -15 -15h-212q-9 0 -12 3t-3 11v26q0 8 2.5 11t12.5 3h33q21 0 28.5 8t7.5 33v539q0 32 -27 33h-43q-15 0 -15 15v25q0 9 3.5 12t14.5 3h215q149 0 221 -51t72 -171q0 -113 -69 -170.5
t-189 -57.5zM199 326h92q202 0 202 174q0 91 -50.5 129.5t-158.5 38.5h-85v-342z" />
    <glyph glyph-name="Q" unicode="Q" horiz-adv-x="779" 
d="M45 357q0 55 9.5 105.5t34.5 101t63 87t99 59.5t138 23q92 0 161 -31t108 -85t57.5 -117.5t18.5 -136.5q0 -74 -17 -139t-64 -125t-119 -88q35 -14 65 -48q4 -4 15 -16.5t15.5 -17.5t14 -14t15.5 -12.5t14 -7t15 -3.5q20 0 49 12q16 8 16 -9v-30q0 -11 -17 -19
q-30 -14 -59 -14q-20 0 -36 3.5t-31 14.5t-23.5 18.5t-27 27.5t-28.5 30q-34 32 -65 44t-83 17q-91 1 -158.5 32.5t-105.5 85t-56 116.5t-18 136zM388 677q-75 0 -129.5 -28.5t-83.5 -76.5t-42 -100.5t-13 -110.5q0 -45 7.5 -87t26.5 -85t49 -74.5t78.5 -51.5t110.5 -20
q77 0 132 29.5t83 79t40 100t12 106.5q0 44 -7 85.5t-26.5 85t-48.5 75.5t-78 52.5t-111 20.5z" />
    <glyph glyph-name="R" unicode="R" horiz-adv-x="622" 
d="M271 292h-73v-197q0 -25 8 -33t29 -8h34q9 0 12 -2.5t3 -10.5v-26q0 -15 -15 -15h-212q-10 0 -13 3t-3 11v26q0 8 3 11t13 3h33q21 0 28.5 8t7.5 33v539q0 32 -27 33h-44q-14 0 -14 15v25q0 9 3.5 12t13.5 3h216q131 0 194.5 -51t63.5 -161q0 -166 -144 -207
q33 -21 58.5 -67.5t64.5 -146.5q10 -25 20.5 -33.5t28.5 -8.5q19 0 42 12q16 9 16 -6v-26q0 -14 -18 -24q-26 -14 -58 -14q-21 0 -35.5 4t-32.5 22.5t-32 53.5q-4 9 -16.5 43t-20 51t-23 46t-30 44t-36 27t-45.5 12zM198 346h90q85 0 126.5 39.5t41.5 124.5q0 82 -44 120
t-131 38h-83v-322z" />
    <glyph glyph-name="S" unicode="S" horiz-adv-x="568" 
d="M404 571q0 39 35 51q-43 55 -152 55q-153 0 -153 -114q0 -42 21.5 -70t55.5 -43.5t75.5 -28t83 -28t75.5 -38t55.5 -65t21.5 -101.5q0 -202 -250 -202q-232 0 -234 157q0 26 15.5 42t40.5 16q53 0 53 -54q0 -40 -38 -51q41 -55 164 -55q177 0 177 140q0 43 -16.5 74
t-44 48t-62.5 31t-71 23t-71 25t-62.5 35t-44 54t-16.5 82q0 178 225 178q112 0 169.5 -42.5t57.5 -117.5q0 -25 -16.5 -39.5t-40.5 -14.5q-22 0 -37.5 14.5t-15.5 38.5z" />
    <glyph glyph-name="T" unicode="T" horiz-adv-x="596" 
d="M37 697q1 17 5.5 21t18.5 4h474q14 0 18.5 -4t5.5 -21l8 -123q1 -10 -2 -13.5t-14 -3.5h-23q-11 0 -15 2.5t-5 12.5l-5 69q-1 17 -9.5 21t-39.5 4h-120v-579q1 -20 9 -26.5t28 -6.5h35q9 0 11.5 -2.5t2.5 -10.5v-26q0 -15 -14 -15h-213q-10 0 -13 3t-3 11v26q0 8 3 11
t13 3h33q19 0 27 7t9 27v578h-128q-25 0 -32.5 -4t-8.5 -21l-6 -69q-1 -10 -4 -12.5t-15 -2.5h-23q-11 0 -14 3t-2 14z" />
    <glyph glyph-name="U" unicode="U" horiz-adv-x="748" 
d="M376 55q196 0 196 217v357q0 24 -7 31.5t-28 7.5h-35q-10 0 -12.5 2.5t-2.5 12.5v23q0 10 3.5 13t11.5 3h204q9 0 12.5 -3t3.5 -13v-23q0 -10 -2.5 -12.5t-13.5 -2.5h-36q-20 0 -26.5 -7t-6.5 -32v-362q0 -274 -262 -274q-264 0 -264 270v364q0 25 -6.5 33t-27.5 8h-35
q-10 0 -13 2.5t-3 12.5v23q0 10 3.5 13t12.5 3h211q9 0 12.5 -3t3.5 -13v-23q0 -10 -2.5 -12.5t-13.5 -2.5h-36q-21 0 -27 -7.5t-6 -33.5v-357q0 -109 47.5 -162t144.5 -53z" />
    <glyph glyph-name="V" unicode="V" horiz-adv-x="662" 
d="M162 622l176 -556l177 562q7 25 1.5 32t-30.5 8h-17q-12 1 -15.5 4.5t-3.5 13.5v20q0 10 3.5 13t14.5 3h175q14 0 14 -15v-22q0 -10 -3 -13.5t-12 -3.5l-31 -1q-14 0 -20.5 -7t-15.5 -36l-196 -617q-4 -10 -7.5 -12.5t-16.5 -2.5h-49q-15 0 -21 14l-197 614
q-12 32 -19.5 39.5t-30.5 7.5l-21 1q-12 0 -15.5 2.5t-3.5 12.5v23q0 10 3.5 13t15.5 3h189q12 0 15.5 -2.5t3.5 -12.5v-23q0 -9 -3.5 -11.5t-16.5 -3.5h-16q-33 -1 -33 -18q0 -9 6 -29z" />
    <glyph glyph-name="W" unicode="W" horiz-adv-x="996" 
d="M168 622l148 -551l144 626q4 17 6.5 21t10.5 4h53q8 0 10.5 -4t7.5 -22l160 -604l137 528q8 33 -0.5 40.5t-53.5 7.5q-16 0 -16 14v27q0 9 2.5 11t13.5 2h185q9 0 12 -2.5t3 -11.5v-25q0 -15 -15 -15q-41 0 -51.5 -8t-21.5 -46l-162 -603q-3 -12 -7.5 -15t-16.5 -3h-40
q-11 0 -15.5 4t-7.5 14l-156 598l-138 -598q-3 -12 -7 -15.5t-16 -3.5h-56q-17 0 -22 19l-169 609q-10 35 -20 41.5t-50 6.5q-12 0 -15.5 3.5t-3.5 13.5v24q0 8 2.5 10.5t10.5 2.5h208q9 0 11.5 -2.5t2.5 -10.5v-28q0 -13 -12 -13q-39 0 -50.5 -2.5t-11.5 -14.5q0 -9 6 -29z
" />
    <glyph glyph-name="X" unicode="X" horiz-adv-x="633" 
d="M183 648l136 -211l131 205q9 17 7 21.5t-17 4.5h-26q-14 0 -14 14v26q0 14 14 14h178q13 0 13 -15v-24q0 -15 -13 -15h-25q-17 0 -27 -6t-25 -28l-160 -253l182 -280q20 -29 31 -37.5t26 -8.5h22q12 0 15 -4t3 -12v-22q0 -10 -3 -13.5t-14 -3.5h-179q-12 0 -15.5 3.5
t-3.5 13.5v20q0 6 1 9t5 5.5t13 2.5h25q7 0 9.5 1t1 7.5t-10.5 20.5l-150 232l-147 -234q-10 -19 -8 -23t18 -4h30q14 0 14 -16v-23q0 -15 -14 -15h-186q-14 0 -14 15v23q0 16 14 16h30q15 0 25 6.5t26 31.5l176 278l-164 256q-17 26 -28.5 33.5t-32.5 7.5h-22q-14 0 -14 14
v28q0 13 14 13h186q8 0 11 -2t3 -10v-28q0 -14 -15 -14h-29q-10 0 -10.5 -4.5t7.5 -15.5z" />
    <glyph glyph-name="Y" unicode="Y" horiz-adv-x="624" 
d="M276 291l-180 335q-14 26 -23.5 33.5t-25.5 7.5h-27q-10 0 -13.5 3.5t-3.5 13.5v23q0 9 3 12t12 3h193q9 0 12.5 -3t3.5 -12v-22q0 -10 -3 -13.5t-13 -3.5h-26q-18 0 -21 -5t7 -25l143 -283l154 284q9 20 6 24.5t-19 4.5h-25q-16 0 -16 18v22q0 9 3.5 11.5t12.5 2.5h176
q14 0 14 -15v-22q0 -10 -3 -13.5t-13 -3.5h-28q-14 0 -20.5 -5.5t-21.5 -31.5l-185 -324v-220q1 -20 9 -26.5t28 -6.5h33q10 0 12.5 -2.5t2.5 -10.5v-26q0 -15 -15 -15h-212q-9 0 -12 3t-3 11v26q0 8 3 11t12 3h33q19 0 27 7t9 27v203z" />
    <glyph glyph-name="Z" unicode="Z" horiz-adv-x="586" 
d="M74 722h444q16 0 16 -22v-18q0 -12 -12 -31l-395 -597h305q26 0 35.5 15t28.5 89q3 11 6.5 15t12.5 4h25q13 0 10 -20l-17 -142q-1 -15 -19 -15h-462q-11 1 -11 21v22q0 14 4 19l399 606h-275q-38 0 -48.5 -17t-19.5 -93q-3 -19 -16 -19h-29q-12 0 -10 22l9 145
q1 16 19 16z" />
    <glyph glyph-name="bracketleft" unicode="[" horiz-adv-x="274" 
d="M115 747h100q28 0 28 -15v-19q0 -13 -5 -16.5t-21 -3.5h-61v-798h61q15 0 20.5 -4.5t5.5 -15.5v-18q0 -16 -28 -16h-100q-16 0 -22.5 7t-6.5 26v840q0 19 6.5 26t22.5 7z" />
    <glyph glyph-name="backslash" unicode="\" horiz-adv-x="413" 
d="M105 695l273 -654q9 -20 9 -27q0 -25 -32 -25q-20 0 -28 6.5t-17 28.5l-278 665q-5 11 -5 24q0 17 28 17q25 0 33 -6t17 -29z" />
    <glyph glyph-name="bracketright" unicode="]" horiz-adv-x="275" 
d="M60 747h100q16 0 22.5 -7t6.5 -26v-840q0 -19 -6.5 -26t-22.5 -7h-100q-28 0 -28 16v18q0 11 5.5 15.5t20.5 4.5h61v798h-61q-16 0 -21 3.5t-5 16.5v19q0 15 28 15z" />
    <glyph glyph-name="asciicircum" unicode="^" horiz-adv-x="550" 
d="M274 678l-159 -240q-12 -18 -19 -22.5t-29 -4.5q-41 0 -21 32l186 287q10 21 42 21v-73zM274 678l160 -240q11 -18 18.5 -22.5t28.5 -4.5q41 0 21 32l-186 287q-10 21 -42 21v-73z" />
    <glyph glyph-name="underscore" unicode="_" horiz-adv-x="841" 
d="M761 -74h-684q-15 0 -15 30q0 16 7.5 21t24.5 5h671q15 0 15 -29q0 -27 -19 -27z" />
    <glyph glyph-name="grave" unicode="`" horiz-adv-x="273" 
d="M209 656l-6 -13q-5 -10 -25 -3l-143 52q-22 8 -13 22l19 31q7 10 27 -1l134 -68q14 -7 7 -20z" />
    <glyph glyph-name="a" unicode="a" horiz-adv-x="543" 
d="M65 404q0 75 47.5 107.5t139.5 32.5q102 0 149.5 -44t47.5 -158v-249q0 -42 31 -42q9 0 36 5q8 3 11 1.5t3 -9.5v-27q0 -13 -12 -18q-29 -8 -57 -8q-80 0 -82 82q-57 -83 -184 -83q-156 0 -156 137q0 94 72 134t215 40h53v38q0 83 -29 114t-98 31q-85 0 -119 -38
q26 -12 26 -43q0 -22 -14.5 -36t-34.5 -14q-19 0 -32 13t-13 34zM109 133q0 -86 97 -86q75 0 124 45.5t49 123.5v37h-53q-112 0 -164.5 -27.5t-52.5 -92.5z" />
    <glyph glyph-name="b" unicode="b" horiz-adv-x="566" 
d="M78 40v630q0 17 -5.5 24t-20.5 7l-47 1q-9 1 -11.5 4.5t-2.5 12.5v20q0 10 2.5 13t11.5 4l120 7q14 1 18.5 -5.5t4.5 -22.5v-311q49 119 173 119q97 0 148.5 -67.5t51.5 -201.5q0 -287 -243 -287q-116 0 -187 32q-13 5 -13 21zM306 486q-141 0 -158 -218v-204
q58 -19 124 -19q175 0 175 227q0 214 -141 214z" />
    <glyph glyph-name="c" unicode="c" horiz-adv-x="521" 
d="M117 262q0 -210 195 -210q77 0 150 35q14 6 18.5 4.5t4.5 -13.5v-27q0 -14 -12 -21q-21 -13 -67 -25.5t-103 -12.5q-132 0 -196 70.5t-64 195.5q0 132 67.5 209t187.5 77q90 0 135.5 -41t45.5 -94q0 -23 -14.5 -37.5t-36.5 -14.5q-21 0 -35 14t-14 36q0 34 27 49
q-34 31 -107 31q-93 0 -137.5 -63t-44.5 -162z" />
    <glyph glyph-name="d" unicode="d" horiz-adv-x="589" 
d="M488 735v-642q0 -42 31 -42q7 0 37 5q14 5 14 -8v-27q0 -13 -13 -18q-27 -8 -57 -8q-82 0 -82 88v5q-54 -101 -177 -101q-93 0 -145 65t-52 190q0 137 61.5 219t176.5 82q70 0 136 -44v171q0 31 -26 31l-47 1q-9 1 -11.5 4.5t-2.5 12.5v20q0 10 2.5 13t11.5 4l120 7
q13 1 18 -5.5t5 -22.5zM257 44q142 0 161 216v180q-50 46 -128 46q-89 0 -131.5 -70t-42.5 -171q0 -88 34.5 -144.5t106.5 -56.5z" />
    <glyph glyph-name="e" unicode="e" horiz-adv-x="524" 
d="M272 544q95 0 145.5 -44t50.5 -126q0 -79 -49.5 -123.5t-151.5 -44.5q-81 0 -150 26q5 -98 48 -141t124 -43q71 0 130 25q11 4 21.5 9t15.5 7t8 2q7 0 7 -10v-28q0 -15 -19 -26q-70 -35 -168 -35q-123 0 -182 70.5t-59 198.5q0 131 59 207t170 76zM272 490
q-73 0 -112 -53.5t-44 -152.5q73 -25 146 -25q141 0 141 117q0 114 -131 114z" />
    <glyph glyph-name="f" unicode="f" horiz-adv-x="354" 
d="M45 524h74v55q0 204 164 204q62 0 95.5 -30t35.5 -79v-4q0 -21 -15 -35.5t-34 -14.5t-32 13t-13 35q0 31 26 45q-20 17 -58 17q-99 0 -99 -144v-62h131q15 0 15 -12v-28q0 -14 -15 -14h-131v-382q0 -21 8 -27.5t30 -6.5h36q9 0 12 -2.5t3 -10.5v-26q0 -9 -3 -12t-12 -3
h-218q-16 0 -16 15v26q0 8 3 10.5t13 2.5h36q22 0 30 6.5t8 27.5v382h-72q-10 0 -13 2.5t-3 11.5v24q0 16 14 16z" />
    <glyph glyph-name="g" unicode="g" horiz-adv-x="589" 
d="M240 -193q85 0 132 44t47 135v101q-53 -100 -176 -100q-93 0 -145.5 65t-52.5 190q0 137 62 219t177 82q71 0 135 -44v8q0 15 5 21.5t19 6.5l115 -8q16 -1 16 -14v-27q0 -10 -15 -13h-43q-16 -1 -21 -7.5t-6 -24.5v-443q0 -126 -66 -186.5t-182 -60.5q-80 0 -134.5 32
t-54.5 104q0 21 14.5 35.5t33.5 14.5t32.5 -13t13.5 -35q0 -30 -25 -44q34 -38 119 -38zM258 44q142 0 161 216v180q-50 46 -128 46q-60 0 -101 -36.5t-57 -88.5t-16 -116q0 -88 34.5 -144.5t106.5 -56.5z" />
    <glyph glyph-name="h" unicode="h" 
d="M440 356q0 127 -115 127q-73 0 -111 -54.5t-40 -154.5v-186q0 -21 8 -27.5t30 -6.5h36q10 0 13 -2.5t3 -10.5v-26q0 -15 -16 -15h-218q-16 0 -16 15v26q0 8 3 10.5t13 2.5h36q22 0 30 6.5t8 27.5v582q0 31 -26 32h-47q-9 1 -11.5 4.5t-2.5 12.5v20q0 11 2.5 13.5
t11.5 3.5l119 7q14 1 19 -5.5t5 -22.5v-293q44 102 171 102q76 0 120.5 -44.5t44.5 -130.5v-276q0 -42 31 -42q7 0 37 5q14 5 14 -8v-27q0 -13 -13 -18q-27 -8 -57 -8q-82 0 -82 88v273z" />
    <glyph glyph-name="i" unicode="i" horiz-adv-x="298" 
d="M191 505v-417q0 -21 8 -27.5t31 -6.5h36q15 0 15 -13v-26q0 -15 -15 -15h-219q-15 0 -15 15v26q0 8 3 10.5t12 2.5h36q22 0 30 6.5t8 27.5v352q0 17 -5.5 24t-20.5 8h-46q-10 1 -12.5 4.5t-2.5 12.5v20q0 11 2.5 13.5t12.5 3.5l119 7q14 1 18.5 -5.5t4.5 -22.5zM99 702
q0 27 16 43.5t40 16.5q21 0 36 -16t15 -40q0 -25 -17 -40.5t-41 -15.5q-21 0 -35 14t-14 38z" />
    <glyph glyph-name="j" unicode="j" horiz-adv-x="260" 
d="M-93 -155q0 22 13.5 36.5t33.5 14.5t33.5 -13t13.5 -35q0 -27 -22 -41q18 -9 40 -9q88 0 88 118v526q0 17 -5.5 24t-20.5 8h-47q-9 1 -11.5 4.5t-2.5 12.5v20q0 11 2.5 13.5t11.5 3.5l120 7q13 1 18 -5.5t5 -22.5v-578q0 -86 -37.5 -133.5t-113.5 -47.5q-56 0 -87.5 28
t-31.5 69zM84 702q0 27 16 43.5t40 16.5q21 0 36 -16t15 -40q0 -25 -17 -40.5t-41 -15.5q-21 0 -35 14t-14 38z" />
    <glyph glyph-name="k" unicode="k" horiz-adv-x="563" 
d="M429 436l-179 -160l164 -157q8 -8 19 -18.5t16 -15.5t12 -11.5t11 -9t9.5 -5.5t10 -4t10.5 -1h36q12 0 12 -16v-23q0 -9 -3.5 -12t-12.5 -3h-210q-8 0 -11 3t-3 12v23q0 16 14 16h29q17 0 18.5 5.5t-14.5 20.5l-185 175v-167q0 -21 7 -27.5t27 -6.5h35q15 0 15 -13v-26
q0 -15 -15 -15h-211q-16 0 -16 15v26q0 8 3 10.5t13 2.5h35q22 0 30 6.5t8 27.5v582q0 31 -27 31l-45 1q-9 1 -11.5 4.5t-2.5 12.5v20q0 10 2.5 13t11.5 4l118 7q14 1 18.5 -5.5t4.5 -22.5v-459l187 167q32 29 -6 29h-36q-12 0 -12 14v27q0 8 3.5 10.5t12.5 2.5h206
q9 0 12 -2.5t3 -12.5v-23q0 -16 -13 -16h-26q-17 0 -28.5 -4t-18 -9t-27.5 -23z" />
    <glyph glyph-name="l" unicode="l" horiz-adv-x="285" 
d="M177 88q0 -21 8 -27.5t31 -6.5h36q15 0 15 -13v-26q0 -15 -15 -15h-219q-15 0 -15 15v26q0 8 3 10.5t12 2.5h36q22 0 30 6.5t8 27.5v582q0 17 -5.5 24t-20.5 7l-46 1q-10 1 -12.5 4.5t-2.5 12.5v20q0 10 3 13t12 4l119 7q14 1 18.5 -5.5t4.5 -22.5v-647z" />
    <glyph glyph-name="m" unicode="m" horiz-adv-x="919" 
d="M329 481q-143 0 -143 -187v-206q0 -21 6.5 -27.5t24.5 -6.5h33q9 0 12 -2.5t3 -10.5v-26q0 -15 -15 -15h-203q-16 0 -16 15v26q0 8 3 10.5t13 2.5h32q21 0 29 7t8 27v354q0 22 -12 26t-61 4q-14 0 -14 14v25q0 15 15 16l118 7q14 0 19 -6.5t5 -21.5v-53q43 91 160 91
q114 0 147 -99q45 99 172 99q73 0 116 -44.5t43 -130.5v-276q0 -42 31 -42q9 0 36 5q15 5 15 -8v-27q0 -13 -13 -18q-27 -8 -57 -8q-82 0 -82 88v273q0 125 -106 125q-140 0 -143 -178v-215q0 -21 7.5 -27.5t29.5 -6.5h33q9 0 11.5 -2.5t2.5 -10.5v-26q0 -15 -14 -15h-204
q-16 0 -16 15v26q0 8 3 10.5t13 2.5h32q19 0 25.5 7t6.5 27v268q0 125 -106 125z" />
    <glyph glyph-name="n" unicode="n" horiz-adv-x="620" 
d="M118 442q0 22 -11.5 26t-60.5 4q-15 0 -15 14v25q0 15 16 16l116 7q13 0 18 -6.5t5 -21.5v-71q20 54 66 81.5t107 27.5q76 0 120.5 -44.5t44.5 -130.5v-276q0 -42 32 -42q8 0 36 5q15 4 15 -8v-27q0 -13 -13 -18q-27 -8 -58 -8q-82 0 -82 88v273q0 127 -114 127
q-75 0 -113.5 -57t-38.5 -162v-176q0 -21 8 -27.5t31 -6.5h35q10 0 13 -2.5t3 -10.5v-26q0 -15 -16 -15h-218q-15 0 -15 15v26q0 13 15 13h37q22 0 29.5 6.5t7.5 27.5v354z" />
    <glyph glyph-name="o" unicode="o" horiz-adv-x="559" 
d="M43 266q0 126 57.5 202t178.5 76t179 -76t58 -202t-58 -202.5t-179 -76.5t-178.5 76.5t-57.5 202.5zM279 490q-163 0 -163 -224q0 -225 163 -225q164 0 164 225q0 224 -164 224z" />
    <glyph glyph-name="p" unicode="p" horiz-adv-x="599" 
d="M172 -161q0 -21 8 -27.5t30 -6.5h36q9 0 12 -2.5t3 -10.5v-26q0 -9 -3 -12t-12 -3h-218q-16 0 -16 15v26q0 8 3 10.5t13 2.5h36q22 0 30 6.5t8 27.5v538h1v8h-1v57q0 22 -12 26t-60 4q-15 0 -15 14v25q0 15 15 16l118 7q14 0 19 -6.5t5 -21.5v-81q49 118 184 118
q197 0 197 -267q0 -143 -58.5 -216t-171.5 -73q-82 0 -151 37v-185zM341 486q-149 0 -168 -216v-182q23 -19 62.5 -31.5t81.5 -12.5q164 0 164 231q0 211 -140 211z" />
    <glyph glyph-name="q" unicode="q" horiz-adv-x="588" 
d="M488 -161q0 -21 8.5 -27.5t34.5 -6.5h29q15 0 15 -15v-22q0 -11 -3 -14t-12 -3h-228q-9 0 -12.5 3t-3.5 14v22q0 15 16 15h30q33 0 44.5 6.5t11.5 27.5v248q-53 -100 -176 -100q-93 0 -145.5 65t-52.5 190q0 137 62 219t177 82q71 0 135 -44v8q0 15 5 21.5t19 6.5l115 -8
q16 -1 16 -14v-27q0 -10 -15 -13h-43q-16 -1 -21 -7.5t-6 -24.5v-602zM257 44q142 0 161 216v180q-48 46 -128 46q-60 0 -101 -36.5t-57 -88.5t-16 -116q0 -88 34.5 -144.5t106.5 -56.5z" />
    <glyph glyph-name="r" unicode="r" horiz-adv-x="471" 
d="M366 454q0 19 11 32q-14 4 -25 4q-50 0 -89 -42.5t-57 -98.5t-18 -109v-152q0 -21 8 -27.5t31 -6.5h55q10 0 13 -2.5t3 -10.5v-28q0 -13 -15 -13h-239q-15 0 -15 15v26q0 8 3 10.5t12 2.5h35q22 0 30.5 7t8.5 27v354q0 22 -11.5 26t-60.5 4q-15 0 -15 14v25q0 15 16 16
l118 7q13 0 18 -6.5t5 -21.5v-110q6 23 17.5 45.5t30.5 47t50.5 40t70.5 15.5q50 0 76 -24t26 -64q0 -21 -14.5 -35.5t-33.5 -14.5q-20 0 -32.5 13t-12.5 35z" />
    <glyph glyph-name="s" unicode="s" horiz-adv-x="478" 
d="M427 419q0 -20 -13.5 -34t-32.5 -14q-20 0 -32.5 12.5t-12.5 33.5q0 27 20 42q-39 34 -111 34q-60 0 -87 -23.5t-27 -61.5q0 -42 31 -66t76 -35.5t89.5 -25t75.5 -47.5t31 -90q0 -77 -52 -117t-145 -40q-86 0 -140.5 33t-54.5 93q0 22 13 36t34 14q20 0 32.5 -13
t12.5 -34q0 -26 -21 -41q40 -37 121 -37q63 0 98.5 24.5t35.5 73.5q0 41 -31 64.5t-76 34.5t-89.5 25t-75.5 48.5t-31 92.5q0 143 179 143q90 0 136.5 -33t46.5 -92z" />
    <glyph glyph-name="t" unicode="t" horiz-adv-x="342" 
d="M30 526h67l20 122q2 16 28 16q15 0 18.5 -3t3.5 -13v-122h130q16 0 16 -12v-31q0 -13 -15 -13h-131v-314q0 -64 20 -84.5t61 -20.5t67 13q16 7 16 -9v-29q0 -14 -14 -19q-31 -13 -82 -13q-65 0 -101.5 31t-36.5 114v331h-65q-10 0 -13 2.5t-3 11.5v26q0 16 14 16z" />
    <glyph glyph-name="u" unicode="u" 
d="M277 49q77 0 117.5 50t40.5 141v202q0 22 -11.5 26t-60.5 4q-15 0 -15 14v25q0 15 16 16l118 7q13 0 18 -6.5t5 -21.5v-413q0 -42 31 -42q7 0 37 5q14 5 14 -8v-27q0 -13 -13 -18q-27 -8 -57 -8q-74 0 -81 72q-57 -77 -175 -77q-84 0 -124 42t-40 141v269q0 22 -12 26
t-61 4q-14 0 -14 14v25q0 15 15 16l118 7q14 0 19 -6.5t5 -21.5v-336q0 -121 110 -121z" />
    <glyph glyph-name="v" unicode="v" horiz-adv-x="570" 
d="M162 439l125 -380l128 386q5 16 -3 21.5t-38 6.5h-12q-14 0 -14 13v25q0 9 2.5 12t10.5 3h186q8 0 10.5 -2.5t2.5 -9.5v-25q0 -10 -2.5 -13t-11.5 -4h-20q-23 0 -31 -4.5t-16 -23.5l-152 -437q-3 -9 -7 -12t-15 -3h-47q-15 0 -20 14l-152 435q-8 20 -15.5 24.5t-31.5 6.5
l-16 1q-14 1 -14 14v27q0 12 14 12h189q14 0 14 -13v-26q0 -14 -16 -14h-14q-27 -1 -33.5 -8t-0.5 -26z" />
    <glyph glyph-name="w" unicode="w" horiz-adv-x="885" 
d="M166 440l113 -387l125 446q5 19 8.5 23t13.5 4h43q9 0 12 -5t9 -24l130 -442l104 368q9 35 7.5 41t-21.5 8l-37 1q-9 1 -11.5 3.5t-2.5 9.5v26q0 9 2.5 11.5t11.5 2.5h194q13 0 13 -11v-26q0 -16 -13 -17h-36q-19 -1 -26 -9t-18 -48l-127 -408q-3 -10 -8 -12.5t-24 -2.5
h-42q-16 0 -21 14l-127 418l-121 -417q-2 -9 -6.5 -12t-16.5 -3h-49q-14 0 -19 14l-136 432q-7 23 -17 28t-43 6q-11 1 -14.5 4t-3.5 11v26q0 13 14 13h194q12 0 12 -13v-26q0 -14 -11 -14q-48 -1 -55 -5.5t0 -27.5z" />
    <glyph glyph-name="x" unicode="x" horiz-adv-x="550" 
d="M129 106l114 156l-132 181q-16 20 -25 25t-30 5h-22q-13 1 -13 14v26q0 13 13 13h190q8 0 11 -2.5t3 -11.5v-26q0 -13 -12 -13h-20q-27 0 -29 -4.5t13 -26.5l91 -127l95 130q14 20 12 24t-24 4h-15q-14 0 -14 13v26q0 14 14 14h168q8 0 10 -2.5t2 -11.5v-27
q0 -12 -13 -12l-23 -1q-21 0 -33.5 -9.5t-42.5 -51.5l-103 -142l113 -155q26 -39 38 -49t30 -11h30q13 0 13 -13v-27q0 -9 -3 -11.5t-12 -2.5h-179q-8 0 -11.5 3t-3.5 12v22q0 9 3.5 12.5t11.5 3.5q34 0 39 5.5t-9 24.5l-98 133l-93 -129q-16 -25 -14.5 -29t22.5 -4h23
q13 -1 13 -12v-28q0 -14 -13 -14h-186q-9 0 -12 2.5t-3 11.5v24q0 15 13 16h31q19 0 34 10.5t38 41.5z" />
    <glyph glyph-name="y" unicode="y" horiz-adv-x="585" 
d="M23 -159q0 22 13 36t34 14q19 0 32.5 -13t13.5 -35q0 -28 -24 -42q16 -8 36 -8q37 0 64 24.5t51 85.5l24 71l-172 460q-11 26 -17.5 32t-28.5 6h-24q-15 0 -15 15v25q0 9 3 11.5t12 2.5h199q9 0 12 -2.5t3 -12.5v-23q0 -15 -15 -15h-32q-22 0 -26 -6.5t4 -28.5l129 -371
l126 370q7 23 2 29t-30 6h-21q-14 0 -14 14v25q0 10 3 12.5t13 2.5h185q10 0 12.5 -3t2.5 -12v-22q0 -16 -15 -16h-26q-21 0 -29.5 -7t-18.5 -33l-188 -540q-29 -82 -68 -112t-100 -30q-47 0 -78.5 24.5t-31.5 65.5z" />
    <glyph glyph-name="z" unicode="z" horiz-adv-x="502" 
d="M84 528h345q15 0 15 -14v-16q0 -16 -13 -33l-308 -411h217q33 0 43 14t26 88q3 12 15 12h30q11 0 10 -13l-18 -139q-3 -16 -22 -16h-375q-12 1 -12 14v26q0 14 4 19l311 416h-187q-29 0 -37.5 -12t-20.5 -71q-3 -12 -6 -15.5t-10 -3.5h-31q-12 0 -10 16l13 123
q1 16 21 16z" />
    <glyph glyph-name="braceleft" unicode="{" horiz-adv-x="315" 
d="M30 289v20h77v-1q71 -17 71 -117v-166q0 -94 89 -94q17 0 17 -11v-24q0 -7 -3.5 -9.5t-14.5 -2.5h-10q-73 0 -110.5 32.5t-37.5 109.5v158q0 39 -13 60.5t-52 31.5q-1 0 -3.5 1t-3.5 1.5t-3 2t-2.5 3.5t-0.5 5zM30 309v19q0 3 0.5 5t2.5 3.5t3 2t3.5 1.5t3.5 1
q39 10 52 31.5t13 61.5v158q0 77 37.5 109.5t110.5 32.5h10q11 0 14.5 -2.5t3.5 -9.5v-24q0 -11 -17 -11q-89 0 -89 -94v-166q0 -100 -71 -117v-1h-77z" />
    <glyph glyph-name="bar" unicode="|" horiz-adv-x="242" 
d="M156 -109q0 -19 -18 -20h-34q-18 0 -18 19v831q0 20 19 21h34q17 0 17 -20v-831z" />
    <glyph glyph-name="braceright" unicode="}" horiz-adv-x="315" 
d="M284 289v20h-77v-1q-71 -17 -71 -117v-166q0 -94 -88 -94q-17 0 -17 -11v-24q0 -7 3.5 -9.5t14.5 -2.5h9q74 0 111 32t37 110v158q0 39 13.5 60.5t51.5 31.5q12 8 13 13zM284 328v-19h-77v1q-71 17 -71 117v166q0 94 -88 94q-17 0 -17 11v24q0 7 3.5 9.5t14.5 2.5h9
q74 0 111 -32t37 -110v-158q0 -39 13.5 -61t51.5 -32q12 -8 13 -13z" />
    <glyph glyph-name="asciitilde" unicode="~" horiz-adv-x="438" 
d="M300 294q57 0 60 54q0 9 11 9h35q10 0 10 -15q0 -111 -120 -111q-66 0 -92 47q-8 14 -11.5 19t-16 11.5t-30.5 6.5q-56 0 -59 -53q-1 -10 -12 -10h-33q-7 0 -9.5 2.5t-2.5 12.5q0 52 30.5 81t87.5 29q28 0 48.5 -9t28 -17.5t16.5 -23.5q10 -18 21 -25.5t38 -7.5z" />
    <glyph glyph-name="exclamdown" unicode="&#xa1;" horiz-adv-x="250" 
d="M80 45q0 29 11.5 175.5t11.5 337.5q0 13 22 13q21 0 21 -13q0 -191 11.5 -337.5t11.5 -175.5q0 -55 -44 -55q-45 0 -45 55zM72 677q0 25 17 42t39 17q23 0 38 -15t15 -40t-17 -41t-40 -16q-22 0 -37 14.5t-15 38.5z" />
    <glyph glyph-name="cent" unicode="&#xa2;" horiz-adv-x="530" 
d="M364 433q0 22 13 38q-34 18 -82 19q-88 0 -132 -61t-44 -168q0 -217 189 -217q56 0 96 12q12 3 36.5 12.5t28.5 10.5q11 2 11 -9v-28q0 -10 -3 -14t-15 -9q-54 -26 -125 -31v-47q0 -19 -18 -20h-35q-17 0 -17 19v49q-220 20 -220 273q0 123 56.5 197t163.5 83v59
q0 20 19 21h34q17 0 17 -20v-61q71 -10 119 -58q18 -20 16 -31l-2 -11v-6q0 -24 -16.5 -39.5t-38.5 -15.5t-36.5 14.5t-14.5 38.5z" />
    <glyph glyph-name="sterling" unicode="&#xa3;" horiz-adv-x="605" 
d="M402 563q0 31 26 46q-28 66 -130 66q-69 -1 -109.5 -43.5t-40.5 -127.5q0 -19 2.5 -36.5t10 -37t11.5 -29t16.5 -33.5t14.5 -29h174q11 0 11 -10v-32q0 -11 -12 -11h-152q10 -33 10 -64q0 -53 -21.5 -99t-57.5 -69h265q52 0 65.5 9t20.5 49l8 71q4 14 21 14h19
q17 0 16 -16l-13 -134q-3 -32 -11.5 -39.5t-33.5 -7.5h-439q-12 0 -15.5 2.5t-3.5 12.5v25q0 14 16 14h6q90 42 90 157q0 38 -16 75h-92q-11 0 -11 11v32q0 10 11 10h66q-16 29 -25 47t-17.5 49.5t-8.5 64.5q0 111 59.5 170.5t164.5 61.5q98 0 154.5 -41.5t59.5 -121.5v-5
q0 -26 -16.5 -40t-39.5 -14t-38 14t-15 39z" />
    <glyph glyph-name="currency" unicode="&#xa4;" horiz-adv-x="631" 
d="M318 169q-99 0 -158 53l-46 -47q-14 -12 -28 -1l-24 24q-13 13 2 26l53 53q-27 53 -27 121q0 85 41 142l-54 54q-15 15 -1 27l24 24q11 12 26 -1l55 -56q56 36 137 36q72 0 123 -28l55 56q14 14 27 1l25 -24q12 -14 -2 -26l-51 -51q50 -57 50 -153q0 -81 -38 -140l46 -46
q15 -15 1 -27l-24 -25q-11 -11 -26 2l-46 46q-58 -40 -140 -40zM485 405q0 73 -45.5 120.5t-121.5 47.5t-122.5 -48t-46.5 -121q0 -84 45 -133.5t124 -49.5t123 50t44 134z" />
    <glyph glyph-name="yen" unicode="&#xa5;" horiz-adv-x="712" 
d="M310 259l-182 367q-21 41 -50 41h-28q-14 0 -18.5 3.5t-4.5 13.5v23q0 15 23 15h195q14 0 18.5 -3.5t4.5 -15.5v-15q0 -20 -23 -20h-24q-10 0 -13.5 -1t-8 -7.5t5.5 -21.5l145 -311l173 311q7 15 1.5 22t-15.5 7h-26q-23 0 -23 21v19q0 9 4.5 12t18.5 3h180q23 0 23 -15
v-23q0 -10 -4.5 -13.5t-18.5 -3.5h-31q-21 0 -42 -37l-208 -362v-173q0 -25 8 -33t29 -8h34q9 0 12 -2.5t3 -10.5v-26q0 -15 -15 -15h-212q-10 0 -13 3t-3 11v26q0 8 3 11t13 3h33q19 0 27 7t9 27v171z" />
    <glyph glyph-name="brokenbar" unicode="&#xa6;" horiz-adv-x="245" 
d="M156 722v-331q0 -19 -18 -20h-34q-18 0 -18 19v331q0 20 19 21h34q17 0 17 -20zM156 182v-321q0 -19 -18 -20h-34q-18 0 -18 19v321q0 20 19 21h34q17 0 17 -20z" />
    <glyph glyph-name="section" unicode="&#xa7;" horiz-adv-x="490" 
d="M47 117q0 21 14 35.5t33 14.5t33 -13t14 -35q0 -30 -25 -44q39 -40 112 -40q56 0 91.5 24t35.5 72q0 34 -30.5 54t-73.5 30t-86.5 22.5t-74 42.5t-30.5 79q0 103 94 133q-78 35 -78 109q0 67 46.5 101.5t128.5 34.5q93 0 134 -32t41 -76l-9 -1q-2 -18 -16 -30.5
t-32 -12.5q-20 0 -32.5 13t-12.5 35q0 21 12 33q-41 21 -87 21q-106 0 -106 -79q0 -33 30.5 -52.5t74.5 -30t88 -23.5t74.5 -43t30.5 -79q0 -96 -77 -141q61 -35 61 -100q0 -77 -55.5 -115t-144.5 -38q-76 0 -127 34.5t-51 89.5v7zM371 373q0 44 -58 68q-42 14 -80 14
q-106 0 -106 -88q0 -11 2.5 -20t8.5 -16.5t12 -13.5t17 -11.5t19 -9t23 -8t23 -6.5t25.5 -6.5t25.5 -6.5q33 1 60.5 25.5t27.5 78.5z" />
    <glyph glyph-name="dieresis" unicode="&#xa8;" horiz-adv-x="523" 
d="M43 655q0 23 14.5 38t34.5 15t33.5 -13.5t13.5 -36.5q0 -21 -15 -35.5t-35 -14.5q-21 0 -33.5 13t-12.5 34zM203 655q0 23 14.5 38t35.5 15q20 0 33 -13.5t13 -36.5q0 -21 -15 -35.5t-35 -14.5t-33 13t-13 34z" />
    <glyph glyph-name="copyright" unicode="&#xa9;" horiz-adv-x="837" 
d="M419 -13q-180 0 -276.5 105.5t-96.5 272.5q0 164 99.5 268t274.5 104q174 0 272.5 -104t98.5 -267q0 -168 -96.5 -273.5t-275.5 -105.5zM734 370q0 144 -86 232.5t-228 88.5q-143 0 -230 -89t-87 -233q0 -152 85.5 -244t231.5 -92q144 0 229 92.5t85 244.5zM438 562
q80 0 125 -42l7 -8q10 -13 10 -28q0 -22 -14.5 -36.5t-34.5 -14.5q-19 0 -32 13t-13 34q0 15 8 28q-29 9 -56 9q-69 0 -106.5 -43.5t-37.5 -107.5t37 -102.5t115 -38.5q52 0 104 25q20 9 24 9q11 0 11 -10v-18q0 -15 -15 -22q-56 -29 -133 -29q-97 0 -151 50.5t-54 130.5
q0 88 55.5 144.5t150.5 56.5z" />
    <glyph glyph-name="ordfeminine" unicode="&#xaa;" horiz-adv-x="432" 
d="M64 675q0 6 1 9q9 68 141 68q63 0 94.5 -27.5t31.5 -99.5v-155q2 -22 22 -22q5 0 25 9q6 4 8.5 1t2.5 -13v-18q0 -11 -13 -19q-20 -9 -35 -9q-48 0 -62 47q-34 -47 -110 -47q-59 0 -91 28.5t-32 81.5q0 117 229 117v15q0 32 -19 49.5t-50 17.5q-37 0 -62 -7q6 -11 6 -23
q0 -20 -14 -33t-33 -13q-17 0 -28.5 11.5t-11.5 31.5zM102 508q0 -60 70 -60q49 0 76.5 28t27.5 77v30q-174 0 -174 -75z" />
    <glyph glyph-name="guillemotleft" unicode="&#xab;" horiz-adv-x="743" 
d="M383 67q18 -14 18 -25q0 -15 -20 -15h-33q-12 0 -26 9l-262 190q-19 14 -25.5 24t-6.5 27t6.5 26.5t25.5 24.5l262 190q14 9 26 9h33q20 0 20 -16q0 -10 -18 -24l-292 -210zM683 67q18 -14 18 -25q0 -15 -20 -15h-33q-12 0 -26 9l-262 190q-19 14 -25.5 24t-6.5 27
t6.5 26.5t25.5 24.5l262 190q14 9 26 9h33q20 0 20 -16q0 -10 -18 -24l-292 -210z" />
    <glyph glyph-name="logicalnot" unicode="&#xac;" horiz-adv-x="572" 
d="M86 439h396q23 0 23 -22v-227q0 -8 -5.5 -13.5t-12.5 -5.5h-34q-7 0 -13 5.5t-6 13.5v182h-348q-26 0 -26 23v22q0 22 26 22z" />
    <glyph glyph-name="registered" unicode="&#xae;" horiz-adv-x="837" 
d="M419 -13q-180 0 -276.5 105.5t-96.5 272.5q0 164 99.5 268t274.5 104q174 0 272.5 -104t98.5 -267q0 -168 -96.5 -273.5t-275.5 -105.5zM734 370q0 144 -86 232.5t-228 88.5q-143 0 -230 -89t-87 -233q0 -152 85.5 -244t231.5 -92q144 0 229 92.5t85 244.5zM307 494
q0 19 -6.5 25t-26.5 6q-8 0 -9.5 2.5t-1.5 9.5v17q0 8 2.5 10.5t10.5 2.5h121q91 0 131 -25t40 -91q0 -86 -82 -111q41 -25 67 -106q5 -20 25 -20q10 0 23 6q4 2 6 0t2 -10v-19q0 -12 -10 -17q-11 -8 -31 -8q-51 0 -65 46t-41 83t-66 37h-36v-87q0 -20 6 -25.5t23 -5.5h2
q8 0 10.5 -2t2.5 -8v-19q0 -8 -2.5 -10.5t-10.5 -2.5h-115q-8 0 -10.5 2.5t-2.5 10.5v19q0 10 13 10h2q16 0 22.5 6.5t6.5 24.5v249zM360 372h42q109 0 109 79q0 41 -26.5 58t-83.5 17h-41v-154z" />
    <glyph glyph-name="macron" unicode="&#xaf;" horiz-adv-x="315" 
d="M265 642h-231q-17 0 -17 35q0 22 17 22h227q16 0 16 -32q0 -25 -12 -25z" />
    <glyph glyph-name="degree" unicode="&#xb0;" horiz-adv-x="399" 
d="M199 431q-70 0 -113 45t-43 114q0 68 43.5 112.5t113.5 44.5q71 0 113.5 -44t42.5 -112q0 -70 -43.5 -115t-113.5 -45zM305 590q0 52 -28 83t-77 31t-77.5 -31t-28.5 -83q0 -53 28.5 -85t77.5 -32q47 0 76 33t29 84z" />
    <glyph glyph-name="plusminus" unicode="&#xb1;" horiz-adv-x="524" 
d="M290 510v-146h157q27 0 27 -27q0 -15 -6.5 -21t-24.5 -6h-153v-159q0 -28 -29 -28q-28 0 -28 37v150h-149q-28 0 -28 29q0 17 8 21t29 4h140v150q0 27 30 27q15 0 21 -6.5t6 -24.5zM441 -10h-373q-11 0 -11 11v32q0 11 11 11h374q11 0 11 -11v-32q0 -11 -12 -11z" />
    <glyph glyph-name="twosuperior" unicode="&#xb2;" horiz-adv-x="320" 
d="M21 726q0 8 1 12q5 37 40.5 60.5t91.5 23.5q64 0 98 -30.5t34 -77.5q0 -57 -67 -124l-128 -130h118q24 0 31 5.5t13 23.5l4 36q3 10 12 10h19q11 0 9 -11l-8 -86q-1 -12 -4.5 -15t-14.5 -3h-237q-7 0 -9.5 2.5t-2.5 10.5v14q0 12 20 34l142 142q43 43 43 89
q0 30 -18.5 48.5t-57.5 18.5q-44 0 -70 -20q18 -11 18 -32q0 -17 -11.5 -27.5t-28.5 -10.5q-16 0 -26.5 10t-10.5 27z" />
    <glyph glyph-name="threesuperior" unicode="&#xb3;" horiz-adv-x="318" 
d="M27 735v3q1 38 35.5 61.5t89.5 23.5q59 0 91 -27.5t32 -76.5q0 -44 -20.5 -64.5t-47.5 -24.5q39 -4 64 -29t25 -71q0 -57 -41 -87t-110 -30q-76 0 -116 17q-6 4 -6 11v29q0 8 5 8q2 0 17 -5q50 -14 91 -14q97 0 97 73q0 38 -25 56t-63 18h-15q-8 0 -10 1.5t-2 8.5v27
q0 8 12 8h15q72 0 72 65q0 63 -69 63q-32 0 -57 -15q12 -12 12 -29t-11.5 -27.5t-27.5 -10.5t-26.5 10t-10.5 28z" />
    <glyph glyph-name="acute" unicode="&#xb4;" horiz-adv-x="276" 
d="M41 643l-6 11q-6 12 8 20l133 70q20 11 26 1l20 -31q10 -14 -10 -21l-146 -53q-19 -8 -25 3z" />
    <glyph glyph-name="mu" unicode="&#xb5;" horiz-adv-x="638" 
d="M295 49q77 0 118 50.5t41 140.5v202q0 22 -12 26t-60 4q-15 0 -15 14v25q0 15 15 16l118 7q14 0 19 -6.5t5 -21.5v-413q0 -42 31 -42q9 0 36 5q15 4 15 -8v-27q0 -13 -13 -18q-27 -8 -57 -8q-74 0 -82 71q-58 -76 -174 -76q-57 0 -95 20v-217q0 -9 -8 -9h-53q-9 0 -9 8
v650q0 22 -11.5 26t-60.5 4q-15 0 -15 14v25q0 15 16 16l118 7q13 0 18 -6.5t5 -21.5v-336q0 -121 110 -121z" />
    <glyph glyph-name="paragraph" unicode="&#xb6;" horiz-adv-x="531" 
d="M202 -91v449q-75 1 -124 48.5t-49 126.5q0 82 48 134.5t125 54.5h277q16 0 16 -15v-22q0 -17 -15 -17q-43 0 -56 -5.5t-14 -27.5v-725q0 -9 -8 -9h-44q-8 0 -8 8v759h-88v-759q0 -8 -6 -8h-48q-6 0 -6 8z" />
    <glyph glyph-name="periodcentered" unicode="&#xb7;" horiz-adv-x="229" 
d="M60 260q0 26 17 42.5t39 16.5t37.5 -15t15.5 -40t-17 -41t-40 -16q-22 0 -37 14.5t-15 38.5z" />
    <glyph glyph-name="cedilla" unicode="&#xb8;" horiz-adv-x="290" 
d="M65 -67l36 76l47 -1l-17 -44q45 6 73 -13t28 -63q0 -91 -120 -91q-32 0 -71 6q-7 1 -7 13v19q0 9 1.5 10.5t7.5 0.5q50 -6 67 -6q68 0 68 47q0 38 -51 38q-10 0 -29.5 -2t-24.5 -2q-14 0 -8 12z" />
    <glyph glyph-name="onesuperior" unicode="&#xb9;" horiz-adv-x="211" 
d="M83 751q0 9 -2.5 10.5t-11.5 -1.5l-36 -12q-11 -3 -11 7v25q0 8 12 12l73 24q11 4 21 4q12 0 12 -16v-321q0 -15 7 -19t34 -4h12q7 0 8.5 -2t1.5 -7v-20q0 -7 -2 -9t-8 -2h-163q-6 0 -8 2t-2 9v20q0 4 0.5 5.5t2.5 2.5t7 1h10q27 0 35 4.5t8 18.5v268z" />
    <glyph glyph-name="ordmasculine" unicode="&#xba;" horiz-adv-x="393" 
d="M46 534q0 79 37.5 131t113.5 52t113 -52t37 -131q0 -80 -37 -131.5t-113 -51.5t-113.5 52t-37.5 131zM197 673q-49 0 -72.5 -38t-23.5 -102q0 -62 23.5 -100t72.5 -38t72 37.5t23 100.5q0 140 -95 140z" />
    <glyph glyph-name="guillemotright" unicode="&#xbb;" horiz-adv-x="743" 
d="M60 67l292 210l-292 210q-18 14 -18 24q0 16 20 16h33q12 0 26 -9l262 -190q19 -15 25.5 -24.5t6.5 -26.5t-6.5 -27t-25.5 -24l-262 -190q-14 -9 -26 -9h-33q-20 0 -20 15q0 11 18 25zM360 67l292 210l-292 210q-18 14 -18 24q0 16 20 16h33q12 0 26 -9l262 -190
q19 -15 25.5 -24.5t6.5 -26.5t-6.5 -27t-25.5 -24l-262 -190q-14 -9 -26 -9h-33q-20 0 -20 15q0 11 18 25z" />
    <glyph glyph-name="onequarter" unicode="&#xbc;" horiz-adv-x="635" 
d="M43 51l474 684q11 17 25 13q7 0 17 -7t12 -15q6 -10 -8 -29l-473 -683q-13 -18 -30 -12q-23 8 -24 23q-4 10 7 26zM306 123l192 267q6 9 16 9h40q18 0 4 -18l-185 -256h107v74q0 8 9 8h41q8 0 8 -8v-74h43q12 0 12 -9v-22q0 -9 -11 -9h-44v-23q1 -12 6 -16t18 -4h13
q10 0 10 -8v-22q0 -10 -10 -10h-130q-11 0 -11 9v23q0 8 11 8h12q13 0 18 5.5t5 20.5v17h-165q-7 0 -9 1.5t-2 9.5v17q0 8 2 10zM111 751q0 9 -2.5 10.5t-11.5 -1.5l-36 -12q-11 -3 -11 7v25q0 8 12 12l73 24q11 4 21 4q12 0 12 -16v-321q0 -15 7 -19t34 -4h12q7 0 8.5 -2
t1.5 -7v-20q0 -7 -2 -9t-8 -2h-163q-6 0 -8 2t-2 9v20q0 4 0.5 5.5t2.5 2.5t7 1h10q27 0 35 4.5t8 18.5v268z" />
    <glyph glyph-name="onehalf" unicode="&#xbd;" horiz-adv-x="741" 
d="M112 751q0 9 -2.5 10.5t-11.5 -1.5l-36 -12q-11 -3 -11 7v25q0 8 12 12l73 24q11 4 21 4q12 0 12 -16v-321q0 -15 7 -19t34 -4h12q6 0 8 -2t2 -7v-20q0 -7 -2 -9t-8 -2h-163q-6 0 -8 2t-2 9v20q0 5 1.5 7t8.5 2h10q27 0 35 4.5t8 18.5v268zM391 306q0 8 1 12
q5 37 40.5 60.5t91.5 23.5q64 0 98 -30.5t34 -77.5q0 -57 -67 -124l-128 -130h118q24 0 31 5.5t13 23.5l4 36q3 10 12 10h19q11 0 9 -11l-8 -86q-1 -12 -4.5 -15t-14.5 -3h-237q-7 0 -9.5 2.5t-2.5 10.5v14q0 12 20 34l142 142q43 43 43 89q0 30 -18.5 48.5t-57.5 18.5
q-44 0 -70 -20q18 -11 18 -32q0 -17 -11.5 -27.5t-28.5 -10.5q-16 0 -26.5 10t-10.5 27zM44 51l474 684q11 17 25 13q7 0 17 -7t12 -15q6 -10 -8 -29l-473 -683q-13 -18 -30 -12q-23 8 -24 23q-4 10 7 26z" />
    <glyph glyph-name="threequarters" unicode="&#xbe;" horiz-adv-x="699" 
d="M96 51l474 684q11 17 25 13q7 0 17 -7t12 -15q6 -10 -8 -29l-473 -683q-13 -18 -30 -12q-23 8 -24 23q-4 10 7 26zM379 121l192 267q6 9 16 9h40q17 0 4 -18l-185 -256h107v74q0 8 9 8h41q8 0 8 -8v-74h43q12 0 12 -9v-22q0 -9 -11 -9h-44v-23q1 -12 6 -16t18 -4h13
q10 0 10 -8v-22q0 -10 -10 -10h-130q-11 0 -11 9v23q0 8 11 8h12q13 0 18 5.5t5 20.5v17h-165q-8 0 -9.5 1.5t-1.5 9.5v17q0 8 2 10zM14 735v3q1 38 35.5 61.5t89.5 23.5q59 0 91 -27.5t32 -76.5q0 -44 -20.5 -64.5t-47.5 -24.5q39 -4 64 -29t25 -71q0 -57 -41 -87t-110 -30
q-76 0 -116 17q-6 4 -6 11v29q0 8 5 8q2 0 17 -5q50 -14 91 -14q97 0 97 73q0 38 -25 56t-63 18h-15q-8 0 -10 1.5t-2 8.5v27q0 8 12 8h15q72 0 72 65q0 63 -69 63q-32 0 -57 -15q12 -12 12 -29t-11.5 -27.5t-27.5 -10.5t-26.5 10t-10.5 28z" />
    <glyph glyph-name="questiondown" unicode="&#xbf;" horiz-adv-x="501" 
d="M107 180q0 -54 35.5 -91.5t103.5 -37.5q53 0 89.5 20t53.5 53q-31 12 -31 49q0 24 16.5 39.5t39.5 15.5t38 -14.5t15 -39.5v-4q0 -67 -57 -121t-167 -54q-99 0 -155 51t-56 131q0 53 21.5 99t52 78t61 60.5t52 61t21.5 66.5v10q0 16 20 16h27q23 0 23 -28
q0 -40 -21 -76.5t-50.5 -65.5t-59.5 -59.5t-51 -71t-21 -87.5zM227 628q0 24 16.5 39.5t39.5 15.5q22 0 37.5 -14.5t15.5 -39.5t-16.5 -39.5t-40.5 -14.5q-23 0 -37.5 14t-14.5 39z" />
    <glyph glyph-name="Agrave" unicode="&#xc0;" horiz-adv-x="683" 
d="M517 100l-47 143h-271l-48 -149q-8 -25 -2 -32t31 -8l18 -1q12 0 16 -3.5t4 -13.5v-21q0 -10 -3.5 -12.5t-15.5 -2.5h-179q-8 0 -11.5 3t-3.5 12v22q0 17 15 17l34 1q13 0 20 7t16 35l204 616q4 10 7.5 12.5t16.5 2.5h48q16 0 22 -14l204 -612q12 -32 19.5 -39.5
t32.5 -8.5h21q13 0 16.5 -3t3.5 -13v-23q0 -10 -3 -12.5t-16 -2.5h-194q-12 0 -15.5 2.5t-3.5 12.5v22q0 10 3.5 12.5t17.5 3.5h17q33 1 33 17q0 10 -7 30zM334 659l-118 -363h237zM356 821l-6 -13q-5 -10 -25 -3l-143 52q-22 8 -13 22l19 31q7 10 27 -1l134 -68
q14 -7 7 -20z" />
    <glyph glyph-name="Aacute" unicode="&#xc1;" horiz-adv-x="683" 
d="M517 100l-47 143h-271l-48 -149q-8 -25 -2 -32t31 -8l18 -1q12 0 16 -3.5t4 -13.5v-21q0 -10 -3.5 -12.5t-15.5 -2.5h-179q-8 0 -11.5 3t-3.5 12v22q0 17 15 17l34 1q13 0 20 7t16 35l204 616q4 10 7.5 12.5t16.5 2.5h48q16 0 22 -14l204 -612q12 -32 19.5 -39.5
t32.5 -8.5h21q13 0 16.5 -3t3.5 -13v-23q0 -10 -3 -12.5t-16 -2.5h-194q-12 0 -15.5 2.5t-3.5 12.5v22q0 10 3.5 12.5t17.5 3.5h17q33 1 33 17q0 10 -7 30zM334 659l-118 -363h237zM301 803l-6 11q-6 12 8 20l133 70q20 11 26 1l20 -31q10 -14 -10 -21l-146 -53
q-19 -8 -25 3z" />
    <glyph glyph-name="Acircumflex" unicode="&#xc2;" horiz-adv-x="683" 
d="M517 100l-47 143h-271l-48 -149q-8 -25 -2 -32t31 -8l18 -1q12 0 16 -3.5t4 -13.5v-21q0 -10 -3.5 -12.5t-15.5 -2.5h-179q-8 0 -11.5 3t-3.5 12v22q0 17 15 17l34 1q13 0 20 7t16 35l204 616q4 10 7.5 12.5t16.5 2.5h48q16 0 22 -14l204 -612q12 -32 19.5 -39.5
t32.5 -8.5h21q13 0 16.5 -3t3.5 -13v-23q0 -10 -3 -12.5t-16 -2.5h-194q-12 0 -15.5 2.5t-3.5 12.5v22q0 10 3.5 12.5t17.5 3.5h17q33 1 33 17q0 10 -7 30zM334 659l-118 -363h237zM414 810l-74 70l-73 -70q-14 -13 -27 -13h-30q-7 0 -10 2.5t-1.5 7t6.5 9.5l101 100
q14 14 34 14t34 -14l102 -100q8 -8 6.5 -13.5t-11.5 -5.5h-30q-14 0 -27 13z" />
    <glyph glyph-name="Atilde" unicode="&#xc3;" horiz-adv-x="683" 
d="M517 100l-47 143h-271l-48 -149q-8 -25 -2 -32t31 -8l18 -1q12 0 16 -3.5t4 -13.5v-21q0 -10 -3.5 -12.5t-15.5 -2.5h-179q-8 0 -11.5 3t-3.5 12v22q0 17 15 17l34 1q13 0 20 7t16 35l204 616q4 10 7.5 12.5t16.5 2.5h48q16 0 22 -14l204 -612q12 -32 19.5 -39.5
t32.5 -8.5h21q13 0 16.5 -3t3.5 -13v-23q0 -10 -3 -12.5t-16 -2.5h-194q-12 0 -15.5 2.5t-3.5 12.5v22q0 10 3.5 12.5t17.5 3.5h17q33 1 33 17q0 10 -7 30zM334 659l-118 -363h237zM385 848q29 0 30 33q2 7 9 7h28q8 0 8 -9q0 -81 -74 -81q-41 0 -58 26q-1 1 -2 3l-1.5 3
l-1.5 3t-2 3t-2.5 2l-3 2t-4 1.5l-5 1t-5.5 0.5q-27 0 -29 -33q-1 -8 -10 -8h-26q-9 0 -9 10q0 38 19 59t55 21q38 0 55 -30q9 -14 29 -14z" />
    <glyph glyph-name="Adieresis" unicode="&#xc4;" horiz-adv-x="683" 
d="M517 100l-47 143h-271l-48 -149q-8 -25 -2 -32t31 -8l18 -1q12 0 16 -3.5t4 -13.5v-21q0 -10 -3.5 -12.5t-15.5 -2.5h-179q-8 0 -11.5 3t-3.5 12v22q0 17 15 17l34 1q13 0 20 7t16 35l204 616q4 10 7.5 12.5t16.5 2.5h48q16 0 22 -14l204 -612q12 -32 19.5 -39.5
t32.5 -8.5h21q13 0 16.5 -3t3.5 -13v-23q0 -10 -3 -12.5t-16 -2.5h-194q-12 0 -15.5 2.5t-3.5 12.5v22q0 10 3.5 12.5t17.5 3.5h17q33 1 33 17q0 10 -7 30zM334 659l-118 -363h237zM213 843q0 23 14.5 38t34.5 15t33.5 -13.5t13.5 -36.5q0 -21 -15 -35.5t-35 -14.5
q-21 0 -33.5 13t-12.5 34zM373 843q0 23 14.5 38t35.5 15q20 0 33 -13.5t13 -36.5q0 -21 -15 -35.5t-35 -14.5t-33 13t-13 34z" />
    <glyph glyph-name="Aring" unicode="&#xc5;" horiz-adv-x="683" 
d="M517 100l-47 143h-271l-48 -149q-8 -25 -2 -32t31 -8l18 -1q12 0 16 -3.5t4 -13.5v-21q0 -10 -3.5 -12.5t-15.5 -2.5h-179q-8 0 -11.5 3t-3.5 12v22q0 17 15 17l34 1q13 0 20 7t16 35l204 616q4 10 7.5 12.5t16.5 2.5h48q16 0 22 -14l204 -612q12 -32 19.5 -39.5
t32.5 -8.5h21q13 0 16.5 -3t3.5 -13v-23q0 -10 -3 -12.5t-16 -2.5h-194q-12 0 -15.5 2.5t-3.5 12.5v22q0 10 3.5 12.5t17.5 3.5h17q33 1 33 17q0 10 -7 30zM334 659l-118 -363h237zM340 788q-46 0 -75.5 23t-29.5 60t29 59.5t76 22.5q48 0 77 -22.5t29 -59.5t-29 -60
t-77 -23zM340 824q24 0 40 12.5t16 34.5q0 21 -16 34.5t-40 13.5q-23 0 -38.5 -13.5t-15.5 -34.5q0 -22 15.5 -34.5t38.5 -12.5z" />
    <glyph glyph-name="AE" unicode="&#xc6;" horiz-adv-x="935" 
d="M662 329h-147v-275h231q52 0 65.5 9t20.5 49l8 71q4 14 20 14h20q18 0 15 -16l-12 -134q-3 -32 -11.5 -39.5t-33.5 -7.5h-465q-8 0 -11.5 3t-3.5 12v22q0 17 14 17q45 0 58 7t13 34v148h-233l-57 -142q-9 -22 -9 -31t7.5 -12t25.5 -4h22q16 -1 16 -18v-19q0 -17 -16 -17
h-187q-9 0 -12 2.5t-3 12.5v25q0 8 2.5 11t12.5 3l33 1q14 0 22.5 9t23.5 45l233 572q13 30 21 35.5t37 5.5h439q28 0 35.5 -7t9.5 -40l7 -99q1 -9 0.5 -14.5t-3.5 -7.5t-11 -2h-24q-11 0 -15.5 4t-5.5 18l-4 47q-3 33 -18 40t-67 7h-210v-286h147q23 0 26 29l1 41
q1 10 4 12.5t14 2.5h18q15 0 15 -17v-190q0 -17 -15 -17h-18q-10 0 -13.5 3t-4.5 12l-1 41q-3 30 -26 30zM375 648l-143 -351h211v370h-43q-18 0 -25 -19z" />
    <glyph glyph-name="Ccedilla" unicode="&#xc7;" horiz-adv-x="672" 
d="M325 -69l28 60q-145 10 -228 100t-83 258q0 171 91.5 276.5t256.5 105.5q119 0 179.5 -52t62.5 -120v-5q0 -25 -16.5 -39.5t-39.5 -14.5q-22 0 -37.5 14.5t-15.5 38.5q0 21 12 35t31 18q-47 68 -172 68q-139 0 -208 -91.5t-69 -233.5q0 -138 68.5 -219.5t214.5 -81.5
q18 0 35.5 1t33.5 4t28.5 5t26.5 6.5t22.5 7t21.5 8t17.5 7.5t16 7.5t12.5 6.5q10 5 15.5 6.5t8.5 -1.5t3 -13v-26q0 -14 -15 -23q-31 -20 -89 -37t-136 -18l-10 -27q45 6 73 -13t28 -63q0 -91 -120 -91q-32 0 -71 6q-7 1 -7 13v19q0 9 1.5 10.5t7.5 0.5q49 -6 67 -6
q68 0 68 47q0 38 -51 38q-10 0 -29.5 -2t-24.5 -2q-14 0 -8 12z" />
    <glyph glyph-name="Egrave" unicode="&#xc8;" horiz-adv-x="611" 
d="M57 0q-8 0 -11.5 3t-3.5 12v22q0 17 14 17q45 0 58 7t13 34v539q0 32 -27 33h-44q-14 0 -14 15v25q0 9 3.5 12t13.5 3h438q28 0 35.5 -7t10.5 -40l6 -99q2 -15 -0.5 -19.5t-14.5 -4.5h-22q-12 0 -16 4t-5 18l-4 47q-3 33 -18.5 40t-66.5 7h-203v-286h136q24 0 25 29l2 38
q1 11 4 13.5t14 2.5h19q11 0 14 -3.5t3 -12.5v-188q0 -9 -3 -12t-12 -3h-21q-11 0 -14 2.5t-4 11.5l-2 39q-1 30 -25 30h-136v-275h251q32 0 41 6.5t14 32.5l9 90q3 14 20 14h23q16 0 15 -16l-14 -157q-1 -16 -7 -20t-21 -4h-473zM332 821l-6 -13q-5 -10 -25 -3l-143 52
q-22 8 -13 22l19 31q7 10 27 -1l134 -68q14 -7 7 -20z" />
    <glyph glyph-name="Eacute" unicode="&#xc9;" horiz-adv-x="611" 
d="M57 0q-8 0 -11.5 3t-3.5 12v22q0 17 14 17q45 0 58 7t13 34v539q0 32 -27 33h-44q-14 0 -14 15v25q0 9 3.5 12t13.5 3h438q28 0 35.5 -7t10.5 -40l6 -99q2 -15 -0.5 -19.5t-14.5 -4.5h-22q-12 0 -16 4t-5 18l-4 47q-3 33 -18.5 40t-66.5 7h-203v-286h136q24 0 25 29l2 38
q1 11 4 13.5t14 2.5h19q11 0 14 -3.5t3 -12.5v-188q0 -9 -3 -12t-12 -3h-21q-11 0 -14 2.5t-4 11.5l-2 39q-1 30 -25 30h-136v-275h251q32 0 41 6.5t14 32.5l9 90q3 14 20 14h23q16 0 15 -16l-14 -157q-1 -16 -7 -20t-21 -4h-473zM277 803l-6 11q-6 12 8 20l133 70
q20 11 26 1l20 -31q10 -14 -10 -21l-146 -53q-19 -8 -25 3z" />
    <glyph glyph-name="Ecircumflex" unicode="&#xca;" horiz-adv-x="611" 
d="M57 0q-8 0 -11.5 3t-3.5 12v22q0 17 14 17q45 0 58 7t13 34v539q0 32 -27 33h-44q-14 0 -14 15v25q0 9 3.5 12t13.5 3h438q28 0 35.5 -7t10.5 -40l6 -99q2 -15 -0.5 -19.5t-14.5 -4.5h-22q-12 0 -16 4t-5 18l-4 47q-3 33 -18.5 40t-66.5 7h-203v-286h136q24 0 25 29l2 38
q1 11 4 13.5t14 2.5h19q11 0 14 -3.5t3 -12.5v-188q0 -9 -3 -12t-12 -3h-21q-11 0 -14 2.5t-4 11.5l-2 39q-1 30 -25 30h-136v-275h251q32 0 41 6.5t14 32.5l9 90q3 14 20 14h23q16 0 15 -16l-14 -157q-1 -16 -7 -20t-21 -4h-473zM391 810l-74 70l-73 -70q-14 -13 -27 -13
h-30q-7 0 -10 2.5t-1.5 7t6.5 9.5l101 100q14 14 34 14t34 -14l102 -100q8 -8 6.5 -13.5t-11.5 -5.5h-30q-14 0 -27 13z" />
    <glyph glyph-name="Edieresis" unicode="&#xcb;" horiz-adv-x="611" 
d="M57 0q-8 0 -11.5 3t-3.5 12v22q0 17 14 17q45 0 58 7t13 34v539q0 32 -27 33h-44q-14 0 -14 15v25q0 9 3.5 12t13.5 3h438q28 0 35.5 -7t10.5 -40l6 -99q2 -15 -0.5 -19.5t-14.5 -4.5h-22q-12 0 -16 4t-5 18l-4 47q-3 33 -18.5 40t-66.5 7h-203v-286h136q24 0 25 29l2 38
q1 11 4 13.5t14 2.5h19q11 0 14 -3.5t3 -12.5v-188q0 -9 -3 -12t-12 -3h-21q-11 0 -14 2.5t-4 11.5l-2 39q-1 30 -25 30h-136v-275h251q32 0 41 6.5t14 32.5l9 90q3 14 20 14h23q16 0 15 -16l-14 -157q-1 -16 -7 -20t-21 -4h-473zM190 843q0 23 14.5 38t34.5 15t33.5 -13.5
t13.5 -36.5q0 -21 -15 -35.5t-35 -14.5t-33 13t-13 34zM350 843q0 23 14.5 38t35.5 15q20 0 33 -13.5t13 -36.5q0 -21 -15 -35.5t-35 -14.5t-33 13t-13 34z" />
    <glyph glyph-name="Igrave" unicode="&#xcc;" horiz-adv-x="325" 
d="M125 95v532q0 25 -7 33t-28 8h-35q-10 0 -12.5 2.5t-2.5 12.5v23q0 10 3 13t12 3h212q9 0 12 -3t3 -13v-23q0 -10 -2.5 -12.5t-12.5 -2.5h-36q-21 0 -27.5 -7.5t-6.5 -33.5v-532q0 -25 8 -33t30 -8h33q10 0 12.5 -2.5t2.5 -10.5v-26q0 -15 -15 -15h-212q-9 0 -12 3t-3 11
v26q0 8 2.5 11t12.5 3h33q21 0 28.5 8t7.5 33zM177 821l-6 -13q-5 -10 -25 -3l-143 52q-22 8 -13 22l19 31q7 10 27 -1l134 -68q14 -7 7 -20z" />
    <glyph glyph-name="Iacute" unicode="&#xcd;" horiz-adv-x="325" 
d="M126 95v532q0 25 -7 33t-28 8h-35q-10 0 -12.5 2.5t-2.5 12.5v23q0 10 3 13t12 3h212q9 0 12 -3t3 -13v-23q0 -10 -2.5 -12.5t-12.5 -2.5h-36q-21 0 -27.5 -7.5t-6.5 -33.5v-532q0 -25 8 -33t29 -8h34q9 0 12 -2.5t3 -10.5v-26q0 -15 -15 -15h-212q-10 0 -13 3t-3 11v26
q0 8 3 11t13 3h33q21 0 28.5 8t7.5 33zM123 803l-6 11q-6 12 8 20l133 70q20 11 26 1l20 -31q10 -14 -10 -21l-146 -53q-19 -8 -25 3z" />
    <glyph glyph-name="Icircumflex" unicode="&#xce;" horiz-adv-x="325" 
d="M126 95v532q0 25 -7 33t-28 8h-35q-10 0 -12.5 2.5t-2.5 12.5v23q0 10 3 13t12 3h212q9 0 12 -3t3 -13v-23q0 -10 -2.5 -12.5t-12.5 -2.5h-36q-21 0 -27.5 -7.5t-6.5 -33.5v-532q0 -25 8 -33t29 -8h34q9 0 12 -2.5t3 -10.5v-26q0 -15 -15 -15h-212q-10 0 -13 3t-3 11v26
q0 8 3 11t13 3h33q21 0 28.5 8t7.5 33zM236 810l-74 70l-73 -70q-14 -13 -27 -13h-30q-7 0 -10 2.5t-1.5 7t6.5 9.5l101 100q14 14 34 14t34 -14l102 -100q8 -8 6.5 -13.5t-11.5 -5.5h-30q-14 0 -27 13z" />
    <glyph glyph-name="Idieresis" unicode="&#xcf;" horiz-adv-x="325" 
d="M126 95v532q0 25 -7 33t-28 8h-35q-10 0 -12.5 2.5t-2.5 12.5v23q0 10 3 13t12 3h212q9 0 12 -3t3 -13v-23q0 -10 -2.5 -12.5t-12.5 -2.5h-36q-21 0 -27.5 -7.5t-6.5 -33.5v-532q0 -25 8 -33t29 -8h34q9 0 12 -2.5t3 -10.5v-26q0 -15 -15 -15h-212q-10 0 -13 3t-3 11v26
q0 8 3 11t13 3h33q21 0 28.5 8t7.5 33zM35 843q0 23 14.5 38t34.5 15t33.5 -13.5t13.5 -36.5q0 -21 -15 -35.5t-35 -14.5q-21 0 -33.5 13t-12.5 34zM195 843q0 23 14.5 38t35.5 15q20 0 33 -13.5t13 -36.5q0 -21 -15 -35.5t-35 -14.5t-33 13t-13 34z" />
    <glyph glyph-name="Eth" unicode="&#xd0;" horiz-adv-x="719" 
d="M672 360q0 -182 -97 -271t-293 -89h-225q-8 0 -11.5 3t-3.5 12v22q0 17 14 17q45 0 58 7t13 34v212h-72q-11 0 -11 11v32q0 11 11 11h72v273q0 32 -27 33h-43q-15 0 -15 15v25q0 9 3.5 12t14.5 3h223q198 0 293.5 -90t95.5 -272zM428 307h-229v-250h82q164 0 240 72.5
t76 230.5q0 160 -77 233.5t-241 73.5h-80v-306h230q11 0 11 -11v-32q0 -11 -12 -11z" />
    <glyph glyph-name="Ntilde" unicode="&#xd1;" horiz-adv-x="764" 
d="M645 8q0 -16 -18 -16h-18q-19 0 -28 13l-393 589v-514q0 -16 8 -21t30 -5h32q10 0 12.5 -2t2.5 -12v-25q0 -10 -3 -12.5t-12 -2.5h-202q-9 0 -12 2.5t-3 12.5v24q0 10 2.5 12.5t12.5 2.5h31q22 0 30.5 5.5t8.5 20.5v540q-1 29 -13 38.5t-41 9.5h-5q-14 0 -18.5 4t-4.5 14
v19q0 17 23 17h101q21 0 30 -15l384 -584v519q0 16 -8 21t-30 5h-31q-11 0 -13.5 2t-2.5 12v24q0 10 3.5 13t12.5 3h201q9 0 12.5 -3t3.5 -12v-24q0 -10 -3 -12.5t-13 -2.5h-30q-22 0 -30.5 -5.5t-8.5 -20.5v-634zM416 848q28 0 30 33q2 7 9 7h28q8 0 8 -9q0 -81 -74 -81
q-41 0 -58 26q-1 1 -2 3l-1.5 3l-1.5 3t-2 3t-2.5 2l-3 2t-4 1.5l-5 1t-5.5 0.5q-27 0 -29 -33q-1 -8 -10 -8h-26q-9 0 -9 10q0 38 19 59t55 21q38 0 55 -30q9 -14 29 -14z" />
    <glyph glyph-name="Ograve" unicode="&#xd2;" horiz-adv-x="779" 
d="M45 357q0 55 9.5 105.5t34.5 101t63 87t99 59.5t138 23q92 0 161 -31t108 -85t57.5 -117.5t18.5 -136.5q0 -55 -9.5 -105.5t-34.5 -101t-62.5 -87t-98.5 -59.5t-139 -23q-93 0 -162 31t-107.5 85t-57 117.5t-18.5 136.5zM388 677q-75 0 -129.5 -28.5t-83.5 -76.5
t-42 -100.5t-13 -110.5q0 -45 7.5 -87t26.5 -85t49 -74.5t78.5 -51.5t110.5 -20q77 0 132 29.5t83 79t40 100t12 106.5q0 44 -7 85.5t-26.5 85t-48.5 75.5t-78 52.5t-111 20.5zM403 821l-6 -13q-5 -10 -25 -3l-143 52q-22 8 -13 22l19 31q7 10 27 -1l134 -68q14 -7 7 -20z
" />
    <glyph glyph-name="Oacute" unicode="&#xd3;" horiz-adv-x="779" 
d="M45 357q0 55 9.5 105.5t34.5 101t63 87t99 59.5t138 23q92 0 161 -31t108 -85t57.5 -117.5t18.5 -136.5q0 -55 -9.5 -105.5t-34.5 -101t-62.5 -87t-98.5 -59.5t-139 -23q-93 0 -162 31t-107.5 85t-57 117.5t-18.5 136.5zM388 677q-75 0 -129.5 -28.5t-83.5 -76.5
t-42 -100.5t-13 -110.5q0 -45 7.5 -87t26.5 -85t49 -74.5t78.5 -51.5t110.5 -20q77 0 132 29.5t83 79t40 100t12 106.5q0 44 -7 85.5t-26.5 85t-48.5 75.5t-78 52.5t-111 20.5zM348 803l-6 11q-6 12 8 20l133 70q20 11 26 1l20 -31q10 -14 -10 -21l-146 -53q-19 -8 -25 3z
" />
    <glyph glyph-name="Ocircumflex" unicode="&#xd4;" horiz-adv-x="779" 
d="M45 357q0 55 9.5 105.5t34.5 101t63 87t99 59.5t138 23q92 0 161 -31t108 -85t57.5 -117.5t18.5 -136.5q0 -55 -9.5 -105.5t-34.5 -101t-62.5 -87t-98.5 -59.5t-139 -23q-93 0 -162 31t-107.5 85t-57 117.5t-18.5 136.5zM388 677q-75 0 -129.5 -28.5t-83.5 -76.5
t-42 -100.5t-13 -110.5q0 -45 7.5 -87t26.5 -85t49 -74.5t78.5 -51.5t110.5 -20q77 0 132 29.5t83 79t40 100t12 106.5q0 44 -7 85.5t-26.5 85t-48.5 75.5t-78 52.5t-111 20.5zM462 810l-74 70l-73 -70q-14 -13 -27 -13h-30q-7 0 -10 2.5t-1.5 7t6.5 9.5l101 100
q14 14 34 14t34 -14l102 -100q8 -8 6.5 -13.5t-11.5 -5.5h-30q-14 0 -27 13z" />
    <glyph glyph-name="Otilde" unicode="&#xd5;" horiz-adv-x="779" 
d="M45 357q0 55 9.5 105.5t34.5 101t63 87t99 59.5t138 23q92 0 161 -31t108 -85t57.5 -117.5t18.5 -136.5q0 -55 -9.5 -105.5t-34.5 -101t-62.5 -87t-98.5 -59.5t-139 -23q-93 0 -162 31t-107.5 85t-57 117.5t-18.5 136.5zM388 677q-75 0 -129.5 -28.5t-83.5 -76.5
t-42 -100.5t-13 -110.5q0 -45 7.5 -87t26.5 -85t49 -74.5t78.5 -51.5t110.5 -20q77 0 132 29.5t83 79t40 100t12 106.5q0 44 -7 85.5t-26.5 85t-48.5 75.5t-78 52.5t-111 20.5zM432 848q28 0 30 33q2 7 9 7h28q8 0 8 -9q0 -81 -74 -81q-41 0 -58 26q-1 1 -2 3l-1.5 3l-1.5 3
t-2 3t-2.5 2l-3 2t-4 1.5l-5 1t-5.5 0.5q-27 0 -29 -33q-1 -8 -10 -8h-26q-9 0 -9 10q0 38 19 59t55 21q38 0 55 -30q9 -14 29 -14z" />
    <glyph glyph-name="Odieresis" unicode="&#xd6;" horiz-adv-x="779" 
d="M45 357q0 55 9.5 105.5t34.5 101t63 87t99 59.5t138 23q92 0 161 -31t108 -85t57.5 -117.5t18.5 -136.5q0 -55 -9.5 -105.5t-34.5 -101t-62.5 -87t-98.5 -59.5t-139 -23q-93 0 -162 31t-107.5 85t-57 117.5t-18.5 136.5zM388 677q-75 0 -129.5 -28.5t-83.5 -76.5
t-42 -100.5t-13 -110.5q0 -45 7.5 -87t26.5 -85t49 -74.5t78.5 -51.5t110.5 -20q77 0 132 29.5t83 79t40 100t12 106.5q0 44 -7 85.5t-26.5 85t-48.5 75.5t-78 52.5t-111 20.5zM261 843q0 23 14.5 38t34.5 15t33.5 -13.5t13.5 -36.5q0 -21 -15 -35.5t-35 -14.5
q-21 0 -33.5 13t-12.5 34zM421 843q0 23 14.5 38t35.5 15q20 0 33 -13.5t13 -36.5q0 -21 -15 -35.5t-35 -14.5t-33 13t-13 34z" />
    <glyph glyph-name="multiply" unicode="&#xd7;" horiz-adv-x="541" 
d="M267 227v1l-158 -157q-16 -16 -24.5 -18t-23.5 10q-17 19 6 43l163 165l-163 165q-23 24 -6 43q15 12 23.5 10t24.5 -18l158 -158v1l3 -3l3 3v-1l158 158q16 16 24.5 18t23.5 -10q17 -20 -6 -43l-163 -165l163 -165q23 -23 6 -43q-15 -12 -23.5 -10t-24.5 18l-158 157v-1
l-3 3z" />
    <glyph glyph-name="Oslash" unicode="&#xd8;" horiz-adv-x="779" 
d="M200 -5l13 31q-86 45 -127 133t-41 198q0 55 9.5 105.5t34.5 101t63 87t99 59.5t138 23q63 0 114 -15l6 14q8 19 18 17l49 -10q13 -3 4 -22l-11 -25q85 -46 125 -134t40 -195q0 -55 -9.5 -105.5t-34.5 -101t-62.5 -87t-98.5 -59.5t-139 -23q-57 0 -111 13l-10 -23
q-4 -10 -7.5 -13t-9.5 -1l-48 11q-7 2 -8 5.5t4 15.5zM388 677q-75 0 -129.5 -28.5t-83.5 -76.5t-42 -100.5t-13 -110.5q0 -84 28 -158.5t90 -117.5l242 578q-42 14 -92 14zM659 358q0 81 -27 155.5t-88 118.5l-242 -577q39 -12 90 -12q77 0 132 29.5t83 79t40 100t12 106.5
z" />
    <glyph glyph-name="Ugrave" unicode="&#xd9;" horiz-adv-x="748" 
d="M376 55q196 0 196 217v357q0 24 -7 31.5t-28 7.5h-35q-10 0 -12.5 2.5t-2.5 12.5v23q0 10 3.5 13t11.5 3h204q9 0 12.5 -3t3.5 -13v-23q0 -10 -2.5 -12.5t-13.5 -2.5h-36q-20 0 -26.5 -7t-6.5 -32v-362q0 -274 -262 -274q-264 0 -264 270v364q0 25 -6.5 33t-27.5 8h-35
q-10 0 -13 2.5t-3 12.5v23q0 10 3.5 13t12.5 3h211q9 0 12.5 -3t3.5 -13v-23q0 -10 -2.5 -12.5t-13.5 -2.5h-36q-21 0 -27 -7.5t-6 -33.5v-357q0 -109 47.5 -162t144.5 -53zM392 821l-6 -13q-5 -10 -25 -3l-143 52q-22 8 -13 22l19 31q7 10 27 -1l134 -68q14 -7 7 -20z" />
    <glyph glyph-name="Uacute" unicode="&#xda;" horiz-adv-x="748" 
d="M376 55q196 0 196 217v357q0 24 -7 31.5t-28 7.5h-35q-10 0 -12.5 2.5t-2.5 12.5v23q0 10 3.5 13t11.5 3h204q9 0 12.5 -3t3.5 -13v-23q0 -10 -2.5 -12.5t-13.5 -2.5h-36q-20 0 -26.5 -7t-6.5 -32v-362q0 -274 -262 -274q-264 0 -264 270v364q0 25 -6.5 33t-27.5 8h-35
q-10 0 -13 2.5t-3 12.5v23q0 10 3.5 13t12.5 3h211q9 0 12.5 -3t3.5 -13v-23q0 -10 -2.5 -12.5t-13.5 -2.5h-36q-21 0 -27 -7.5t-6 -33.5v-357q0 -109 47.5 -162t144.5 -53zM337 803l-6 11q-6 12 8 20l133 70q20 11 26 1l20 -31q10 -14 -10 -21l-146 -53q-19 -8 -25 3z" />
    <glyph glyph-name="Ucircumflex" unicode="&#xdb;" horiz-adv-x="748" 
d="M376 55q196 0 196 217v357q0 24 -7 31.5t-28 7.5h-35q-10 0 -12.5 2.5t-2.5 12.5v23q0 10 3.5 13t11.5 3h204q9 0 12.5 -3t3.5 -13v-23q0 -10 -2.5 -12.5t-13.5 -2.5h-36q-20 0 -26.5 -7t-6.5 -32v-362q0 -274 -262 -274q-264 0 -264 270v364q0 25 -6.5 33t-27.5 8h-35
q-10 0 -13 2.5t-3 12.5v23q0 10 3.5 13t12.5 3h211q9 0 12.5 -3t3.5 -13v-23q0 -10 -2.5 -12.5t-13.5 -2.5h-36q-21 0 -27 -7.5t-6 -33.5v-357q0 -109 47.5 -162t144.5 -53zM451 810l-74 70l-73 -70q-14 -13 -27 -13h-30q-7 0 -10 2.5t-1.5 7t6.5 9.5l101 100q14 14 34 14
t34 -14l102 -100q8 -8 6.5 -13.5t-11.5 -5.5h-30q-14 0 -27 13z" />
    <glyph glyph-name="Udieresis" unicode="&#xdc;" horiz-adv-x="748" 
d="M376 55q196 0 196 217v357q0 24 -7 31.5t-28 7.5h-35q-10 0 -12.5 2.5t-2.5 12.5v23q0 10 3.5 13t11.5 3h204q9 0 12.5 -3t3.5 -13v-23q0 -10 -2.5 -12.5t-13.5 -2.5h-36q-20 0 -26.5 -7t-6.5 -32v-362q0 -274 -262 -274q-264 0 -264 270v364q0 25 -6.5 33t-27.5 8h-35
q-10 0 -13 2.5t-3 12.5v23q0 10 3.5 13t12.5 3h211q9 0 12.5 -3t3.5 -13v-23q0 -10 -2.5 -12.5t-13.5 -2.5h-36q-21 0 -27 -7.5t-6 -33.5v-357q0 -109 47.5 -162t144.5 -53zM249 843q0 23 14.5 38t34.5 15t33.5 -13.5t13.5 -36.5q0 -21 -15 -35.5t-35 -14.5q-21 0 -33.5 13
t-12.5 34zM409 843q0 23 14.5 38t35.5 15q20 0 33 -13.5t13 -36.5q0 -21 -15 -35.5t-35 -14.5t-33 13t-13 34z" />
    <glyph glyph-name="Yacute" unicode="&#xdd;" horiz-adv-x="624" 
d="M276 291l-180 335q-14 26 -23.5 33.5t-25.5 7.5h-27q-10 0 -13.5 3.5t-3.5 13.5v23q0 9 3 12t12 3h193q9 0 12.5 -3t3.5 -12v-22q0 -10 -3 -13.5t-13 -3.5h-26q-18 0 -21 -5t7 -25l143 -283l154 284q9 20 6 24.5t-19 4.5h-25q-16 0 -16 18v22q0 9 3.5 11.5t12.5 2.5h176
q14 0 14 -15v-22q0 -10 -3 -13.5t-13 -3.5h-28q-14 0 -20.5 -5.5t-21.5 -31.5l-185 -324v-220q1 -20 9 -26.5t28 -6.5h33q10 0 12.5 -2.5t2.5 -10.5v-26q0 -15 -15 -15h-212q-9 0 -12 3t-3 11v26q0 8 3 11t12 3h33q19 0 27 7t9 27v203zM281 803l-6 11q-6 12 8 20l133 70
q20 11 26 1l20 -31q10 -14 -10 -21l-146 -53q-19 -8 -25 3z" />
    <glyph glyph-name="Thorn" unicode="&#xde;" horiz-adv-x="589" 
d="M553 300q0 -114 -82.5 -176.5t-192.5 -62.5q-63 0 -111 13v-213q0 -19 -19 -20h-34q-17 0 -17 19v861q0 20 18 21h34q18 0 18 -20v-193q49 7 100 7q130 0 208 -62.5t78 -173.5zM167 469v-334q49 -18 109 -18q85 0 143.5 47t58.5 136q0 85 -58.5 131t-144.5 46
q-68 0 -108 -8z" />
    <glyph glyph-name="germandbls" unicode="&#xdf;" horiz-adv-x="605" 
d="M334 49q65 0 108.5 38.5t43.5 110.5q0 77 -49 117t-119 40h-65q-8 0 -8 10v37q0 11 10 11h62q46 0 87 31.5t41 96.5q0 63 -39.5 97t-104.5 34q-69 0 -109 -37t-40 -101v-741q0 -20 -21 -20h-29q-20 0 -20 19v742q0 89 54.5 143.5t163.5 54.5q104 0 160.5 -51t56.5 -140
q0 -60 -30.5 -104.5t-74.5 -52.5q56 -11 102 -57t46 -135q0 -97 -60.5 -147t-162.5 -50q-84 0 -141 22q-10 5 -10 16v29q0 9 2 11.5t8 2.5q3 0 22.5 -7t51 -13.5t64.5 -6.5z" />
    <glyph glyph-name="agrave" unicode="&#xe0;" horiz-adv-x="543" 
d="M449 93q0 -42 31 -42q9 0 36 5q8 3 11 1.5t3 -9.5v-27q0 -13 -12 -18q-29 -8 -57 -8q-80 0 -82 82q-57 -83 -183 -83q-157 0 -157 138q0 93 71.5 133t215.5 40h53v43q0 81 -30 112t-100 31q-84 0 -117 -36q27 -13 27 -44q0 -22 -14.5 -36t-34.5 -14q-19 0 -32 13t-13 34
v4q1 72 47.5 102t135.5 30q104 0 152.5 -44t48.5 -158v-249zM109 133q0 -86 97 -86q75 0 124 45.5t49 123.5v37h-53q-112 0 -164.5 -27.5t-52.5 -92.5zM277 685l-6 -13q-5 -10 -25 -3l-143 52q-22 8 -13 22l19 31q7 10 27 -1l134 -68q14 -7 7 -20z" />
    <glyph glyph-name="aacute" unicode="&#xe1;" horiz-adv-x="543" 
d="M449 93q0 -42 31 -42q9 0 36 5q8 3 11 1.5t3 -9.5v-27q0 -13 -12 -18q-29 -8 -57 -8q-80 0 -82 82q-57 -83 -183 -83q-157 0 -157 138q0 93 71.5 133t215.5 40h53v43q0 81 -30 112t-100 31q-84 0 -117 -36q27 -13 27 -44q0 -22 -14.5 -36t-34.5 -14q-19 0 -32 13t-13 34
v4q1 72 47.5 102t135.5 30q104 0 152.5 -44t48.5 -158v-249zM109 133q0 -86 97 -86q75 0 124 45.5t49 123.5v37h-53q-112 0 -164.5 -27.5t-52.5 -92.5zM222 668l-6 11q-6 12 8 20l133 70q20 11 26 1l20 -31q10 -14 -10 -21l-146 -53q-19 -8 -25 3z" />
    <glyph glyph-name="acircumflex" unicode="&#xe2;" horiz-adv-x="543" 
d="M449 93q0 -42 31 -42q9 0 36 5q8 3 11 1.5t3 -9.5v-27q0 -13 -12 -18q-29 -8 -57 -8q-80 0 -82 82q-57 -83 -183 -83q-157 0 -157 138q0 93 71.5 133t215.5 40h53v43q0 81 -30 112t-100 31q-84 0 -117 -36q27 -13 27 -44q0 -22 -14.5 -36t-34.5 -14q-19 0 -32 13t-13 34
v4q1 72 47.5 102t135.5 30q104 0 152.5 -44t48.5 -158v-249zM109 133q0 -86 97 -86q75 0 124 45.5t49 123.5v37h-53q-112 0 -164.5 -27.5t-52.5 -92.5zM336 674l-74 70l-73 -70q-14 -13 -27 -13h-30q-7 0 -10 2.5t-1.5 7t6.5 9.5l101 100q14 14 34 14t34 -14l102 -100
q8 -8 6.5 -13.5t-11.5 -5.5h-30q-14 0 -27 13z" />
    <glyph glyph-name="atilde" unicode="&#xe3;" horiz-adv-x="543" 
d="M449 93q0 -42 31 -42q9 0 36 5q8 3 11 1.5t3 -9.5v-27q0 -13 -12 -18q-29 -8 -57 -8q-80 0 -82 82q-57 -83 -183 -83q-157 0 -157 138q0 93 71.5 133t215.5 40h53v43q0 81 -30 112t-100 31q-84 0 -117 -36q27 -13 27 -44q0 -22 -14.5 -36t-34.5 -14q-19 0 -32 13t-13 34
v4q1 72 47.5 102t135.5 30q104 0 152.5 -44t48.5 -158v-249zM109 133q0 -86 97 -86q75 0 124 45.5t49 123.5v37h-53q-112 0 -164.5 -27.5t-52.5 -92.5zM306 713q28 0 30 33q2 7 9 7h28q8 0 8 -9q0 -81 -74 -81q-41 0 -58 26q-1 1 -2 3l-1.5 3l-1.5 3t-2 3t-2.5 2l-3 2
t-4 1.5l-5 1t-5.5 0.5q-27 0 -29 -33q-1 -8 -10 -8h-26q-9 0 -9 10q0 38 19 59t55 21q38 0 55 -30q9 -14 29 -14z" />
    <glyph glyph-name="adieresis" unicode="&#xe4;" horiz-adv-x="543" 
d="M449 93q0 -42 31 -42q9 0 36 5q8 3 11 1.5t3 -9.5v-27q0 -13 -12 -18q-29 -8 -57 -8q-80 0 -82 82q-57 -83 -183 -83q-157 0 -157 138q0 93 71.5 133t215.5 40h53v43q0 81 -30 112t-100 31q-84 0 -117 -36q27 -13 27 -44q0 -22 -14.5 -36t-34.5 -14q-19 0 -32 13t-13 34
v4q1 72 47.5 102t135.5 30q104 0 152.5 -44t48.5 -158v-249zM109 133q0 -86 97 -86q75 0 124 45.5t49 123.5v37h-53q-112 0 -164.5 -27.5t-52.5 -92.5zM134 708q0 23 14.5 38t34.5 15t33.5 -13.5t13.5 -36.5q0 -21 -15 -35.5t-35 -14.5t-33 12.5t-13 34.5zM294 708
q0 23 14.5 38t35.5 15q20 0 33 -13.5t13 -36.5q0 -21 -15 -35.5t-35 -14.5t-33 13t-13 34z" />
    <glyph glyph-name="aring" unicode="&#xe5;" horiz-adv-x="543" 
d="M449 93q0 -42 31 -42q9 0 36 5q8 3 11 1.5t3 -9.5v-27q0 -13 -12 -18q-29 -8 -57 -8q-80 0 -82 82q-57 -83 -183 -83q-157 0 -157 138q0 93 71.5 133t215.5 40h53v43q0 81 -30 112t-100 31q-84 0 -117 -36q27 -13 27 -44q0 -22 -14.5 -36t-34.5 -14q-19 0 -32 13t-13 34
v4q1 72 47.5 102t135.5 30q104 0 152.5 -44t48.5 -158v-249zM109 133q0 -86 97 -86q75 0 124 45.5t49 123.5v37h-53q-112 0 -164.5 -27.5t-52.5 -92.5zM261 653q-46 0 -75.5 23t-29.5 60t29 59.5t76 22.5q48 0 77 -22.5t29 -59.5t-29 -60t-77 -23zM261 689q24 0 40 12.5
t16 34.5q0 21 -16 34.5t-40 13.5q-23 0 -38.5 -13.5t-15.5 -34.5q0 -22 15.5 -34.5t38.5 -12.5z" />
    <glyph glyph-name="ae" unicode="&#xe6;" horiz-adv-x="886" 
d="M629 544q105 0 162.5 -49.5t57.5 -137.5q0 -79 -56.5 -123t-170.5 -44q-92 0 -167 26q18 -172 187 -172q54 0 95 12q12 4 37.5 13t28.5 10q11 2 11 -9v-28q0 -10 -3 -14t-15 -9q-69 -32 -156 -32q-184 0 -238 138q-16 -56 -68.5 -93.5t-136.5 -37.5q-157 0 -157 138
q0 94 71 133.5t216 39.5h52v43q0 81 -29.5 112t-99.5 31q-87 0 -120 -38q30 -11 30 -45q0 -21 -15 -35.5t-34 -14.5t-32 13t-13 35v4q1 73 47 103.5t135 30.5q73 0 118 -21t65 -71q67 92 198 92zM629 490q-87 0 -130.5 -59t-45.5 -163q80 -26 159 -26q168 0 168 120
q0 60 -40.5 94t-110.5 34zM110 133q0 -86 97 -86q75 0 123.5 45.5t48.5 123.5v37h-52q-112 0 -164.5 -27.5t-52.5 -92.5z" />
    <glyph glyph-name="ccedilla" unicode="&#xe7;" horiz-adv-x="520" 
d="M221 -58l25 54q-103 15 -153 83t-50 179q0 132 67.5 209t187.5 77q90 0 135.5 -41t45.5 -94q0 -23 -14.5 -37.5t-36.5 -14.5q-21 0 -35 14t-14 36q0 34 27 49q-34 31 -107 31q-93 0 -137.5 -63t-44.5 -162q0 -210 195 -210q77 0 150 35q14 6 18.5 4.5t4.5 -13.5v-27
q0 -14 -12 -21q-21 -13 -67 -25.5t-103 -12.5h-9l-7 -19q45 6 73 -13t28 -63q0 -91 -120 -91q-32 0 -71 6q-7 1 -7 13v19q0 8 1.5 10t7.5 1q50 -6 67 -6q68 0 68 47q0 38 -51 38q-10 0 -29.5 -2t-24.5 -2q-14 0 -8 12z" />
    <glyph glyph-name="egrave" unicode="&#xe8;" horiz-adv-x="525" 
d="M272 544q95 0 145.5 -44t50.5 -126q0 -79 -49.5 -123.5t-151.5 -44.5q-81 0 -150 26q5 -98 48 -141t124 -43q71 0 130 25q11 4 21.5 9t15.5 7t8 2q7 0 7 -10v-28q0 -15 -19 -26q-70 -35 -168 -35q-123 0 -182 70.5t-59 198.5q0 131 59 207t170 76zM272 490
q-73 0 -112 -53.5t-44 -152.5q73 -25 146 -25q141 0 141 117q0 114 -131 114zM300 685l-6 -13q-5 -10 -25 -3l-143 52q-22 8 -13 22l19 31q7 10 27 -1l134 -68q14 -7 7 -20z" />
    <glyph glyph-name="eacute" unicode="&#xe9;" horiz-adv-x="525" 
d="M272 544q95 0 145.5 -44t50.5 -126q0 -79 -49.5 -123.5t-151.5 -44.5q-81 0 -150 26q5 -98 48 -141t124 -43q71 0 130 25q11 4 21.5 9t15.5 7t8 2q7 0 7 -10v-28q0 -15 -19 -26q-70 -35 -168 -35q-123 0 -182 70.5t-59 198.5q0 131 59 207t170 76zM272 490
q-73 0 -112 -53.5t-44 -152.5q73 -25 146 -25q141 0 141 117q0 114 -131 114zM230 668l-6 11q-6 12 8 20l133 70q20 11 26 1l20 -31q10 -14 -10 -21l-146 -53q-19 -8 -25 3z" />
    <glyph glyph-name="ecircumflex" unicode="&#xea;" horiz-adv-x="525" 
d="M272 544q95 0 145.5 -44t50.5 -126q0 -79 -49.5 -123.5t-151.5 -44.5q-81 0 -150 26q5 -98 48 -141t124 -43q71 0 130 25q11 4 21.5 9t15.5 7t8 2q7 0 7 -10v-28q0 -15 -19 -26q-70 -35 -168 -35q-123 0 -182 70.5t-59 198.5q0 131 59 207t170 76zM272 490
q-73 0 -112 -53.5t-44 -152.5q73 -25 146 -25q141 0 141 117q0 114 -131 114zM358 674l-74 70l-73 -70q-14 -13 -27 -13h-30q-7 0 -10 2.5t-1.5 7t6.5 9.5l101 100q14 14 34 14t34 -14l102 -100q8 -8 6.5 -13.5t-11.5 -5.5h-30q-14 0 -27 13z" />
    <glyph glyph-name="edieresis" unicode="&#xeb;" horiz-adv-x="525" 
d="M272 544q95 0 145.5 -44t50.5 -126q0 -79 -49.5 -123.5t-151.5 -44.5q-81 0 -150 26q5 -98 48 -141t124 -43q71 0 130 25q11 4 21.5 9t15.5 7t8 2q7 0 7 -10v-28q0 -15 -19 -26q-70 -35 -168 -35q-123 0 -182 70.5t-59 198.5q0 131 59 207t170 76zM272 490
q-73 0 -112 -53.5t-44 -152.5q73 -25 146 -25q141 0 141 117q0 114 -131 114zM157 708q0 23 14.5 38t34.5 15t33.5 -13.5t13.5 -36.5q0 -21 -15 -35.5t-35 -14.5q-21 0 -33.5 12.5t-12.5 34.5zM317 708q0 23 14.5 38t35.5 15q20 0 33 -13.5t13 -36.5q0 -21 -15 -35.5
t-35 -14.5t-33 13t-13 34z" />
    <glyph glyph-name="igrave" unicode="&#xec;" horiz-adv-x="298" 
d="M121 442q0 22 -12 26t-61 4q-14 0 -14 14v25q0 15 15 16l118 7q14 0 19 -6.5t5 -21.5v-418q0 -21 8 -27.5t30 -6.5h36q9 0 12 -2.5t3 -10.5v-26q0 -15 -15 -15h-218q-16 0 -16 15v26q0 8 3 10.5t13 2.5h36q22 0 30 6.5t8 27.5v354zM170 685l-6 -13q-5 -10 -25 -3l-143 52
q-22 8 -13 22l19 31q7 10 27 -1l134 -68q14 -7 7 -20z" />
    <glyph glyph-name="iacute" unicode="&#xed;" horiz-adv-x="298" 
d="M122 442q0 22 -12 26t-61 4q-14 0 -14 14v25q0 15 15 16l118 7q14 0 19 -6.5t5 -21.5v-418q0 -21 8 -27.5t30 -6.5h36q9 0 12 -2.5t3 -10.5v-26q0 -9 -3 -12t-12 -3h-218q-16 0 -16 15v26q0 8 3 10.5t13 2.5h36q22 0 30 6.5t8 27.5v354zM116 668l-6 11q-6 12 8 20l133 70
q20 11 26 1l20 -31q10 -14 -10 -21l-146 -53q-19 -8 -25 3z" />
    <glyph glyph-name="icircumflex" unicode="&#xee;" horiz-adv-x="298" 
d="M122 442q0 22 -12 26t-61 4q-14 0 -14 14v25q0 15 15 16l118 7q14 0 19 -6.5t5 -21.5v-418q0 -21 8 -27.5t30 -6.5h36q9 0 12 -2.5t3 -10.5v-26q0 -9 -3 -12t-12 -3h-218q-16 0 -16 15v26q0 8 3 10.5t13 2.5h36q22 0 30 6.5t8 27.5v354zM230 674l-74 70l-73 -70
q-14 -13 -27 -13h-30q-7 0 -10 2.5t-1.5 7t6.5 9.5l101 100q14 14 34 14t34 -14l102 -100q8 -8 6.5 -13.5t-11.5 -5.5h-30q-14 0 -27 13z" />
    <glyph glyph-name="idieresis" unicode="&#xef;" horiz-adv-x="298" 
d="M122 442q0 22 -12 26t-61 4q-14 0 -14 14v25q0 15 15 16l118 7q14 0 19 -6.5t5 -21.5v-418q0 -21 8 -27.5t30 -6.5h36q9 0 12 -2.5t3 -10.5v-26q0 -9 -3 -12t-12 -3h-218q-16 0 -16 15v26q0 8 3 10.5t13 2.5h36q22 0 30 6.5t8 27.5v354zM28 708q0 23 14.5 38t34.5 15
t33.5 -13.5t13.5 -36.5q0 -21 -15 -35.5t-35 -14.5t-33 12.5t-13 34.5zM188 708q0 23 14.5 38t35.5 15q20 0 33 -13.5t13 -36.5q0 -21 -15 -35.5t-35 -14.5t-33 13t-13 34z" />
    <glyph glyph-name="eth" unicode="&#xf0;" horiz-adv-x="583" 
d="M535 625l-100 -39q98 -124 98 -297q0 -36 -6.5 -73t-24.5 -79t-46 -74t-76 -53t-109 -21q-113 0 -174 69t-61 164q0 93 61 161.5t167 67.5q61 -1 118.5 -33.5t81.5 -78.5q-10 119 -96 221l-128 -49q-30 -10 -40 17q-6 17 -0.5 24.5t27.5 16.5l98 37q-49 47 -115 94
q-9 6 -9 14q0 6 5 11l20 18q8 8 16 8q3 0 15 -6q83 -58 137 -112l125 48q24 11 35 -19q10 -26 -19 -37zM272 50q83 0 126.5 51t43.5 118q0 75 -55.5 124t-113.5 49q-75 0 -119 -51.5t-44 -120.5q0 -70 42 -120t120 -50z" />
    <glyph glyph-name="ntilde" unicode="&#xf1;" horiz-adv-x="620" 
d="M340 483q-75 0 -113.5 -57t-38.5 -162v-176q0 -21 8 -27.5t31 -6.5h35q10 0 13 -2.5t3 -10.5v-26q0 -15 -16 -15h-218q-15 0 -15 15v26q0 13 15 13h37q22 0 29.5 6.5t7.5 27.5v354q0 22 -11.5 26t-60.5 4q-15 0 -15 14v25q0 15 16 16l118 7q13 0 18 -6.5t5 -21.5v-66
q21 52 66.5 78t104.5 26q76 0 120.5 -44.5t44.5 -130.5v-276q0 -42 32 -42q8 0 36 5q15 4 15 -8v-27q0 -13 -13 -18q-27 -8 -58 -8q-82 0 -82 88v273q0 127 -114 127zM379 713q29 0 30 33q2 7 9 7h28q8 0 8 -9q0 -81 -74 -81q-41 0 -58 26q-1 1 -2 3l-1.5 3l-1.5 3t-2 3
t-2.5 2l-3 2t-4 1.5l-5 1t-5.5 0.5q-27 0 -29 -33q-1 -8 -10 -8h-26q-9 0 -9 10q0 38 19 59t55 21q38 0 55 -30q9 -14 29 -14z" />
    <glyph glyph-name="ograve" unicode="&#xf2;" horiz-adv-x="559" 
d="M43 266q0 126 57.5 202t178.5 76t179 -76t58 -202t-58 -202.5t-179 -76.5t-178.5 76.5t-57.5 202.5zM279 490q-163 0 -163 -224q0 -225 163 -225q164 0 164 225q0 224 -164 224zM299 686l-6 -13q-5 -10 -25 -3l-143 52q-22 8 -13 22l19 31q7 10 27 -1l134 -68
q14 -7 7 -20z" />
    <glyph glyph-name="oacute" unicode="&#xf3;" horiz-adv-x="559" 
d="M43 266q0 126 57.5 202t178.5 76t179 -76t58 -202t-58 -202.5t-179 -76.5t-178.5 76.5t-57.5 202.5zM279 490q-163 0 -163 -224q0 -225 163 -225q164 0 164 225q0 224 -164 224zM244 668l-6 11q-6 12 8 20l133 70q20 11 26 1l20 -31q10 -14 -10 -21l-146 -53
q-19 -8 -25 3z" />
    <glyph glyph-name="ocircumflex" unicode="&#xf4;" horiz-adv-x="559" 
d="M43 266q0 126 57.5 202t178.5 76t179 -76t58 -202t-58 -202.5t-179 -76.5t-178.5 76.5t-57.5 202.5zM279 490q-163 0 -163 -224q0 -225 163 -225q164 0 164 225q0 224 -164 224zM358 675l-74 70l-73 -70q-14 -13 -27 -13h-30q-7 0 -10 2.5t-1.5 7t6.5 9.5l101 100
q14 14 34 14t34 -14l102 -100q8 -7 6.5 -13t-11.5 -6h-30q-14 0 -27 13z" />
    <glyph glyph-name="otilde" unicode="&#xf5;" horiz-adv-x="559" 
d="M43 266q0 126 57.5 202t178.5 76t179 -76t58 -202t-58 -202.5t-179 -76.5t-178.5 76.5t-57.5 202.5zM279 490q-163 0 -163 -224q0 -225 163 -225q164 0 164 225q0 224 -164 224zM328 713q28 0 30 33q2 7 9 7h28q8 0 8 -9q0 -81 -74 -81q-41 0 -58 26q-1 1 -2 3l-1.5 3
l-1.5 3t-2 3t-2.5 2l-3 2t-4 1.5l-5 1t-5.5 0.5q-27 0 -29 -33q-1 -8 -10 -8h-26q-9 0 -9 10q0 38 19 59t55 21q38 0 55 -30q9 -14 29 -14z" />
    <glyph glyph-name="odieresis" unicode="&#xf6;" horiz-adv-x="559" 
d="M43 266q0 126 57.5 202t178.5 76t179 -76t58 -202t-58 -202.5t-179 -76.5t-178.5 76.5t-57.5 202.5zM279 490q-163 0 -163 -224q0 -225 163 -225q164 0 164 225q0 224 -164 224zM157 708q0 23 14.5 38t34.5 15t33.5 -13.5t13.5 -36.5q0 -21 -15 -35.5t-35 -14.5
q-21 0 -33.5 12.5t-12.5 34.5zM317 708q0 23 14.5 38t35.5 15q20 0 33 -13.5t13 -36.5q0 -21 -15 -35.5t-35 -14.5t-33 13t-13 34z" />
    <glyph glyph-name="divide" unicode="&#xf7;" horiz-adv-x="567" 
d="M496 307h-425q-11 0 -11 11v32q0 11 11 11h426q11 0 11 -11v-32q0 -11 -12 -11zM237 533q0 26 16.5 43t39.5 17q22 0 37 -15t15 -40q0 -26 -16.5 -42t-40.5 -16q-22 0 -36.5 14.5t-14.5 38.5zM237 123q0 26 16.5 43t39.5 17q22 0 37 -15t15 -40q0 -26 -16.5 -42
t-40.5 -16q-22 0 -36.5 14.5t-14.5 38.5z" />
    <glyph glyph-name="oslash" unicode="&#xf8;" horiz-adv-x="569" 
d="M106 -67l38 90q-101 68 -101 243q0 126 57.5 202t178.5 76q41 0 79 -11l38 91q4 10 7 13.5t10 2.5l45 -10q12 -3 4 -20l-44 -105q98 -68 98 -239q0 -126 -58 -202.5t-179 -76.5q-38 0 -75 10l-33 -81q-7 -16 -16 -13l-45 10q-11 2 -4 20zM279 490q-163 0 -163 -224
q0 -129 53 -183l167 398q-26 9 -57 9zM443 266q0 122 -51 179l-166 -397q22 -7 53 -7q164 0 164 225z" />
    <glyph glyph-name="ugrave" unicode="&#xf9;" 
d="M277 49q77 0 117.5 50t40.5 141v202q0 22 -11.5 26t-60.5 4q-15 0 -15 14v25q0 15 16 16l118 7q13 0 18 -6.5t5 -21.5v-413q0 -42 31 -42q7 0 37 5q14 5 14 -8v-27q0 -13 -13 -18q-27 -8 -57 -8q-74 0 -81 72q-57 -77 -175 -77q-84 0 -124 42t-40 141v269q0 22 -12 26
t-61 4q-14 0 -14 14v25q0 15 15 16l118 7q14 0 19 -6.5t5 -21.5v-336q0 -121 110 -121zM289 685l-6 -13q-5 -10 -25 -3l-143 52q-22 8 -13 22l19 31q7 10 27 -1l134 -68q14 -7 7 -20z" />
    <glyph glyph-name="uacute" unicode="&#xfa;" 
d="M277 49q77 0 117.5 50t40.5 141v202q0 22 -11.5 26t-60.5 4q-15 0 -15 14v25q0 15 16 16l118 7q13 0 18 -6.5t5 -21.5v-413q0 -42 31 -42q7 0 37 5q14 5 14 -8v-27q0 -13 -13 -18q-27 -8 -57 -8q-74 0 -81 72q-57 -77 -175 -77q-84 0 -124 42t-40 141v269q0 22 -12 26
t-61 4q-14 0 -14 14v25q0 15 15 16l118 7q14 0 19 -6.5t5 -21.5v-336q0 -121 110 -121zM234 668l-6 11q-6 12 8 20l133 70q20 11 26 1l20 -31q10 -14 -10 -21l-146 -53q-19 -8 -25 3z" />
    <glyph glyph-name="ucircumflex" unicode="&#xfb;" 
d="M277 49q77 0 117.5 50t40.5 141v202q0 22 -11.5 26t-60.5 4q-15 0 -15 14v25q0 15 16 16l118 7q13 0 18 -6.5t5 -21.5v-413q0 -42 31 -42q7 0 37 5q14 5 14 -8v-27q0 -13 -13 -18q-27 -8 -57 -8q-74 0 -81 72q-57 -77 -175 -77q-84 0 -124 42t-40 141v269q0 22 -12 26
t-61 4q-14 0 -14 14v25q0 15 15 16l118 7q14 0 19 -6.5t5 -21.5v-336q0 -121 110 -121zM348 674l-74 70l-73 -70q-14 -13 -27 -13h-30q-7 0 -10 2.5t-1.5 7t6.5 9.5l101 100q14 14 34 14t34 -14l102 -100q8 -8 6.5 -13.5t-11.5 -5.5h-30q-14 0 -27 13z" />
    <glyph glyph-name="udieresis" unicode="&#xfc;" 
d="M277 49q77 0 117.5 50t40.5 141v202q0 22 -11.5 26t-60.5 4q-15 0 -15 14v25q0 15 16 16l118 7q13 0 18 -6.5t5 -21.5v-413q0 -42 31 -42q7 0 37 5q14 5 14 -8v-27q0 -13 -13 -18q-27 -8 -57 -8q-74 0 -81 72q-57 -77 -175 -77q-84 0 -124 42t-40 141v269q0 22 -12 26
t-61 4q-14 0 -14 14v25q0 15 15 16l118 7q14 0 19 -6.5t5 -21.5v-336q0 -121 110 -121zM147 708q0 23 14.5 38t34.5 15t33.5 -13.5t13.5 -36.5q0 -21 -15 -35.5t-35 -14.5q-21 0 -33.5 12.5t-12.5 34.5zM307 708q0 23 14.5 38t35.5 15q20 0 33 -13.5t13 -36.5
q0 -21 -15 -35.5t-35 -14.5t-33 13t-13 34z" />
    <glyph glyph-name="yacute" unicode="&#xfd;" horiz-adv-x="601" 
d="M173 438l133 -376l132 375q8 23 2.5 29t-31.5 6h-22q-14 0 -14 14v25q0 10 3 12.5t13 2.5h190q10 0 12.5 -3t2.5 -12v-22q0 -16 -16 -16h-27q-22 0 -30 -6.5t-18 -33.5l-195 -540q-30 -79 -69.5 -110.5t-97.5 -31.5q-45 0 -76 22t-35 60v8q0 21 14.5 35.5t33.5 14.5
t32.5 -13t13.5 -35q0 -26 -23 -42q16 -8 37 -8q36 0 62.5 24.5t49.5 85.5l25 71l-177 460q-11 26 -17.5 32t-29.5 6h-26q-15 0 -15 15v25q0 9 3 11.5t12 2.5h204q9 0 12 -2.5t3 -12.5v-23q0 -15 -15 -15h-34q-22 0 -26 -6.5t4 -28.5zM268 668l-6 11q-6 12 8 20l133 70
q20 11 26 1l20 -31q10 -14 -10 -21l-146 -53q-19 -8 -25 3z" />
    <glyph glyph-name="thorn" unicode="&#xfe;" horiz-adv-x="580" 
d="M153 722v-297q49 118 184 118q197 0 197 -267q0 -143 -58.5 -216t-171.5 -73q-79 0 -151 37v-163q0 -19 -19 -20h-34q-17 0 -17 19v861q0 20 18 21h35q17 0 17 -20zM323 486q-150 0 -169 -216v-182q55 -44 144 -44q165 0 165 231q0 211 -140 211z" />
    <glyph glyph-name="ydieresis" unicode="&#xff;" horiz-adv-x="601" 
d="M173 438l133 -376l132 375q8 23 2.5 29t-31.5 6h-22q-14 0 -14 14v25q0 10 3 12.5t13 2.5h190q10 0 12.5 -3t2.5 -12v-22q0 -16 -16 -16h-27q-22 0 -30 -6.5t-18 -33.5l-195 -540q-30 -79 -69.5 -110.5t-97.5 -31.5q-45 0 -76 22t-35 60v8q0 21 14.5 35.5t33.5 14.5
t32.5 -13t13.5 -35q0 -26 -23 -42q16 -8 37 -8q36 0 62.5 24.5t49.5 85.5l25 71l-177 460q-11 26 -17.5 32t-29.5 6h-26q-15 0 -15 15v25q0 9 3 11.5t12 2.5h204q9 0 12 -2.5t3 -12.5v-23q0 -15 -15 -15h-34q-22 0 -26 -6.5t4 -28.5zM180 708q0 23 14.5 38t34.5 15
t33.5 -13.5t13.5 -36.5q0 -21 -15 -35.5t-35 -14.5t-33 12.5t-13 34.5zM340 708q0 23 14.5 38t35.5 15q20 0 33 -13.5t13 -36.5q0 -21 -15 -35.5t-35 -14.5t-33 13t-13 34z" />
    <glyph glyph-name="Amacron" unicode="&#x100;" horiz-adv-x="683" 
d="M517 100l-47 143h-271l-48 -149q-8 -25 -2 -32t31 -8l18 -1q12 0 16 -3.5t4 -13.5v-21q0 -10 -3.5 -12.5t-15.5 -2.5h-179q-8 0 -11.5 3t-3.5 12v22q0 17 15 17l34 1q13 0 20 7t16 35l204 616q4 10 7.5 12.5t16.5 2.5h48q16 0 22 -14l204 -612q12 -32 19.5 -39.5
t32.5 -8.5h21q13 0 16.5 -3t3.5 -13v-23q0 -10 -3 -12.5t-16 -2.5h-194q-12 0 -15.5 2.5t-3.5 12.5v22q0 10 3.5 12.5t17.5 3.5h17q33 1 33 17q0 10 -7 30zM334 659l-118 -363h237zM462 802h-231q-17 0 -17 35q0 22 17 22h227q16 0 16 -32q0 -25 -12 -25z" />
    <glyph glyph-name="amacron" unicode="&#x101;" horiz-adv-x="543" 
d="M449 93q0 -42 31 -42q9 0 36 5q8 3 11 1.5t3 -9.5v-27q0 -13 -12 -18q-29 -8 -57 -8q-80 0 -82 82q-57 -83 -183 -83q-157 0 -157 138q0 93 71.5 133t215.5 40h53v43q0 81 -30 112t-100 31q-84 0 -117 -36q27 -13 27 -44q0 -22 -14.5 -36t-34.5 -14q-19 0 -32 13t-13 34
v4q1 72 47.5 102t135.5 30q104 0 152.5 -44t48.5 -158v-249zM109 133q0 -86 97 -86q75 0 124 45.5t49 123.5v37h-53q-112 0 -164.5 -27.5t-52.5 -92.5zM383 666h-231q-17 0 -17 35q0 22 17 22h227q16 0 16 -32q0 -25 -12 -25z" />
    <glyph glyph-name="Abreve" unicode="&#x102;" horiz-adv-x="683" 
d="M517 100l-47 143h-271l-48 -149q-8 -25 -2 -32t31 -8l18 -1q12 0 16 -3.5t4 -13.5v-21q0 -10 -3.5 -12.5t-15.5 -2.5h-179q-8 0 -11.5 3t-3.5 12v22q0 17 15 17l34 1q13 0 20 7t16 35l204 616q4 10 7.5 12.5t16.5 2.5h48q16 0 22 -14l204 -612q12 -32 19.5 -39.5
t32.5 -8.5h21q13 0 16.5 -3t3.5 -13v-23q0 -10 -3 -12.5t-16 -2.5h-194q-12 0 -15.5 2.5t-3.5 12.5v22q0 10 3.5 12.5t17.5 3.5h17q33 1 33 17q0 10 -7 30zM334 659l-118 -363h237zM340 837q67 0 67 49q0 11 11 11h33q11 0 11 -13q0 -46 -33.5 -72t-88.5 -26q-58 0 -89 26
t-31 73q0 12 11 12h33q11 0 11 -10q0 -50 65 -50z" />
    <glyph glyph-name="abreve" unicode="&#x103;" horiz-adv-x="543" 
d="M449 93q0 -42 31 -42q9 0 36 5q8 3 11 1.5t3 -9.5v-27q0 -13 -12 -18q-29 -8 -57 -8q-80 0 -82 82q-57 -83 -183 -83q-157 0 -157 138q0 93 71.5 133t215.5 40h53v43q0 81 -30 112t-100 31q-84 0 -117 -36q27 -13 27 -44q0 -22 -14.5 -36t-34.5 -14q-19 0 -32 13t-13 34
v4q1 72 47.5 102t135.5 30q104 0 152.5 -44t48.5 -158v-249zM109 133q0 -86 97 -86q75 0 124 45.5t49 123.5v37h-53q-112 0 -164.5 -27.5t-52.5 -92.5zM261 702q67 0 67 49q0 11 11 11h33q11 0 11 -13q0 -46 -33.5 -72t-88.5 -26q-58 0 -89 25.5t-31 73.5q0 12 11 12h33
q11 0 11 -10q0 -50 65 -50z" />
    <glyph glyph-name="Aogonek" unicode="&#x104;" horiz-adv-x="683" 
d="M517 100l-47 143h-271l-48 -149q-8 -25 -2 -32t31 -8l18 -1q12 0 16 -3.5t4 -13.5v-21q0 -10 -3.5 -12.5t-15.5 -2.5h-179q-8 0 -11.5 3t-3.5 12v22q0 17 15 17l34 1q13 0 20 7t16 35l204 616q4 10 7.5 12.5t16.5 2.5h48q16 0 22 -14l204 -612q12 -32 19.5 -39.5
t32.5 -8.5h21q13 0 16.5 -3t3.5 -13v-23q0 -10 -3 -12.5t-16 -2.5h-84q-59 -38 -59 -91q0 -43 48 -43q26 0 47 11q20 10 25 -3l6 -15q4 -12 -9 -21q-32 -21 -78 -21q-45 0 -72.5 20t-27.5 61q0 60 67 102h-57q-12 0 -15.5 2.5t-3.5 12.5v22q0 10 3.5 12.5t17.5 3.5h17
q33 1 33 17q0 10 -7 30zM334 659l-118 -363h237z" />
    <glyph glyph-name="aogonek" unicode="&#x105;" horiz-adv-x="543" 
d="M449 93q0 -42 31 -42q9 0 36 5q8 3 11 1.5t3 -9.5v-27q0 -13 -12 -18q-28 -7 -46 -8q-59 -38 -59 -91q0 -43 48 -43q26 0 47 11q20 10 25 -3l6 -15q4 -12 -9 -21q-32 -21 -78 -21q-45 0 -72.5 20t-27.5 61q0 65 75 107q-47 15 -48 77q-57 -83 -183 -83q-157 0 -157 138
q0 93 71.5 133t215.5 40h53v43q0 81 -30 112t-100 31q-84 0 -117 -36q27 -13 27 -44q0 -22 -14.5 -36t-34.5 -14q-19 0 -32 13t-13 34v4q1 72 47.5 102t135.5 30q104 0 152.5 -44t48.5 -158v-249zM109 133q0 -86 97 -86q75 0 124 45.5t49 123.5v37h-53q-112 0 -164.5 -27.5
t-52.5 -92.5z" />
    <glyph glyph-name="Cacute" unicode="&#x106;" horiz-adv-x="675" 
d="M121 349q0 -138 68.5 -219.5t213.5 -81.5q51 0 100.5 11.5t65 18.5t48.5 23q10 6 15.5 7t9 -2t3.5 -13v-26q0 -14 -15 -23q-88 -55 -235 -55q-161 0 -255 90.5t-94 269.5q0 171 91.5 276.5t255.5 105.5q119 0 180 -52t63 -120v-5q0 -25 -16.5 -39.5t-40.5 -14.5
q-22 0 -37 14.5t-15 38.5q0 21 12 35t31 18q-47 68 -172 68q-139 0 -208 -91.5t-69 -233.5zM353 771l-6 11q-6 12 8 20l133 70q20 11 26 1l20 -31q10 -14 -10 -21l-146 -53q-19 -8 -25 3z" />
    <glyph glyph-name="cacute" unicode="&#x107;" horiz-adv-x="521" 
d="M117 262q0 -210 195 -210q77 0 150 35q14 6 18.5 4.5t4.5 -13.5v-27q0 -14 -12 -21q-21 -13 -67 -25.5t-103 -12.5q-132 0 -196 70.5t-64 195.5q0 132 67.5 209t187.5 77q90 0 135.5 -41t45.5 -94q0 -23 -14.5 -37.5t-36.5 -14.5q-21 0 -35 14t-14 36q0 34 27 49
q-34 31 -107 31q-93 0 -137.5 -63t-44.5 -162zM260 668l-6 11q-6 12 8 20l133 70q20 11 26 1l20 -31q10 -14 -10 -21l-146 -53q-19 -8 -25 3z" />
    <glyph glyph-name="Ccircumflex" unicode="&#x108;" horiz-adv-x="675" 
d="M121 349q0 -138 68.5 -219.5t213.5 -81.5q51 0 100.5 11.5t65 18.5t48.5 23q10 6 15.5 7t9 -2t3.5 -13v-26q0 -14 -15 -23q-88 -55 -235 -55q-161 0 -255 90.5t-94 269.5q0 171 91.5 276.5t255.5 105.5q119 0 180 -52t63 -120v-5q0 -25 -16.5 -39.5t-40.5 -14.5
q-22 0 -37 14.5t-15 38.5q0 21 12 35t31 18q-47 68 -172 68q-139 0 -208 -91.5t-69 -233.5zM466 778l-74 70l-73 -70q-14 -13 -27 -13h-30q-7 0 -10 2.5t-1.5 7t6.5 9.5l101 100q14 14 34 14t34 -14l102 -100q8 -8 6.5 -13.5t-11.5 -5.5h-30q-14 0 -27 13z" />
    <glyph glyph-name="ccircumflex" unicode="&#x109;" horiz-adv-x="521" 
d="M117 262q0 -210 195 -210q77 0 150 35q14 6 18.5 4.5t4.5 -13.5v-27q0 -14 -12 -21q-21 -13 -67 -25.5t-103 -12.5q-132 0 -196 70.5t-64 195.5q0 132 67.5 209t187.5 77q90 0 135.5 -41t45.5 -94q0 -23 -14.5 -37.5t-36.5 -14.5q-21 0 -35 14t-14 36q0 34 27 49
q-34 31 -107 31q-93 0 -137.5 -63t-44.5 -162zM373 674l-74 70l-73 -70q-14 -13 -27 -13h-30q-7 0 -10 2.5t-1.5 7t6.5 9.5l101 100q14 14 34 14t34 -14l102 -100q8 -8 6.5 -13.5t-11.5 -5.5h-30q-14 0 -27 13z" />
    <glyph glyph-name="Cdotaccent" unicode="&#x10a;" horiz-adv-x="676" 
d="M121 349q0 -138 68.5 -219.5t213.5 -81.5q51 0 100.5 11.5t65 18.5t48.5 23q10 6 15.5 7t9 -2t3.5 -13v-26q0 -14 -15 -23q-88 -55 -235 -55q-161 0 -255 90.5t-94 269.5q0 171 91.5 276.5t255.5 105.5q119 0 180 -52t63 -120v-5q0 -25 -16.5 -39.5t-40.5 -14.5
q-22 0 -37 14.5t-15 38.5q0 21 12 35t31 18q-47 68 -172 68q-139 0 -208 -91.5t-69 -233.5zM338 799q0 25 17 42t39 17t37.5 -15t15.5 -40t-17 -41t-40 -16q-22 0 -37 14.5t-15 38.5z" />
    <glyph glyph-name="cdotaccent" unicode="&#x10b;" horiz-adv-x="521" 
d="M245 722q0 25 17 42t39 17q23 0 38 -15t15 -40t-17 -41t-40 -16q-22 0 -37 14.5t-15 38.5zM117 262q0 -210 195 -210q77 0 150 35q14 6 18.5 4.5t4.5 -13.5v-27q0 -14 -12 -21q-21 -13 -67 -25.5t-103 -12.5q-132 0 -196 70.5t-64 195.5q0 132 67.5 209t187.5 77
q90 0 135.5 -41t45.5 -94q0 -23 -14.5 -37.5t-36.5 -14.5q-21 0 -35 14t-14 36q0 34 27 49q-34 31 -107 31q-93 0 -137.5 -63t-44.5 -162z" />
    <glyph glyph-name="Ccaron" unicode="&#x10c;" horiz-adv-x="676" 
d="M121 349q0 -138 68.5 -219.5t213.5 -81.5q51 0 100.5 11.5t65 18.5t48.5 23q10 6 15.5 7t9 -2t3.5 -13v-26q0 -14 -15 -23q-88 -55 -235 -55q-161 0 -255 90.5t-94 269.5q0 171 91.5 276.5t255.5 105.5q119 0 180 -52t63 -120v-5q0 -25 -16.5 -39.5t-40.5 -14.5
q-22 0 -37 14.5t-15 38.5q0 21 12 35t31 18q-47 68 -172 68q-139 0 -208 -91.5t-69 -233.5zM317 881l75 -71l72 71q14 13 28 13h29q11 0 12 -6t-7 -13l-101 -100q-13 -14 -33 -14q-21 0 -35 14l-101 100q-5 5 -6.5 9.5t1.5 7t10 2.5h29q13 0 27 -13z" />
    <glyph glyph-name="ccaron" unicode="&#x10d;" horiz-adv-x="521" 
d="M117 262q0 -210 195 -210q77 0 150 35q14 6 18.5 4.5t4.5 -13.5v-27q0 -14 -12 -21q-21 -13 -67 -25.5t-103 -12.5q-132 0 -196 70.5t-64 195.5q0 132 67.5 209t187.5 77q90 0 135.5 -41t45.5 -94q0 -23 -14.5 -37.5t-36.5 -14.5q-21 0 -35 14t-14 36q0 34 27 49
q-34 31 -107 31q-93 0 -137.5 -63t-44.5 -162zM225 778l75 -71l72 71q14 13 28 13h29q11 0 12 -5.5t-7 -13.5l-101 -100q-13 -14 -33 -14q-21 0 -35 14l-101 100q-5 5 -6.5 9.5t1.5 7t10 2.5h29q13 0 27 -13z" />
    <glyph glyph-name="Dcaron" unicode="&#x10e;" horiz-adv-x="719" 
d="M672 360q0 -360 -390 -360h-225q-8 0 -11.5 3t-3.5 12v22q0 17 14 17q45 0 58 7t13 34v539q0 32 -27 33h-44q-14 0 -14 15v25q0 9 3.5 12t13.5 3h223q198 0 294 -90t96 -272zM199 667v-610h82q164 0 240 72.5t76 230.5q0 160 -77 233.5t-241 73.5h-80zM286 874l75 -71
l72 71q14 13 28 13h29q11 0 12 -5.5t-7 -13.5l-101 -100q-13 -14 -33 -14q-21 0 -35 14l-101 100q-5 5 -6.5 9.5t1.5 7t10 2.5h29q13 0 27 -13z" />
    <glyph glyph-name="dcaron" unicode="&#x10f;" horiz-adv-x="601" 
d="M488 19q0 -19 -12 -19h-40q-10 0 -12 15l-5 76q-53 -104 -178 -104q-93 0 -145 65t-52 190q0 137 61.5 219t176.5 82q70 0 136 -44v171q0 31 -26 31l-47 1q-9 1 -11.5 4.5t-2.5 12.5v20q0 10 2.5 13t11.5 4l120 7q13 1 18 -5.5t5 -22.5v-716zM257 44q142 0 161 216v180
q-50 46 -128 46q-89 0 -131.5 -70t-42.5 -171q0 -88 34.5 -144.5t106.5 -56.5zM579 571l-9 178q-1 9 6.5 12.5t31.5 3.5t32 -3.5t7 -12.5l-9 -178q-1 -16 -30 -16q-17 0 -23 3t-6 13z" />
    <glyph glyph-name="Dcroat" unicode="&#x110;" horiz-adv-x="719" 
d="M127 357h-70q-17 0 -17 35q0 22 17 22h70v220q0 18 -5.5 25t-20.5 8h-44q-15 0 -15 15v25q0 9 3.5 12t14.5 3h223q198 0 294 -90t96 -272q0 -360 -390 -360h-225q-16 0 -16 15v22q0 17 15 17q45 0 57.5 7t12.5 34v262zM200 667v-253h139q16 0 16 -33q0 -24 -13 -24h-142
v-300h82q164 0 240 72.5t76 230.5q0 160 -77 233.5t-241 73.5h-80z" />
    <glyph glyph-name="dcroat" unicode="&#x111;" horiz-adv-x="571" 
d="M305 680h113v55q0 28 16 28h39q9 1 12 -5.5t3 -22.5v-55h75q9 0 11.5 -3t2.5 -12v-23q0 -10 -3 -13t-12 -3h-74v-607q0 -19 -12 -19h-40q-10 0 -12 15l-5 76q-53 -104 -178 -104q-93 0 -145 65t-52 190q0 137 61.5 219t176.5 82q70 0 136 -44v127h-113q-9 0 -12 3t-3 13
v23q0 9 2.5 12t12.5 3zM257 44q142 0 161 216v180q-50 46 -128 46q-89 0 -131.5 -70t-42.5 -171q0 -88 34.5 -144.5t106.5 -56.5z" />
    <glyph glyph-name="Emacron" unicode="&#x112;" horiz-adv-x="611" 
d="M57 0q-8 0 -11.5 3t-3.5 12v22q0 17 14 17q45 0 58 7t13 34v539q0 32 -27 33h-44q-14 0 -14 15v25q0 9 3.5 12t13.5 3h438q28 0 35.5 -7t10.5 -40l6 -99q2 -15 -0.5 -19.5t-14.5 -4.5h-22q-12 0 -16 4t-5 18l-4 47q-3 33 -18.5 40t-66.5 7h-203v-286h136q24 0 25 29l2 38
q1 11 4 13.5t14 2.5h19q11 0 14 -3.5t3 -12.5v-188q0 -9 -3 -12t-12 -3h-21q-11 0 -14 2.5t-4 11.5l-2 39q-1 30 -25 30h-136v-275h251q32 0 41 6.5t14 32.5l9 90q3 14 20 14h23q16 0 15 -16l-14 -157q-1 -16 -7 -20t-21 -4h-473zM439 802h-231q-17 0 -17 35q0 22 17 22h227
q16 0 16 -32q0 -25 -12 -25z" />
    <glyph glyph-name="emacron" unicode="&#x113;" horiz-adv-x="525" 
d="M272 544q95 0 145.5 -44t50.5 -126q0 -79 -49.5 -123.5t-151.5 -44.5q-81 0 -150 26q5 -98 48 -141t124 -43q71 0 130 25q11 4 21.5 9t15.5 7t8 2q7 0 7 -10v-28q0 -15 -19 -26q-70 -35 -168 -35q-123 0 -182 70.5t-59 198.5q0 131 59 207t170 76zM272 490
q-73 0 -112 -53.5t-44 -152.5q73 -25 146 -25q141 0 141 117q0 114 -131 114zM406 666h-231q-17 0 -17 35q0 22 17 22h227q16 0 16 -32q0 -25 -12 -25z" />
    <glyph glyph-name="Ebreve" unicode="&#x114;" horiz-adv-x="611" 
d="M57 0q-8 0 -11.5 3t-3.5 12v22q0 17 14 17q45 0 58 7t13 34v539q0 32 -27 33h-44q-14 0 -14 15v25q0 9 3.5 12t13.5 3h438q28 0 35.5 -7t10.5 -40l6 -99q2 -15 -0.5 -19.5t-14.5 -4.5h-22q-12 0 -16 4t-5 18l-4 47q-3 33 -18.5 40t-66.5 7h-203v-286h136q24 0 25 29l2 38
q1 11 4 13.5t14 2.5h19q11 0 14 -3.5t3 -12.5v-188q0 -9 -3 -12t-12 -3h-21q-11 0 -14 2.5t-4 11.5l-2 39q-1 30 -25 30h-136v-275h251q32 0 41 6.5t14 32.5l9 90q3 14 20 14h23q16 0 15 -16l-14 -157q-1 -16 -7 -20t-21 -4h-473zM317 837q67 0 67 49q0 11 11 11h33
q11 0 11 -13q0 -46 -33.5 -72t-88.5 -26q-58 0 -89 26t-31 73q0 12 11 12h33q11 0 11 -10q0 -50 65 -50z" />
    <glyph glyph-name="ebreve" unicode="&#x115;" horiz-adv-x="525" 
d="M272 544q95 0 145.5 -44t50.5 -126q0 -79 -49.5 -123.5t-151.5 -44.5q-81 0 -150 26q5 -98 48 -141t124 -43q71 0 130 25q11 4 21.5 9t15.5 7t8 2q7 0 7 -10v-28q0 -15 -19 -26q-70 -35 -168 -35q-123 0 -182 70.5t-59 198.5q0 131 59 207t170 76zM272 490
q-73 0 -112 -53.5t-44 -152.5q73 -25 146 -25q141 0 141 117q0 114 -131 114zM284 702q67 0 67 49q0 11 11 11h33q11 0 11 -13q0 -46 -33.5 -72t-88.5 -26q-58 0 -89 25.5t-31 73.5q0 12 11 12h33q11 0 11 -10q0 -50 65 -50z" />
    <glyph glyph-name="Edotaccent" unicode="&#x116;" horiz-adv-x="611" 
d="M57 0q-8 0 -11.5 3t-3.5 12v22q0 17 14 17q42 0 56 5.5t15 27.5v547q0 32 -27 33h-43q-15 0 -15 15v25q0 9 3.5 12t14.5 3h437q28 0 36 -7t10 -40l6 -99q2 -15 -0.5 -19.5t-14.5 -4.5h-22q-12 0 -16 4t-5 18l-4 47q-3 33 -18 40t-67 7h-203v-286h136q23 0 26 29l1 38
q1 11 4 13.5t14 2.5h19q11 0 14 -3t3 -13v-188q0 -9 -2.5 -12t-11.5 -3h-22q-11 0 -14 2.5t-4 11.5l-2 39q-1 30 -25 30h-136v-275h251q32 0 41 6.5t14 32.5l9 90q3 14 21 14h22q16 0 15 -16l-14 -157q-1 -16 -7 -20t-21 -4h-473zM263 831q0 25 16.5 42t39.5 17
q22 0 37.5 -15t15.5 -40t-17 -41t-40 -16q-22 0 -37 14.5t-15 38.5z" />
    <glyph glyph-name="edotaccent" unicode="&#x117;" horiz-adv-x="525" 
d="M230 721q0 26 17 43t39 17t37.5 -15t15.5 -40t-17 -41.5t-40 -16.5q-22 0 -37 14.5t-15 38.5zM272 544q95 0 145.5 -44t50.5 -126q0 -79 -49.5 -123.5t-151.5 -44.5q-81 0 -150 26q5 -98 48 -141t124 -43q71 0 130 25q11 4 21.5 9t15.5 7t8 2q7 0 7 -10v-28
q0 -15 -19 -26q-70 -35 -168 -35q-123 0 -182 70.5t-59 198.5q0 131 59 207t170 76zM272 490q-73 0 -112 -53.5t-44 -152.5q73 -25 146 -25q141 0 141 117q0 114 -131 114z" />
    <glyph glyph-name="Eogonek" unicode="&#x118;" horiz-adv-x="612" 
d="M57 0q-8 0 -11.5 3t-3.5 12v22q0 17 14 17q45 0 58 7t13 34v539q0 32 -27 33h-43q-15 0 -15 15v25q0 9 3.5 12t14.5 3h437q28 0 36 -7t10 -40l6 -99q2 -15 -0.5 -19.5t-14.5 -4.5h-22q-12 0 -16 4t-5 18l-4 47q-3 33 -18 40t-67 7h-203v-286h136q23 0 26 29l1 38
q1 11 4 13.5t14 2.5h19q11 0 14 -3t3 -13v-188q0 -9 -2.5 -12t-11.5 -3h-22q-11 0 -14 2.5t-4 11.5l-2 39q-1 30 -25 30h-136v-275h251q32 0 41 6.5t14 32.5l9 90q3 14 21 14h22q16 0 15 -16l-14 -157q-1 -16 -6.5 -20t-20.5 -4q-66 -38 -66 -95q0 -43 48 -43q26 0 47 11
q20 10 25 -3l6 -15q4 -12 -9 -21q-32 -21 -78 -21q-45 0 -72.5 20t-27.5 61q0 63 74 106h-421z" />
    <glyph glyph-name="eogonek" unicode="&#x119;" horiz-adv-x="525" 
d="M272 544q95 0 145.5 -44t50.5 -126q0 -79 -49.5 -123.5t-151.5 -44.5q-81 0 -150 26q5 -98 48 -141t124 -43q71 0 130 25q11 4 21.5 9t15.5 7t8 2q7 0 7 -10v-28q0 -15 -19 -26q-52 -27 -141 -34q-52 -36 -52 -86q0 -43 48 -43q26 0 47 11q20 10 25 -3l6 -15
q4 -12 -9 -21q-32 -21 -78 -21q-45 0 -72.5 20t-27.5 61q0 56 60 97q-109 7 -162 77t-53 191q0 131 59 207t170 76zM272 490q-73 0 -112 -53.5t-44 -152.5q73 -25 146 -25q141 0 141 117q0 114 -131 114z" />
    <glyph glyph-name="Ecaron" unicode="&#x11a;" horiz-adv-x="611" 
d="M57 0q-8 0 -11.5 3t-3.5 12v22q0 17 14 17q45 0 58 7t13 34v539q0 32 -27 33h-44q-14 0 -14 15v25q0 9 3.5 12t13.5 3h438q28 0 35.5 -7t10.5 -40l6 -99q2 -15 -0.5 -19.5t-14.5 -4.5h-22q-12 0 -16 4t-5 18l-4 47q-3 33 -18.5 40t-66.5 7h-203v-286h136q24 0 25 29l2 38
q1 11 4 13.5t14 2.5h19q11 0 14 -3.5t3 -12.5v-188q0 -9 -3 -12t-12 -3h-21q-11 0 -14 2.5t-4 11.5l-2 39q-1 30 -25 30h-136v-275h251q32 0 41 6.5t14 32.5l9 90q3 14 20 14h23q16 0 15 -16l-14 -157q-1 -16 -7 -20t-21 -4h-473zM242 913l75 -71l72 71q14 13 28 13h29
q11 0 12 -6t-7 -13l-101 -100q-13 -14 -33 -14q-21 0 -35 14l-101 100q-5 5 -6.5 9.5t1.5 7t10 2.5h29q13 0 27 -13z" />
    <glyph glyph-name="ecaron" unicode="&#x11b;" horiz-adv-x="525" 
d="M272 544q95 0 145.5 -44t50.5 -126q0 -79 -49.5 -123.5t-151.5 -44.5q-81 0 -150 26q5 -98 48 -141t124 -43q71 0 130 25q11 4 21.5 9t15.5 7t8 2q7 0 7 -10v-28q0 -15 -19 -26q-70 -35 -168 -35q-123 0 -182 70.5t-59 198.5q0 131 59 207t170 76zM272 490
q-73 0 -112 -53.5t-44 -152.5q73 -25 146 -25q141 0 141 117q0 114 -131 114zM209 778l75 -71l72 71q14 13 28 13h29q11 0 12 -5.5t-7 -13.5l-101 -100q-13 -14 -33 -14q-21 0 -35 14l-101 100q-5 5 -6.5 9.5t1.5 7t10 2.5h29q13 0 27 -13z" />
    <glyph glyph-name="Gcircumflex" unicode="&#x11c;" horiz-adv-x="701" 
d="M417 299v28q0 16 11 16h197q17 0 17 -16v-310q0 -17 -15 -17h-26q-16 0 -19 14l-4 19q-82 -46 -191 -46q-152 0 -247 93t-95 273q0 171 91.5 274.5t253.5 103.5q119 0 183 -49t67 -123v-5q0 -25 -16.5 -39.5t-39.5 -14.5t-38 14.5t-15 38.5q0 21 12 35t31 18
q-50 69 -180 69q-133 0 -203.5 -91t-70.5 -232q0 -144 73 -224.5t199 -80.5q98 0 180 47v176q0 17 -18 17h-124q-13 0 -13 12zM465 810l-74 70l-73 -70q-14 -13 -27 -13h-30q-7 0 -10 2.5t-1.5 7t6.5 9.5l101 100q14 14 34 14t34 -14l102 -100q8 -8 6.5 -13.5t-11.5 -5.5
h-30q-14 0 -27 13z" />
    <glyph glyph-name="gcircumflex" unicode="&#x11d;" horiz-adv-x="588" 
d="M239 -193q85 0 132 44t47 135v101q-53 -100 -176 -100q-93 0 -145.5 65t-52.5 190q0 137 62 219t177 82q71 0 135 -44v8q0 15 5 21.5t19 6.5l115 -8q16 -1 16 -14v-27q0 -10 -16 -13h-42q-16 -1 -21 -7.5t-6 -24.5v-443q0 -126 -66 -186.5t-182 -60.5q-80 0 -134.5 32
t-54.5 104q0 21 14.5 35.5t33.5 14.5t32.5 -13t13.5 -35q0 -30 -25 -44q34 -38 119 -38zM257 44q142 0 161 216v180q-50 46 -128 46q-89 0 -131.5 -70t-42.5 -171q0 -88 34.5 -144.5t106.5 -56.5zM362 674l-74 70l-73 -70q-14 -13 -27 -13h-30q-7 0 -10 2.5t-1.5 7t6.5 9.5
l101 100q14 14 34 14t34 -14l102 -100q8 -8 6.5 -13.5t-11.5 -5.5h-30q-14 0 -27 13z" />
    <glyph glyph-name="Gbreve" unicode="&#x11e;" horiz-adv-x="701" 
d="M417 299v28q0 16 11 16h197q17 0 17 -16v-310q0 -17 -15 -17h-26q-16 0 -19 14l-4 19q-82 -46 -191 -46q-152 0 -247 93t-95 273q0 171 91.5 274.5t253.5 103.5q119 0 183 -49t67 -123v-5q0 -25 -16.5 -39.5t-39.5 -14.5t-38 14.5t-15 38.5q0 21 12 35t31 18
q-50 69 -180 69q-133 0 -203.5 -91t-70.5 -232q0 -144 73 -224.5t199 -80.5q98 0 180 47v176q0 17 -18 17h-124q-13 0 -13 12zM391 837q67 0 67 49q0 11 11 11h33q11 0 11 -13q0 -46 -33.5 -72t-88.5 -26q-58 0 -89 26t-31 73q0 12 11 12h33q11 0 11 -10q0 -50 65 -50z" />
    <glyph glyph-name="gbreve" unicode="&#x11f;" horiz-adv-x="588" 
d="M239 -193q85 0 132 44t47 135v101q-53 -100 -176 -100q-93 0 -145.5 65t-52.5 190q0 137 62 219t177 82q71 0 135 -44v8q0 15 5 21.5t19 6.5l115 -8q16 -1 16 -14v-27q0 -10 -16 -13h-42q-16 -1 -21 -7.5t-6 -24.5v-443q0 -126 -66 -186.5t-182 -60.5q-80 0 -134.5 32
t-54.5 104q0 21 14.5 35.5t33.5 14.5t32.5 -13t13.5 -35q0 -30 -25 -44q34 -38 119 -38zM257 44q142 0 161 216v180q-50 46 -128 46q-89 0 -131.5 -70t-42.5 -171q0 -88 34.5 -144.5t106.5 -56.5zM288 702q67 0 67 49q0 11 11 11h33q11 0 11 -13q0 -46 -33.5 -72t-88.5 -26
q-58 0 -89 25.5t-31 73.5q0 12 11 12h33q11 0 11 -10q0 -50 65 -50z" />
    <glyph glyph-name="Gdotaccent" unicode="&#x120;" horiz-adv-x="701" 
d="M417 299v28q0 16 11 16h197q17 0 17 -16v-310q0 -17 -15 -17h-26q-16 0 -19 14l-3 18q-86 -45 -191 -45q-152 0 -247.5 93t-95.5 273q0 171 91.5 274.5t254.5 103.5q121 0 184.5 -51t64.5 -126q0 -25 -16.5 -39.5t-39.5 -14.5q-22 0 -37.5 14.5t-15.5 38.5q0 21 12.5 35
t31.5 18q-49 69 -180 69q-133 0 -204 -91t-71 -232q0 -144 73 -224.5t199 -80.5q98 0 180 47v176q0 17 -18 17h-124q-13 0 -13 12zM337 831q0 25 16.5 42t39.5 17t38 -15t15 -40t-17 -41t-40 -16q-22 0 -37 14.5t-15 38.5z" />
    <glyph glyph-name="gdotaccent" unicode="&#x121;" horiz-adv-x="588" 
d="M239 -193q85 0 132 44t47 135v101q-53 -100 -176 -100q-93 0 -145.5 65t-52.5 190q0 137 62 219t177 82q71 0 135 -44v8q0 15 5 21.5t19 6.5l115 -8q16 -1 16 -14v-27q0 -10 -16 -13h-42q-16 -1 -21 -7.5t-6 -24.5v-443q0 -126 -66 -186.5t-182 -60.5q-80 0 -134.5 32
t-54.5 104q0 21 14.5 35.5t33.5 14.5t32.5 -13t13.5 -35q0 -30 -25 -44q34 -38 119 -38zM257 44q142 0 161 216v180q-50 46 -128 46q-89 0 -131.5 -70t-42.5 -171q0 -88 34.5 -144.5t106.5 -56.5zM235 720q0 26 17 43t39 17q23 0 38 -15t15 -41q0 -25 -17 -41t-40 -16
q-22 0 -37 14.5t-15 38.5z" />
    <glyph glyph-name="Gcommaaccent" unicode="&#x122;" horiz-adv-x="701" 
d="M417 299v28q0 16 11 16h197q17 0 17 -16v-310q0 -17 -15 -17h-26q-16 0 -19 14l-4 19q-82 -46 -191 -46q-152 0 -247 93t-95 273q0 171 91.5 274.5t253.5 103.5q119 0 183 -49t67 -123v-5q0 -25 -16.5 -39.5t-39.5 -14.5t-38 14.5t-15 38.5q0 21 12 35t31 18
q-50 69 -180 69q-133 0 -203.5 -91t-70.5 -232q0 -144 73 -224.5t199 -80.5q98 0 180 47v176q0 17 -18 17h-124q-13 0 -13 12z" />
    <glyph glyph-name="gcommaaccent" unicode="&#x123;" horiz-adv-x="588" 
d="M239 -193q85 0 132 44t47 135v101q-53 -100 -176 -100q-93 0 -145.5 65t-52.5 190q0 137 62 219t177 82q71 0 135 -44v8q0 15 5 21.5t19 6.5l115 -8q16 -1 16 -14v-27q0 -10 -16 -13h-42q-16 -1 -21 -7.5t-6 -24.5v-443q0 -126 -66 -186.5t-182 -60.5q-80 0 -134.5 32
t-54.5 104q0 21 14.5 35.5t33.5 14.5t32.5 -13t13.5 -35q0 -30 -25 -44q34 -38 119 -38zM257 44q142 0 161 216v180q-50 46 -128 46q-89 0 -131.5 -70t-42.5 -171q0 -88 34.5 -144.5t106.5 -56.5zM436 840q0 26 15.5 42.5t40.5 16.5q23 0 37.5 -16t14.5 -46q0 -77 -93 -158
q-12 -10 -20 -2l-8 8q-7 8 4 18q45 38 55 84q-21 1 -33.5 15t-12.5 38z" />
    <glyph glyph-name="Hcircumflex" unicode="&#x124;" horiz-adv-x="748" 
d="M126 627q0 25 -7 33t-28 8h-35q-10 0 -12.5 2.5t-2.5 12.5v23q0 10 3 13t12 3h212q9 0 12 -3t3 -13v-23q0 -10 -2.5 -12.5t-12.5 -2.5h-36q-21 0 -27.5 -7.5t-6.5 -33.5v-241h351v241q0 25 -7 33t-28 8h-35q-10 0 -12.5 2.5t-2.5 12.5v23q0 10 3 13t12 3h212q9 0 12 -3
t3 -13v-23q0 -10 -2.5 -12.5t-12.5 -2.5h-36q-21 0 -27.5 -7.5t-6.5 -33.5v-532q0 -25 8 -33t29 -8h34q9 0 12 -2.5t3 -10.5v-26q0 -15 -15 -15h-212q-10 0 -13 3t-3 11v26q0 8 3 11t13 3h33q21 0 28.5 8t7.5 33v237h-351v-237q0 -25 8 -33t29 -8h34q9 0 12 -2.5t3 -10.5
v-26q0 -15 -15 -15h-212q-10 0 -13 3t-3 11v26q0 8 3 11t13 3h33q21 0 28.5 8t7.5 33v532zM442 810l-74 70l-73 -70q-14 -13 -27 -13h-30q-7 0 -10 2.5t-1.5 7t6.5 9.5l101 100q14 14 34 14t34 -14l102 -100q8 -8 6.5 -13.5t-11.5 -5.5h-30q-14 0 -27 13z" />
    <glyph glyph-name="hcircumflex" unicode="&#x125;" 
d="M174 442q44 102 171 102q76 0 120.5 -44.5t44.5 -130.5v-276q0 -42 31 -42q7 0 37 5q14 5 14 -8v-27q0 -13 -13 -18q-27 -8 -57 -8q-82 0 -82 88v273q0 127 -115 127q-75 0 -113 -57t-38 -162v-176q0 -21 8 -27.5t30 -6.5h36q10 0 13 -2.5t3 -10.5v-26q0 -15 -16 -15
h-218q-16 0 -16 15v26q0 8 3 10.5t13 2.5h36q20 0 28.5 5.5t9.5 22.5v564q0 31 -26 31l-47 1q-9 1 -11.5 4.5t-2.5 12.5v20q0 10 2.5 13t11.5 4l119 7q12 1 17.5 -5t6.5 -19v-273zM433 620l-74 70l-73 -70q-14 -13 -27 -13h-30q-7 0 -10 2.5t-1.5 7t6.5 9.5l101 100
q14 14 34 14t34 -14l102 -100q8 -8 6.5 -13.5t-11.5 -5.5h-30q-14 0 -27 13z" />
    <glyph glyph-name="Hbar" unicode="&#x126;" horiz-adv-x="748" 
d="M126 509h-67q-17 0 -17 35q0 22 16 22h68v61q0 25 -7 33t-28 8h-35q-10 0 -12.5 2.5t-2.5 12.5v23q0 10 3 13t12 3h212q9 0 12 -3t3 -13v-23q0 -10 -2.5 -12.5t-12.5 -2.5h-36q-21 0 -27 -7.5t-6 -33.5v-61l350 -1v62q0 25 -7 33t-28 8h-35q-10 0 -12.5 2.5t-2.5 12.5v23
q0 10 3 13t12 3h212q9 0 12 -3t3 -13v-23q0 -10 -2.5 -12.5t-12.5 -2.5h-36q-21 0 -27 -7.5t-6 -33.5v-62h66q16 0 16 -32q0 -25 -12 -25h-70v-413q0 -25 7.5 -33t28.5 -8h34q9 0 12 -2.5t3 -10.5v-26q0 -15 -15 -15h-212q-10 0 -13 3t-3 11v26q0 8 3 11t13 3h33
q21 0 28.5 8t7.5 33v237h-350v-237q0 -25 7.5 -33t28.5 -8h34q9 0 12 -2.5t3 -10.5v-26q0 -15 -15 -15h-212q-10 0 -13 3t-3 11v26q0 8 3 11t13 3h33q21 0 28.5 8t7.5 33v414zM199 509v-123h350v122z" />
    <glyph glyph-name="hbar" unicode="&#x127;" 
d="M274 596h-100v-154q44 102 171 102q76 0 120.5 -44.5t44.5 -130.5v-276q0 -42 31 -42q7 0 37 5q14 5 14 -8v-27q0 -13 -13 -18q-27 -8 -57 -8q-82 0 -82 88v273q0 127 -114 127q-74 0 -112 -54t-40 -155v-186q0 -21 8 -27.5t30 -6.5h36q10 0 13 -2.5t3 -10.5v-26
q0 -15 -16 -15h-218q-9 0 -12 3t-3 12v26q0 8 3 10.5t12 2.5h36q21 0 29 5.5t9 22.5v514h-61q-17 0 -17 35q0 22 17 22h61v82q0 28 16 28h39q9 1 12 -5.5t3 -22.5v-82h96q16 0 16 -32q0 -25 -12 -25z" />
    <glyph glyph-name="Itilde" unicode="&#x128;" horiz-adv-x="324" 
d="M126 95v532q0 25 -7 33t-28 8h-35q-10 0 -12.5 2.5t-2.5 12.5v23q0 10 3 13t12 3h212q9 0 12 -3t3 -13v-23q0 -10 -2.5 -12.5t-12.5 -2.5h-36q-21 0 -27.5 -7.5t-6.5 -33.5v-532q0 -25 8 -33t29 -8h34q9 0 12 -2.5t3 -10.5v-26q0 -15 -15 -15h-212q-10 0 -13 3t-3 11v26
q0 8 3 11t13 3h33q21 0 28.5 8t7.5 33zM208 848q28 0 30 33q2 7 9 7h28q8 0 8 -9q0 -81 -74 -81q-41 0 -58 26q-1 1 -2 3l-1.5 3l-1.5 3t-2 3t-2.5 2l-3 2t-4 1.5l-5 1t-5.5 0.5q-27 0 -29 -33q-1 -8 -10 -8h-26q-9 0 -9 10q0 38 19 59t55 21q38 0 55 -30q9 -14 29 -14z" />
    <glyph glyph-name="itilde" unicode="&#x129;" horiz-adv-x="298" 
d="M122 442q0 22 -12 26t-61 4q-14 0 -14 14v25q0 15 15 16l118 7q14 0 19 -6.5t5 -21.5v-418q0 -21 8 -27.5t30 -6.5h36q9 0 12 -2.5t3 -10.5v-26q0 -9 -3 -12t-12 -3h-218q-16 0 -16 15v26q0 8 3 10.5t13 2.5h36q22 0 30 6.5t8 27.5v354zM200 713q28 0 30 33q2 7 9 7h28
q8 0 8 -9q0 -81 -74 -81q-41 0 -58 26q-1 1 -2 3l-1.5 3l-1.5 3t-2 3t-2.5 2l-3 2t-4 1.5l-5 1t-5.5 0.5q-27 0 -29 -33q-1 -8 -10 -8h-26q-9 0 -9 10q0 38 19 59t55 21q38 0 55 -30q9 -14 29 -14z" />
    <glyph glyph-name="Imacron" unicode="&#x12a;" horiz-adv-x="325" 
d="M126 95v532q0 25 -7 33t-28 8h-35q-10 0 -12.5 2.5t-2.5 12.5v23q0 10 3 13t12 3h212q9 0 12 -3t3 -13v-23q0 -10 -2.5 -12.5t-12.5 -2.5h-36q-21 0 -27.5 -7.5t-6.5 -33.5v-532q0 -25 8 -33t29 -8h34q9 0 12 -2.5t3 -10.5v-26q0 -15 -15 -15h-212q-10 0 -13 3t-3 11v26
q0 8 3 11t13 3h33q21 0 28.5 8t7.5 33zM284 802h-231q-17 0 -17 35q0 22 17 22h227q16 0 16 -32q0 -25 -12 -25z" />
    <glyph glyph-name="imacron" unicode="&#x12b;" horiz-adv-x="298" 
d="M122 442q0 22 -12 26t-61 4q-14 0 -14 14v25q0 15 15 16l118 7q14 0 19 -6.5t5 -21.5v-418q0 -21 8 -27.5t30 -6.5h36q9 0 12 -2.5t3 -10.5v-26q0 -9 -3 -12t-12 -3h-218q-16 0 -16 15v26q0 8 3 10.5t13 2.5h36q22 0 30 6.5t8 27.5v354zM277 666h-231q-17 0 -17 35
q0 22 17 22h227q16 0 16 -32q0 -25 -12 -25z" />
    <glyph glyph-name="Ibreve" unicode="&#x12c;" horiz-adv-x="325" 
d="M126 95v532q0 25 -7 33t-28 8h-35q-10 0 -12.5 2.5t-2.5 12.5v23q0 10 3 13t12 3h212q9 0 12 -3t3 -13v-23q0 -10 -2.5 -12.5t-12.5 -2.5h-36q-21 0 -27.5 -7.5t-6.5 -33.5v-532q0 -25 8 -33t29 -8h34q9 0 12 -2.5t3 -10.5v-26q0 -15 -15 -15h-212q-10 0 -13 3t-3 11v26
q0 8 3 11t13 3h33q21 0 28.5 8t7.5 33zM162 837q67 0 67 49q0 11 11 11h33q11 0 11 -13q0 -46 -33.5 -72t-88.5 -26q-58 0 -89 26t-31 73q0 12 11 12h33q11 0 11 -10q0 -50 65 -50z" />
    <glyph glyph-name="ibreve" unicode="&#x12d;" horiz-adv-x="298" 
d="M122 442q0 22 -12 26t-61 4q-14 0 -14 14v25q0 15 15 16l118 7q14 0 19 -6.5t5 -21.5v-418q0 -21 8 -27.5t30 -6.5h36q9 0 12 -2.5t3 -10.5v-26q0 -9 -3 -12t-12 -3h-218q-16 0 -16 15v26q0 8 3 10.5t13 2.5h36q22 0 30 6.5t8 27.5v354zM155 702q67 0 67 49q0 11 11 11
h33q11 0 11 -13q0 -46 -33.5 -72t-88.5 -26q-58 0 -89 25.5t-31 73.5q0 12 11 12h33q11 0 11 -10q0 -50 65 -50z" />
    <glyph glyph-name="Iogonek" unicode="&#x12e;" horiz-adv-x="325" 
d="M126 95v532q0 25 -7 33t-28 8h-35q-10 0 -12.5 2.5t-2.5 12.5v23q0 10 3 13t12 3h212q9 0 12 -3t3 -13v-23q0 -10 -2.5 -12.5t-12.5 -2.5h-36q-21 0 -27.5 -7.5t-6.5 -33.5v-532q0 -25 8 -33t29 -8h34q9 0 12 -2.5t3 -10.5v-26q0 -15 -15 -15h-52q-67 -39 -67 -96
q0 -43 48 -43q26 0 47 11q20 10 25 -3l6 -15q4 -12 -9 -21q-31 -21 -78 -21q-45 0 -72.5 20t-27.5 61q0 64 75 107h-107q-10 0 -13 3t-3 11v26q0 8 3 11t13 3h33q21 0 28.5 8t7.5 33z" />
    <glyph glyph-name="iogonek" unicode="&#x12f;" horiz-adv-x="298" 
d="M191 505v-417q0 -21 8 -27.5t31 -6.5h36q15 0 15 -13v-26q0 -15 -15 -15h-84q-67 -39 -67 -96q0 -43 48 -43q26 0 47 11q20 10 25 -3l6 -15q4 -12 -9 -21q-32 -21 -78 -21q-45 0 -72.5 20t-27.5 61q0 64 75 107h-82q-15 0 -15 15v26q0 8 3 10.5t12 2.5h36q22 0 30 6.5
t8 27.5v352q0 17 -5.5 24t-20.5 8h-46q-10 1 -12.5 4.5t-2.5 12.5v20q0 11 2.5 13.5t12.5 3.5l119 7q14 1 18.5 -5.5t4.5 -22.5zM99 702q0 27 16 43.5t40 16.5q21 0 36 -16t15 -40q0 -25 -17 -40.5t-41 -15.5q-21 0 -35 14t-14 38z" />
    <glyph glyph-name="Idotaccent" unicode="&#x130;" horiz-adv-x="325" 
d="M126 627q0 25 -7 33t-28 8h-35q-10 0 -12.5 2.5t-2.5 12.5v23q0 10 3 13t12 3h212q9 0 12 -3t3 -13v-23q0 -10 -2.5 -12.5t-12.5 -2.5h-36q-21 0 -27.5 -7.5t-6.5 -33.5v-532q0 -25 8 -33t29 -8h34q9 0 12 -2.5t3 -10.5v-26q0 -15 -15 -15h-212q-10 0 -13 3t-3 11v26
q0 8 3 11t13 3h33q21 0 28.5 8t7.5 33v532zM108 831q0 25 17 42t39 17q23 0 38 -15t15 -40t-17 -41t-40 -16q-22 0 -37 14.5t-15 38.5z" />
    <glyph glyph-name="dotlessi" unicode="&#x131;" horiz-adv-x="298" 
d="M122 442q0 22 -12 26t-61 4q-14 0 -14 14v25q0 15 15 16l118 7q14 0 19 -6.5t5 -21.5v-418q0 -21 8 -27.5t30 -6.5h36q9 0 12 -2.5t3 -10.5v-26q0 -9 -3 -12t-12 -3h-218q-16 0 -16 15v26q0 8 3 10.5t13 2.5h36q22 0 30 6.5t8 27.5v354z" />
    <glyph glyph-name="IJ" unicode="&#x132;" horiz-adv-x="815" 
d="M345 135q0 24 16.5 39t39.5 15q22 0 37.5 -14.5t15.5 -39.5q0 -22 -12 -35.5t-31 -16.5q25 -45 95 -45q60 0 90 43.5t30 113.5v432q0 25 -6.5 33t-27.5 8h-35q-10 0 -13 2.5t-3 12.5v23q0 10 3.5 13t12.5 3h211q9 0 12.5 -3t3.5 -13v-23q0 -10 -3 -12.5t-13 -2.5h-36
q-21 0 -27 -7.5t-6 -33.5v-424q0 -98 -47.5 -155t-140.5 -57q-78 0 -118.5 36t-45.5 92q-2 10 -2 16zM126 627q0 25 -7 33t-28 8h-35q-10 0 -12.5 2.5t-2.5 12.5v23q0 10 3 13t12 3h212q9 0 12 -3t3 -13v-23q0 -10 -2.5 -12.5t-12.5 -2.5h-36q-21 0 -27.5 -7.5t-6.5 -33.5
v-532q0 -25 8 -33t29 -8h34q9 0 12 -2.5t3 -10.5v-26q0 -15 -15 -15h-212q-10 0 -13 3t-3 11v26q0 8 3 11t13 3h33q21 0 28.5 8t7.5 33v532z" />
    <glyph glyph-name="ij" unicode="&#x133;" horiz-adv-x="558" 
d="M476 -71q0 -86 -37.5 -133.5t-113.5 -47.5q-55 0 -86.5 26.5t-33.5 66.5q-1 3 -1 10q0 21 14.5 35.5t33.5 14.5t33 -13t14 -35q0 -31 -27 -44q19 -11 45 -11q89 0 89 118v526q0 17 -6 24t-21 8h-46q-9 1 -11.5 4.5t-2.5 12.5v20q0 11 2.5 13.5t11.5 3.5l119 7
q13 1 18.5 -6t5.5 -22v-578zM121 440q0 17 -5.5 24t-20.5 8h-46q-10 1 -12.5 4.5t-2.5 12.5v20q0 11 2.5 13.5t12.5 3.5l119 7q14 1 18.5 -5.5t4.5 -22.5v-417q0 -21 8 -27.5t31 -6.5h36q15 0 15 -13v-26q0 -15 -15 -15h-219q-15 0 -15 15v26q0 8 3 10.5t12 2.5h36
q22 0 30 6.5t8 27.5v352zM99 702q0 27 16 43.5t40 16.5q21 0 36 -16t15 -40q0 -25 -17 -40.5t-41 -15.5q-21 0 -35 14t-14 38zM382 678q0 27 16.5 43.5t40.5 16.5q21 0 35.5 -16t14.5 -40q0 -25 -17 -40.5t-41 -15.5q-21 0 -35 14t-14 38z" />
    <glyph glyph-name="Jcircumflex" unicode="&#x134;" horiz-adv-x="497" 
d="M27 135q0 24 16.5 39t39.5 15q22 0 37.5 -14.5t15.5 -39.5q0 -22 -12 -35.5t-31 -16.5q25 -45 95 -45q60 0 90 43.5t30 113.5v432q0 25 -6.5 33t-27.5 8h-35q-10 0 -13 2.5t-3 12.5v23q0 10 3.5 13t12.5 3h211q9 0 12.5 -3t3.5 -13v-23q0 -10 -3 -12.5t-13 -2.5h-36
q-21 0 -27 -7.5t-6 -33.5v-424q0 -98 -47.5 -155t-140.5 -57q-78 0 -118.5 36t-45.5 92q-2 10 -2 16zM419 810l-74 70l-73 -70q-14 -13 -27 -13h-30q-7 0 -10 2.5t-1.5 7t6.5 9.5l101 100q14 14 34 14t34 -14l102 -100q8 -8 6.5 -13.5t-11.5 -5.5h-30q-14 0 -27 13z" />
    <glyph glyph-name="jcircumflex" unicode="&#x135;" horiz-adv-x="260" 
d="M-94 -145q0 21 14.5 35.5t33.5 14.5t32.5 -13t13.5 -35q0 -33 -29 -45q20 -14 48 -14q88 0 88 118v526q0 17 -5.5 24t-20.5 8h-47q-9 1 -11.5 4.5t-2.5 12.5v20q0 11 2.5 13.5t11.5 3.5l120 7q13 1 18 -5.5t5 -22.5v-578q0 -86 -37.5 -133.5t-113.5 -47.5q-56 0 -87 28
t-32 69q0 1 -0.5 4.5t-0.5 5.5zM176 675l-74 70l-73 -70q-14 -13 -27 -13h-30q-7 0 -10 2.5t-1.5 7t6.5 9.5l101 100q14 14 34 14t34 -14l102 -100q8 -7 6.5 -13t-11.5 -6h-30q-14 0 -27 13z" />
    <glyph glyph-name="Kcommaaccent" unicode="&#x136;" horiz-adv-x="686" 
d="M126 627q0 25 -7 33t-28 8h-35q-10 0 -12.5 2.5t-2.5 12.5v23q0 10 3 13t12 3h212q9 0 12 -3t3 -13v-23q0 -10 -2.5 -12.5t-12.5 -2.5h-36q-21 0 -27.5 -7.5t-6.5 -33.5v-284l270 296q11 11 14 17.5t-0.5 9t-13.5 2.5h-28q-15 0 -15 21v17q0 10 3.5 13t11.5 3h200
q9 0 11.5 -3t2.5 -13v-21q0 -17 -14 -17h-43q-30 0 -68 -41l-190 -206q23 0 43.5 -6t36.5 -14.5t32 -26t26.5 -31t23.5 -40t20 -42t18 -48t15.5 -47.5t15.5 -50q5 -15 7 -23q9 -26 20 -35.5t29 -9.5q16 0 41 14q7 4 11.5 1t4.5 -11v-25q0 -15 -18 -25q-23 -13 -54 -13
q-22 0 -37.5 4t-34 22.5t-31.5 53.5q-7 20 -22 70t-27.5 83.5t-32.5 72t-49 59t-66 20.5h-16l-97 -106v-173q0 -25 8 -33t29 -8h34q9 0 12 -2.5t3 -10.5v-26q0 -15 -15 -15h-212q-10 0 -13 3t-3 11v26q0 8 3 11t13 3h33q21 0 28.5 8t7.5 33v532z" />
    <glyph glyph-name="kcommaaccent" unicode="&#x137;" horiz-adv-x="569" 
d="M426 433l-183 -156l171 -158q41 -41 57 -53t35 -12h36q14 -1 14 -18v-21q0 -9 -3.5 -12t-12.5 -3h-213q-9 0 -11.5 3t-2.5 12v20q0 17 14 18h30q15 0 16 6q-2 8 -23 29l-176 161v-161q0 -21 8 -27.5t30 -6.5h36q10 0 13 -2.5t3 -10.5v-26q0 -15 -16 -15h-218
q-16 0 -16 15v26q0 8 3 10.5t13 2.5h36q22 0 30 6.5t8 27.5v588q-3 25 -26 25l-47 1q-9 1 -11.5 4.5t-2.5 12.5v20q0 10 2.5 13t11.5 4l119 7q14 1 19 -5.5t5 -22.5v-456l187 162q33 29 -6 29h-31q-18 0 -18 18v20q0 16 21 16h198q14 0 18.5 -3t4.5 -13v-21q0 -17 -19 -17
h-30q-32 0 -73 -37zM246 -135q0 23 15 38.5t36 15.5q20 0 33.5 -15t13.5 -41q0 -72 -87 -146q-10 -9 -16 -2l-9 8q-7 9 4 17q41 34 53 77q-19 2 -31 14.5t-12 33.5z" />
    <glyph glyph-name="Lacute" unicode="&#x139;" horiz-adv-x="583" 
d="M57 0q-8 0 -11.5 3t-3.5 12v22q0 17 14 17q45 0 58 7t13 34v532q0 25 -7 33t-28 8h-35q-10 0 -12.5 2.5t-2.5 12.5v23q0 10 3 13t12 3h212q9 0 12 -3t3 -13v-23q0 -10 -2.5 -12.5t-12.5 -2.5h-36q-19 0 -26 -6t-8 -26v-582h233q32 0 41 6.5t14 32.5l9 90q3 14 20 14h23
q17 0 14 -16l-13 -157q-1 -16 -7 -20t-21 -4h-455zM119 803l-6 11q-6 12 8 20l133 70q20 11 26 1l20 -31q10 -14 -10 -21l-146 -53q-19 -8 -25 3z" />
    <glyph glyph-name="lacute" unicode="&#x13a;" horiz-adv-x="285" 
d="M177 88q0 -21 8 -27.5t31 -6.5h36q15 0 15 -13v-26q0 -15 -15 -15h-219q-15 0 -15 15v26q0 8 3 10.5t12 2.5h36q22 0 30 6.5t8 27.5v582q0 17 -5.5 24t-20.5 7l-46 1q-10 1 -12.5 4.5t-2.5 12.5v20q0 10 3 13t12 4l119 7q14 1 18.5 -5.5t4.5 -22.5v-647zM74 794l-6 11
q-6 12 8 20l133 70q20 11 26 1l20 -31q10 -14 -10 -21l-146 -53q-19 -8 -25 3z" />
    <glyph glyph-name="Lcommaaccent" unicode="&#x13b;" horiz-adv-x="583" 
d="M57 0q-8 0 -11.5 3t-3.5 12v22q0 17 14 17q45 0 58 7t13 34v532q0 25 -7 33t-28 8h-35q-10 0 -12.5 2.5t-2.5 12.5v23q0 10 3 13t12 3h212q9 0 12 -3t3 -13v-23q0 -10 -2.5 -12.5t-12.5 -2.5h-36q-19 0 -26 -6t-8 -26v-582h233q32 0 41 6.5t14 32.5l9 90q3 14 20 14h23
q17 0 14 -16l-13 -157q-1 -16 -7 -20t-21 -4h-455zM277 -135q0 23 15 38.5t36 15.5q20 0 33.5 -15t13.5 -41q0 -72 -87 -146q-10 -9 -16 -2l-9 8q-7 9 4 17q41 34 53 77q-19 2 -31 14.5t-12 33.5z" />
    <glyph glyph-name="lcommaaccent" unicode="&#x13c;" horiz-adv-x="285" 
d="M177 88q0 -21 8 -27.5t31 -6.5h36q15 0 15 -13v-26q0 -15 -15 -15h-219q-15 0 -15 15v26q0 8 3 10.5t12 2.5h36q22 0 30 6.5t8 27.5v582q0 17 -5.5 24t-20.5 7l-46 1q-10 1 -12.5 4.5t-2.5 12.5v20q0 10 3 13t12 4l119 7q14 1 18.5 -5.5t4.5 -22.5v-647zM107 -120
q0 23 15 38.5t36 15.5q20 0 33.5 -15t13.5 -41q0 -72 -87 -146q-10 -9 -16 -2l-9 8q-7 9 4 17q41 34 53 77q-19 2 -31 14.5t-12 33.5z" />
    <glyph glyph-name="Lcaron" unicode="&#x13d;" horiz-adv-x="584" 
d="M57 0q-8 0 -11.5 3t-3.5 12v22q0 17 14 17q42 0 56 5.5t15 27.5v547q-1 20 -8.5 27t-26.5 7h-35q-10 0 -12.5 2.5t-2.5 12.5v23q0 10 3 13t12 3h212q9 0 12 -3t3 -13v-23q0 -10 -2.5 -12.5t-12.5 -2.5h-36q-21 0 -27.5 -7.5t-6.5 -33.5v-573h233q32 0 41 6.5t14 32.5
l9 90q3 14 20 14h23q17 0 14 -16l-13 -157q-1 -16 -7 -20t-21 -4h-455zM425 527l-9 179q0 9 7.5 12.5t31.5 3.5q23 0 31 -3.5t7 -12.5l-9 -179q0 -15 -29 -15q-17 0 -23 3t-7 12z" />
    <glyph glyph-name="lcaron" unicode="&#x13e;" horiz-adv-x="300" 
d="M177 88q0 -21 8 -27.5t31 -6.5h36q15 0 15 -13v-26q0 -15 -15 -15h-219q-15 0 -15 15v26q0 8 3 10.5t12 2.5h36q22 0 30 6.5t8 27.5v582q0 17 -5.5 24t-20.5 7l-46 1q-10 1 -12.5 4.5t-2.5 12.5v20q0 10 3 13t12 4l119 7q14 1 18.5 -5.5t4.5 -22.5v-647zM228 706
q0 26 15.5 42.5t40.5 16.5q23 0 37.5 -16t14.5 -46q0 -77 -93 -158q-12 -10 -20 -2l-8 8q-7 8 4 18q45 38 55 84q-21 1 -33.5 15t-12.5 38z" />
    <glyph glyph-name="Ldot" unicode="&#x13f;" horiz-adv-x="583" 
d="M57 0q-8 0 -11.5 3t-3.5 12v22q0 17 14 17q42 0 56 5.5t15 27.5v540q0 25 -7 33t-28 8h-35q-10 0 -12.5 2.5t-2.5 12.5v23q0 10 3 13t12 3h212q9 0 12 -3t3 -13v-23q0 -10 -2.5 -12.5t-12.5 -2.5h-36q-19 0 -26 -6t-8 -26v-582h233q32 0 41 6.5t14 32.5l9 90q3 14 20 14
h23q17 0 14 -16l-13 -157q-1 -16 -7 -20t-21 -4h-455zM317 285q0 26 16.5 43t39.5 17q22 0 37.5 -15t15.5 -40q0 -26 -17 -42t-41 -16q-22 0 -36.5 14.5t-14.5 38.5z" />
    <glyph glyph-name="ldot" unicode="&#x140;" horiz-adv-x="331" 
d="M107 670q0 17 -5.5 24t-20.5 7l-46 1q-10 1 -12.5 4.5t-2.5 12.5v20q0 10 3 13t12 4l119 7q14 1 18.5 -5.5t4.5 -22.5v-647q0 -21 8 -27.5t31 -6.5h36q15 0 15 -13v-26q0 -15 -15 -15h-219q-15 0 -15 15v26q0 8 3 10.5t12 2.5h36q22 0 30 6.5t8 27.5v582zM251 290
q0 26 16.5 42.5t39.5 16.5q22 0 37.5 -15t15.5 -40t-17 -41t-40 -16q-22 0 -37 14.5t-15 38.5z" />
    <glyph glyph-name="Lslash" unicode="&#x141;" horiz-adv-x="585" 
d="M128 260l-65 -56q-9 -8 -15 1l-20 26q-6 9 3 15l97 84v297q0 25 -6.5 33t-27.5 8h-35q-10 0 -12.5 2.5t-2.5 12.5v23q0 10 3 13t12 3h211q9 0 12.5 -3t3.5 -13v-23q0 -10 -2.5 -12.5t-13.5 -2.5h-36q-19 0 -25.5 -6t-7.5 -26v-242l158 137q9 9 15 -1l19 -26q7 -8 -3 -15
l-189 -165v-270h232q33 0 42 6.5t14 32.5l8 90q3 14 21 14h22q17 0 16 -16l-14 -157q-1 -16 -7 -20t-22 -4h-454q-8 0 -11.5 3t-3.5 12v22q0 17 14 17q45 0 57.5 7t12.5 34v165z" />
    <glyph glyph-name="lslash" unicode="&#x142;" horiz-adv-x="338" 
d="M308 439l-114 -82v-264q0 -42 31 -42q9 0 36 5q7 3 10.5 1.5t3.5 -9.5v-27q0 -13 -12 -18q-29 -8 -57 -8q-82 0 -82 88v224l-73 -52q-26 -18 -42 8q-10 16 -6.5 24t22.5 21l99 71v291q0 31 -27 31l-46 1q-9 1 -11.5 4.5t-2.5 12.5v20q0 10 2.5 13t11.5 4l119 7
q14 1 19 -5.5t5 -22.5v-306l85 61q22 14 38 -11q17 -23 -9 -40z" />
    <glyph glyph-name="Nacute" unicode="&#x143;" horiz-adv-x="764" 
d="M645 8q0 -16 -18 -16h-18q-19 0 -28 13l-393 589v-514q0 -16 8 -21t30 -5h32q10 0 12.5 -2t2.5 -12v-25q0 -10 -3 -12.5t-12 -2.5h-202q-9 0 -12 2.5t-3 12.5v24q0 10 2.5 12.5t12.5 2.5h31q22 0 30.5 5.5t8.5 20.5v540q-1 29 -13 38.5t-41 9.5h-5q-14 0 -18.5 4t-4.5 14
v19q0 17 23 17h101q21 0 30 -15l384 -584v519q0 16 -8 21t-30 5h-31q-11 0 -13.5 2t-2.5 12v24q0 10 3.5 13t12.5 3h201q9 0 12.5 -3t3.5 -12v-24q0 -10 -3 -12.5t-13 -2.5h-30q-22 0 -30.5 -5.5t-8.5 -20.5v-634zM332 803l-6 11q-6 12 8 20l133 70q20 11 26 1l20 -31
q10 -14 -10 -21l-146 -53q-19 -8 -25 3z" />
    <glyph glyph-name="nacute" unicode="&#x144;" horiz-adv-x="620" 
d="M340 483q-75 0 -113.5 -57t-38.5 -162v-176q0 -21 8 -27.5t31 -6.5h35q10 0 13 -2.5t3 -10.5v-26q0 -15 -16 -15h-218q-15 0 -15 15v26q0 13 15 13h37q22 0 29.5 6.5t7.5 27.5v354q0 22 -11.5 26t-60.5 4q-15 0 -15 14v25q0 15 16 16l118 7q13 0 18 -6.5t5 -21.5v-66
q21 52 66.5 78t104.5 26q76 0 120.5 -44.5t44.5 -130.5v-276q0 -42 32 -42q8 0 36 5q15 4 15 -8v-27q0 -13 -13 -18q-27 -8 -58 -8q-82 0 -82 88v273q0 127 -114 127zM295 668l-6 11q-6 12 8 20l133 70q20 11 26 1l20 -31q10 -14 -10 -21l-146 -53q-19 -8 -25 3z" />
    <glyph glyph-name="Ncommaaccent" unicode="&#x145;" horiz-adv-x="764" 
d="M645 8q0 -16 -18 -16h-18q-19 0 -28 13l-393 589v-514q0 -16 8 -21t30 -5h32q10 0 12.5 -2t2.5 -12v-25q0 -10 -3 -12.5t-12 -2.5h-202q-9 0 -12 2.5t-3 12.5v24q0 10 2.5 12.5t12.5 2.5h31q22 0 30.5 5.5t8.5 20.5v540q-1 29 -13 38.5t-41 9.5h-5q-14 0 -18.5 4t-4.5 14
v19q0 17 23 17h101q21 0 30 -15l384 -584v519q0 16 -8 21t-30 5h-31q-11 0 -13.5 2t-2.5 12v24q0 10 3.5 13t12.5 3h201q9 0 12.5 -3t3.5 -12v-24q0 -10 -3 -12.5t-13 -2.5h-30q-22 0 -30.5 -5.5t-8.5 -20.5v-634zM326 -135q0 23 15 38.5t36 15.5q20 0 33.5 -15t13.5 -41
q0 -72 -87 -146q-10 -9 -16 -2l-9 8q-7 9 4 17q41 34 53 77q-19 2 -31 14.5t-12 33.5z" />
    <glyph glyph-name="ncommaaccent" unicode="&#x146;" horiz-adv-x="620" 
d="M340 483q-75 0 -113.5 -57t-38.5 -162v-176q0 -21 8 -27.5t31 -6.5h35q10 0 13 -2.5t3 -10.5v-26q0 -15 -16 -15h-218q-15 0 -15 15v26q0 13 15 13h37q22 0 29.5 6.5t7.5 27.5v354q0 22 -11.5 26t-60.5 4q-15 0 -15 14v25q0 15 16 16l118 7q13 0 18 -6.5t5 -21.5v-66
q21 52 66.5 78t104.5 26q76 0 120.5 -44.5t44.5 -130.5v-276q0 -42 32 -42q8 0 36 5q15 4 15 -8v-27q0 -13 -13 -18q-27 -8 -58 -8q-82 0 -82 88v273q0 127 -114 127zM295 -135q0 23 15 38.5t36 15.5q20 0 33.5 -15t13.5 -41q0 -72 -87 -146q-10 -9 -16 -2l-9 8q-7 9 4 17
q41 34 53 77q-19 2 -31 14.5t-12 33.5z" />
    <glyph glyph-name="Ncaron" unicode="&#x147;" horiz-adv-x="764" 
d="M645 8q0 -16 -18 -16h-18q-19 0 -28 13l-393 589v-514q0 -16 8 -21t30 -5h32q10 0 12.5 -2t2.5 -12v-25q0 -10 -3 -12.5t-12 -2.5h-202q-9 0 -12 2.5t-3 12.5v24q0 10 2.5 12.5t12.5 2.5h31q22 0 30.5 5.5t8.5 20.5v540q-1 29 -13 38.5t-41 9.5h-5q-14 0 -18.5 4t-4.5 14
v19q0 17 23 17h101q21 0 30 -15l384 -584v519q0 16 -8 21t-30 5h-31q-11 0 -13.5 2t-2.5 12v24q0 10 3.5 13t12.5 3h201q9 0 12.5 -3t3.5 -12v-24q0 -10 -3 -12.5t-13 -2.5h-30q-22 0 -30.5 -5.5t-8.5 -20.5v-634zM297 913l75 -71l72 71q14 13 28 13h29q11 0 12 -6t-7 -13
l-101 -100q-13 -14 -33 -14q-21 0 -35 14l-101 100q-5 5 -6.5 9.5t1.5 7t10 2.5h29q13 0 27 -13z" />
    <glyph glyph-name="ncaron" unicode="&#x148;" horiz-adv-x="620" 
d="M340 483q-75 0 -113.5 -57t-38.5 -162v-176q0 -21 8 -27.5t31 -6.5h35q10 0 13 -2.5t3 -10.5v-26q0 -15 -16 -15h-218q-15 0 -15 15v26q0 13 15 13h37q22 0 29.5 6.5t7.5 27.5v354q0 22 -11.5 26t-60.5 4q-15 0 -15 14v25q0 15 16 16l118 7q13 0 18 -6.5t5 -21.5v-66
q21 52 66.5 78t104.5 26q76 0 120.5 -44.5t44.5 -130.5v-276q0 -42 32 -42q8 0 36 5q15 4 15 -8v-27q0 -13 -13 -18q-27 -8 -58 -8q-82 0 -82 88v273q0 127 -114 127zM260 778l75 -71l72 71q14 13 28 13h29q11 0 12 -5.5t-7 -13.5l-101 -100q-13 -14 -33 -14q-21 0 -35 14
l-101 100q-5 5 -6.5 9.5t1.5 7t10 2.5h29q13 0 27 -13z" />
    <glyph glyph-name="napostrophe" unicode="&#x149;" horiz-adv-x="621" 
d="M340 483q-75 0 -113.5 -57t-38.5 -162v-176q0 -21 8 -27.5t31 -6.5h35q10 0 13 -2.5t3 -10.5v-26q0 -15 -16 -15h-218q-15 0 -15 15v26q0 13 15 13h37q22 0 29.5 6.5t7.5 27.5v354q0 22 -11.5 26t-60.5 4q-15 0 -15 14v25q0 15 16 16l118 7q13 0 18 -6.5t5 -21.5v-66
q21 52 66.5 78t104.5 26q76 0 120.5 -44.5t44.5 -130.5v-276q0 -42 32 -42q8 0 36 5q15 4 15 -8v-27q0 -13 -13 -18q-27 -8 -58 -8q-82 0 -82 88v273q0 127 -114 127zM57 720q0 23 15 38.5t36 15.5q20 0 33.5 -15t13.5 -41q0 -72 -87 -146q-10 -9 -16 -2l-9 8q-7 9 4 17
q41 34 53 77q-19 2 -31 14.5t-12 33.5z" />
    <glyph glyph-name="Eng" unicode="&#x14a;" horiz-adv-x="764" 
d="M291 -92q0 24 16.5 39.5t39.5 15.5q22 0 37.5 -14.5t15.5 -39.5q0 -43 -43 -52q25 -46 95 -46q60 0 90 43.5t30 113.5v50l-384 576v-514q0 -16 8 -21t30 -5h32q10 0 12.5 -2t2.5 -12v-25q0 -10 -3 -12.5t-12 -2.5h-202q-9 0 -12 2.5t-3 12.5v24q0 10 2.5 12.5t12.5 2.5
h31q22 0 30.5 5.5t8.5 20.5v540q-1 29 -13 38.5t-41 9.5h-5q-14 0 -18.5 4t-4.5 14v19q0 17 23 17h101q21 0 30 -15l384 -584v519q0 16 -8 21t-30 5h-31q-11 0 -13.5 2t-2.5 12v24q0 10 3.5 13t12.5 3h201q9 0 12.5 -3t3.5 -12v-24q0 -10 -3 -12.5t-13 -2.5h-30
q-22 0 -30.5 -5.5t-8.5 -20.5v-665q0 -98 -48 -155.5t-140 -57.5q-78 0 -118.5 36t-45.5 92q-2 5 -2 16z" />
    <glyph glyph-name="eng" unicode="&#x14b;" horiz-adv-x="599" 
d="M118 442q0 22 -11.5 26t-60.5 4q-15 0 -15 14v25q0 15 16 16l118 7q13 0 18 -6.5t5 -21.5v-66q21 52 66.5 78t104.5 26q76 0 120.5 -44.5t44.5 -130.5v-428q0 -90 -37.5 -140t-113.5 -50q-54 0 -85.5 27t-33.5 67v3q0 21 14.5 35.5t33.5 14.5q18 0 32 -13t14 -35
q0 -28 -26 -44q20 -12 44 -12q88 0 88 131v431q0 127 -114 127q-75 0 -113.5 -57t-38.5 -162v-176q0 -21 8 -27.5t31 -6.5h35q10 0 13 -2.5t3 -10.5v-26q0 -15 -16 -15h-218q-15 0 -15 15v26q0 13 15 13h37q22 0 29.5 6.5t7.5 27.5v354z" />
    <glyph glyph-name="Omacron" unicode="&#x14c;" horiz-adv-x="779" 
d="M45 357q0 55 9.5 105.5t34.5 101t63 87t99 59.5t138 23q92 0 161 -31t108 -85t57.5 -117.5t18.5 -136.5q0 -55 -9.5 -105.5t-34.5 -101t-62.5 -87t-98.5 -59.5t-139 -23q-93 0 -162 31t-107.5 85t-57 117.5t-18.5 136.5zM388 677q-75 0 -129.5 -28.5t-83.5 -76.5
t-42 -100.5t-13 -110.5q0 -45 7.5 -87t26.5 -85t49 -74.5t78.5 -51.5t110.5 -20q77 0 132 29.5t83 79t40 100t12 106.5q0 44 -7 85.5t-26.5 85t-48.5 75.5t-78 52.5t-111 20.5zM509 802h-231q-17 0 -17 35q0 22 17 22h227q16 0 16 -32q0 -25 -12 -25z" />
    <glyph glyph-name="omacron" unicode="&#x14d;" horiz-adv-x="559" 
d="M43 266q0 126 57.5 202t178.5 76t179 -76t58 -202t-58 -202.5t-179 -76.5t-178.5 76.5t-57.5 202.5zM279 490q-163 0 -163 -224q0 -225 163 -225q164 0 164 225q0 224 -164 224zM405 667h-231q-17 0 -17 35q0 22 17 22h227q16 0 16 -32q0 -25 -12 -25z" />
    <glyph glyph-name="Obreve" unicode="&#x14e;" horiz-adv-x="779" 
d="M45 357q0 55 9.5 105.5t34.5 101t63 87t99 59.5t138 23q92 0 161 -31t108 -85t57.5 -117.5t18.5 -136.5q0 -55 -9.5 -105.5t-34.5 -101t-62.5 -87t-98.5 -59.5t-139 -23q-93 0 -162 31t-107.5 85t-57 117.5t-18.5 136.5zM388 677q-75 0 -129.5 -28.5t-83.5 -76.5
t-42 -100.5t-13 -110.5q0 -45 7.5 -87t26.5 -85t49 -74.5t78.5 -51.5t110.5 -20q77 0 132 29.5t83 79t40 100t12 106.5q0 44 -7 85.5t-26.5 85t-48.5 75.5t-78 52.5t-111 20.5zM388 837q67 0 67 49q0 11 11 11h33q11 0 11 -13q0 -46 -33.5 -72t-88.5 -26q-58 0 -89 26
t-31 73q0 12 11 12h33q11 0 11 -10q0 -50 65 -50z" />
    <glyph glyph-name="obreve" unicode="&#x14f;" horiz-adv-x="559" 
d="M43 266q0 126 57.5 202t178.5 76t179 -76t58 -202t-58 -202.5t-179 -76.5t-178.5 76.5t-57.5 202.5zM279 490q-163 0 -163 -224q0 -225 163 -225q164 0 164 225q0 224 -164 224zM284 702q67 0 67 49q0 11 11 11h33q11 0 11 -13q0 -46 -33.5 -72t-88.5 -26q-58 0 -89 25.5
t-31 73.5q0 12 11 12h33q11 0 11 -10q0 -50 65 -50z" />
    <glyph glyph-name="Ohungarumlaut" unicode="&#x150;" horiz-adv-x="779" 
d="M45 357q0 55 9.5 105.5t34.5 101t63 87t99 59.5t138 23q92 0 161 -31t108 -85t57.5 -117.5t18.5 -136.5q0 -55 -9.5 -105.5t-34.5 -101t-62.5 -87t-98.5 -59.5t-139 -23q-93 0 -162 31t-107.5 85t-57 117.5t-18.5 136.5zM388 677q-75 0 -129.5 -28.5t-83.5 -76.5
t-42 -100.5t-13 -110.5q0 -45 7.5 -87t26.5 -85t49 -74.5t78.5 -51.5t110.5 -20q77 0 132 29.5t83 79t40 100t12 106.5q0 44 -7 85.5t-26.5 85t-48.5 75.5t-78 52.5t-111 20.5zM302 803l-11 10q-7 8 5 18l118 89q18 13 27 4l28 -23q7 -6 6 -10.5t-13 -11.5l-134 -74
q-19 -10 -26 -2zM444 803l-10 10q-8 8 5 17l117 90q18 13 27 4l28 -22q7 -7 6 -11.5t-13 -10.5l-134 -76q-18 -9 -26 -1z" />
    <glyph glyph-name="ohungarumlaut" unicode="&#x151;" horiz-adv-x="559" 
d="M43 266q0 126 57.5 202t178.5 76t179 -76t58 -202t-58 -202.5t-179 -76.5t-178.5 76.5t-57.5 202.5zM279 490q-163 0 -163 -224q0 -225 163 -225q164 0 164 225q0 224 -164 224zM198 668l-11 10q-7 8 5 18l118 89q18 13 27 4l28 -23q7 -6 6 -10.5t-13 -11.5l-134 -74
q-19 -10 -26 -2zM340 668l-10 10q-8 8 5 17l117 90q18 13 27 4l28 -22q7 -7 6 -11.5t-13 -10.5l-134 -76q-18 -9 -26 -1z" />
    <glyph glyph-name="OE" unicode="&#x152;" horiz-adv-x="1137" 
d="M45 357q0 55 9.5 105.5t34.5 101t63 87t99 59.5t138 23q183 0 274 -123v96q0 10 3 13t14 3h347q27 0 35 -7t9 -40l7 -99q2 -15 -0.5 -19.5t-13.5 -4.5h-23q-11 0 -15 4t-5 18l-3 47q-4 33 -18 40t-69 7h-195v-276h128q24 0 25 29l2 38q1 11 4 13.5t14 2.5h19
q11 0 14.5 -3.5t3.5 -12.5v-188q0 -9 -3 -12t-13 -3h-21q-11 0 -14.5 2.5t-3.5 11.5l-2 39q-1 30 -25 30h-128v-285h238q32 0 41 6.5t14 32.5l9 90q4 14 20 14h21q17 0 14 -16l-13 -157q-1 -16 -7 -20t-22 -4h-372q-11 0 -13.5 2.5t-2.5 13.5v94q-91 -123 -273 -123
q-93 0 -162 31t-107.5 85t-57 117.5t-18.5 136.5zM388 677q-75 0 -129.5 -28.5t-83.5 -76.5t-42 -100.5t-13 -110.5q0 -45 7.5 -87t26.5 -85t49 -74.5t78.5 -51.5t110.5 -20q77 0 132 29.5t83 79t40 100t12 106.5q0 44 -7 85.5t-26.5 85t-48.5 75.5t-78 52.5t-111 20.5z" />
    <glyph glyph-name="oe" unicode="&#x153;" horiz-adv-x="959" 
d="M43 266q0 126 57.5 202t178.5 76q151 0 207 -122q63 122 215 122q105 0 162.5 -49.5t57.5 -137.5q0 -79 -56 -123t-171 -44q-92 0 -167 26q18 -172 188 -172q55 0 95 12q12 3 36 12t30 11q10 3 10 -9v-28q0 -10 -3 -14t-14 -9q-70 -32 -157 -32q-170 0 -228 118
q-57 -118 -205 -118q-121 0 -178.5 76.5t-57.5 202.5zM279 490q-163 0 -163 -224q0 -225 163 -225q164 0 164 225q0 224 -164 224zM701 490q-86 0 -130 -59t-46 -162q77 -27 159 -27q169 0 169 120q0 60 -41 94t-111 34z" />
    <glyph glyph-name="Racute" unicode="&#x154;" horiz-adv-x="622" 
d="M271 292h-73v-197q0 -25 8 -33t29 -8h34q9 0 12 -2.5t3 -10.5v-26q0 -15 -15 -15h-212q-10 0 -13 3t-3 11v26q0 8 3 11t13 3h33q21 0 28.5 8t7.5 33v539q0 32 -27 33h-44q-14 0 -14 15v25q0 9 3.5 12t13.5 3h216q131 0 194.5 -51t63.5 -161q0 -166 -144 -207
q33 -21 58.5 -67.5t64.5 -146.5q10 -25 20.5 -33.5t28.5 -8.5q19 0 42 12q16 9 16 -6v-26q0 -14 -18 -24q-26 -14 -58 -14q-21 0 -35.5 4t-32.5 22.5t-32 53.5q-4 9 -16.5 43t-20 51t-23 46t-30 44t-36 27t-45.5 12zM198 346h90q85 0 126.5 39.5t41.5 124.5q0 82 -44 120
t-131 38h-83v-322zM257 803l-6 11q-6 12 8 20l133 70q20 11 26 1l20 -31q10 -14 -10 -21l-146 -53q-19 -8 -25 3z" />
    <glyph glyph-name="racute" unicode="&#x155;" horiz-adv-x="471" 
d="M118 442q0 22 -11.5 26t-60.5 4q-15 0 -15 14v25q0 15 16 16l118 7q13 0 18 -6.5t5 -21.5v-110q6 23 17.5 45.5t30.5 47t50.5 40t70.5 15.5q50 0 76 -24t26 -64h-3q3 -9 3 -19q0 -23 -15.5 -38t-35.5 -15q-21 0 -35 13.5t-14 36.5q0 34 29 49q-17 7 -36 7
q-50 0 -89 -42.5t-57 -98.5t-18 -109v-152q0 -21 8 -27.5t31 -6.5h55q10 0 13 -2.5t3 -10.5v-28q0 -13 -15 -13h-239q-15 0 -15 15v26q0 8 3 10.5t12 2.5h35q22 0 30.5 7t8.5 27v354zM228 668l-6 11q-6 12 8 20l133 70q20 11 26 1l20 -31q10 -14 -10 -21l-146 -53
q-19 -8 -25 3z" />
    <glyph glyph-name="Rcommaaccent" unicode="&#x156;" horiz-adv-x="622" 
d="M271 292h-73v-197q0 -25 8 -33t29 -8h34q9 0 12 -2.5t3 -10.5v-26q0 -15 -15 -15h-212q-10 0 -13 3t-3 11v26q0 8 3 11t13 3h33q21 0 28.5 8t7.5 33v539q0 32 -27 33h-44q-14 0 -14 15v25q0 9 3.5 12t13.5 3h216q131 0 194.5 -51t63.5 -161q0 -166 -144 -207
q33 -21 58.5 -67.5t64.5 -146.5q10 -25 20.5 -33.5t28.5 -8.5q19 0 42 12q16 9 16 -6v-26q0 -14 -18 -24q-26 -14 -58 -14q-21 0 -35.5 4t-32.5 22.5t-32 53.5q-4 9 -16.5 43t-20 51t-23 46t-30 44t-36 27t-45.5 12zM198 346h90q85 0 126.5 39.5t41.5 124.5q0 82 -44 120
t-131 38h-83v-322zM360 -135q0 23 15 38.5t36 15.5q20 0 33.5 -15t13.5 -41q0 -72 -87 -146q-10 -9 -16 -2l-9 8q-7 9 4 17q41 34 53 77q-19 2 -31 14.5t-12 33.5z" />
    <glyph glyph-name="rcommaaccent" unicode="&#x157;" horiz-adv-x="471" 
d="M118 442q0 22 -11.5 26t-60.5 4q-15 0 -15 14v25q0 15 16 16l118 7q13 0 18 -6.5t5 -21.5v-110q6 23 17.5 45.5t30.5 47t50.5 40t70.5 15.5q50 0 76 -24t26 -64h-3q3 -9 3 -19q0 -23 -15.5 -38t-35.5 -15q-21 0 -35 13.5t-14 36.5q0 34 29 49q-17 7 -36 7
q-50 0 -89 -42.5t-57 -98.5t-18 -109v-152q0 -21 8 -27.5t31 -6.5h55q10 0 13 -2.5t3 -10.5v-28q0 -13 -15 -13h-239q-15 0 -15 15v26q0 8 3 10.5t12 2.5h35q22 0 30.5 7t8.5 27v354zM107 -130q0 23 15 38.5t36 15.5q20 0 33.5 -15t13.5 -41q0 -72 -87 -146q-10 -9 -16 -2
l-9 8q-7 9 4 17q41 34 53 77q-19 2 -31 14.5t-12 33.5z" />
    <glyph glyph-name="Rcaron" unicode="&#x158;" horiz-adv-x="624" 
d="M272 292h-73v-197q0 -25 8 -33t30 -8h33q10 0 12.5 -2.5t2.5 -10.5v-26q0 -15 -15 -15h-212q-9 0 -12 3t-3 11v26q0 8 2.5 11t12.5 3h33q21 0 28.5 8t7.5 33v539q0 32 -27 33h-43q-15 0 -15 15v25q0 9 3.5 12t14.5 3h215q131 0 195 -51t64 -161q0 -165 -145 -207
q33 -21 58.5 -67.5t64.5 -146.5q10 -25 20.5 -33.5t28.5 -8.5q19 0 42 12q16 9 16 -6v-26q0 -9 -3.5 -13.5t-14.5 -10.5q-26 -14 -58 -14q-21 0 -35.5 4t-32.5 22.5t-32 53.5q-4 9 -16.5 43t-20 51t-23 46t-30 44t-36 27t-45.5 12zM199 346h90q85 0 126.5 39.5t41.5 124.5
q0 82 -44 120t-131 38h-83v-322zM223 913l75 -71l72 71q14 13 28 13h29q11 0 12 -6t-7 -13l-101 -100q-13 -14 -33 -14q-21 0 -35 14l-101 100q-5 5 -6.5 9.5t1.5 7t10 2.5h29q13 0 27 -13z" />
    <glyph glyph-name="rcaron" unicode="&#x159;" horiz-adv-x="471" 
d="M118 442q0 22 -11.5 26t-60.5 4q-15 0 -15 14v25q0 15 16 16l118 7q13 0 18 -6.5t5 -21.5v-110q6 23 17.5 45.5t30.5 47t50.5 40t70.5 15.5q50 0 76 -24t26 -64h-3q3 -9 3 -19q0 -23 -15.5 -38t-35.5 -15q-21 0 -35 13.5t-14 36.5q0 34 29 49q-17 7 -36 7
q-50 0 -89 -42.5t-57 -98.5t-18 -109v-152q0 -21 8 -27.5t31 -6.5h55q10 0 13 -2.5t3 -10.5v-28q0 -13 -15 -13h-239q-15 0 -15 15v26q0 8 3 10.5t12 2.5h35q22 0 30.5 7t8.5 27v354zM193 778l75 -71l72 71q14 13 28 13h29q11 0 12 -5.5t-7 -13.5l-101 -100q-13 -14 -33 -14
q-21 0 -35 14l-101 100q-5 5 -6.5 9.5t1.5 7t10 2.5h29q13 0 27 -13z" />
    <glyph glyph-name="Sacute" unicode="&#x15a;" horiz-adv-x="569" 
d="M514 572q-1 -24 -17 -37.5t-39 -13.5t-38 14t-15 39q0 36 34 50q-43 53 -152 53q-153 0 -153 -114q0 -42 21.5 -70t55.5 -43.5t75.5 -28t83 -28t75.5 -38t55.5 -65t21.5 -101.5q0 -107 -67.5 -154.5t-179.5 -47.5q-235 0 -237 157v1q0 24 16.5 39t39.5 15
q22 0 37.5 -14.5t15.5 -39.5q0 -39 -37 -50q42 -53 163 -53q177 0 177 140q0 43 -16.5 74t-44 48t-62.5 31t-71 23t-71 25t-62.5 35t-44 54t-16.5 82q0 178 225 178q109 0 166.5 -40.5t60.5 -111.5v-8zM249 803l-6 11q-6 12 8 20l133 70q20 11 26 1l20 -31q10 -14 -10 -21
l-146 -53q-19 -8 -25 3z" />
    <glyph glyph-name="sacute" unicode="&#x15b;" horiz-adv-x="478" 
d="M32 105q0 22 14.5 36.5t33.5 14.5t32.5 -13t13.5 -35q0 -20 -14 -36q38 -34 121 -34q135 0 135 96q0 42 -31 66t-76 35.5t-89.5 25.5t-75.5 48.5t-31 92.5q0 142 188 142q160 0 173 -102q2 -8 2 -13q0 -22 -14.5 -36t-34.5 -14t-32.5 13t-12.5 34q0 25 18 40
q-37 27 -104 27q-116 0 -116 -84q0 -42 31 -66t75.5 -35.5t89 -25.5t75.5 -48.5t31 -91.5q0 -81 -55.5 -118t-145.5 -37q-67 0 -116 20.5t-67 58.5q-18 13 -18 39zM208 668l-6 11q-6 12 8 20l133 70q20 11 26 1l20 -31q10 -14 -10 -21l-146 -53q-19 -8 -25 3z" />
    <glyph glyph-name="Scircumflex" unicode="&#x15c;" horiz-adv-x="568" 
d="M514 572q-1 -24 -17 -37.5t-39 -13.5t-38 14t-15 39q0 36 34 50q-43 53 -152 53q-153 0 -153 -114q0 -42 21.5 -70t55.5 -43.5t75.5 -28t83 -28t75.5 -38t55.5 -65t21.5 -101.5q0 -107 -67.5 -154.5t-179.5 -47.5q-235 0 -237 157v1q0 24 16.5 39t39.5 15
q22 0 37.5 -14.5t15.5 -39.5q0 -39 -37 -50q42 -53 163 -53q177 0 177 140q0 43 -16.5 74t-44 48t-62.5 31t-71 23t-71 25t-62.5 35t-44 54t-16.5 82q0 178 225 178q109 0 166.5 -40.5t60.5 -111.5v-8zM362 810l-74 70l-73 -70q-14 -13 -27 -13h-30q-7 0 -10 2.5t-1.5 7
t6.5 9.5l101 100q14 14 34 14t34 -14l102 -100q8 -8 6.5 -13.5t-11.5 -5.5h-30q-14 0 -27 13z" />
    <glyph glyph-name="scircumflex" unicode="&#x15d;" horiz-adv-x="478" 
d="M32 105q0 22 14.5 36.5t33.5 14.5t32.5 -13t13.5 -35q0 -20 -14 -36q38 -34 121 -34q135 0 135 96q0 42 -31 66t-76 35.5t-89.5 25.5t-75.5 48.5t-31 92.5q0 142 188 142q160 0 173 -102q2 -8 2 -13q0 -22 -14.5 -36t-34.5 -14t-32.5 13t-12.5 34q0 25 18 40
q-37 27 -104 27q-116 0 -116 -84q0 -42 31 -66t75.5 -35.5t89 -25.5t75.5 -48.5t31 -91.5q0 -81 -55.5 -118t-145.5 -37q-67 0 -116 20.5t-67 58.5q-18 13 -18 39zM322 674l-74 70l-73 -70q-14 -13 -27 -13h-30q-7 0 -10 2.5t-1.5 7t6.5 9.5l101 100q14 14 34 14t34 -14
l102 -100q8 -8 6.5 -13.5t-11.5 -5.5h-30q-14 0 -27 13z" />
    <glyph glyph-name="Scedilla" unicode="&#x15e;" horiz-adv-x="568" 
d="M234 -72l28 59q-222 5 -224 157v1q0 24 16.5 39t39.5 15q22 0 37.5 -14.5t15.5 -39.5q0 -39 -37 -50q42 -53 163 -53q177 0 177 140q0 43 -16.5 74t-44 48t-62.5 31t-71 23t-71 25t-62.5 35t-44 54t-16.5 82q0 178 225 178q109 0 166.5 -40.5t60.5 -111.5v-8
q-1 -24 -17 -37.5t-39 -13.5t-38 14t-15 39q0 36 34 50q-43 53 -152 53q-153 0 -153 -114q0 -42 21.5 -70t55.5 -43.5t75.5 -28t83 -28t75.5 -38t55.5 -65t21.5 -101.5q0 -98 -57 -145.5t-154 -54.5l-11 -30q45 6 73 -13t28 -63q0 -91 -120 -91q-32 0 -71 6q-7 1 -7 13v19
q0 8 1.5 10t7.5 1q49 -6 67 -6q68 0 68 47q0 38 -51 38q-10 0 -29.5 -2t-24.5 -2q-14 0 -8 12z" />
    <glyph glyph-name="scedilla" unicode="&#x15f;" horiz-adv-x="478" 
d="M165 -67l26 57q-112 11 -141 76q-18 13 -18 39q0 22 14.5 36.5t33.5 14.5t32.5 -13t13.5 -35q0 -20 -14 -36q38 -34 121 -34q135 0 135 96q0 42 -31 66t-76 35.5t-89.5 25.5t-75.5 48.5t-31 92.5q0 142 188 142q160 0 173 -102q2 -8 2 -13q0 -22 -14.5 -36t-34.5 -14
t-32.5 13t-12.5 34q0 25 18 40q-37 27 -104 27q-116 0 -116 -84q0 -42 31 -66t75.5 -35.5t89 -25.5t75.5 -48.5t31 -91.5q0 -80 -53.5 -116.5t-140.5 -38.5l-9 -23q45 6 73 -13t28 -63q0 -91 -120 -91q-32 0 -71 6q-7 1 -7 13v19q0 9 1.5 10.5t7.5 0.5q50 -6 67 -6
q68 0 68 47q0 38 -51 38q-10 0 -29.5 -2t-24.5 -2q-14 0 -8 12z" />
    <glyph glyph-name="Scaron" unicode="&#x160;" horiz-adv-x="569" 
d="M37 145q0 24 16.5 39t39.5 15q22 0 37.5 -14.5t15.5 -39.5q0 -39 -36 -50q43 -53 162 -53q177 0 177 140q0 43 -16.5 74t-44 48t-62.5 31t-71 23t-71 25t-62.5 35t-44 54t-16.5 82q0 178 225 178q103 0 160 -37t65 -103q3 -8 3 -17q0 -26 -16.5 -40t-40.5 -14
q-23 0 -38 14t-15 39q0 36 34 50q-43 53 -152 53q-153 0 -153 -114q0 -42 21.5 -70t55.5 -43.5t75.5 -28t83 -28t75.5 -38t55.5 -65t21.5 -101.5q0 -107 -67.5 -154.5t-179.5 -47.5q-235 0 -237 157v1zM213 913l75 -71l72 71q14 13 28 13h29q11 0 12 -6t-7 -13l-101 -100
q-13 -14 -33 -14q-21 0 -35 14l-101 100q-5 5 -6.5 9.5t1.5 7t10 2.5h29q13 0 27 -13z" />
    <glyph glyph-name="scaron" unicode="&#x161;" horiz-adv-x="478" 
d="M32 105q0 22 14.5 36.5t33.5 14.5t32.5 -13t13.5 -35q0 -20 -14 -36q38 -34 121 -34q135 0 135 96q0 42 -31 66t-76 35.5t-89.5 25.5t-75.5 48.5t-31 92.5q0 142 188 142q160 0 173 -102q2 -8 2 -13q0 -22 -14.5 -36t-34.5 -14t-32.5 13t-12.5 34q0 25 18 40
q-37 27 -104 27q-116 0 -116 -84q0 -42 31 -66t75.5 -35.5t89 -25.5t75.5 -48.5t31 -91.5q0 -81 -55.5 -118t-145.5 -37q-67 0 -116 20.5t-67 58.5q-18 13 -18 39zM173 778l75 -71l72 71q14 13 28 13h29q11 0 12 -5.5t-7 -13.5l-101 -100q-13 -14 -33 -14q-21 0 -35 14
l-101 100q-5 5 -6.5 9.5t1.5 7t10 2.5h29q13 0 27 -13z" />
    <glyph glyph-name="Tcommaaccent" unicode="&#x162;" horiz-adv-x="596" 
d="M37 697q1 17 5.5 21t18.5 4h474q14 0 18.5 -4t5.5 -21l8 -123q1 -10 -2 -13.5t-14 -3.5h-23q-11 0 -15 2.5t-5 12.5l-5 69q-1 17 -9.5 21t-39.5 4h-120v-579q1 -20 9 -26.5t28 -6.5h35q9 0 11.5 -2.5t2.5 -10.5v-26q0 -15 -14 -15h-213q-10 0 -13 3t-3 11v26q0 8 3 11
t13 3h33q19 0 27 7t9 27v578h-128q-25 0 -32.5 -4t-8.5 -21l-6 -69q-1 -10 -4 -12.5t-15 -2.5h-23q-11 0 -14 3t-2 14zM258 -135q0 23 15 38.5t36 15.5q20 0 33.5 -15t13.5 -41q0 -72 -87 -146q-10 -9 -16 -2l-9 8q-7 9 4 17q41 34 53 77q-19 2 -31 14.5t-12 33.5z" />
    <glyph glyph-name="tcommaaccent" unicode="&#x163;" horiz-adv-x="342" 
d="M30 526h67l20 122q2 16 28 16q15 0 18.5 -3t3.5 -13v-122h130q16 0 16 -12v-31q0 -13 -15 -13h-131v-314q0 -64 20 -84.5t61 -20.5t67 13q16 7 16 -9v-29q0 -14 -14 -19q-31 -13 -82 -13q-65 0 -101.5 31t-36.5 114v331h-65q-10 0 -13 2.5t-3 11.5v26q0 16 14 16z
M127 -135q0 23 15 38.5t36 15.5q20 0 33.5 -15t13.5 -41q0 -72 -87 -146q-10 -9 -16 -2l-9 8q-7 9 4 17q41 34 53 77q-19 2 -31 14.5t-12 33.5z" />
    <glyph glyph-name="Tcaron" unicode="&#x164;" horiz-adv-x="596" 
d="M37 697q1 17 5.5 21t18.5 4h474q14 0 18.5 -4t5.5 -21l8 -123q1 -10 -2 -13.5t-14 -3.5h-23q-11 0 -15 2.5t-5 12.5l-5 69q-1 17 -9.5 21t-39.5 4h-120v-579q1 -20 9 -26.5t28 -6.5h35q9 0 11.5 -2.5t2.5 -10.5v-26q0 -15 -14 -15h-213q-10 0 -13 3t-3 11v26q0 8 3 11
t13 3h33q19 0 27 7t9 27v578h-128q-25 0 -32.5 -4t-8.5 -21l-6 -69q-1 -10 -4 -12.5t-15 -2.5h-23q-11 0 -14 3t-2 14zM219 905l75 -71l72 71q14 13 28 13h29q11 0 12 -6t-7 -13l-101 -100q-13 -14 -33 -14q-21 0 -35 14l-101 100q-5 5 -6.5 9.5t1.5 7t10 2.5h29
q13 0 27 -13z" />
    <glyph glyph-name="tcaron" unicode="&#x165;" horiz-adv-x="343" 
d="M30 526h67l20 122q2 16 28 16q15 0 18.5 -3t3.5 -13v-122h130q16 0 16 -12v-31q0 -13 -15 -13h-131v-314q0 -64 20 -84.5t61 -20.5t67 13q16 7 16 -9v-29q0 -14 -14 -19q-31 -13 -82 -13q-65 0 -101.5 31t-36.5 114v331h-65q-10 0 -13 2.5t-3 11.5v26q0 16 14 16z
M225 705q0 24 14 39t37 15q21 0 34.5 -15t13.5 -42q0 -72 -85 -145q-11 -10 -19 -2l-7 7q-7 8 4 17q17 14 31.5 36t18.5 41q-19 1 -30.5 14t-11.5 35z" />
    <glyph glyph-name="Tbar" unicode="&#x166;" horiz-adv-x="596" 
d="M423 382h-89v-295q1 -20 9 -26.5t28 -6.5h35q9 0 11.5 -2.5t2.5 -10.5v-26q0 -15 -14 -15h-213q-10 0 -13 3t-3 11v26q0 8 3 11t13 3h33q19 0 27 7t9 27v294h-93q-18 0 -18 36q0 22 18 22h93v226h-128q-25 0 -32.5 -4t-8.5 -21l-6 -69q-1 -10 -4 -12.5t-15 -2.5h-23
q-11 0 -14 3t-2 14l8 123q1 17 5.5 21t18.5 4h474q14 0 18.5 -4t5.5 -21l8 -123q1 -10 -2 -13.5t-14 -3.5h-23q-11 0 -15 2.5t-5 12.5l-5 69q-1 17 -9.5 21t-39.5 4h-120v-226h84q18 0 18 -33q0 -25 -13 -25z" />
    <glyph glyph-name="tbar" unicode="&#x167;" horiz-adv-x="345" 
d="M31 526h67l20 122q2 16 28 16q15 0 18.5 -3t3.5 -13v-122h130q16 0 16 -12v-31q0 -13 -15 -13h-131v-55h131q16 0 16 -12v-30q0 -14 -15 -14h-132v-203q0 -64 20 -84.5t61 -20.5t67 13q16 7 16 -9v-29q0 -14 -14 -19q-31 -13 -82 -13q-65 0 -101.5 31t-36.5 114v220h-64
q-10 0 -13 2.5t-3 11.5v25q0 17 14 17h66v55h-65q-10 0 -13 2.5t-3 11.5v26q0 16 14 16z" />
    <glyph glyph-name="Utilde" unicode="&#x168;" horiz-adv-x="748" 
d="M376 55q196 0 196 217v357q0 24 -7 31.5t-28 7.5h-35q-10 0 -12.5 2.5t-2.5 12.5v23q0 10 3.5 13t11.5 3h204q9 0 12.5 -3t3.5 -13v-23q0 -10 -2.5 -12.5t-13.5 -2.5h-36q-20 0 -26.5 -7t-6.5 -32v-362q0 -274 -262 -274q-264 0 -264 270v364q0 25 -6.5 33t-27.5 8h-35
q-10 0 -13 2.5t-3 12.5v23q0 10 3.5 13t12.5 3h211q9 0 12.5 -3t3.5 -13v-23q0 -10 -2.5 -12.5t-13.5 -2.5h-36q-21 0 -27 -7.5t-6 -33.5v-357q0 -109 47.5 -162t144.5 -53zM421 848q29 0 30 33q2 7 9 7h28q8 0 8 -9q0 -81 -74 -81q-41 0 -58 26q-1 1 -2 3l-1.5 3l-1.5 3
t-2 3t-2.5 2l-3 2t-4 1.5l-5 1t-5.5 0.5q-27 0 -29 -33q-1 -8 -10 -8h-26q-9 0 -9 10q0 38 19 59t55 21q38 0 55 -30q9 -14 29 -14z" />
    <glyph glyph-name="utilde" unicode="&#x169;" 
d="M277 49q77 0 117.5 50t40.5 141v202q0 22 -11.5 26t-60.5 4q-15 0 -15 14v25q0 15 16 16l118 7q13 0 18 -6.5t5 -21.5v-413q0 -42 31 -42q7 0 37 5q14 5 14 -8v-27q0 -13 -13 -18q-27 -8 -57 -8q-74 0 -81 72q-57 -77 -175 -77q-84 0 -124 42t-40 141v269q0 22 -12 26
t-61 4q-14 0 -14 14v25q0 15 15 16l118 7q14 0 19 -6.5t5 -21.5v-336q0 -121 110 -121zM318 713q28 0 30 33q2 7 9 7h28q8 0 8 -9q0 -81 -74 -81q-41 0 -58 26q-1 1 -2 3l-1.5 3l-1.5 3t-2 3t-2.5 2l-3 2t-4 1.5l-5 1t-5.5 0.5q-27 0 -29 -33q-1 -8 -10 -8h-26q-9 0 -9 10
q0 38 19 59t55 21q38 0 55 -30q9 -14 29 -14z" />
    <glyph glyph-name="Umacron" unicode="&#x16a;" horiz-adv-x="748" 
d="M376 55q196 0 196 217v357q0 24 -7 31.5t-28 7.5h-35q-10 0 -12.5 2.5t-2.5 12.5v23q0 10 3.5 13t11.5 3h204q9 0 12.5 -3t3.5 -13v-23q0 -10 -2.5 -12.5t-13.5 -2.5h-36q-20 0 -26.5 -7t-6.5 -32v-362q0 -274 -262 -274q-264 0 -264 270v364q0 25 -6.5 33t-27.5 8h-35
q-10 0 -13 2.5t-3 12.5v23q0 10 3.5 13t12.5 3h211q9 0 12.5 -3t3.5 -13v-23q0 -10 -2.5 -12.5t-13.5 -2.5h-36q-21 0 -27 -7.5t-6 -33.5v-357q0 -109 47.5 -162t144.5 -53zM498 802h-231q-17 0 -17 35q0 22 17 22h227q16 0 16 -32q0 -25 -12 -25z" />
    <glyph glyph-name="umacron" unicode="&#x16b;" 
d="M277 49q77 0 117.5 50t40.5 141v202q0 22 -11.5 26t-60.5 4q-15 0 -15 14v25q0 15 16 16l118 7q13 0 18 -6.5t5 -21.5v-413q0 -42 31 -42q7 0 37 5q14 5 14 -8v-27q0 -13 -13 -18q-27 -8 -57 -8q-74 0 -81 72q-57 -77 -175 -77q-84 0 -124 42t-40 141v269q0 22 -12 26
t-61 4q-14 0 -14 14v25q0 15 15 16l118 7q14 0 19 -6.5t5 -21.5v-336q0 -121 110 -121zM395 666h-231q-17 0 -17 35q0 22 17 22h227q16 0 16 -32q0 -25 -12 -25z" />
    <glyph glyph-name="Ubreve" unicode="&#x16c;" horiz-adv-x="748" 
d="M376 55q196 0 196 217v357q0 24 -7 31.5t-28 7.5h-35q-10 0 -12.5 2.5t-2.5 12.5v23q0 10 3.5 13t11.5 3h204q9 0 12.5 -3t3.5 -13v-23q0 -10 -2.5 -12.5t-13.5 -2.5h-36q-20 0 -26.5 -7t-6.5 -32v-362q0 -274 -262 -274q-264 0 -264 270v364q0 25 -6.5 33t-27.5 8h-35
q-10 0 -13 2.5t-3 12.5v23q0 10 3.5 13t12.5 3h211q9 0 12.5 -3t3.5 -13v-23q0 -10 -2.5 -12.5t-13.5 -2.5h-36q-21 0 -27 -7.5t-6 -33.5v-357q0 -109 47.5 -162t144.5 -53zM379 837q67 0 67 49q0 11 11 11h33q11 0 11 -13q0 -46 -33.5 -72t-88.5 -26q-58 0 -89 26t-31 73
q0 12 11 12h33q11 0 11 -10q0 -50 65 -50z" />
    <glyph glyph-name="ubreve" unicode="&#x16d;" 
d="M277 49q77 0 117.5 50t40.5 141v202q0 22 -11.5 26t-60.5 4q-15 0 -15 14v25q0 15 16 16l118 7q13 0 18 -6.5t5 -21.5v-413q0 -42 31 -42q7 0 37 5q14 5 14 -8v-27q0 -13 -13 -18q-27 -8 -57 -8q-74 0 -81 72q-57 -77 -175 -77q-84 0 -124 42t-40 141v269q0 22 -12 26
t-61 4q-14 0 -14 14v25q0 15 15 16l118 7q14 0 19 -6.5t5 -21.5v-336q0 -121 110 -121zM274 702q67 0 67 49q0 11 11 11h33q11 0 11 -13q0 -46 -33.5 -72t-88.5 -26q-58 0 -89 25.5t-31 73.5q0 12 11 12h33q11 0 11 -10q0 -50 65 -50z" />
    <glyph glyph-name="Uring" unicode="&#x16e;" horiz-adv-x="748" 
d="M376 55q196 0 196 217v357q0 24 -7 31.5t-28 7.5h-35q-10 0 -12.5 2.5t-2.5 12.5v23q0 10 3.5 13t11.5 3h204q9 0 12.5 -3t3.5 -13v-23q0 -10 -2.5 -12.5t-13.5 -2.5h-36q-20 0 -26.5 -7t-6.5 -32v-362q0 -274 -262 -274q-264 0 -264 270v364q0 25 -6.5 33t-27.5 8h-35
q-10 0 -13 2.5t-3 12.5v23q0 10 3.5 13t12.5 3h211q9 0 12.5 -3t3.5 -13v-23q0 -10 -2.5 -12.5t-13.5 -2.5h-36q-21 0 -27 -7.5t-6 -33.5v-357q0 -109 47.5 -162t144.5 -53zM376 788q-46 0 -75.5 23t-29.5 60t29 59.5t76 22.5q48 0 77 -22.5t29 -59.5t-29 -60t-77 -23z
M376 824q24 0 40 12.5t16 34.5q0 21 -16 34.5t-40 13.5q-23 0 -38.5 -13.5t-15.5 -34.5q0 -22 15.5 -34.5t38.5 -12.5z" />
    <glyph glyph-name="uring" unicode="&#x16f;" 
d="M277 49q77 0 117.5 50t40.5 141v202q0 22 -11.5 26t-60.5 4q-15 0 -15 14v25q0 15 16 16l118 7q13 0 18 -6.5t5 -21.5v-413q0 -42 31 -42q7 0 37 5q14 5 14 -8v-27q0 -13 -13 -18q-27 -8 -57 -8q-74 0 -81 72q-57 -77 -175 -77q-84 0 -124 42t-40 141v269q0 22 -12 26
t-61 4q-14 0 -14 14v25q0 15 15 16l118 7q14 0 19 -6.5t5 -21.5v-336q0 -121 110 -121zM273 653q-46 0 -75.5 23t-29.5 60t29 59.5t76 22.5q48 0 77 -22.5t29 -59.5t-29 -60t-77 -23zM273 689q24 0 40 12.5t16 34.5q0 21 -16 34.5t-40 13.5q-23 0 -38.5 -13.5t-15.5 -34.5
q0 -22 15.5 -34.5t38.5 -12.5z" />
    <glyph glyph-name="Uhungarumlaut" unicode="&#x170;" horiz-adv-x="748" 
d="M376 55q196 0 196 217v357q0 24 -7 31.5t-28 7.5h-35q-10 0 -12.5 2.5t-2.5 12.5v23q0 10 3.5 13t11.5 3h204q9 0 12.5 -3t3.5 -13v-23q0 -10 -2.5 -12.5t-13.5 -2.5h-36q-20 0 -26.5 -7t-6.5 -32v-362q0 -274 -262 -274q-264 0 -264 270v364q0 25 -6.5 33t-27.5 8h-35
q-10 0 -13 2.5t-3 12.5v23q0 10 3.5 13t12.5 3h211q9 0 12.5 -3t3.5 -13v-23q0 -10 -2.5 -12.5t-13.5 -2.5h-36q-21 0 -27 -7.5t-6 -33.5v-357q0 -109 47.5 -162t144.5 -53zM291 803l-11 10q-7 8 5 18l118 89q18 13 27 4l28 -23q7 -6 6 -10.5t-13 -11.5l-134 -74
q-19 -10 -26 -2zM433 803l-10 10q-8 8 5 17l117 90q18 13 27 4l28 -22q7 -7 6 -11.5t-13 -10.5l-134 -76q-18 -9 -26 -1z" />
    <glyph glyph-name="uhungarumlaut" unicode="&#x171;" 
d="M277 49q77 0 117.5 50t40.5 141v202q0 22 -11.5 26t-60.5 4q-15 0 -15 14v25q0 15 16 16l118 7q13 0 18 -6.5t5 -21.5v-413q0 -42 31 -42q7 0 37 5q14 5 14 -8v-27q0 -13 -13 -18q-27 -8 -57 -8q-74 0 -81 72q-57 -77 -175 -77q-84 0 -124 42t-40 141v269q0 22 -12 26
t-61 4q-14 0 -14 14v25q0 15 15 16l118 7q14 0 19 -6.5t5 -21.5v-336q0 -121 110 -121zM188 668l-11 10q-7 8 5 18l118 89q18 13 27 4l28 -23q7 -6 6 -10.5t-13 -11.5l-134 -74q-19 -10 -26 -2zM330 668l-10 10q-8 8 5 17l117 90q18 13 27 4l28 -22q7 -7 6 -11.5t-13 -10.5
l-134 -76q-18 -9 -26 -1z" />
    <glyph glyph-name="Uogonek" unicode="&#x172;" horiz-adv-x="750" 
d="M638 267q0 -271 -259 -274q-59 -38 -59 -91q0 -43 48 -43q26 0 47 11q20 10 25 -3l6 -15q4 -12 -9 -21q-31 -21 -78 -21q-45 0 -72.5 20t-27.5 61q0 61 70 104q-217 21 -217 268v364q0 25 -6.5 33t-27.5 8h-35q-10 0 -13 2.5t-3 12.5v23q0 10 3.5 13t12.5 3h211
q9 0 12.5 -3t3.5 -13v-23q0 -10 -3 -12.5t-13 -2.5h-36q-21 0 -27 -7.5t-6 -33.5v-357q0 -109 47.5 -162t144.5 -53q196 0 196 217v357q0 24 -7 31.5t-28 7.5h-35q-10 0 -12.5 2.5t-2.5 12.5v23q0 10 3 13t12 3h204q9 0 12.5 -3t3.5 -13v-23q0 -10 -3 -12.5t-13 -2.5h-36
q-20 0 -26.5 -7t-6.5 -32v-362z" />
    <glyph glyph-name="uogonek" unicode="&#x173;" 
d="M277 49q77 0 117.5 50t40.5 141v202q0 22 -11.5 26t-60.5 4q-15 0 -15 14v25q0 15 16 16l118 7q13 0 18 -6.5t5 -21.5v-413q0 -42 31 -42q7 0 37 5q14 5 14 -8v-27q0 -13 -13 -18q-25 -6 -36 -7q-72 -40 -72 -99q0 -43 48 -43q26 0 47 11q20 10 25 -3l6 -15q4 -12 -9 -21
q-31 -21 -78 -21q-45 0 -72.5 20t-27.5 61q0 65 84 112q-48 11 -53 69q-57 -77 -175 -77q-84 0 -124 42t-40 141v269q0 22 -12 26t-61 4q-14 0 -14 14v25q0 15 15 16l118 7q14 0 19 -6.5t5 -21.5v-336q0 -121 110 -121z" />
    <glyph glyph-name="Wcircumflex" unicode="&#x174;" horiz-adv-x="996" 
d="M168 622l148 -551l144 626q4 17 6.5 21t10.5 4h53q8 0 10.5 -4t7.5 -22l160 -604l137 528q8 33 -0.5 40.5t-53.5 7.5q-16 0 -16 14v27q0 9 2.5 11t13.5 2h185q9 0 12 -2.5t3 -11.5v-25q0 -15 -15 -15q-41 0 -51.5 -8t-21.5 -46l-162 -603q-3 -12 -7.5 -15t-16.5 -3h-40
q-11 0 -15.5 4t-7.5 14l-156 598l-138 -598q-3 -12 -7 -15.5t-16 -3.5h-56q-17 0 -22 19l-169 609q-10 35 -20 41.5t-50 6.5q-12 0 -15.5 3.5t-3.5 13.5v24q0 8 2.5 10.5t10.5 2.5h208q9 0 11.5 -2.5t2.5 -10.5v-28q0 -13 -12 -13q-39 0 -50.5 -2.5t-11.5 -14.5q0 -9 6 -29z
M572 810l-74 70l-73 -70q-14 -13 -27 -13h-30q-7 0 -10 2.5t-1.5 7t6.5 9.5l101 100q14 14 34 14t34 -14l102 -100q8 -8 6.5 -13.5t-11.5 -5.5h-30q-14 0 -27 13z" />
    <glyph glyph-name="wcircumflex" unicode="&#x175;" horiz-adv-x="886" 
d="M166 440l113 -387l125 446q5 19 8.5 23t13.5 4h43q9 0 12 -5t9 -24l130 -442l104 368q9 35 7.5 41t-21.5 8l-37 1q-9 1 -11.5 3.5t-2.5 9.5v26q0 9 2.5 11.5t11.5 2.5h194q13 0 13 -11v-26q0 -16 -13 -17h-36q-19 -1 -26 -9t-18 -48l-127 -408q-3 -10 -8 -12.5t-24 -2.5
h-42q-16 0 -21 14l-127 418l-121 -417q-2 -9 -6.5 -12t-16.5 -3h-49q-14 0 -19 14l-136 432q-7 23 -17 28t-43 6q-11 1 -14.5 4t-3.5 11v26q0 13 14 13h194q12 0 12 -13v-26q0 -14 -11 -14q-48 -1 -55 -5.5t0 -27.5zM519 699l-74 70l-73 -70q-14 -13 -27 -13h-30
q-7 0 -10 2.5t-1.5 7t6.5 9.5l101 100q14 14 34 14t34 -14l102 -100q8 -7 6.5 -13t-11.5 -6h-30q-14 0 -27 13z" />
    <glyph glyph-name="Ycircumflex" unicode="&#x176;" horiz-adv-x="624" 
d="M276 291l-180 335q-14 26 -23.5 33.5t-25.5 7.5h-27q-10 0 -13.5 3.5t-3.5 13.5v23q0 9 3 12t12 3h193q9 0 12.5 -3t3.5 -12v-22q0 -10 -3 -13.5t-13 -3.5h-26q-18 0 -21 -5t7 -25l143 -283l154 284q9 20 6 24.5t-19 4.5h-25q-16 0 -16 18v22q0 9 3.5 11.5t12.5 2.5h176
q14 0 14 -15v-22q0 -10 -3 -13.5t-13 -3.5h-28q-14 0 -20.5 -5.5t-21.5 -31.5l-185 -324v-220q1 -20 9 -26.5t28 -6.5h33q10 0 12.5 -2.5t2.5 -10.5v-26q0 -15 -15 -15h-212q-9 0 -12 3t-3 11v26q0 8 3 11t12 3h33q19 0 27 7t9 27v203zM394 810l-74 70l-73 -70
q-14 -13 -27 -13h-30q-7 0 -10 2.5t-1.5 7t6.5 9.5l101 100q14 14 34 14t34 -14l102 -100q8 -8 6.5 -13.5t-11.5 -5.5h-30q-14 0 -27 13z" />
    <glyph glyph-name="ycircumflex" unicode="&#x177;" horiz-adv-x="601" 
d="M173 438l133 -376l132 375q8 23 2.5 29t-31.5 6h-22q-14 0 -14 14v25q0 10 3 12.5t13 2.5h190q10 0 12.5 -3t2.5 -12v-22q0 -16 -16 -16h-27q-22 0 -30 -6.5t-18 -33.5l-195 -540q-30 -79 -69.5 -110.5t-97.5 -31.5q-45 0 -76 22t-35 60v8q0 21 14.5 35.5t33.5 14.5
t32.5 -13t13.5 -35q0 -26 -23 -42q16 -8 37 -8q36 0 62.5 24.5t49.5 85.5l25 71l-177 460q-11 26 -17.5 32t-29.5 6h-26q-15 0 -15 15v25q0 9 3 11.5t12 2.5h204q9 0 12 -2.5t3 -12.5v-23q0 -15 -15 -15h-34q-22 0 -26 -6.5t4 -28.5zM381 674l-74 70l-73 -70
q-14 -13 -27 -13h-30q-7 0 -10 2.5t-1.5 7t6.5 9.5l101 100q14 14 34 14t34 -14l102 -100q8 -8 6.5 -13.5t-11.5 -5.5h-30q-14 0 -27 13z" />
    <glyph glyph-name="Ydieresis" unicode="&#x178;" horiz-adv-x="624" 
d="M276 291l-180 335q-14 26 -23.5 33.5t-25.5 7.5h-27q-10 0 -13.5 3.5t-3.5 13.5v23q0 9 3 12t12 3h193q9 0 12.5 -3t3.5 -12v-22q0 -10 -3 -13.5t-13 -3.5h-26q-18 0 -21 -5t7 -25l143 -283l154 284q9 20 6 24.5t-19 4.5h-25q-16 0 -16 18v22q0 9 3.5 11.5t12.5 2.5h176
q14 0 14 -15v-22q0 -10 -3 -13.5t-13 -3.5h-28q-14 0 -20.5 -5.5t-21.5 -31.5l-185 -324v-220q1 -20 9 -26.5t28 -6.5h33q10 0 12.5 -2.5t2.5 -10.5v-26q0 -15 -15 -15h-212q-9 0 -12 3t-3 11v26q0 8 3 11t12 3h33q19 0 27 7t9 27v203zM193 843q0 23 14.5 38t34.5 15
t33.5 -13.5t13.5 -36.5q0 -21 -15 -35.5t-35 -14.5q-21 0 -33.5 13t-12.5 34zM353 843q0 23 14.5 38t35.5 15q20 0 33 -13.5t13 -36.5q0 -21 -15 -35.5t-35 -14.5t-33 13t-13 34z" />
    <glyph glyph-name="Zacute" unicode="&#x179;" horiz-adv-x="586" 
d="M74 722h444q16 0 16 -22v-18q0 -12 -12 -31l-395 -597h305q26 0 35.5 15t28.5 89q3 11 6.5 15t12.5 4h25q13 0 10 -20l-17 -142q-1 -15 -19 -15h-462q-11 1 -11 21v22q0 14 4 19l399 606h-275q-38 0 -48.5 -17t-19.5 -93q-3 -19 -16 -19h-29q-12 0 -10 22l9 145
q1 16 19 16zM264 803l-6 11q-6 12 8 20l133 70q20 11 26 1l20 -31q10 -14 -10 -21l-146 -53q-19 -8 -25 3z" />
    <glyph glyph-name="zacute" unicode="&#x17a;" horiz-adv-x="502" 
d="M84 528h345q15 0 15 -14v-16q0 -16 -13 -33l-308 -411h217q33 0 43 14t26 88q3 12 15 12h30q11 0 10 -13l-18 -139q-3 -16 -22 -16h-375q-12 1 -12 14v26q0 14 4 19l311 416h-187q-29 0 -37.5 -12t-20.5 -71q-3 -12 -6 -15.5t-10 -3.5h-31q-12 0 -10 16l13 123
q1 16 21 16zM218 668l-6 11q-6 12 8 20l133 70q20 11 26 1l20 -31q10 -14 -10 -21l-146 -53q-19 -8 -25 3z" />
    <glyph glyph-name="Zdotaccent" unicode="&#x17b;" horiz-adv-x="586" 
d="M249 831q0 25 16.5 42t39.5 17q22 0 37.5 -15t15.5 -40t-17 -41t-40 -16q-22 0 -37 14.5t-15 38.5zM74 722h444q16 0 16 -22v-18q0 -12 -12 -31l-395 -597h305q26 0 35.5 15t28.5 89q3 11 6.5 15t12.5 4h25q13 0 10 -20l-17 -142q-1 -15 -19 -15h-462q-11 1 -11 21v22
q0 14 4 19l399 606h-275q-38 0 -48.5 -17t-19.5 -93q-3 -19 -16 -19h-29q-12 0 -10 22l9 145q1 16 19 16z" />
    <glyph glyph-name="zdotaccent" unicode="&#x17c;" horiz-adv-x="502" 
d="M84 528h345q15 0 15 -14v-16q0 -16 -13 -33l-308 -411h217q33 0 43 14t26 88q3 12 15 12h30q11 0 10 -13l-18 -139q-3 -16 -22 -16h-375q-12 1 -12 14v26q0 14 4 19l311 416h-187q-29 0 -37.5 -12t-20.5 -71q-3 -12 -6 -15.5t-10 -3.5h-31q-12 0 -10 16l13 123
q1 16 21 16zM204 720q0 26 17 43t39 17t37.5 -15t15.5 -41q0 -25 -17 -41t-40 -16q-22 0 -37 14.5t-15 38.5z" />
    <glyph glyph-name="Zcaron" unicode="&#x17d;" horiz-adv-x="586" 
d="M74 722h444q16 0 16 -22v-18q0 -12 -12 -31l-395 -597h305q26 0 35.5 15t28.5 89q3 11 6.5 15t12.5 4h25q13 0 10 -20l-17 -142q-1 -15 -19 -15h-462q-11 1 -11 21v22q0 14 4 19l399 606h-275q-38 0 -48.5 -17t-19.5 -93q-3 -19 -16 -19h-29q-12 0 -10 22l9 145
q1 16 19 16zM228 913l75 -71l72 71q14 13 28 13h29q11 0 12 -6t-7 -13l-101 -100q-13 -14 -33 -14q-21 0 -35 14l-101 100q-5 5 -6.5 9.5t1.5 7t10 2.5h29q13 0 27 -13z" />
    <glyph glyph-name="zcaron" unicode="&#x17e;" horiz-adv-x="502" 
d="M84 528h345q15 0 15 -14v-16q0 -16 -13 -33l-308 -411h217q33 0 43 14t26 88q3 12 15 12h30q11 0 10 -13l-18 -139q-3 -16 -22 -16h-375q-12 1 -12 14v26q0 14 4 19l311 416h-187q-29 0 -37.5 -12t-20.5 -71q-3 -12 -6 -15.5t-10 -3.5h-31q-12 0 -10 16l13 123
q1 16 21 16zM183 778l75 -71l72 71q14 13 28 13h29q11 0 12 -5.5t-7 -13.5l-101 -100q-13 -14 -33 -14q-21 0 -35 14l-101 100q-5 5 -6.5 9.5t1.5 7t10 2.5h29q13 0 27 -13z" />
    <glyph glyph-name="florin" unicode="&#x192;" horiz-adv-x="519" 
d="M131 500h74v79q0 204 164 204q63 0 97 -31.5t34 -82.5h-27q-2 -20 -16.5 -32.5t-32.5 -12.5q-19 0 -32 13t-13 35q0 19 12 33t29 16q-16 9 -45 9q-50 0 -75 -34.5t-25 -109.5v-86h131q16 0 16 -12v-28q0 -13 -15 -13h-132v-424q0 -204 -164 -204q-62 0 -95.5 29.5
t-35.5 78.5v4q0 21 14.5 35.5t33.5 14.5t32.5 -13t13.5 -35q0 -30 -27 -44q20 -18 59 -18q99 0 99 145v431h-71q-11 0 -14 2.5t-3 11.5v23q0 16 14 16z" />
    <glyph glyph-name="acaron" unicode="&#x1ce;" horiz-adv-x="543" 
d="M449 93q0 -42 31 -42q9 0 36 5q8 3 11 1.5t3 -9.5v-27q0 -13 -12 -18q-29 -8 -57 -8q-80 0 -82 82q-57 -83 -183 -83q-157 0 -157 138q0 93 71.5 133t215.5 40h53v43q0 81 -30 112t-100 31q-84 0 -117 -36q27 -13 27 -44q0 -22 -14.5 -36t-34.5 -14q-19 0 -32 13t-13 34
v4q1 72 47.5 102t135.5 30q104 0 152.5 -44t48.5 -158v-249zM109 133q0 -86 97 -86q75 0 124 45.5t49 123.5v37h-53q-112 0 -164.5 -27.5t-52.5 -92.5zM187 778l75 -71l72 71q14 13 28 13h29q11 0 12 -5.5t-7 -13.5l-101 -100q-13 -14 -33 -14q-21 0 -35 14l-101 100
q-5 5 -6.5 9.5t1.5 7t10 2.5h29q13 0 27 -13z" />
    <glyph glyph-name="AEacute" unicode="&#x1fc;" horiz-adv-x="935" 
d="M662 329h-147v-275h231q52 0 65.5 9t20.5 49l8 71q4 14 20 14h20q18 0 15 -16l-12 -134q-3 -32 -11.5 -39.5t-33.5 -7.5h-465q-8 0 -11.5 3t-3.5 12v22q0 17 14 17q45 0 58 7t13 34v148h-233l-57 -142q-9 -22 -9 -31t7.5 -12t25.5 -4h22q16 -1 16 -18v-19q0 -17 -16 -17
h-187q-9 0 -12 2.5t-3 12.5v25q0 8 2.5 11t12.5 3l33 1q14 0 22.5 9t23.5 45l233 572q13 30 21 35.5t37 5.5h439q28 0 35.5 -7t9.5 -40l7 -99q1 -9 0.5 -14.5t-3.5 -7.5t-11 -2h-24q-11 0 -15.5 4t-5.5 18l-4 47q-3 33 -18 40t-67 7h-210v-286h147q23 0 26 29l1 41
q1 10 4 12.5t14 2.5h18q15 0 15 -17v-190q0 -17 -15 -17h-18q-10 0 -13.5 3t-4.5 12l-1 41q-3 30 -26 30zM375 648l-143 -351h211v370h-43q-18 0 -25 -19zM445 803l-6 11q-6 12 8 20l133 70q20 11 26 1l20 -31q10 -14 -10 -21l-146 -53q-19 -8 -25 3z" />
    <glyph glyph-name="aeacute" unicode="&#x1fd;" horiz-adv-x="886" 
d="M629 544q105 0 162.5 -49.5t57.5 -137.5q0 -79 -56.5 -123t-170.5 -44q-92 0 -167 26q18 -172 187 -172q54 0 95 12q12 4 37.5 13t28.5 10q11 2 11 -9v-28q0 -10 -3 -14t-15 -9q-69 -32 -156 -32q-184 0 -238 138q-16 -56 -68.5 -93.5t-136.5 -37.5q-157 0 -157 138
q0 94 71 133.5t216 39.5h52v43q0 81 -29.5 112t-99.5 31q-87 0 -120 -38q30 -11 30 -45q0 -21 -15 -35.5t-34 -14.5t-32 13t-13 35v4q1 73 47 103.5t135 30.5q73 0 118 -21t65 -71q67 92 198 92zM629 490q-87 0 -130.5 -59t-45.5 -163q80 -26 159 -26q168 0 168 120
q0 60 -40.5 94t-110.5 34zM110 133q0 -86 97 -86q75 0 123.5 45.5t48.5 123.5v37h-52q-112 0 -164.5 -27.5t-52.5 -92.5zM455 667l-6 11q-6 12 8 20l133 70q20 11 26 1l20 -31q10 -14 -10 -21l-146 -53q-19 -8 -25 3z" />
    <glyph glyph-name="Oslashacute" unicode="&#x1fe;" horiz-adv-x="779" 
d="M200 -2l12 28q-86 45 -126.5 133.5t-40.5 197.5q0 55 9.5 105.5t34.5 101t63 87t99 59.5t138 23q56 0 113 -15l7 17q8 19 18 17l49 -10q13 -3 4 -22l-12 -28q85 -45 125.5 -133t40.5 -196q0 -55 -9.5 -105.5t-34.5 -101t-62.5 -87t-98.5 -59.5t-139 -23q-61 0 -112 14
l-9 -21q-4 -10 -7.5 -13t-9.5 -1l-48 11q-7 2 -8 5.5t4 15.5zM388 677q-75 0 -129.5 -28.5t-83.5 -76.5t-42 -100.5t-13 -110.5q0 -84 27.5 -158.5t89.5 -116.5l242 578q-44 13 -91 13zM659 358q0 81 -27.5 156.5t-88.5 118.5l-242 -577q42 -13 91 -13q77 0 132 29.5t83 79
t40 100t12 106.5zM348 803l-6 11q-6 12 8 20l133 70q20 11 26 1l20 -31q10 -14 -10 -21l-146 -53q-19 -8 -25 3z" />
    <glyph glyph-name="oslashacute" unicode="&#x1ff;" horiz-adv-x="569" 
d="M106 -67l38 90q-101 68 -101 243q0 126 57.5 202t178.5 76q41 0 79 -11l38 91q4 10 7 13.5t10 2.5l45 -10q12 -3 4 -20l-44 -105q98 -68 98 -239q0 -126 -58 -202.5t-179 -76.5q-38 0 -75 10l-33 -81q-7 -16 -16 -13l-45 10q-11 2 -4 20zM279 490q-163 0 -163 -224
q0 -129 53 -183l167 398q-26 9 -57 9zM443 266q0 122 -51 179l-166 -397q22 -7 53 -7q164 0 164 225zM244 668l-6 11q-6 12 8 20l133 70q20 11 26 1l20 -31q10 -14 -10 -21l-146 -53q-19 -8 -25 3z" />
    <glyph glyph-name="Scommaaccent" unicode="&#x218;" horiz-adv-x="569" 
d="M37 145q0 24 16.5 39t39.5 15q22 0 37.5 -14.5t15.5 -39.5q0 -39 -36 -50q43 -53 162 -53q177 0 177 140q0 43 -16.5 74t-44 48t-62.5 31t-71 23t-71 25t-62.5 35t-44 54t-16.5 82q0 178 225 178q103 0 160 -37t65 -103q3 -8 3 -17q0 -26 -16.5 -40t-40.5 -14
q-23 0 -38 14t-15 39q0 36 34 50q-43 53 -152 53q-153 0 -153 -114q0 -42 21.5 -70t55.5 -43.5t75.5 -28t83 -28t75.5 -38t55.5 -65t21.5 -101.5q0 -107 -67.5 -154.5t-179.5 -47.5q-235 0 -237 157v1z" />
    <glyph glyph-name="scommaaccent" unicode="&#x219;" horiz-adv-x="478" 
d="M32 105q0 22 14.5 36.5t33.5 14.5t32.5 -13t13.5 -35q0 -20 -14 -36q38 -34 121 -34q135 0 135 96q0 42 -31 66t-76 35.5t-89.5 25.5t-75.5 48.5t-31 92.5q0 142 188 142q160 0 173 -102q2 -8 2 -13q0 -22 -14.5 -36t-34.5 -14t-32.5 13t-12.5 34q0 25 18 40
q-37 27 -104 27q-116 0 -116 -84q0 -42 31 -66t75.5 -35.5t89 -25.5t75.5 -48.5t31 -91.5q0 -81 -55.5 -118t-145.5 -37q-67 0 -116 20.5t-67 58.5q-18 13 -18 39zM193 -135q0 23 15 38.5t36 15.5q20 0 33.5 -15t13.5 -41q0 -72 -87 -146q-10 -9 -16 -2l-9 8q-7 9 4 17
q41 34 53 77q-19 2 -31 14.5t-12 33.5z" />
    <glyph glyph-name="dotlessj" unicode="&#x237;" horiz-adv-x="260" 
d="M-94 -145q0 21 14.5 35.5t33.5 14.5t32.5 -13t13.5 -35q0 -33 -29 -45q20 -14 48 -14q88 0 88 118v526q0 17 -5.5 24t-20.5 8h-47q-9 1 -11.5 4.5t-2.5 12.5v20q0 11 2.5 13.5t11.5 3.5l120 7q13 1 18 -5.5t5 -22.5v-578q0 -86 -37.5 -133.5t-113.5 -47.5q-56 0 -87 28
t-32 69q0 1 -0.5 4.5t-0.5 5.5z" />
    <glyph glyph-name="circumflex" unicode="&#x2c6;" horiz-adv-x="361" 
d="M216 699l-74 70l-73 -70q-14 -13 -27 -13h-30q-7 0 -10 2.5t-1.5 7t6.5 9.5l101 100q14 14 34 14t34 -14l102 -100q8 -7 6.5 -13t-11.5 -6h-30q-14 0 -27 13z" />
    <glyph glyph-name="caron" unicode="&#x2c7;" horiz-adv-x="832" 
d="M68 806l75 -71l72 71q14 13 28 13h29q11 0 12 -5.5t-7 -13.5l-101 -100q-13 -14 -33 -14q-21 0 -35 14l-101 100q-5 5 -6.5 9.5t1.5 7t10 2.5h29q13 0 27 -13z" />
    <glyph glyph-name="breve" unicode="&#x2d8;" horiz-adv-x="304" 
d="M137 727q67 0 67 49q0 11 11 11h33q11 0 11 -13q0 -46 -33.5 -72t-88.5 -26q-58 0 -89 26t-31 73q0 12 11 12h33q11 0 11 -10q0 -50 65 -50z" />
    <glyph glyph-name="dotaccent" unicode="&#x2d9;" horiz-adv-x="243" 
d="M62 757q0 26 17 43t39 17t37.5 -15.5t15.5 -40.5t-17 -41t-40 -16q-22 0 -37 14.5t-15 38.5z" />
    <glyph glyph-name="ring" unicode="&#x2da;" horiz-adv-x="303" 
d="M151 602q-46 0 -75.5 23t-29.5 60t29 59.5t76 22.5q48 0 77 -22.5t29 -59.5t-29 -60t-77 -23zM151 638q24 0 40 12.5t16 34.5q0 21 -16 34.5t-40 13.5q-23 0 -38.5 -13.5t-15.5 -34.5q0 -22 15.5 -34.5t38.5 -12.5z" />
    <glyph glyph-name="ogonek" unicode="&#x2db;" horiz-adv-x="311" 
d="M140 10h54q-87 -41 -87 -106q0 -43 48 -43q26 0 47 11q20 10 25 -3l6 -15q4 -12 -9 -21q-32 -21 -78 -21q-45 0 -72.5 20t-27.5 61q0 68 94 117z" />
    <glyph glyph-name="tilde" unicode="&#x2dc;" horiz-adv-x="345" 
d="M198 737q28 0 30 33q2 7 9 7h28q8 0 8 -9q0 -81 -74 -81q-41 0 -58 26q-1 1 -2 3l-1.5 3l-1.5 3t-2 3t-2.5 2l-3 2t-4 1.5l-5 1t-5.5 0.5q-27 0 -29 -33q-1 -8 -10 -8h-26q-9 0 -9 10q0 38 19 59t55 21q38 0 55 -30q9 -14 29 -14z" />
    <glyph glyph-name="hungarumlaut" unicode="&#x2dd;" horiz-adv-x="552" 
d="M74 631l-11 10q-7 8 5 18l118 89q18 13 27 4l28 -23q7 -6 6 -10.5t-13 -11.5l-134 -74q-19 -10 -26 -2zM216 631l-10 10q-8 8 5 17l117 90q18 13 27 4l28 -22q7 -7 6 -11.5t-13 -10.5l-134 -76q-18 -9 -26 -1z" />
    <glyph glyph-name="Wgrave" unicode="&#x1e80;" horiz-adv-x="996" 
d="M168 622l148 -551l144 626q4 17 6.5 21t10.5 4h53q8 0 10.5 -4t7.5 -22l160 -604l137 528q8 33 -0.5 40.5t-53.5 7.5q-16 0 -16 14v27q0 9 2.5 11t13.5 2h185q9 0 12 -2.5t3 -11.5v-25q0 -15 -15 -15q-41 0 -51.5 -8t-21.5 -46l-162 -603q-3 -12 -7.5 -15t-16.5 -3h-40
q-11 0 -15.5 4t-7.5 14l-156 598l-138 -598q-3 -12 -7 -15.5t-16 -3.5h-56q-17 0 -22 19l-169 609q-10 35 -20 41.5t-50 6.5q-12 0 -15.5 3.5t-3.5 13.5v24q0 8 2.5 10.5t10.5 2.5h208q9 0 11.5 -2.5t2.5 -10.5v-28q0 -13 -12 -13q-39 0 -50.5 -2.5t-11.5 -14.5q0 -9 6 -29z
M513 821l-6 -13q-5 -10 -25 -3l-143 52q-22 8 -13 22l19 31q7 10 27 -1l134 -68q14 -7 7 -20z" />
    <glyph glyph-name="wgrave" unicode="&#x1e81;" horiz-adv-x="886" 
d="M166 440l113 -387l125 446q5 19 8.5 23t13.5 4h43q9 0 12 -5t9 -24l130 -442l104 368q9 35 7.5 41t-21.5 8l-37 1q-9 1 -11.5 3.5t-2.5 9.5v26q0 9 2.5 11.5t11.5 2.5h194q13 0 13 -11v-26q0 -16 -13 -17h-36q-19 -1 -26 -9t-18 -48l-127 -408q-3 -10 -8 -12.5t-24 -2.5
h-42q-16 0 -21 14l-127 418l-121 -417q-2 -9 -6.5 -12t-16.5 -3h-49q-14 0 -19 14l-136 432q-7 23 -17 28t-43 6q-11 1 -14.5 4t-3.5 11v26q0 13 14 13h194q12 0 12 -13v-26q0 -14 -11 -14q-48 -1 -55 -5.5t0 -27.5zM461 710l-6 -13q-5 -10 -25 -3l-143 52q-22 8 -13 22
l19 31q7 10 27 -1l134 -68q14 -7 7 -20z" />
    <glyph glyph-name="Wacute" unicode="&#x1e82;" horiz-adv-x="996" 
d="M168 622l148 -551l144 626q4 17 6.5 21t10.5 4h53q8 0 10.5 -4t7.5 -22l160 -604l137 528q8 33 -0.5 40.5t-53.5 7.5q-16 0 -16 14v27q0 9 2.5 11t13.5 2h185q9 0 12 -2.5t3 -11.5v-25q0 -15 -15 -15q-41 0 -51.5 -8t-21.5 -46l-162 -603q-3 -12 -7.5 -15t-16.5 -3h-40
q-11 0 -15.5 4t-7.5 14l-156 598l-138 -598q-3 -12 -7 -15.5t-16 -3.5h-56q-17 0 -22 19l-169 609q-10 35 -20 41.5t-50 6.5q-12 0 -15.5 3.5t-3.5 13.5v24q0 8 2.5 10.5t10.5 2.5h208q9 0 11.5 -2.5t2.5 -10.5v-28q0 -13 -12 -13q-39 0 -50.5 -2.5t-11.5 -14.5q0 -9 6 -29z
M458 803l-6 11q-6 12 8 20l133 70q20 11 26 1l20 -31q10 -14 -10 -21l-146 -53q-19 -8 -25 3z" />
    <glyph glyph-name="wacute" unicode="&#x1e83;" horiz-adv-x="886" 
d="M166 440l113 -387l125 446q5 19 8.5 23t13.5 4h43q9 0 12 -5t9 -24l130 -442l104 368q9 35 7.5 41t-21.5 8l-37 1q-9 1 -11.5 3.5t-2.5 9.5v26q0 9 2.5 11.5t11.5 2.5h194q13 0 13 -11v-26q0 -16 -13 -17h-36q-19 -1 -26 -9t-18 -48l-127 -408q-3 -10 -8 -12.5t-24 -2.5
h-42q-16 0 -21 14l-127 418l-121 -417q-2 -9 -6.5 -12t-16.5 -3h-49q-14 0 -19 14l-136 432q-7 23 -17 28t-43 6q-11 1 -14.5 4t-3.5 11v26q0 13 14 13h194q12 0 12 -13v-26q0 -14 -11 -14q-48 -1 -55 -5.5t0 -27.5zM406 693l-6 11q-6 12 8 20l133 70q20 11 26 1l20 -31
q10 -14 -10 -21l-146 -53q-19 -8 -25 3z" />
    <glyph glyph-name="Wdieresis" unicode="&#x1e84;" horiz-adv-x="996" 
d="M168 622l148 -551l144 626q4 17 6.5 21t10.5 4h53q8 0 10.5 -4t7.5 -22l160 -604l137 528q8 33 -0.5 40.5t-53.5 7.5q-16 0 -16 14v27q0 9 2.5 11t13.5 2h185q9 0 12 -2.5t3 -11.5v-25q0 -15 -15 -15q-41 0 -51.5 -8t-21.5 -46l-162 -603q-3 -12 -7.5 -15t-16.5 -3h-40
q-11 0 -15.5 4t-7.5 14l-156 598l-138 -598q-3 -12 -7 -15.5t-16 -3.5h-56q-17 0 -22 19l-169 609q-10 35 -20 41.5t-50 6.5q-12 0 -15.5 3.5t-3.5 13.5v24q0 8 2.5 10.5t10.5 2.5h208q9 0 11.5 -2.5t2.5 -10.5v-28q0 -13 -12 -13q-39 0 -50.5 -2.5t-11.5 -14.5q0 -9 6 -29z
M370 843q0 23 14.5 38t34.5 15t33.5 -13.5t13.5 -36.5q0 -21 -15 -35.5t-35 -14.5t-33 13t-13 34zM530 843q0 23 14.5 38t35.5 15q20 0 33 -13.5t13 -36.5q0 -21 -15 -35.5t-35 -14.5t-33 13t-13 34z" />
    <glyph glyph-name="wdieresis" unicode="&#x1e85;" horiz-adv-x="886" 
d="M166 440l113 -387l125 446q5 19 8.5 23t13.5 4h43q9 0 12 -5t9 -24l130 -442l104 368q9 35 7.5 41t-21.5 8l-37 1q-9 1 -11.5 3.5t-2.5 9.5v26q0 9 2.5 11.5t11.5 2.5h194q13 0 13 -11v-26q0 -16 -13 -17h-36q-19 -1 -26 -9t-18 -48l-127 -408q-3 -10 -8 -12.5t-24 -2.5
h-42q-16 0 -21 14l-127 418l-121 -417q-2 -9 -6.5 -12t-16.5 -3h-49q-14 0 -19 14l-136 432q-7 23 -17 28t-43 6q-11 1 -14.5 4t-3.5 11v26q0 13 14 13h194q12 0 12 -13v-26q0 -14 -11 -14q-48 -1 -55 -5.5t0 -27.5zM318 733q0 23 14.5 38t34.5 15t33.5 -13.5t13.5 -36.5
q0 -21 -15 -35.5t-35 -14.5t-33 13t-13 34zM478 733q0 23 14.5 38t35.5 15q20 0 33 -13.5t13 -36.5q0 -21 -15 -35.5t-35 -14.5t-33 13t-13 34z" />
    <glyph glyph-name="Ygrave" unicode="&#x1ef2;" horiz-adv-x="624" 
d="M276 291l-180 335q-14 26 -23.5 33.5t-25.5 7.5h-27q-10 0 -13.5 3.5t-3.5 13.5v23q0 9 3 12t12 3h193q9 0 12.5 -3t3.5 -12v-22q0 -10 -3 -13.5t-13 -3.5h-26q-18 0 -21 -5t7 -25l143 -283l154 284q9 20 6 24.5t-19 4.5h-25q-16 0 -16 18v22q0 9 3.5 11.5t12.5 2.5h176
q14 0 14 -15v-22q0 -10 -3 -13.5t-13 -3.5h-28q-14 0 -20.5 -5.5t-21.5 -31.5l-185 -324v-220q1 -20 9 -26.5t28 -6.5h33q10 0 12.5 -2.5t2.5 -10.5v-26q0 -15 -15 -15h-212q-9 0 -12 3t-3 11v26q0 8 3 11t12 3h33q19 0 27 7t9 27v203zM336 821l-6 -13q-5 -10 -25 -3
l-143 52q-22 8 -13 22l19 31q7 10 27 -1l134 -68q14 -7 7 -20z" />
    <glyph glyph-name="ygrave" unicode="&#x1ef3;" horiz-adv-x="601" 
d="M173 438l133 -376l132 375q8 23 2.5 29t-31.5 6h-22q-14 0 -14 14v25q0 10 3 12.5t13 2.5h190q10 0 12.5 -3t2.5 -12v-22q0 -16 -16 -16h-27q-22 0 -30 -6.5t-18 -33.5l-195 -540q-30 -79 -69.5 -110.5t-97.5 -31.5q-45 0 -76 22t-35 60v8q0 21 14.5 35.5t33.5 14.5
t32.5 -13t13.5 -35q0 -26 -23 -42q16 -8 37 -8q36 0 62.5 24.5t49.5 85.5l25 71l-177 460q-11 26 -17.5 32t-29.5 6h-26q-15 0 -15 15v25q0 9 3 11.5t12 2.5h204q9 0 12 -2.5t3 -12.5v-23q0 -15 -15 -15h-34q-22 0 -26 -6.5t4 -28.5zM323 685l-6 -13q-5 -10 -25 -3l-143 52
q-22 8 -13 22l19 31q7 10 27 -1l134 -68q14 -7 7 -20z" />
    <glyph glyph-name="thinspace" unicode="&#x2009;" horiz-adv-x="27" 
 />
    <glyph glyph-name="endash" unicode="&#x2013;" horiz-adv-x="521" 
d="M447 286h-373q-11 0 -11 11v32q0 11 11 11h374q11 0 11 -11v-32q0 -11 -12 -11z" />
    <glyph glyph-name="emdash" unicode="&#x2014;" horiz-adv-x="841" 
d="M767 286h-693q-11 0 -11 11v32q0 11 11 11h694q11 0 11 -11v-32q0 -11 -12 -11z" />
    <glyph glyph-name="quoteleft" unicode="&#x2018;" horiz-adv-x="221" 
d="M157 554q0 -26 -15.5 -42.5t-40.5 -16.5q-23 0 -37.5 16t-14.5 46q0 77 93 158q12 10 20 2l8 -8q7 -8 -4 -18q-45 -38 -55 -84q21 -1 33.5 -15t12.5 -38z" />
    <glyph glyph-name="quoteright" unicode="&#x2019;" horiz-adv-x="220" 
d="M70 664q0 26 15.5 42.5t40.5 16.5q23 0 37.5 -16t14.5 -46q0 -77 -93 -158q-12 -10 -20 -2l-8 8q-7 8 4 18q45 38 55 84q-21 1 -33.5 15t-12.5 38z" />
    <glyph glyph-name="quotesinglbase" unicode="&#x201a;" horiz-adv-x="256" 
d="M76 43q0 26 15.5 42.5t40.5 16.5q23 0 37.5 -16t14.5 -46q0 -77 -93 -158q-12 -10 -20 -2l-8 8q-7 8 4 18q45 38 55 84q-21 1 -33.5 15t-12.5 38z" />
    <glyph glyph-name="quotedblleft" unicode="&#x201c;" horiz-adv-x="372" 
d="M157 554q0 -26 -15.5 -42.5t-40.5 -16.5q-23 0 -37.5 16t-14.5 46q0 77 93 158q12 10 20 2l8 -8q7 -8 -4 -18q-45 -38 -55 -84q21 -1 33.5 -15t12.5 -38zM309 554q0 -26 -15.5 -42.5t-40.5 -16.5q-23 0 -37.5 16t-14.5 46q0 77 93 158q12 10 20 2l8 -8q7 -8 -4 -18
q-45 -38 -55 -84q21 -1 33.5 -15t12.5 -38z" />
    <glyph glyph-name="quotedblright" unicode="&#x201d;" horiz-adv-x="373" 
d="M70 664q0 26 15.5 42.5t40.5 16.5q23 0 37.5 -16t14.5 -46q0 -77 -93 -158q-12 -10 -20 -2l-8 8q-7 8 4 18q45 38 55 84q-21 1 -33.5 15t-12.5 38zM222 664q0 26 15.5 42.5t40.5 16.5q23 0 37.5 -16t14.5 -46q0 -77 -93 -158q-12 -10 -20 -2l-8 8q-7 8 4 18q45 38 55 84
q-21 1 -33.5 15t-12.5 38z" />
    <glyph glyph-name="quotedblbase" unicode="&#x201e;" horiz-adv-x="422" 
d="M76 43q0 26 15.5 42.5t40.5 16.5q23 0 37.5 -16t14.5 -46q0 -77 -93 -158q-12 -10 -20 -2l-8 8q-7 8 4 18q45 38 55 84q-21 1 -33.5 15t-12.5 38zM242 43q0 26 15.5 42.5t40.5 16.5q23 0 37.5 -16t14.5 -46q0 -77 -93 -158q-12 -10 -20 -2l-8 8q-7 8 4 18q45 38 55 84
q-21 1 -33.5 15t-12.5 38z" />
    <glyph glyph-name="dagger" unicode="&#x2020;" horiz-adv-x="560" 
d="M314 299q-11 -175 -11 -292q0 -35 1 -70t1 -41q0 -18 -24 -18q-25 0 -25 18q0 6 1 41.5t1 70.5q0 117 -11 291q16 48 16 147v41q-41 0 -97.5 -8.5t-90.5 -8.5q-46 0 -46 37q0 27 42 27q41 0 96 -8t96 -8v6q0 31 -8.5 82.5t-8.5 83.5q0 23 9.5 38.5t24.5 15.5q16 0 26 -16
t10 -39q0 -31 -9.5 -82t-9.5 -83v-6q38 0 90 8t90 8q55 0 55 -29q0 -35 -56 -35q-30 0 -84 8.5t-95 8.5q0 -7 0.5 -34t0.5 -35.5t1 -30.5t2.5 -33t5 -26.5t7.5 -28.5z" />
    <glyph glyph-name="daggerdbl" unicode="&#x2021;" horiz-adv-x="613" 
d="M340 299h-67q16 -48 16 -147v-41q-41 0 -97.5 8.5t-90.5 8.5q-46 0 -46 -37q0 -27 42 -27t97 7.5t95 8.5v-6q0 -31 -8.5 -82.5t-8.5 -83.5q0 -23 9.5 -38.5t24.5 -15.5q16 0 26 16t10 39q0 31 -9.5 82t-9.5 83v6q37 -1 89 -8.5t91 -7.5q55 0 55 29q0 35 -56 35
q-30 0 -84 -8.5t-95 -8.5q0 7 0.5 34t0.5 35.5t1 30.5t2.5 33t5 26.5t7.5 28.5zM340 299h-67q16 48 16 147v41q-41 0 -97.5 -8.5t-90.5 -8.5q-46 0 -46 37q0 27 42 27q41 0 96 -8t96 -8v6q0 31 -8.5 82.5t-8.5 83.5q0 23 9.5 38.5t24.5 15.5q16 0 26 -16t10 -39
q0 -31 -9.5 -82t-9.5 -83v-6q38 0 90 8t90 8q55 0 55 -29q0 -35 -56 -35q-30 0 -84 8.5t-95 8.5q0 -7 0.5 -34t0.5 -35.5t1 -30.5t2.5 -33t5 -26.5t7.5 -28.5z" />
    <glyph glyph-name="bullet" unicode="&#x2022;" horiz-adv-x="308" 
d="M82 356q0 34 22.5 57t53.5 23q29 0 48.5 -20.5t19.5 -54.5q0 -35 -23 -58t-53 -23q-29 0 -48.5 21t-19.5 55z" />
    <glyph glyph-name="ellipsis" unicode="&#x2026;" horiz-adv-x="807" 
d="M59 43q0 25 16.5 42t39.5 17t38 -15t15 -40t-17 -41t-40 -16q-22 0 -37 14.5t-15 38.5zM349 43q0 25 16.5 42t39.5 17t38 -15t15 -40t-17 -41t-40 -16q-22 0 -37 14.5t-15 38.5zM639 43q0 25 16.5 42t39.5 17t38 -15t15 -40t-17 -41t-40 -16q-22 0 -37 14.5t-15 38.5z
" />
    <glyph glyph-name="perthousand" unicode="&#x2030;" horiz-adv-x="1316" 
d="M31 529q0 92 42 150t131 58q88 0 131 -58.5t43 -149.5t-43 -150t-131 -59q-89 0 -131 58.5t-42 150.5zM204 688q-51 0 -78.5 -45t-27.5 -115q0 -71 26 -115t80 -44q106 0 106 159q0 71 -26.5 115.5t-79.5 44.5zM521 200q0 92 42 150t131 58q88 0 131 -58.5t43 -149.5
t-43 -150t-131 -59q-89 0 -131 58.5t-42 150.5zM694 359q-51 0 -78.5 -45t-27.5 -115q0 -71 26 -115t80 -44q106 0 106 159q0 71 -26.5 115.5t-79.5 44.5zM938 200q0 91 42.5 149.5t130.5 58.5q89 0 131.5 -58t42.5 -150t-42.5 -150.5t-131.5 -58.5q-88 0 -130.5 58.5
t-42.5 150.5zM1111 359q-51 0 -78 -45t-27 -115q0 -71 26 -115t79 -44q107 0 107 159q0 71 -26.5 115.5t-80.5 44.5zM190 51l474 684q11 17 25 13q7 0 17 -7t12 -15q6 -10 -8 -29l-473 -683q-13 -18 -30 -12q-23 8 -24 23q-4 10 7 26z" />
    <glyph glyph-name="guilsinglleft" unicode="&#x2039;" horiz-adv-x="444" 
d="M383 67q18 -14 18 -25q0 -15 -20 -15h-33q-12 0 -26 9l-262 190q-19 14 -25.5 24t-6.5 27t6.5 26.5t25.5 24.5l262 190q14 9 26 9h33q20 0 20 -16q0 -10 -18 -24l-292 -210z" />
    <glyph glyph-name="guilsinglright" unicode="&#x203a;" horiz-adv-x="444" 
d="M60 67l292 210l-292 210q-18 14 -18 24q0 16 20 16h33q12 0 26 -9l262 -190q19 -15 25.5 -24.5t6.5 -26.5t-6.5 -27t-25.5 -24l-262 -190q-14 -9 -26 -9h-33q-20 0 -20 15q0 11 18 25z" />
    <glyph glyph-name="fraction" unicode="&#x2044;" horiz-adv-x="440" 
d="M-41 51l474 684q11 17 25 13q7 0 17 -7t12 -15q6 -10 -8 -29l-473 -683q-13 -18 -30 -12q-23 8 -24 23q-4 10 7 26z" />
    <glyph glyph-name="zerosuperior" unicode="&#x2070;" horiz-adv-x="372" 
d="M186 413q-78 0 -121 58.5t-43 149.5q0 90 43 147t121 57q79 0 121 -56.5t42 -147.5q0 -92 -42.5 -150t-120.5 -58zM289 625q0 76 -26 118t-77 42q-50 0 -76.5 -42.5t-26.5 -118.5q0 -82 27 -127t76 -45q50 0 76.5 45t26.5 128z" />
    <glyph glyph-name="foursuperior" unicode="&#x2074;" horiz-adv-x="313" 
d="M10 541l192 267q6 9 16 9h40q18 0 4 -18l-185 -256h107v74q0 8 9 8h41q8 0 8 -8v-74h43q12 0 12 -9v-22q0 -9 -11 -9h-44v-23q1 -12 6 -16t18 -4h13q10 0 10 -8v-22q0 -10 -10 -10h-130q-11 0 -11 9v23q0 8 11 8h12q13 0 18 5.5t5 20.5v17h-165q-7 0 -9 1.5t-2 9.5v17
q0 8 2 10z" />
    <glyph glyph-name="fivesuperior" unicode="&#x2075;" horiz-adv-x="313" 
d="M195 772h-90l-17 -111q38 5 70 5q134 0 134 -119q0 -134 -163 -134q-70 0 -101 11q-9 3 -9 12v26q0 6 2 8t5 1q1 0 9 -2t17.5 -4t27 -4t36.5 -2q58 0 87 20t29 66q0 80 -96 80q-12 0 -41 -2t-34 -2q-1 0 -6 -1.5t-8 -1.5q-13 0 -10 21l25 169q1 9 13 9h171q15 0 19 -4
t5 -21l3 -58q0 -12 -8 -12h-20q-8 0 -10 12l-3 15q-3 16 -9.5 19.5t-27.5 3.5z" />
    <glyph glyph-name="sixsuperior" unicode="&#x2076;" horiz-adv-x="328" 
d="M169 414q-80 0 -112.5 47t-32.5 139q0 223 178 223q48 0 72 -8q6 -2 7 -3t1 -6v-2v-29q0 -4 -1.5 -6t-4.5 -2t-7 1q-34 7 -57 7q-68 0 -98 -39.5t-33 -126.5q22 70 103 70q58 0 93 -33t35 -97q0 -69 -38 -102t-105 -33zM171 457q36 0 58 22.5t22 67.5q0 40 -21 63t-58 23
t-59.5 -24t-22.5 -65q0 -40 21 -63.5t60 -23.5z" />
    <glyph glyph-name="sevensuperior" unicode="&#x2077;" horiz-adv-x="284" 
d="M39 817h235q7 0 7 -8v-13q0 -17 -13 -46l-152 -320q-4 -10 -14 -10h-44q-5 0 -7.5 3t0.5 7l166 342h-115q-26 0 -34 -3.5t-9 -16.5l-2 -27q-1 -9 -10 -9h-25q-8 0 -8 10l3 71q1 14 5 17t17 3z" />
    <glyph glyph-name="eightsuperior" unicode="&#x2078;" horiz-adv-x="344" 
d="M173 823q58 0 90.5 -26t32.5 -76q0 -58 -46 -81q30 -11 51.5 -37.5t21.5 -70.5q0 -61 -41.5 -90t-108.5 -29q-68 0 -109.5 29t-41.5 90q0 80 72 108q-45 22 -45 81q0 49 33 75.5t91 26.5zM82 533q0 -39 25 -58t66 -19q40 0 64.5 19t24.5 58q0 34 -21 57t-64 24h-9
q-44 -1 -65 -24t-21 -57zM173 782q-31 0 -49 -15.5t-18 -46.5q0 -30 18 -45.5t49 -15.5q28 0 47 15.5t19 46.5q0 30 -18 45.5t-48 15.5z" />
    <glyph glyph-name="ninesuperior" unicode="&#x2079;" horiz-adv-x="333" 
d="M166 823q80 0 111 -49.5t31 -138.5q0 -114 -44 -167.5t-134 -53.5q-45 0 -86 11q-6 1 -6 7v33q0 9 11 7q40 -10 73 -10q66 0 95.5 38t33.5 123q-24 -65 -102 -65q-57 0 -92.5 34t-35.5 97q0 64 38.5 99t106.5 35zM165 780q-39 0 -61.5 -23.5t-22.5 -64.5q0 -40 22 -64
t57 -24q32 0 57 21t25 66q0 37 -18 63t-59 26z" />
    <glyph glyph-name="zeroinferior" unicode="&#x2080;" horiz-adv-x="372" 
d="M186 -307q-78 0 -121 58.5t-43 149.5q0 90 43 147t121 57q79 0 121 -56.5t42 -147.5q0 -92 -42.5 -150t-120.5 -58zM289 -95q0 76 -26 118t-77 42q-50 0 -76.5 -42.5t-26.5 -118.5q0 -82 27 -127t76 -45q50 0 76.5 45t26.5 128z" />
    <glyph glyph-name="oneinferior" unicode="&#x2081;" horiz-adv-x="211" 
d="M83 31q0 9 -2.5 10.5t-11.5 -1.5l-36 -12q-11 -3 -11 7v25q0 8 12 12l73 24q11 4 21 4q12 0 12 -16v-321q0 -15 7 -19t34 -4h12q7 0 8.5 -2t1.5 -7v-20q0 -7 -2 -9t-8 -2h-163q-6 0 -8 2t-2 9v20q0 4 0.5 5.5t2.5 2.5t7 1h10q27 0 35 4.5t8 18.5v268z" />
    <glyph glyph-name="twoinferior" unicode="&#x2082;" horiz-adv-x="320" 
d="M21 6q0 8 1 12q5 37 40.5 60.5t91.5 23.5q64 0 98 -30.5t34 -77.5q0 -57 -67 -124l-128 -130h118q24 0 31 5.5t13 23.5l4 36q3 10 12 10h19q11 0 9 -11l-8 -86q-1 -12 -4.5 -15t-14.5 -3h-237q-7 0 -9.5 2.5t-2.5 10.5v14q0 12 20 34l142 142q43 43 43 89
q0 30 -18.5 48.5t-57.5 18.5q-44 0 -70 -20q18 -11 18 -32q0 -17 -11.5 -27.5t-28.5 -10.5q-16 0 -26.5 10t-10.5 27z" />
    <glyph glyph-name="threeinferior" unicode="&#x2083;" horiz-adv-x="318" 
d="M27 17q2 39 36 62.5t89 23.5q59 0 90.5 -27.5t31.5 -76.5q0 -44 -20 -64.5t-47 -24.5q39 -4 63 -29t24 -71q0 -58 -40 -87.5t-109 -29.5q-76 0 -116 17q-6 4 -6 11v29q0 8 5 8q2 0 17 -5q50 -14 91 -14q97 0 97 73q0 38 -25 56t-63 18h-15q-8 0 -10 1.5t-2 8.5v27
q0 8 12 8h15q72 0 72 65q0 63 -69 63q-35 0 -59 -16q10 -12 10 -26q0 -16 -11 -26t-26 -10t-25 10t-10 26z" />
    <glyph glyph-name="fourinferior" unicode="&#x2084;" horiz-adv-x="313" 
d="M10 -179l192 267q6 9 16 9h40q18 0 4 -18l-185 -256h107v74q0 8 9 8h41q8 0 8 -8v-74h43q12 0 12 -9v-22q0 -9 -11 -9h-44v-23q1 -12 6 -16t18 -4h13q10 0 10 -8v-22q0 -10 -10 -10h-130q-11 0 -11 9v23q0 8 11 8h12q13 0 18 5.5t5 20.5v17h-165q-7 0 -9 1.5t-2 9.5v17
q0 8 2 10z" />
    <glyph glyph-name="fiveinferior" unicode="&#x2085;" horiz-adv-x="313" 
d="M195 52h-90l-17 -111q38 5 70 5q134 0 134 -119q0 -134 -163 -134q-70 0 -101 11q-9 3 -9 12v26q0 6 2 8t5 1q1 0 9 -2t17.5 -4t27 -4t36.5 -2q58 0 87 20t29 66q0 80 -96 80q-12 0 -41 -2t-34 -2q-1 0 -6 -1.5t-8 -1.5q-12 0 -10 21l21 169q1 9 13 9h175q15 0 19 -4
t5 -21l3 -58q0 -12 -8 -12h-20q-8 0 -10 12l-3 15q-3 16 -9.5 19.5t-27.5 3.5z" />
    <glyph glyph-name="sixinferior" unicode="&#x2086;" horiz-adv-x="328" 
d="M169 -306q-80 0 -112.5 47t-32.5 139q0 223 178 223q48 0 72 -8q8 -8 8 -11v-29q0 -4 -1.5 -6t-4.5 -2t-7 1q-34 7 -57 7q-68 0 -98 -39.5t-33 -126.5q22 70 103 70q58 0 93 -33t35 -97q0 -69 -38 -102t-105 -33zM171 -263q36 0 58 22.5t22 67.5q0 40 -21 63t-58 23
t-59.5 -24t-22.5 -65q0 -40 21 -63.5t60 -23.5z" />
    <glyph glyph-name="seveninferior" unicode="&#x2087;" horiz-adv-x="284" 
d="M39 97h235q7 0 7 -8v-13q0 -17 -13 -46l-152 -320q-4 -10 -14 -10h-44q-5 0 -7.5 3t0.5 7l166 342h-115q-26 0 -34 -3.5t-9 -16.5l-2 -27q-1 -9 -10 -9h-25q-8 0 -8 10l3 71q1 14 5 17t17 3z" />
    <glyph glyph-name="eightinferior" unicode="&#x2088;" horiz-adv-x="344" 
d="M173 103q58 0 90.5 -26t32.5 -76q0 -58 -46 -81q30 -11 51.5 -37.5t21.5 -70.5q0 -61 -41.5 -90t-108.5 -29q-68 0 -109.5 29t-41.5 90q0 80 72 108q-45 22 -45 81q0 49 33 75.5t91 26.5zM82 -187q0 -39 25 -58t66 -19q40 0 64.5 19t24.5 58q0 34 -21 57t-64 24h-9
q-44 -1 -65 -24t-21 -57zM173 62q-31 0 -49 -15.5t-18 -46.5q0 -30 18 -45.5t49 -15.5q28 0 47 15.5t19 46.5q0 30 -18 45.5t-48 15.5z" />
    <glyph glyph-name="nineinferior" unicode="&#x2089;" horiz-adv-x="333" 
d="M166 103q80 0 111 -49.5t31 -138.5q0 -114 -44 -167.5t-134 -53.5q-44 0 -86 10q-6 3 -6 9v32q0 9 11 7q40 -10 73 -10q66 0 95.5 38t33.5 123q-24 -65 -102 -65q-57 0 -92.5 34t-35.5 97q0 64 38.5 99t106.5 35zM165 60q-39 0 -61.5 -23.5t-22.5 -64.5q0 -40 22 -64
t57 -24q32 0 57 21t25 66q0 37 -18 63t-59 26z" />
    <glyph glyph-name="Euro" unicode="&#x20ac;" horiz-adv-x="787" 
d="M620 553q0 20 12.5 34t31.5 18q-48 69 -172 69q-125 0 -192.5 -73.5t-81.5 -193.5h305q20 0 20 -28q0 -26 -24 -26h-304v-4q0 -32 5 -69h238q20 0 20 -28q0 -25 -24 -25h-223q53 -179 266 -179q18 0 35.5 1t33.5 4t28.5 5t26.5 6.5t22.5 7t21.5 8t17.5 7.5t16 7.5
t12.5 6.5q11 6 16 7t8 -2t3 -13v-26q0 -14 -15 -23q-88 -55 -235 -55q-130 0 -218 59.5t-117 178.5h-98q-20 0 -20 27q0 17 6.5 21.5t22.5 4.5h79q-4 28 -4 69v4h-84q-20 0 -20 28q0 16 6.5 21t22.5 5h78q15 147 105 235.5t240 88.5q120 0 181.5 -53t61.5 -122v-3
q0 -25 -17 -39t-40 -14t-38 14t-15 39z" />
    <glyph glyph-name="trademark" unicode="&#x2122;" horiz-adv-x="941" 
d="M511 709l138 -373v-1l132 376q4 11 18 11h91q11 0 11 -11v-17q0 -12 -11 -13h-23q-18 0 -18 -22v-304q0 -16 3.5 -20t16.5 -4h22q12 0 12 -11v-21q0 -10 -12 -10h-137q-6 0 -8 1.5t-2 8.5v21q0 11 10 11h20q12 0 16.5 5t4.5 19v266l-112 -325q-3 -6 -5.5 -7.5t-12.5 -1.5
h-46q-11 0 -16 8l-124 337v-283q0 -12 5 -15t21 -3h17q7 0 9 -1.5t2 -7.5v-23q0 -7 -2 -8.5t-9 -1.5h-133q-6 0 -8 1.5t-2 8.5v22q0 6 1.5 8t8.5 2h17q15 0 20.5 3.5t5.5 14.5v305q-1 18 -7 22.5t-21 4.5l-9 1q-11 0 -11 9v20q0 7 2 9t9 2h101q9 0 15 -13zM160 678h-56
q-23 0 -29.5 -3t-7.5 -16l-3 -35q-2 -9 -13 -9h-22q-7 0 -9 2t-2 8l5 79q1 12 4.5 15t13.5 3h296q10 0 13 -3t4 -15l6 -79q0 -7 -1.5 -8.5t-9.5 -1.5h-22q-11 0 -13 10l-3 35q-2 13 -8.5 15.5t-32.5 2.5h-52v-320q0 -17 5.5 -22t20.5 -5h15q7 0 9 -1.5t2 -7.5v-22
q0 -11 -11 -11h-140q-10 0 -10 10v23q0 9 10 9h16q23 0 25 20v327z" />
    <glyph glyph-name="minus" unicode="&#x2212;" horiz-adv-x="523" 
d="M447 307h-373q-11 0 -11 11v32q0 11 11 11h374q11 0 11 -11v-32q0 -11 -12 -11z" />
    <glyph glyph-name="commaaccent" unicode="&#xf6c3;" horiz-adv-x="249" 
d="M64 -135q0 23 15 38.5t36 15.5q20 0 33.5 -15t13.5 -41q0 -72 -87 -146q-10 -9 -16 -2l-9 8q-7 9 4 17q41 34 53 77q-19 2 -31 14.5t-12 33.5z" />
    <glyph glyph-name="dollaroldstyle" unicode="&#xf724;" horiz-adv-x="482" 
d="M42 105q0 22 14.5 36.5t33.5 14.5t33 -13t14 -35q0 -24 -18 -39q38 -31 117 -31q135 0 135 96q0 42 -31 66t-76 35.5t-89.5 25.5t-75.5 48.5t-31 92.5q0 130 155 140v70q0 18 18 19h36q16 0 16 -18v-71q132 -12 137 -108v-5q0 -22 -14.5 -36t-34.5 -14q-19 0 -32 13
t-13 34q0 25 18 40q-37 27 -103 27q-117 0 -117 -84q0 -36 22.5 -59t56 -32.5t73 -22t73 -26.5t56 -46.5t22.5 -80.5q0 -74 -46 -110.5t-124 -43.5v-74q0 -17 -18 -18h-37q-15 0 -15 17v76q-126 13 -148 89q-7 10 -7 27z" />
    <glyph glyph-name="zerooldstyle" unicode="&#xf730;" horiz-adv-x="624" 
d="M45 266q0 126 65 202t202 76t202 -76t65 -202t-65 -202.5t-202 -76.5t-202 76.5t-65 202.5zM312 490q-195 0 -195 -224q0 -225 195 -225t195 225q0 224 -195 224z" />
    <glyph glyph-name="oneoldstyle" unicode="&#xf731;" horiz-adv-x="333" 
d="M140 150l-1 224v76q0 14 -3.5 16t-19.5 -3l-60 -19q-15 -4 -15 9v33q0 7 3.5 10.5t13.5 7.5l105 35q15 5 29 5q12 0 16 -5.5t4 -18.5v-127l1 -226v-83q0 -20 11.5 -25.5t50.5 -5.5h23q10 0 12.5 -2.5t2.5 -11.5v-22q0 -11 -3 -14t-12 -3h-243q-9 0 -12 3t-3 14v22
q0 8 3 11t12 3h23q38 0 50 6t12 25v66z" />
    <glyph glyph-name="twooldstyle" unicode="&#xf732;" horiz-adv-x="530" 
d="M47 409q0 58 60 96.5t155 38.5q97 0 150.5 -42.5t53.5 -107.5q0 -34 -11 -63t-43.5 -68.5t-98 -91t-169.5 -120.5h236q23 0 29.5 6t12.5 29l6 56q2 11 18 11h26q8 0 11 -3t2 -11l-12 -117q-1 -14 -6.5 -18t-20.5 -4h-381q-11 0 -15 3t-4 14v18q0 21 34 45
q136 93 205 152.5t87 92t18 71.5q0 41 -32.5 67t-96.5 26q-90 0 -135 -36q27 -13 27 -44q0 -22 -16 -35.5t-39 -13.5q-22 0 -36.5 13t-14.5 36z" />
    <glyph glyph-name="threeoldstyle" unicode="&#xf733;" horiz-adv-x="527" 
d="M56 411q0 61 55.5 97t145.5 36q96 0 148 -43t52 -117q0 -123 -120 -142q65 -6 106 -45.5t41 -108.5q0 -87 -65.5 -132t-174.5 -45q-122 0 -193 28q-8 3 -8 16v34q0 11 8 11q2 0 28 -7q71 -22 156 -22q86 0 132 30t46 89q0 63 -47.5 91.5t-121.5 28.5h-20q-11 0 -14 2.5
t-3 13.5v30q0 8 3.5 10.5t13.5 2.5h19q147 0 147 110q0 51 -33.5 80t-100.5 29q-72 0 -117 -33q22 -15 22 -43q0 -24 -16 -37.5t-38 -13.5t-36.5 13.5t-14.5 36.5z" />
    <glyph glyph-name="fouroldstyle" unicode="&#xf734;" horiz-adv-x="513" 
d="M11 50l338 480q10 14 25 14h38q26 0 7 -27l-323 -463h217v169q0 5 1 7t4.5 4t10.5 2h44q9 0 11.5 -2.5t2.5 -9.5v-170h85q17 0 17 -11v-30q0 -12 -16 -12h-86v-50q1 -19 8.5 -24.5t27.5 -5.5h31q9 0 12 -2.5t3 -10.5v-26q0 -15 -15 -15h-204q-16 0 -16 13v27q0 14 16 14
h30q18 0 25 5.5t8 22.5v52h-287q-11 0 -14 2.5t-3 10.5v24q0 8 3 12h-1z" />
    <glyph glyph-name="fiveoldstyle" unicode="&#xf735;" horiz-adv-x="514" 
d="M331 480h-166l-33 -184q75 9 128 9q213 0 213 -184q0 -207 -259 -207q-110 0 -164 18q-10 3 -12 6.5t-2 11.5v31q0 7 3 10.5t8 1.5q1 0 11.5 -3t21.5 -5.5t28 -5.5t40 -4.5t49 -1.5q99 0 150 34t51 111q0 71 -41.5 102t-120.5 31q-69 0 -130 -8q-14 -2 -25 -2t-14.5 6
t-0.5 25l40 252q3 15 21 15h271q24 0 31.5 -6.5t8.5 -31.5l4 -81q1 -17 -12 -17h-25q-13 0 -15 19l-4 26q-4 23 -13 27.5t-42 4.5z" />
    <glyph glyph-name="sixoldstyle" unicode="&#xf736;" horiz-adv-x="558" 
d="M286 -9q-129 0 -181 73.5t-52 214.5q0 344 283 344q72 0 115 -13q4 -1 6.5 -2t4.5 -1.5t2.5 -2t0.5 -2v-3.5v-4v-35q0 -9 -4.5 -10.5t-16.5 1.5q-60 10 -98 10q-113 0 -165 -67t-56 -207q20 60 70 86.5t113 26.5q93 0 149.5 -51.5t56.5 -149.5q0 -106 -61 -157t-167 -51z
M288 46q66 0 108.5 38t42.5 112q0 67 -39 106.5t-108 39.5t-110.5 -41t-41.5 -109q0 -66 38.5 -106t109.5 -40z" />
    <glyph glyph-name="sevenoldstyle" unicode="&#xf737;" horiz-adv-x="461" 
d="M67 544h374q11 0 11 -10v-19q0 -23 -18 -59l-259 -513q-7 -13 -20 -13h-54q-15 0 -9 13l279 542h-228q-33 0 -42.5 -4.5t-12.5 -24.5l-4 -43q-1 -14 -15 -14h-30q-11 0 -11 16l4 100q1 20 7 24.5t28 4.5z" />
    <glyph glyph-name="eightoldstyle" unicode="&#xf738;" horiz-adv-x="578" 
d="M289 622q92 0 144 -39.5t52 -114.5q0 -92 -82 -127q51 -16 88.5 -56.5t37.5 -111.5q0 -96 -66 -140t-174 -44t-174 44t-66 140q0 71 37 112t89 56q-82 34 -82 127q0 75 52 114.5t144 39.5zM125 173q0 -67 45 -98t119 -31t119 31t45 98q0 58 -38.5 95.5t-117.5 39.5h-17
q-78 -2 -116.5 -39.5t-38.5 -95.5zM289 570q-57 0 -90.5 -25.5t-33.5 -77.5t33.5 -77t90.5 -25q54 0 89 25t35 77q0 51 -33.5 77t-90.5 26z" />
    <glyph glyph-name="nineoldstyle" unicode="&#xf739;" horiz-adv-x="548" 
d="M272 544q67 0 113.5 -22.5t71 -64t34.5 -90t10 -111.5q0 -344 -290 -344q-70 0 -139 16q-8 2 -8 10v42q0 11 16 8q81 -15 124 -15q30 0 52.5 2.5t57.5 17.5t57.5 41.5t40 79t18.5 126.5q-38 -106 -171 -106q-100 0 -158 51.5t-58 149.5t60.5 153.5t168.5 55.5zM274 488
q-74 0 -115 -41t-41 -110q0 -67 39.5 -105.5t112.5 -38.5q63 0 105 34t42 113q0 72 -36.5 110t-106.5 38z" />
    <glyph glyph-name="J.001" horiz-adv-x="497" 
d="M28 134q0 25 16.5 40t39.5 15q22 0 37.5 -14.5t15.5 -39.5q0 -44 -43 -53q25 -44 94 -44q60 0 90 43.5t30 113.5v432q0 25 -6.5 33t-27.5 8h-35q-10 0 -13 2.5t-3 12.5v23q0 10 3.5 13t12.5 3h211q9 0 12.5 -3t3.5 -13v-23q0 -10 -3 -12.5t-13 -2.5h-36q-21 0 -27 -7.5
t-6 -33.5v-424q0 -98 -47.5 -155t-140.5 -57q-84 0 -124.5 41t-40.5 102z" />
    <glyph glyph-name="d.001" horiz-adv-x="581" 
d="M428 113q-29 -59 -73 -90.5t-114 -31.5q-95 0 -146 61t-51 181q0 83 24.5 151t81.5 114t138 46q95 0 140 -69v260q0 16 5 22.5t18 5.5l111 -7q23 -1 23 -19v-18q0 -18 -23 -17l-37 -1q-27 0 -27 -31v-651q0 -19 -12 -19h-40q-11 0 -11 15zM253 48q81 0 128 66t47 185v11
q-4 179 -131 179q-87 0 -134 -73t-47 -180q0 -88 34 -138t103 -50z" />
    <glyph glyph-name="g.001" horiz-adv-x="598" 
d="M61 -88q0 21 14.5 35.5t33.5 14.5t32.5 -13t13.5 -35q0 -34 -32 -46q31 -61 136 -61q169 0 169 219v87q-29 -59 -73 -90.5t-114 -31.5q-95 0 -146 61t-51 181q0 83 24.5 151t81.5 114t138 46q95 0 140 -69v32q0 15 5 21.5t19 6.5l115 -8q16 -1 16 -14v-27q0 -10 -15 -13
h-43q-16 -1 -21 -7.5t-6 -24.5v-403q0 -147 -62 -217t-175 -70q-86 0 -142.5 39.5t-57.5 117.5v4zM253 48q78 0 125 63t50 176v12q0 190 -131 190q-87 0 -134 -73t-47 -180q0 -88 34 -138t103 -50z" />
    <glyph glyph-name="l.ital" horiz-adv-x="260" 
d="M85 670q0 17 -5.5 24t-20.5 7l-47 1q-9 1 -11.5 4.5t-2.5 12.5v20q0 10 2.5 13t11.5 4l120 7q14 1 18.5 -5.5t4.5 -22.5v-642q0 -42 32 -42q6 0 36 5q7 3 10.5 1.5t3.5 -9.5v-27q0 -13 -13 -18q-27 -8 -57 -8q-82 0 -82 88v587z" />
    <glyph glyph-name="p.001" horiz-adv-x="603" 
d="M102 377h1v8h-1v57q0 22 -12 26t-60 4q-15 0 -15 14v25q0 15 15 16l118 7q14 0 19 -6.5t5 -21.5v-90q54 128 188 128q98 0 148 -64t50 -188q0 -133 -56.5 -216.5t-167.5 -83.5q-105 0 -162 83v-236q0 -21 8 -27.5t30 -6.5h36q9 0 12 -2.5t3 -10.5v-26q0 -9 -3 -12t-12 -3
h-218q-16 0 -16 15v26q0 8 3 10.5t13 2.5h36q22 0 30 6.5t8 27.5v538zM350 488q-86 0 -131 -74t-45 -177q0 -71 39.5 -129.5t106.5 -58.5q84 0 125 67t41 174q0 198 -136 198z" />
    <glyph glyph-name="t.001" horiz-adv-x="322" 
d="M47 523h49l24 133q2 16 31 16q13 0 16 -3t3 -13v-132h92q23 0 23 -18v-21q0 -18 -22 -18h-93v-375q0 -25 7.5 -35.5t28.5 -10.5q35 0 35 43q0 9 10 9h32q9 0 9 -12q-3 -45 -27 -71t-68 -26q-99 0 -99 102v376h-41q-20 0 -26.5 3.5t-6.5 16.5v19q0 17 23 17z" />
    <glyph glyph-name="b.001" horiz-adv-x="581" 
d="M130 0h-35q-7 0 -9.5 3t-2.5 11v656q0 17 -6 24t-21 7l-46 1q-9 1 -11.5 4.5t-2.5 12.5v20q0 10 2.5 13t11.5 4l119 7q14 1 19 -5.5t5 -22.5v-321q45 130 184 130q200 0 200 -232q0 -81 -23.5 -151.5t-78.5 -120t-133 -49.5q-47 0 -82.5 18.5t-49.5 36t-22 35.5l-5 -72
q-1 -9 -13 -9zM328 488q-77 0 -126 -62t-49 -188q0 -191 134 -191q48 0 84 24t55.5 64t29 84t9.5 92q0 177 -137 177z" />
    <glyph glyph-name="K.001" horiz-adv-x="677" 
d="M530 627l-191 -208l215 -300q28 -37 43 -51t32 -14h32q14 0 14 -15v-24q0 -9 -2.5 -12t-11.5 -3h-202q-9 0 -11.5 2.5t-2.5 12.5v20q0 17 14 18l29 1q16 1 15 7q0 6 -25 42l-187 264l-92 -100v-172q0 -25 8 -33t30 -8h33q10 0 12.5 -2.5t2.5 -10.5v-26q0 -15 -15 -15
h-212q-9 0 -12 3t-3 11v26q0 8 2.5 11t12.5 3h33q21 0 28.5 8t7.5 33v532q0 25 -7 33t-28 8h-35q-10 0 -12.5 2.5t-2.5 12.5v23q0 10 3 13t12 3h212q9 0 12 -3t3 -13v-23q0 -10 -2.5 -12.5t-12.5 -2.5h-36q-21 0 -27.5 -7.5t-6.5 -33.5v-284l271 296q11 11 13.5 17.5t-1 9
t-13.5 2.5h-28q-15 0 -15 21v17q0 10 3 13t12 3h200q9 0 11.5 -3t2.5 -13v-21q0 -17 -14 -17h-43q-30 0 -68 -41z" />
    <glyph glyph-name="percent.osf" horiz-adv-x="814" 
d="M182 48l424 575q11 15 23 13q8 -1 18 -7.5t11 -15.5q5 -9 -7 -26l-424 -574q-12 -16 -26 -11q-9 1 -17 7.5t-9 16.5q-3 8 7 22zM32 450q0 78 39 127t120 49q82 0 121 -49t39 -127t-39 -128t-121 -50q-81 0 -120 50t-39 128zM191 580q-45 0 -68 -36.5t-23 -94.5
q0 -59 22.5 -94.5t68.5 -35.5q94 0 94 130q0 58 -23.5 94.5t-70.5 36.5zM465 170q0 78 39.5 127.5t120.5 49.5t120.5 -49.5t39.5 -127.5t-39.5 -128t-120.5 -50t-120.5 50t-39.5 128zM625 300q-45 0 -68.5 -36.5t-23.5 -94.5t23 -94t69 -36q93 0 93 130q0 59 -23 95t-70 36z
" />
    <glyph glyph-name="ampersand.001" horiz-adv-x="663" 
d="M558 237q-1 -126 -75.5 -188t-194.5 -62q-107 0 -176 54t-69 158q0 74 41.5 122.5t101.5 63.5q-46 16 -76 56t-30 104q0 90 62.5 138.5t171.5 48.5q109 -2 172 -43.5t65 -120.5v-5q0 -25 -16.5 -39.5t-40.5 -14.5q-23 0 -37.5 14t-14.5 39q0 31 25 46q-28 67 -152 67
q-161 0 -161 -134q0 -49 31 -90t103 -41h25q11 0 13.5 -3.5t2.5 -13.5v-23q0 -17 -14 -17h-29q-81 0 -124.5 -44t-43.5 -105q0 -80 48.5 -119.5t121.5 -39.5q88 0 142.5 47t54.5 146v73q0 25 -6.5 33t-27.5 8h-35q-10 0 -13 2.5t-3 12.5v24q0 9 3.5 12t12.5 3h211
q9 0 12.5 -3t3.5 -12v-24q0 -10 -3 -12.5t-13 -2.5h-36q-21 0 -27 -7.5t-6 -33.5v-74z" />
    <glyph glyph-name="d.002" horiz-adv-x="571" 
d="M488 19q0 -19 -12 -19h-40q-10 0 -12 15l-5 76q-53 -104 -178 -104q-93 0 -145 65t-52 190q0 137 61.5 219t176.5 82q70 0 136 -44v171q0 31 -26 31l-47 1q-9 1 -11.5 4.5t-2.5 12.5v20q0 10 2.5 13t11.5 4l120 7q13 1 18 -5.5t5 -22.5v-716zM257 44q142 0 161 216v180
q-50 46 -128 46q-89 0 -131.5 -70t-42.5 -171q0 -88 34.5 -144.5t106.5 -56.5z" />
    <glyph glyph-name="x.bl" horiz-adv-x="558" 
d="M123 107l118 156l-124 178q-16 21 -26 27t-31 7h-23q-15 1 -15 14v24q0 9 3 11.5t12 2.5h206q8 0 11 -3t3 -12v-23q0 -14 -12 -14h-27q-30 0 -30 -6t15 -27l82 -121l94 123q18 20 16.5 25.5t-26.5 5.5h-16q-14 0 -14 14v23q0 15 14 15h175q8 0 10.5 -3t2.5 -12v-24
q0 -13 -14 -14h-23q-13 -1 -20 -3.5t-22 -16.5t-38 -44l-104 -140l106 -156q26 -37 40 -48.5t31 -12.5h30q13 0 13 -14v-25q0 -9 -3 -11.5t-12 -2.5h-187q-16 0 -16 15v21q0 10 3.5 13t12.5 3q36 0 40.5 4.5t-11.5 26.5l-90 129l-93 -124q-19 -26 -17.5 -30.5t24.5 -4.5h23
q14 -1 14 -13v-26q0 -14 -14 -14h-187q-9 0 -12 2.5t-3 11.5v23q0 15 14 16h24q33 1 73 54z" />
    <glyph glyph-name="w.bl" horiz-adv-x="886" 
d="M167 439l120 -385l117 445q5 19 8.5 23.5t13.5 4.5h44q9 0 12 -5t9 -25l122 -440l109 365q11 35 9 42t-21 8l-37 1q-9 1 -11.5 3.5t-2.5 9.5v26q0 9 2.5 12t11.5 3h195q13 0 13 -11v-26q0 -17 -13 -17l-36 -1q-18 -1 -25 -9t-21 -49l-133 -407q-3 -10 -8 -12.5t-23 -2.5
h-43q-17 0 -21 14l-120 417l-113 -416q-2 -9 -6 -12t-16 -3h-51q-14 0 -19 14l-143 431q-7 24 -17 29.5t-43 5.5q-11 0 -14.5 3t-3.5 12v27q0 13 14 13h195q12 0 12 -13v-27q0 -13 -11 -13q-46 -1 -54 -6t-1 -29z" />
    <glyph glyph-name="M.bl" horiz-adv-x="879" 
d="M231 701l220 -643l210 649q6 15 30 15h129q9 0 12 -3t3 -12v-21q0 -16 -15 -17l-58 -1q-7 0 -10 -1v-579q0 -21 5.5 -27.5t22.5 -6.5h42q10 0 13.5 -4t3.5 -14v-21q0 -9 -3.5 -12t-13.5 -3h-207q-9 0 -12.5 3t-3.5 12v21q0 18 16 18h38q18 0 24.5 7t6.5 27v507l-186 -582
q-5 -10 -9.5 -12.5t-18.5 -2.5h-52q-18 0 -24 14l-208 602v-536q0 -15 8 -19.5t30 -4.5h32q10 0 12.5 -2t2.5 -12v-25q0 -10 -3 -12.5t-12 -2.5h-201q-9 0 -12 2.5t-3 11.5v25q0 10 3 12.5t12 2.5h31q22 0 30.5 4.5t8.5 19.5v590q-8 0 -12 1h-52q-15 1 -15 15v23q0 9 3 12
t12 3h146q16 0 24 -21z" />
    </font>
</defs>
</svg>
